  0
SECTION
  2
HEADER
  9
$ACADVER
  1
AC1027
  9
$ACADMAINTVER
 70
105
  9
$DWGCODEPAGE
  3
ANSI_1252
  9
$LASTSAVEDBY
  1
ezdxf
  9
$REQUIREDVERSIONS
160
0
  9
$INSBASE
 10
0.0
 20
0.0
 30
0.0
  9
$EXTMIN
 10
1e+20
 20
1e+20
 30
1e+20
  9
$EXTMAX
 10
-1e+20
 20
-1e+20
 30
-1e+20
  9
$LIMMIN
 10
0.0
 20
0.0
  9
$LIMMAX
 10
420.0
 20
297.0
  9
$ORTHOMODE
 70
0
  9
$REGENMODE
 70
1
  9
$FILLMODE
 70
1
  9
$QTEXTMODE
 70
0
  9
$MIRRTEXT
 70
1
  9
$LTSCALE
 40
1.0
  9
$ATTMODE
 70
1
  9
$TEXTSIZE
 40
2.5
  9
$TRACEWID
 40
1.0
  9
$TEXTSTYLE
  7
Standard
  9
$CLAYER
  8
0
  9
$CELTYPE
  6
ByLayer
  9
$CECOLOR
 62
256
  9
$CELTSCALE
 40
1.0
  9
$DISPSILH
 70
0
  9
$DIMSCALE
 40
1.0
  9
$DIMASZ
 40
2.5
  9
$DIMEXO
 40
0.625
  9
$DIMDLI
 40
3.75
  9
$DIMRND
 40
0.0
  9
$DIMDLE
 40
0.0
  9
$DIMEXE
 40
1.25
  9
$DIMTP
 40
0.0
  9
$DIMTM
 40
0.0
  9
$DIMTXT
 40
2.5
  9
$DIMCEN
 40
2.5
  9
$DIMTSZ
 40
0.0
  9
$DIMTOL
 70
0
  9
$DIMLIM
 70
0
  9
$DIMTIH
 70
0
  9
$DIMTOH
 70
0
  9
$DIMSE1
 70
0
  9
$DIMSE2
 70
0
  9
$DIMTAD
 70
1
  9
$DIMZIN
 70
8
  9
$DIMBLK
  1

  9
$DIMASO
 70
1
  9
$DIMSHO
 70
1
  9
$DIMPOST
  1

  9
$DIMAPOST
  1

  9
$DIMALT
 70
0
  9
$DIMALTD
 70
3
  9
$DIMALTF
 40
0.03937007874
  9
$DIMLFAC
 40
1.0
  9
$DIMTOFL
 70
1
  9
$DIMTVP
 40
0.0
  9
$DIMTIX
 70
0
  9
$DIMSOXD
 70
0
  9
$DIMSAH
 70
0
  9
$DIMBLK1
  1

  9
$DIMBLK2
  1

  9
$DIMSTYLE
  2
ISO-25
  9
$DIMCLRD
 70
0
  9
$DIMCLRE
 70
0
  9
$DIMCLRT
 70
0
  9
$DIMTFAC
 40
1.0
  9
$DIMGAP
 40
0.625
  9
$DIMJUST
 70
0
  9
$DIMSD1
 70
0
  9
$DIMSD2
 70
0
  9
$DIMTOLJ
 70
0
  9
$DIMTZIN
 70
8
  9
$DIMALTZ
 70
0
  9
$DIMALTTZ
 70
0
  9
$DIMUPT
 70
0
  9
$DIMDEC
 70
2
  9
$DIMTDEC
 70
2
  9
$DIMALTU
 70
2
  9
$DIMALTTD
 70
3
  9
$DIMTXSTY
  7
Standard
  9
$DIMAUNIT
 70
0
  9
$DIMADEC
 70
0
  9
$DIMALTRND
 40
0.0
  9
$DIMAZIN
 70
0
  9
$DIMDSEP
 70
44
  9
$DIMATFIT
 70
3
  9
$DIMFRAC
 70
0
  9
$DIMLDRBLK
  1

  9
$DIMLUNIT
 70
2
  9
$DIMLWD
 70
-2
  9
$DIMLWE
 70
-2
  9
$DIMTMOVE
 70
0
  9
$DIMFXL
 40
1.0
  9
$DIMFXLON
 70
0
  9
$DIMJOGANG
 40
0.785398163397
  9
$DIMTFILL
 70
0
  9
$DIMTFILLCLR
 70
0
  9
$DIMARCSYM
 70
0
  9
$DIMLTYPE
  6

  9
$DIMLTEX1
  6

  9
$DIMLTEX2
  6

  9
$DIMTXTDIRECTION
 70
0
  9
$LUNITS
 70
2
  9
$LUPREC
 70
4
  9
$SKETCHINC
 40
1.0
  9
$FILLETRAD
 40
10.0
  9
$AUNITS
 70
0
  9
$AUPREC
 70
2
  9
$MENU
  1
.
  9
$ELEVATION
 40
0.0
  9
$PELEVATION
 40
0.0
  9
$THICKNESS
 40
0.0
  9
$LIMCHECK
 70
0
  9
$CHAMFERA
 40
0.0
  9
$CHAMFERB
 40
0.0
  9
$CHAMFERC
 40
0.0
  9
$CHAMFERD
 40
0.0
  9
$SKPOLY
 70
0
  9
$TDCREATE
 40
2461181.704027778
  9
$TDUCREATE
 40
2458532.153996898
  9
$TDUPDATE
 40
2461181.704027778
  9
$TDUUPDATE
 40
2458532.1544311
  9
$TDINDWG
 40
0.0
  9
$TDUSRTIMER
 40
0.0
  9
$USRTIMER
 70
1
  9
$ANGBASE
 50
0.0
  9
$ANGDIR
 70
0
  9
$PDMODE
 70
0
  9
$PDSIZE
 40
0.0
  9
$PLINEWID
 40
0.0
  9
$SPLFRAME
 70
0
  9
$SPLINETYPE
 70
6
  9
$SPLINESEGS
 70
8
  9
$HANDSEED
  5
44C
  9
$SURFTAB1
 70
6
  9
$SURFTAB2
 70
6
  9
$SURFTYPE
 70
6
  9
$SURFU
 70
6
  9
$SURFV
 70
6
  9
$UCSBASE
  2

  9
$UCSNAME
  2

  9
$UCSORG
 10
0.0
 20
0.0
 30
0.0
  9
$UCSXDIR
 10
1.0
 20
0.0
 30
0.0
  9
$UCSYDIR
 10
0.0
 20
1.0
 30
0.0
  9
$UCSORTHOREF
  2

  9
$UCSORTHOVIEW
 70
0
  9
$UCSORGTOP
 10
0.0
 20
0.0
 30
0.0
  9
$UCSORGBOTTOM
 10
0.0
 20
0.0
 30
0.0
  9
$UCSORGLEFT
 10
0.0
 20
0.0
 30
0.0
  9
$UCSORGRIGHT
 10
0.0
 20
0.0
 30
0.0
  9
$UCSORGFRONT
 10
0.0
 20
0.0
 30
0.0
  9
$UCSORGBACK
 10
0.0
 20
0.0
 30
0.0
  9
$PUCSBASE
  2

  9
$PUCSNAME
  2

  9
$PUCSORG
 10
0.0
 20
0.0
 30
0.0
  9
$PUCSXDIR
 10
1.0
 20
0.0
 30
0.0
  9
$PUCSYDIR
 10
0.0
 20
1.0
 30
0.0
  9
$PUCSORTHOREF
  2

  9
$PUCSORTHOVIEW
 70
0
  9
$PUCSORGTOP
 10
0.0
 20
0.0
 30
0.0
  9
$PUCSORGBOTTOM
 10
0.0
 20
0.0
 30
0.0
  9
$PUCSORGLEFT
 10
0.0
 20
0.0
 30
0.0
  9
$PUCSORGRIGHT
 10
0.0
 20
0.0
 30
0.0
  9
$PUCSORGFRONT
 10
0.0
 20
0.0
 30
0.0
  9
$PUCSORGBACK
 10
0.0
 20
0.0
 30
0.0
  9
$USERI1
 70
0
  9
$USERI2
 70
0
  9
$USERI3
 70
0
  9
$USERI4
 70
0
  9
$USERI5
 70
0
  9
$USERR1
 40
0.0
  9
$USERR2
 40
0.0
  9
$USERR3
 40
0.0
  9
$USERR4
 40
0.0
  9
$USERR5
 40
0.0
  9
$WORLDVIEW
 70
1
  9
$SHADEDGE
 70
3
  9
$SHADEDIF
 70
70
  9
$TILEMODE
 70
1
  9
$MAXACTVP
 70
64
  9
$PINSBASE
 10
0.0
 20
0.0
 30
0.0
  9
$PLIMCHECK
 70
0
  9
$PEXTMIN
 10
1e+20
 20
1e+20
 30
1e+20
  9
$PEXTMAX
 10
-1e+20
 20
-1e+20
 30
-1e+20
  9
$PLIMMIN
 10
0.0
 20
0.0
  9
$PLIMMAX
 10
420.0
 20
297.0
  9
$UNITMODE
 70
0
  9
$VISRETAIN
 70
1
  9
$PLINEGEN
 70
0
  9
$PSLTSCALE
 70
1
  9
$TREEDEPTH
 70
3020
  9
$CMLSTYLE
  2
Standard
  9
$CMLJUST
 70
0
  9
$CMLSCALE
 40
20.0
  9
$PROXYGRAPHICS
 70
1
  9
$MEASUREMENT
 70
1
  9
$CELWEIGHT
370
-1
  9
$ENDCAPS
280
0
  9
$JOINSTYLE
280
0
  9
$LWDISPLAY
290
0
  9
$INSUNITS
 70
6
  9
$HYPERLINKBASE
  1

  9
$STYLESHEET
  1

  9
$XEDIT
290
1
  9
$CEPSNTYPE
380
0
  9
$PSTYLEMODE
290
1
  9
$FINGERPRINTGUID
  2
{D25B8A00-825B-4F0F-B56A-541FC60642E6}
  9
$VERSIONGUID
  2
{E257160A-39FE-4C4F-9B28-4155C18BC395}
  9
$EXTNAMES
290
1
  9
$PSVPSCALE
 40
0.0
  9
$OLESTARTUP
290
0
  9
$SORTENTS
280
127
  9
$INDEXCTL
280
0
  9
$HIDETEXT
280
1
  9
$XCLIPFRAME
280
1
  9
$HALOGAP
280
0
  9
$OBSCOLOR
 70
257
  9
$OBSLTYPE
280
0
  9
$INTERSECTIONDISPLAY
280
0
  9
$INTERSECTIONCOLOR
 70
257
  9
$DIMASSOC
280
2
  9
$PROJECTNAME
  1

  9
$CAMERADISPLAY
290
0
  9
$LENSLENGTH
 40
50.0
  9
$CAMERAHEIGHT
 40
0.0
  9
$STEPSPERSEC
 40
24.0
  9
$STEPSIZE
 40
100.0
  9
$3DDWFPREC
 40
2.0
  9
$PSOLWIDTH
 40
0.005
  9
$PSOLHEIGHT
 40
0.08
  9
$LOFTANG1
 40
1.570796326795
  9
$LOFTANG2
 40
1.570796326795
  9
$LOFTMAG1
 40
0.0
  9
$LOFTMAG2
 40
0.0
  9
$LOFTPARAM
 70
7
  9
$LOFTNORMALS
280
1
  9
$LATITUDE
 40
37.795
  9
$LONGITUDE
 40
-122.394
  9
$NORTHDIRECTION
 40
0.0
  9
$TIMEZONE
 70
-8000
  9
$LIGHTGLYPHDISPLAY
280
1
  9
$TILEMODELIGHTSYNCH
280
1
  9
$CMATERIAL
347
20
  9
$SOLIDHIST
280
0
  9
$SHOWHIST
280
1
  9
$DWFFRAME
280
2
  9
$DGNFRAME
280
2
  9
$REALWORLDSCALE
290
1
  9
$INTERFERECOLOR
 62
256
  9
$CSHADOW
280
0
  9
$SHADOWPLANELOCATION
 40
0.0
  0
ENDSEC
  0
SECTION
  2
CLASSES
  0
CLASS
  1
ACDBDICTIONARYWDFLT
  2
AcDbDictionaryWithDefault
  3
ObjectDBX Classes
 90
0
 91
0
280
0
281
0
  0
CLASS
  1
SUN
  2
AcDbSun
  3
SCENEOE
 90
1153
 91
0
280
0
281
0
  0
CLASS
  1
VISUALSTYLE
  2
AcDbVisualStyle
  3
ObjectDBX Classes
 90
4095
 91
0
280
0
281
0
  0
CLASS
  1
MATERIAL
  2
AcDbMaterial
  3
ObjectDBX Classes
 90
1153
 91
0
280
0
281
0
  0
CLASS
  1
SCALE
  2
AcDbScale
  3
ObjectDBX Classes
 90
1153
 91
0
280
0
281
0
  0
CLASS
  1
TABLESTYLE
  2
AcDbTableStyle
  3
ObjectDBX Classes
 90
4095
 91
0
280
0
281
0
  0
CLASS
  1
MLEADERSTYLE
  2
AcDbMLeaderStyle
  3
ACDB_MLEADERSTYLE_CLASS
 90
4095
 91
0
280
0
281
0
  0
CLASS
  1
DICTIONARYVAR
  2
AcDbDictionaryVar
  3
ObjectDBX Classes
 90
0
 91
0
280
0
281
0
  0
CLASS
  1
CELLSTYLEMAP
  2
AcDbCellStyleMap
  3
ObjectDBX Classes
 90
1152
 91
0
280
0
281
0
  0
CLASS
  1
MENTALRAYRENDERSETTINGS
  2
AcDbMentalRayRenderSettings
  3
SCENEOE
 90
1024
 91
0
280
0
281
0
  0
CLASS
  1
ACDBDETAILVIEWSTYLE
  2
AcDbDetailViewStyle
  3
ObjectDBX Classes
 90
1025
 91
0
280
0
281
0
  0
CLASS
  1
ACDBSECTIONVIEWSTYLE
  2
AcDbSectionViewStyle
  3
ObjectDBX Classes
 90
1025
 91
0
280
0
281
0
  0
CLASS
  1
RASTERVARIABLES
  2
AcDbRasterVariables
  3
ISM
 90
0
 91
0
280
0
281
0
  0
CLASS
  1
LAYOUT
  2
AcDbLayout
  3
ObjectDBX Classes
 90
0
 91
0
280
0
281
0
  0
CLASS
  1
ACDBPLACEHOLDER
  2
AcDbPlaceHolder
  3
ObjectDBX Classes
 90
0
 91
0
280
0
281
0
  0
ENDSEC
  0
SECTION
  2
TABLES
  0
TABLE
  2
VPORT
  5
8
330
0
100
AcDbSymbolTable
 70
1
  0
VPORT
  5
23
330
8
100
AcDbSymbolTableRecord
100
AcDbViewportTableRecord
  2
*Active
 70
0
 10
0.0
 20
0.0
 11
1.0
 21
1.0
 12
0.0
 22
0.0
 13
0.0
 23
0.0
 14
0.5
 24
0.5
 15
0.5
 25
0.5
 16
0.0
 26
0.0
 36
1.0
 17
0.0
 27
0.0
 37
0.0
 40
1000.0
 41
1.34
 42
50.0
 43
0.0
 44
0.0
 50
0.0
 51
0.0
 71
0
 72
1000
 73
1
 74
3
 75
0
 76
0
 77
0
 78
0
281
0
 65
0
146
0.0
  0
ENDTAB
  0
TABLE
  2
LTYPE
  5
2
330
0
100
AcDbSymbolTable
 70
3
  0
LTYPE
  5
24
330
2
100
AcDbSymbolTableRecord
100
AcDbLinetypeTableRecord
  2
ByBlock
 70
0
  3

 72
65
 73
0
 40
0.0
  0
LTYPE
  5
25
330
2
100
AcDbSymbolTableRecord
100
AcDbLinetypeTableRecord
  2
ByLayer
 70
0
  3

 72
65
 73
0
 40
0.0
  0
LTYPE
  5
26
330
2
100
AcDbSymbolTableRecord
100
AcDbLinetypeTableRecord
  2
Continuous
 70
0
  3

 72
65
 73
0
 40
0.0
  0
ENDTAB
  0
TABLE
  2
LAYER
  5
1
330
0
100
AcDbSymbolTable
 70
5
  0
LAYER
  5
27
330
1
100
AcDbSymbolTableRecord
100
AcDbLayerTableRecord
  2
0
 70
0
 62
7
  6
Continuous
370
-3
390
13
347
21
  0
LAYER
  5
28
330
1
100
AcDbSymbolTableRecord
100
AcDbLayerTableRecord
  2
Defpoints
 70
0
 62
7
  6
Continuous
290
0
370
-3
390
13
347
21
  0
LAYER
  5
2F
330
1
100
AcDbSymbolTableRecord
100
AcDbLayerTableRecord
  2
chengtai
 70
0
 62
7
  6
Continuous
370
-3
390
13
347
21
  0
LAYER
  5
30
330
1
100
AcDbSymbolTableRecord
100
AcDbLayerTableRecord
  2
dunzhu
 70
0
 62
7
  6
Continuous
370
-3
390
13
347
21
  0
LAYER
  5
31
330
1
100
AcDbSymbolTableRecord
100
AcDbLayerTableRecord
  2
zhuangji
 70
0
 62
7
  6
Continuous
370
-3
390
13
347
21
  0
ENDTAB
  0
TABLE
  2
STYLE
  5
5
330
0
100
AcDbSymbolTable
 70
1
  0
STYLE
  5
29
330
5
100
AcDbSymbolTableRecord
100
AcDbTextStyleTableRecord
  2
Standard
 70
0
 40
0.0
 41
1.0
 50
0.0
 71
0
 42
2.5
  3
txt
  4

  0
ENDTAB
  0
TABLE
  2
VIEW
  5
7
330
0
100
AcDbSymbolTable
 70
0
  0
ENDTAB
  0
TABLE
  2
UCS
  5
6
330
0
100
AcDbSymbolTable
 70
0
  0
ENDTAB
  0
TABLE
  2
APPID
  5
3
330
0
100
AcDbSymbolTable
 70
3
  0
APPID
  5
2A
330
3
100
AcDbSymbolTableRecord
100
AcDbRegAppTableRecord
  2
ACAD
 70
0
  0
APPID
  5
449
330
3
100
AcDbSymbolTableRecord
100
AcDbRegAppTableRecord
  2
HATCHBACKGROUNDCOLOR
 70
0
  0
APPID
  5
44A
330
3
100
AcDbSymbolTableRecord
100
AcDbRegAppTableRecord
  2
EZDXF
 70
0
  0
ENDTAB
  0
TABLE
  2
DIMSTYLE
  5
4
330
0
100
AcDbSymbolTable
 70
1
100
AcDbDimStyleTable
  0
DIMSTYLE
105
2B
330
4
100
AcDbSymbolTableRecord
100
AcDbDimStyleTableRecord
  2
Standard
 70
0
 40
8.0
 41
2.5
 42
0.625
 43
3.75
 44
1.25
 45
0.0
 46
0.0
 47
0.0
 48
0.0
 49
2.5
140
2.5
141
2.5
142
0.0
143
0.03937007874
144
1.0
145
0.0
146
1.0
147
0.625
148
0.0
 69
0
 70
0
 71
0
 72
0
 73
0
 74
0
 75
0
 76
0
 77
0
 78
8
 79
3
170
0
171
3
172
1
173
0
174
0
175
0
176
7
177
7
178
7
179
2
271
1
272
2
273
2
274
3
275
0
276
0
277
2
278
46
279
0
280
0
281
0
282
0
283
0
284
8
285
0
286
0
288
0
289
3
290
0
371
-2
372
-2
  0
ENDTAB
  0
TABLE
  2
BLOCK_RECORD
  5
9
330
0
100
AcDbSymbolTable
 70
41
  0
BLOCK_RECORD
  5
17
330
9
100
AcDbSymbolTableRecord
100
AcDbBlockTableRecord
  2
*Model_Space
340
1A
 70
0
280
1
281
0
  0
BLOCK_RECORD
  5
1B
330
9
100
AcDbSymbolTableRecord
100
AcDbBlockTableRecord
  2
*Paper_Space
340
1E
 70
0
280
1
281
0
  0
BLOCK_RECORD
  5
5A
330
9
100
AcDbSymbolTableRecord
100
AcDbBlockTableRecord
  2
*D1
340
0
 70
0
280
1
281
0
  0
BLOCK_RECORD
  5
5D
330
9
100
AcDbSymbolTableRecord
100
AcDbBlockTableRecord
  2
_CLOSEDFILLED
340
0
 70
0
280
1
281
0
  0
BLOCK_RECORD
  5
69
330
9
100
AcDbSymbolTableRecord
100
AcDbBlockTableRecord
  2
*D2
340
0
 70
0
280
1
281
0
  0
BLOCK_RECORD
  5
74
330
9
100
AcDbSymbolTableRecord
100
AcDbBlockTableRecord
  2
*D3
340
0
 70
0
280
1
281
0
  0
BLOCK_RECORD
  5
81
330
9
100
AcDbSymbolTableRecord
100
AcDbBlockTableRecord
  2
*D4
340
0
 70
0
280
1
281
0
  0
BLOCK_RECORD
  5
8E
330
9
100
AcDbSymbolTableRecord
100
AcDbBlockTableRecord
  2
*D5
340
0
 70
0
280
1
281
0
  0
BLOCK_RECORD
  5
9D
330
9
100
AcDbSymbolTableRecord
100
AcDbBlockTableRecord
  2
*D6
340
0
 70
0
280
1
281
0
  0
BLOCK_RECORD
  5
AD
330
9
100
AcDbSymbolTableRecord
100
AcDbBlockTableRecord
  2
*D7
340
0
 70
0
280
1
281
0
  0
BLOCK_RECORD
  5
BD
330
9
100
AcDbSymbolTableRecord
100
AcDbBlockTableRecord
  2
*D8
340
0
 70
0
280
1
281
0
  0
BLOCK_RECORD
  5
CD
330
9
100
AcDbSymbolTableRecord
100
AcDbBlockTableRecord
  2
*D9
340
0
 70
0
280
1
281
0
  0
BLOCK_RECORD
  5
DC
330
9
100
AcDbSymbolTableRecord
100
AcDbBlockTableRecord
  2
*D10
340
0
 70
0
280
1
281
0
  0
BLOCK_RECORD
  5
EC
330
9
100
AcDbSymbolTableRecord
100
AcDbBlockTableRecord
  2
*D11
340
0
 70
0
280
1
281
0
  0
BLOCK_RECORD
  5
FC
330
9
100
AcDbSymbolTableRecord
100
AcDbBlockTableRecord
  2
*D12
340
0
 70
0
280
1
281
0
  0
BLOCK_RECORD
  5
10C
330
9
100
AcDbSymbolTableRecord
100
AcDbBlockTableRecord
  2
*D13
340
0
 70
0
280
1
281
0
  0
BLOCK_RECORD
  5
11C
330
9
100
AcDbSymbolTableRecord
100
AcDbBlockTableRecord
  2
*D14
340
0
 70
0
280
1
281
0
  0
BLOCK_RECORD
  5
12C
330
9
100
AcDbSymbolTableRecord
100
AcDbBlockTableRecord
  2
*D15
340
0
 70
0
280
1
281
0
  0
BLOCK_RECORD
  5
13C
330
9
100
AcDbSymbolTableRecord
100
AcDbBlockTableRecord
  2
*D16
340
0
 70
0
280
1
281
0
  0
BLOCK_RECORD
  5
14B
330
9
100
AcDbSymbolTableRecord
100
AcDbBlockTableRecord
  2
*D17
340
0
 70
0
280
1
281
0
  0
BLOCK_RECORD
  5
15B
330
9
100
AcDbSymbolTableRecord
100
AcDbBlockTableRecord
  2
*D18
340
0
 70
0
280
1
281
0
  0
BLOCK_RECORD
  5
16B
330
9
100
AcDbSymbolTableRecord
100
AcDbBlockTableRecord
  2
*D19
340
0
 70
0
280
1
281
0
  0
BLOCK_RECORD
  5
17B
330
9
100
AcDbSymbolTableRecord
100
AcDbBlockTableRecord
  2
*D20
340
0
 70
0
280
1
281
0
  0
BLOCK_RECORD
  5
18A
330
9
100
AcDbSymbolTableRecord
100
AcDbBlockTableRecord
  2
*D21
340
0
 70
0
280
1
281
0
  0
BLOCK_RECORD
  5
19A
330
9
100
AcDbSymbolTableRecord
100
AcDbBlockTableRecord
  2
*D22
340
0
 70
0
280
1
281
0
  0
BLOCK_RECORD
  5
1A8
330
9
100
AcDbSymbolTableRecord
100
AcDbBlockTableRecord
  2
*D23
340
0
 70
0
280
1
281
0
  0
BLOCK_RECORD
  5
1B8
330
9
100
AcDbSymbolTableRecord
100
AcDbBlockTableRecord
  2
*D24
340
0
 70
0
280
1
281
0
  0
BLOCK_RECORD
  5
1C6
330
9
100
AcDbSymbolTableRecord
100
AcDbBlockTableRecord
  2
*D25
340
0
 70
0
280
1
281
0
  0
BLOCK_RECORD
  5
1D6
330
9
100
AcDbSymbolTableRecord
100
AcDbBlockTableRecord
  2
*D26
340
0
 70
0
280
1
281
0
  0
BLOCK_RECORD
  5
1E6
330
9
100
AcDbSymbolTableRecord
100
AcDbBlockTableRecord
  2
*D27
340
0
 70
0
280
1
281
0
  0
BLOCK_RECORD
  5
1F6
330
9
100
AcDbSymbolTableRecord
100
AcDbBlockTableRecord
  2
*D28
340
0
 70
0
280
1
281
0
  0
BLOCK_RECORD
  5
206
330
9
100
AcDbSymbolTableRecord
100
AcDbBlockTableRecord
  2
*D29
340
0
 70
0
280
1
281
0
  0
BLOCK_RECORD
  5
216
330
9
100
AcDbSymbolTableRecord
100
AcDbBlockTableRecord
  2
*D30
340
0
 70
0
280
1
281
0
  0
BLOCK_RECORD
  5
226
330
9
100
AcDbSymbolTableRecord
100
AcDbBlockTableRecord
  2
*D31
340
0
 70
0
280
1
281
0
  0
BLOCK_RECORD
  5
236
330
9
100
AcDbSymbolTableRecord
100
AcDbBlockTableRecord
  2
*D32
340
0
 70
0
280
1
281
0
  0
BLOCK_RECORD
  5
246
330
9
100
AcDbSymbolTableRecord
100
AcDbBlockTableRecord
  2
*D33
340
0
 70
0
280
1
281
0
  0
BLOCK_RECORD
  5
254
330
9
100
AcDbSymbolTableRecord
100
AcDbBlockTableRecord
  2
*D34
340
0
 70
0
280
1
281
0
  0
BLOCK_RECORD
  5
264
330
9
100
AcDbSymbolTableRecord
100
AcDbBlockTableRecord
  2
*D35
340
0
 70
0
280
1
281
0
  0
BLOCK_RECORD
  5
272
330
9
100
AcDbSymbolTableRecord
100
AcDbBlockTableRecord
  2
*D36
340
0
 70
0
280
1
281
0
  0
BLOCK_RECORD
  5
282
330
9
100
AcDbSymbolTableRecord
100
AcDbBlockTableRecord
  2
*D37
340
0
 70
0
280
1
281
0
  0
BLOCK_RECORD
  5
290
330
9
100
AcDbSymbolTableRecord
100
AcDbBlockTableRecord
  2
*D38
340
0
 70
0
280
1
281
0
  0
ENDTAB
  0
ENDSEC
  0
SECTION
  2
BLOCKS
  0
BLOCK
  5
18
330
17
100
AcDbEntity
  8
0
100
AcDbBlockBegin
  2
*Model_Space
 70
0
 10
0.0
 20
0.0
 30
0.0
  3
*Model_Space
  1

  0
ENDBLK
  5
19
330
17
100
AcDbEntity
  8
0
100
AcDbBlockEnd
  0
BLOCK
  5
1C
330
1B
100
AcDbEntity
  8
0
100
AcDbBlockBegin
  2
*Paper_Space
 70
0
 10
0.0
 20
0.0
 30
0.0
  3
*Paper_Space
  1

  0
ENDBLK
  5
1D
330
1B
100
AcDbEntity
  8
0
100
AcDbBlockEnd
  0
BLOCK
  5
5B
330
5A
100
AcDbEntity
  8
0
100
AcDbBlockBegin
  2
*D1
 70
1
 10
0.0
 20
0.0
 30
0.0
  3
*D1
  1

  0
INSERT
  5
61
330
5A
100
AcDbEntity
  8
0
 62
7
100
AcDbBlockReference
  2
_CLOSEDFILLED
 10
58.520815280171306
 20
330.9791847198287
 30
0.0
 41
20.0
 42
20.0
 50
135.00000000000003
  0
LINE
  5
63
330
5A
100
AcDbEntity
  8
0
 62
7
100
AcDbLine
 10
46.5
 20
343.0
 30
0.0
 11
58.520815280171306
 21
330.9791847198287
 31
0.0
  0
LINE
  5
64
330
5A
100
AcDbEntity
  8
0
 62
7
100
AcDbLine
 10
76.19848480983498
 20
313.30151519016505
 30
0.0
 11
72.66295090390226
 21
316.83704909609776
 31
0.0
  0
MTEXT
  5
65
330
5A
100
AcDbEntity
  8
0
 62
7
100
AcDbMText
 10
97.41168824543144
 20
292.0883117545686
 30
0.0
 40
20.0
 71
5
  1
R17
 50
315.00000000000006
  0
POINT
  5
66
330
5A
100
AcDbEntity
  8
Defpoints
100
AcDbPoint
 10
46.5
 20
343.0
 30
0.0
  0
POINT
  5
67
330
5A
100
AcDbEntity
  8
Defpoints
100
AcDbPoint
 10
58.520815280171306
 20
330.9791847198287
 30
0.0
  0
ENDBLK
  5
5C
330
5A
100
AcDbEntity
  8
0
100
AcDbBlockEnd
  0
BLOCK
  5
5E
330
5D
100
AcDbEntity
  8
0
100
AcDbBlockBegin
  2
_CLOSEDFILLED
 70
0
 10
0.0
 20
0.0
 30
0.0
  3
_CLOSEDFILLED
  1

  0
SOLID
  5
60
330
5D
100
AcDbEntity
  8
0
  6
BYBLOCK
 62
0
100
AcDbTrace
 10
-1.0
 20
0.16439898372402537
 30
0.0
 11
0.0
 21
0.0
 31
0.0
 12
-1.0
 22
-0.16439898372402537
 32
0.0
 13
-1.0
 23
-0.16439898372402537
 33
0.0
  0
ENDBLK
  5
5F
330
5D
100
AcDbEntity
  8
0
100
AcDbBlockEnd
  0
BLOCK
  5
6A
330
69
100
AcDbEntity
  8
0
100
AcDbBlockBegin
  2
*D2
 70
1
 10
0.0
 20
0.0
 30
0.0
  3
*D2
  1

  0
INSERT
  5
6C
330
69
100
AcDbEntity
  8
0
 62
7
100
AcDbBlockReference
  2
_CLOSEDFILLED
 10
644.5208152801713
 20
330.9791847198287
 30
0.0
 41
20.0
 42
20.0
 50
135.0
  0
LINE
  5
6E
330
69
100
AcDbEntity
  8
0
 62
7
100
AcDbLine
 10
632.5
 20
343.0
 30
0.0
 11
644.5208152801713
 21
330.9791847198287
 31
0.0
  0
LINE
  5
6F
330
69
100
AcDbEntity
  8
0
 62
7
100
AcDbLine
 10
662.198484809835
 20
313.301515190165
 30
0.0
 11
658.6629509039022
 21
316.83704909609776
 31
0.0
  0
MTEXT
  5
70
330
69
100
AcDbEntity
  8
0
 62
7
100
AcDbMText
 10
683.4116882454314
 20
292.0883117545686
 30
0.0
 40
20.0
 71
5
  1
R17
 50
315.0
  0
POINT
  5
71
330
69
100
AcDbEntity
  8
Defpoints
100
AcDbPoint
 10
632.5
 20
343.0
 30
0.0
  0
POINT
  5
72
330
69
100
AcDbEntity
  8
Defpoints
100
AcDbPoint
 10
644.5208152801713
 20
330.9791847198287
 30
0.0
  0
ENDBLK
  5
6B
330
69
100
AcDbEntity
  8
0
100
AcDbBlockEnd
  0
BLOCK
  5
75
330
74
100
AcDbEntity
  8
0
100
AcDbBlockBegin
  2
*D3
 70
1
 10
0.0
 20
0.0
 30
0.0
  3
*D3
  1

  0
INSERT
  5
77
330
74
100
AcDbEntity
  8
0
 62
7
100
AcDbBlockReference
  2
_CLOSEDFILLED
 10
187.35533905932738
 20
139.64466094067262
 30
0.0
 41
20.0
 42
20.0
 50
135.0
  0
INSERT
  5
79
330
74
100
AcDbEntity
  8
0
 62
7
100
AcDbBlockReference
  2
_CLOSEDFILLED
 10
116.64466094067262
 20
210.35533905932738
 30
0.0
 41
20.0
 42
20.0
 50
135.0
  0
LINE
  5
7B
330
74
100
AcDbEntity
  8
0
 62
7
100
AcDbLine
 10
201.49747468305833
 20
125.50252531694167
 30
0.0
 11
130.78679656440357
 21
196.21320343559643
 31
0.0
  0
LINE
  5
7C
330
74
100
AcDbEntity
  8
0
 62
7
100
AcDbLine
 10
205.03300858899107
 20
121.96699141100893
 30
0.0
 11
201.49747468305833
 21
125.50252531694167
 31
0.0
  0
MTEXT
  5
7D
330
74
100
AcDbEntity
  8
0
 62
7
100
AcDbMText
 10
233.31727983645297
 20
93.68272016354703
 30
0.0
 40
20.0
 71
5
  1
%%c100
 50
315.0
  0
POINT
  5
7E
330
74
100
AcDbEntity
  8
Defpoints
100
AcDbPoint
 10
152.0
 20
175.0
 30
0.0
  0
POINT
  5
7F
330
74
100
AcDbEntity
  8
Defpoints
100
AcDbPoint
 10
187.35533905932738
 20
139.64466094067262
 30
0.0
  0
ENDBLK
  5
76
330
74
100
AcDbEntity
  8
0
100
AcDbBlockEnd
  0
BLOCK
  5
82
330
81
100
AcDbEntity
  8
0
100
AcDbBlockBegin
  2
*D4
 70
1
 10
0.0
 20
0.0
 30
0.0
  3
*D4
  1

  0
INSERT
  5
84
330
81
100
AcDbEntity
  8
0
 62
7
100
AcDbBlockReference
  2
_CLOSEDFILLED
 10
470.3553390593274
 20
750.3553390593273
 30
0.0
 41
20.0
 42
20.0
 50
224.99999999999994
  0
INSERT
  5
86
330
81
100
AcDbEntity
  8
0
 62
7
100
AcDbBlockReference
  2
_CLOSEDFILLED
 10
399.6446609406726
 20
679.6446609406727
 30
0.0
 41
20.0
 42
20.0
 50
224.99999999999994
  0
LINE
  5
88
330
81
100
AcDbEntity
  8
0
 62
7
100
AcDbLine
 10
484.49747468305833
 20
764.4974746830583
 30
0.0
 11
413.7867965644036
 21
693.7867965644036
 31
0.0
  0
LINE
  5
89
330
81
100
AcDbEntity
  8
0
 62
7
100
AcDbLine
 10
488.0330085889911
 20
768.033008588991
 30
0.0
 11
484.49747468305833
 21
764.4974746830583
 31
0.0
  0
MTEXT
  5
8A
330
81
100
AcDbEntity
  8
0
 62
7
100
AcDbMText
 10
516.317279836453
 20
796.3172798364528
 30
0.0
 40
20.0
 71
5
  1
%%c100
 50
44.99999999999996
  0
POINT
  5
8B
330
81
100
AcDbEntity
  8
Defpoints
100
AcDbPoint
 10
435.0
 20
715.0
 30
0.0
  0
POINT
  5
8C
330
81
100
AcDbEntity
  8
Defpoints
100
AcDbPoint
 10
470.3553390593274
 20
750.3553390593273
 30
0.0
  0
ENDBLK
  5
83
330
81
100
AcDbEntity
  8
0
100
AcDbBlockEnd
  0
BLOCK
  5
8F
330
8E
100
AcDbEntity
  8
0
100
AcDbBlockBegin
  2
*D5
 70
1
 10
0.0
 20
0.0
 30
0.0
  3
*D5
  1

  0
LINE
  5
91
330
8E
100
AcDbEntity
  8
0
 62
7
100
AcDbLine
 10
0.0
 20
-5.0
 30
0.0
 11
0.0
 21
-83.0
 31
0.0
  0
LINE
  5
92
330
8E
100
AcDbEntity
  8
0
 62
7
100
AcDbLine
 10
-62.5
 20
-5.0
 30
0.0
 11
-62.5
 21
-83.0
 31
0.0
  0
INSERT
  5
93
330
8E
100
AcDbEntity
  8
0
 62
7
100
AcDbBlockReference
  2
_CLOSEDFILLED
 10
0.0
 20
-73.0
 30
0.0
 41
20.0
 42
20.0
 50
180.0
  0
INSERT
  5
95
330
8E
100
AcDbEntity
  8
0
 62
7
100
AcDbBlockReference
  2
_CLOSEDFILLED
 10
-62.5
 20
-73.0
 30
0.0
 41
20.0
 42
20.0
  0
LINE
  5
97
330
8E
100
AcDbEntity
  8
0
 62
7
100
AcDbLine
 10
20.0
 20
-73.0
 30
0.0
 11
-82.5
 21
-73.0
 31
0.0
  0
MTEXT
  5
98
330
8E
100
AcDbEntity
  8
0
 62
7
100
AcDbMText
 10
-31.25
 20
-98.0
 30
0.0
 40
20.0
 71
5
  1
62.5
  0
POINT
  5
99
330
8E
100
AcDbEntity
  8
Defpoints
100
AcDbPoint
 10
0.0
 20
-73.0
 30
0.0
  0
POINT
  5
9A
330
8E
100
AcDbEntity
  8
Defpoints
100
AcDbPoint
 10
0.0
 20
0.0
 30
0.0
  0
POINT
  5
9B
330
8E
100
AcDbEntity
  8
Defpoints
100
AcDbPoint
 10
-62.5
 20
0.0
 30
0.0
  0
ENDBLK
  5
90
330
8E
100
AcDbEntity
  8
0
100
AcDbBlockEnd
  0
BLOCK
  5
9E
330
9D
100
AcDbEntity
  8
0
100
AcDbBlockBegin
  2
*D6
 70
1
 10
0.0
 20
0.0
 30
0.0
  3
*D6
  1

  0
LINE
  5
A0
330
9D
100
AcDbEntity
  8
0
 62
7
100
AcDbLine
 10
-62.5
 20
-5.0
 30
0.0
 11
-62.5
 21
-83.0
 31
0.0
  0
LINE
  5
A1
330
9D
100
AcDbEntity
  8
0
 62
7
100
AcDbLine
 10
63.5
 20
-5.0
 30
0.0
 11
63.5
 21
-83.0
 31
0.0
  0
INSERT
  5
A2
330
9D
100
AcDbEntity
  8
0
 62
7
100
AcDbBlockReference
  2
_CLOSEDFILLED
 10
-62.5
 20
-73.0
 30
0.0
 41
20.0
 42
20.0
 50
180.0
  0
INSERT
  5
A4
330
9D
100
AcDbEntity
  8
0
 62
7
100
AcDbBlockReference
  2
_CLOSEDFILLED
 10
63.5
 20
-73.0
 30
0.0
 41
20.0
 42
20.0
  0
LINE
  5
A6
330
9D
100
AcDbEntity
  8
0
 62
7
100
AcDbLine
 10
-42.5
 20
-73.0
 30
0.0
 11
-29.5
 21
-73.0
 31
0.0
  0
LINE
  5
A7
330
9D
100
AcDbEntity
  8
0
 62
7
100
AcDbLine
 10
30.5
 20
-73.0
 30
0.0
 11
43.5
 21
-73.0
 31
0.0
  0
MTEXT
  5
A8
330
9D
100
AcDbEntity
  8
0
 62
7
100
AcDbMText
 10
0.5
 20
-73.0
 30
0.0
 40
20.0
 71
5
  1
126
  0
POINT
  5
A9
330
9D
100
AcDbEntity
  8
Defpoints
100
AcDbPoint
 10
-62.5
 20
-73.0
 30
0.0
  0
POINT
  5
AA
330
9D
100
AcDbEntity
  8
Defpoints
100
AcDbPoint
 10
-62.5
 20
0.0
 30
0.0
  0
POINT
  5
AB
330
9D
100
AcDbEntity
  8
Defpoints
100
AcDbPoint
 10
63.5
 20
0.0
 30
0.0
  0
ENDBLK
  5
9F
330
9D
100
AcDbEntity
  8
0
100
AcDbBlockEnd
  0
BLOCK
  5
AE
330
AD
100
AcDbEntity
  8
0
100
AcDbBlockBegin
  2
*D7
 70
1
 10
0.0
 20
0.0
 30
0.0
  3
*D7
  1

  0
LINE
  5
B0
330
AD
100
AcDbEntity
  8
0
 62
7
100
AcDbLine
 10
63.5
 20
-5.0
 30
0.0
 11
63.5
 21
-83.0
 31
0.0
  0
LINE
  5
B1
330
AD
100
AcDbEntity
  8
0
 62
7
100
AcDbLine
 10
523.5
 20
-5.0
 30
0.0
 11
523.5
 21
-83.0
 31
0.0
  0
INSERT
  5
B2
330
AD
100
AcDbEntity
  8
0
 62
7
100
AcDbBlockReference
  2
_CLOSEDFILLED
 10
63.5
 20
-73.0
 30
0.0
 41
20.0
 42
20.0
 50
180.0
  0
INSERT
  5
B4
330
AD
100
AcDbEntity
  8
0
 62
7
100
AcDbBlockReference
  2
_CLOSEDFILLED
 10
523.5
 20
-73.0
 30
0.0
 41
20.0
 42
20.0
  0
LINE
  5
B6
330
AD
100
AcDbEntity
  8
0
 62
7
100
AcDbLine
 10
83.5
 20
-73.0
 30
0.0
 11
263.5
 21
-73.0
 31
0.0
  0
LINE
  5
B7
330
AD
100
AcDbEntity
  8
0
 62
7
100
AcDbLine
 10
323.5
 20
-73.0
 30
0.0
 11
503.5
 21
-73.0
 31
0.0
  0
MTEXT
  5
B8
330
AD
100
AcDbEntity
  8
0
 62
7
100
AcDbMText
 10
293.5
 20
-73.0
 30
0.0
 40
20.0
 71
5
  1
460
  0
POINT
  5
B9
330
AD
100
AcDbEntity
  8
Defpoints
100
AcDbPoint
 10
63.5
 20
-73.0
 30
0.0
  0
POINT
  5
BA
330
AD
100
AcDbEntity
  8
Defpoints
100
AcDbPoint
 10
63.5
 20
0.0
 30
0.0
  0
POINT
  5
BB
330
AD
100
AcDbEntity
  8
Defpoints
100
AcDbPoint
 10
523.5
 20
0.0
 30
0.0
  0
ENDBLK
  5
AF
330
AD
100
AcDbEntity
  8
0
100
AcDbBlockEnd
  0
BLOCK
  5
BE
330
BD
100
AcDbEntity
  8
0
100
AcDbBlockBegin
  2
*D8
 70
1
 10
0.0
 20
0.0
 30
0.0
  3
*D8
  1

  0
LINE
  5
C0
330
BD
100
AcDbEntity
  8
0
 62
7
100
AcDbLine
 10
523.5
 20
-5.0
 30
0.0
 11
523.5
 21
-83.0
 31
0.0
  0
LINE
  5
C1
330
BD
100
AcDbEntity
  8
0
 62
7
100
AcDbLine
 10
649.5
 20
-5.0
 30
0.0
 11
649.5
 21
-83.0
 31
0.0
  0
INSERT
  5
C2
330
BD
100
AcDbEntity
  8
0
 62
7
100
AcDbBlockReference
  2
_CLOSEDFILLED
 10
523.5
 20
-73.0
 30
0.0
 41
20.0
 42
20.0
 50
180.0
  0
INSERT
  5
C4
330
BD
100
AcDbEntity
  8
0
 62
7
100
AcDbBlockReference
  2
_CLOSEDFILLED
 10
649.5
 20
-73.0
 30
0.0
 41
20.0
 42
20.0
  0
LINE
  5
C6
330
BD
100
AcDbEntity
  8
0
 62
7
100
AcDbLine
 10
543.5
 20
-73.0
 30
0.0
 11
556.5
 21
-73.0
 31
0.0
  0
LINE
  5
C7
330
BD
100
AcDbEntity
  8
0
 62
7
100
AcDbLine
 10
616.5
 20
-73.0
 30
0.0
 11
629.5
 21
-73.0
 31
0.0
  0
MTEXT
  5
C8
330
BD
100
AcDbEntity
  8
0
 62
7
100
AcDbMText
 10
586.5
 20
-73.0
 30
0.0
 40
20.0
 71
5
  1
126
  0
POINT
  5
C9
330
BD
100
AcDbEntity
  8
Defpoints
100
AcDbPoint
 10
523.5
 20
-73.0
 30
0.0
  0
POINT
  5
CA
330
BD
100
AcDbEntity
  8
Defpoints
100
AcDbPoint
 10
523.5
 20
0.0
 30
0.0
  0
POINT
  5
CB
330
BD
100
AcDbEntity
  8
Defpoints
100
AcDbPoint
 10
649.5
 20
0.0
 30
0.0
  0
ENDBLK
  5
BF
330
BD
100
AcDbEntity
  8
0
100
AcDbBlockEnd
  0
BLOCK
  5
CE
330
CD
100
AcDbEntity
  8
0
100
AcDbBlockBegin
  2
*D9
 70
1
 10
0.0
 20
0.0
 30
0.0
  3
*D9
  1

  0
LINE
  5
D0
330
CD
100
AcDbEntity
  8
0
 62
7
100
AcDbLine
 10
649.5
 20
-5.0
 30
0.0
 11
649.5
 21
-83.0
 31
0.0
  0
LINE
  5
D1
330
CD
100
AcDbEntity
  8
0
 62
7
100
AcDbLine
 10
587.0
 20
-5.0
 30
0.0
 11
587.0
 21
-83.0
 31
0.0
  0
INSERT
  5
D2
330
CD
100
AcDbEntity
  8
0
 62
7
100
AcDbBlockReference
  2
_CLOSEDFILLED
 10
649.5
 20
-73.0
 30
0.0
 41
20.0
 42
20.0
 50
180.0
  0
INSERT
  5
D4
330
CD
100
AcDbEntity
  8
0
 62
7
100
AcDbBlockReference
  2
_CLOSEDFILLED
 10
587.0
 20
-73.0
 30
0.0
 41
20.0
 42
20.0
  0
LINE
  5
D6
330
CD
100
AcDbEntity
  8
0
 62
7
100
AcDbLine
 10
669.5
 20
-73.0
 30
0.0
 11
567.0
 21
-73.0
 31
0.0
  0
MTEXT
  5
D7
330
CD
100
AcDbEntity
  8
0
 62
7
100
AcDbMText
 10
618.25
 20
-98.0
 30
0.0
 40
20.0
 71
5
  1
62.5
  0
POINT
  5
D8
330
CD
100
AcDbEntity
  8
Defpoints
100
AcDbPoint
 10
649.5
 20
-73.0
 30
0.0
  0
POINT
  5
D9
330
CD
100
AcDbEntity
  8
Defpoints
100
AcDbPoint
 10
649.5
 20
0.0
 30
0.0
  0
POINT
  5
DA
330
CD
100
AcDbEntity
  8
Defpoints
100
AcDbPoint
 10
587.0
 20
0.0
 30
0.0
  0
ENDBLK
  5
CF
330
CD
100
AcDbEntity
  8
0
100
AcDbBlockEnd
  0
BLOCK
  5
DD
330
DC
100
AcDbEntity
  8
0
100
AcDbBlockBegin
  2
*D10
 70
1
 10
0.0
 20
0.0
 30
0.0
  3
*D10
  1

  0
LINE
  5
DF
330
DC
100
AcDbEntity
  8
0
 62
7
100
AcDbLine
 10
-5.0
 20
0.0
 30
0.0
 11
-77.0
 21
0.0
 31
0.0
  0
LINE
  5
E0
330
DC
100
AcDbEntity
  8
0
 62
7
100
AcDbLine
 10
-5.0
 20
326.0
 30
0.0
 11
-77.0
 21
326.0
 31
0.0
  0
INSERT
  5
E1
330
DC
100
AcDbEntity
  8
0
 62
7
100
AcDbBlockReference
  2
_CLOSEDFILLED
 10
-67.0
 20
0.0
 30
0.0
 41
20.0
 42
20.0
 50
270.0
  0
INSERT
  5
E3
330
DC
100
AcDbEntity
  8
0
 62
7
100
AcDbBlockReference
  2
_CLOSEDFILLED
 10
-67.0
 20
326.0
 30
0.0
 41
20.0
 42
20.0
 50
90.0
  0
LINE
  5
E5
330
DC
100
AcDbEntity
  8
0
 62
7
100
AcDbLine
 10
-67.0
 20
20.0
 30
0.0
 11
-67.0
 21
133.0
 31
0.0
  0
LINE
  5
E6
330
DC
100
AcDbEntity
  8
0
 62
7
100
AcDbLine
 10
-67.0
 20
193.0
 30
0.0
 11
-67.0
 21
306.0
 31
0.0
  0
MTEXT
  5
E7
330
DC
100
AcDbEntity
  8
0
 62
7
100
AcDbMText
 10
-67.0
 20
163.0
 30
0.0
 40
20.0
 71
5
  1
326
 50
90.0
  0
POINT
  5
E8
330
DC
100
AcDbEntity
  8
Defpoints
100
AcDbPoint
 10
-67.0
 20
0.0
 30
0.0
  0
POINT
  5
E9
330
DC
100
AcDbEntity
  8
Defpoints
100
AcDbPoint
 10
0.0
 20
0.0
 30
0.0
  0
POINT
  5
EA
330
DC
100
AcDbEntity
  8
Defpoints
100
AcDbPoint
 10
0.0
 20
326.0
 30
0.0
  0
ENDBLK
  5
DE
330
DC
100
AcDbEntity
  8
0
100
AcDbBlockEnd
  0
BLOCK
  5
ED
330
EC
100
AcDbEntity
  8
0
100
AcDbBlockBegin
  2
*D11
 70
1
 10
0.0
 20
0.0
 30
0.0
  3
*D11
  1

  0
LINE
  5
EF
330
EC
100
AcDbEntity
  8
0
 62
7
100
AcDbLine
 10
-5.0
 20
326.0
 30
0.0
 11
-77.0
 21
326.0
 31
0.0
  0
LINE
  5
F0
330
EC
100
AcDbEntity
  8
0
 62
7
100
AcDbLine
 10
-5.0
 20
564.0
 30
0.0
 11
-77.0
 21
564.0
 31
0.0
  0
INSERT
  5
F1
330
EC
100
AcDbEntity
  8
0
 62
7
100
AcDbBlockReference
  2
_CLOSEDFILLED
 10
-67.0
 20
326.0
 30
0.0
 41
20.0
 42
20.0
 50
270.0
  0
INSERT
  5
F3
330
EC
100
AcDbEntity
  8
0
 62
7
100
AcDbBlockReference
  2
_CLOSEDFILLED
 10
-67.0
 20
564.0
 30
0.0
 41
20.0
 42
20.0
 50
90.0
  0
LINE
  5
F5
330
EC
100
AcDbEntity
  8
0
 62
7
100
AcDbLine
 10
-67.0
 20
346.0
 30
0.0
 11
-67.0
 21
415.0
 31
0.0
  0
LINE
  5
F6
330
EC
100
AcDbEntity
  8
0
 62
7
100
AcDbLine
 10
-67.0
 20
475.0
 30
0.0
 11
-67.0
 21
544.0
 31
0.0
  0
MTEXT
  5
F7
330
EC
100
AcDbEntity
  8
0
 62
7
100
AcDbMText
 10
-67.0
 20
445.0
 30
0.0
 40
20.0
 71
5
  1
238
 50
90.0
  0
POINT
  5
F8
330
EC
100
AcDbEntity
  8
Defpoints
100
AcDbPoint
 10
-67.0
 20
326.0
 30
0.0
  0
POINT
  5
F9
330
EC
100
AcDbEntity
  8
Defpoints
100
AcDbPoint
 10
0.0
 20
326.0
 30
0.0
  0
POINT
  5
FA
330
EC
100
AcDbEntity
  8
Defpoints
100
AcDbPoint
 10
0.0
 20
564.0
 30
0.0
  0
ENDBLK
  5
EE
330
EC
100
AcDbEntity
  8
0
100
AcDbBlockEnd
  0
BLOCK
  5
FD
330
FC
100
AcDbEntity
  8
0
100
AcDbBlockBegin
  2
*D12
 70
1
 10
0.0
 20
0.0
 30
0.0
  3
*D12
  1

  0
LINE
  5
FF
330
FC
100
AcDbEntity
  8
0
 62
7
100
AcDbLine
 10
-5.0
 20
564.0
 30
0.0
 11
-77.0
 21
564.0
 31
0.0
  0
LINE
  5
100
330
FC
100
AcDbEntity
  8
0
 62
7
100
AcDbLine
 10
-5.0
 20
890.0
 30
0.0
 11
-77.0
 21
890.0
 31
0.0
  0
INSERT
  5
101
330
FC
100
AcDbEntity
  8
0
 62
7
100
AcDbBlockReference
  2
_CLOSEDFILLED
 10
-67.0
 20
564.0
 30
0.0
 41
20.0
 42
20.0
 50
270.0
  0
INSERT
  5
103
330
FC
100
AcDbEntity
  8
0
 62
7
100
AcDbBlockReference
  2
_CLOSEDFILLED
 10
-67.0
 20
890.0
 30
0.0
 41
20.0
 42
20.0
 50
90.0
  0
LINE
  5
105
330
FC
100
AcDbEntity
  8
0
 62
7
100
AcDbLine
 10
-67.0
 20
584.0
 30
0.0
 11
-67.0
 21
697.0
 31
0.0
  0
LINE
  5
106
330
FC
100
AcDbEntity
  8
0
 62
7
100
AcDbLine
 10
-67.0
 20
757.0
 30
0.0
 11
-67.0
 21
870.0
 31
0.0
  0
MTEXT
  5
107
330
FC
100
AcDbEntity
  8
0
 62
7
100
AcDbMText
 10
-67.0
 20
727.0
 30
0.0
 40
20.0
 71
5
  1
326
 50
90.0
  0
POINT
  5
108
330
FC
100
AcDbEntity
  8
Defpoints
100
AcDbPoint
 10
-67.0
 20
564.0
 30
0.0
  0
POINT
  5
109
330
FC
100
AcDbEntity
  8
Defpoints
100
AcDbPoint
 10
0.0
 20
564.0
 30
0.0
  0
POINT
  5
10A
330
FC
100
AcDbEntity
  8
Defpoints
100
AcDbPoint
 10
0.0
 20
890.0
 30
0.0
  0
ENDBLK
  5
FE
330
FC
100
AcDbEntity
  8
0
100
AcDbBlockEnd
  0
BLOCK
  5
10D
330
10C
100
AcDbEntity
  8
0
100
AcDbBlockBegin
  2
*D13
 70
1
 10
0.0
 20
0.0
 30
0.0
  3
*D13
  1

  0
LINE
  5
10F
330
10C
100
AcDbEntity
  8
0
 62
7
100
AcDbLine
 10
-5.0
 20
1390.0
 30
0.0
 11
-97.0
 21
1390.0
 31
0.0
  0
LINE
  5
110
330
10C
100
AcDbEntity
  8
0
 62
7
100
AcDbLine
 10
-5.0
 20
1626.0
 30
0.0
 11
-97.0
 21
1626.0
 31
0.0
  0
INSERT
  5
111
330
10C
100
AcDbEntity
  8
0
 62
7
100
AcDbBlockReference
  2
_CLOSEDFILLED
 10
-87.0
 20
1390.0
 30
0.0
 41
20.0
 42
20.0
 50
270.0
  0
INSERT
  5
113
330
10C
100
AcDbEntity
  8
0
 62
7
100
AcDbBlockReference
  2
_CLOSEDFILLED
 10
-87.0
 20
1626.0
 30
0.0
 41
20.0
 42
20.0
 50
90.0
  0
LINE
  5
115
330
10C
100
AcDbEntity
  8
0
 62
7
100
AcDbLine
 10
-87.0
 20
1410.0
 30
0.0
 11
-87.0
 21
1478.0
 31
0.0
  0
LINE
  5
116
330
10C
100
AcDbEntity
  8
0
 62
7
100
AcDbLine
 10
-87.0
 20
1538.0
 30
0.0
 11
-87.0
 21
1606.0
 31
0.0
  0
MTEXT
  5
117
330
10C
100
AcDbEntity
  8
0
 62
7
100
AcDbMText
 10
-87.0
 20
1508.0
 30
0.0
 40
20.0
 71
5
  1
236
 50
90.0
  0
POINT
  5
118
330
10C
100
AcDbEntity
  8
Defpoints
100
AcDbPoint
 10
-87.0
 20
1390.0
 30
0.0
  0
POINT
  5
119
330
10C
100
AcDbEntity
  8
Defpoints
100
AcDbPoint
 10
0.0
 20
1390.0
 30
0.0
  0
POINT
  5
11A
330
10C
100
AcDbEntity
  8
Defpoints
100
AcDbPoint
 10
0.0
 20
1626.0
 30
0.0
  0
ENDBLK
  5
10E
330
10C
100
AcDbEntity
  8
0
100
AcDbBlockEnd
  0
BLOCK
  5
11D
330
11C
100
AcDbEntity
  8
0
100
AcDbBlockBegin
  2
*D14
 70
1
 10
0.0
 20
0.0
 30
0.0
  3
*D14
  1

  0
LINE
  5
11F
330
11C
100
AcDbEntity
  8
0
 62
7
100
AcDbLine
 10
-5.0
 20
1626.0
 30
0.0
 11
-97.0
 21
1626.0
 31
0.0
  0
LINE
  5
120
330
11C
100
AcDbEntity
  8
0
 62
7
100
AcDbLine
 10
-5.0
 20
1991.0
 30
0.0
 11
-97.0
 21
1991.0
 31
0.0
  0
INSERT
  5
121
330
11C
100
AcDbEntity
  8
0
 62
7
100
AcDbBlockReference
  2
_CLOSEDFILLED
 10
-87.0
 20
1626.0
 30
0.0
 41
20.0
 42
20.0
 50
270.0
  0
INSERT
  5
123
330
11C
100
AcDbEntity
  8
0
 62
7
100
AcDbBlockReference
  2
_CLOSEDFILLED
 10
-87.0
 20
1991.0
 30
0.0
 41
20.0
 42
20.0
 50
90.0
  0
LINE
  5
125
330
11C
100
AcDbEntity
  8
0
 62
7
100
AcDbLine
 10
-87.0
 20
1646.0
 30
0.0
 11
-87.0
 21
1778.5
 31
0.0
  0
LINE
  5
126
330
11C
100
AcDbEntity
  8
0
 62
7
100
AcDbLine
 10
-87.0
 20
1838.5
 30
0.0
 11
-87.0
 21
1971.0
 31
0.0
  0
MTEXT
  5
127
330
11C
100
AcDbEntity
  8
0
 62
7
100
AcDbMText
 10
-87.0
 20
1808.5
 30
0.0
 40
20.0
 71
5
  1
365
 50
90.0
  0
POINT
  5
128
330
11C
100
AcDbEntity
  8
Defpoints
100
AcDbPoint
 10
-87.0
 20
1626.0
 30
0.0
  0
POINT
  5
129
330
11C
100
AcDbEntity
  8
Defpoints
100
AcDbPoint
 10
0.0
 20
1626.0
 30
0.0
  0
POINT
  5
12A
330
11C
100
AcDbEntity
  8
Defpoints
100
AcDbPoint
 10
0.0
 20
1991.0
 30
0.0
  0
ENDBLK
  5
11E
330
11C
100
AcDbEntity
  8
0
100
AcDbBlockEnd
  0
BLOCK
  5
12D
330
12C
100
AcDbEntity
  8
0
100
AcDbBlockBegin
  2
*D15
 70
1
 10
0.0
 20
0.0
 30
0.0
  3
*D15
  1

  0
LINE
  5
12F
330
12C
100
AcDbEntity
  8
0
 62
7
100
AcDbLine
 10
-5.0
 20
1991.0
 30
0.0
 11
-97.0
 21
1991.0
 31
0.0
  0
LINE
  5
130
330
12C
100
AcDbEntity
  8
0
 62
7
100
AcDbLine
 10
-5.0
 20
2307.0
 30
0.0
 11
-97.0
 21
2307.0
 31
0.0
  0
INSERT
  5
131
330
12C
100
AcDbEntity
  8
0
 62
7
100
AcDbBlockReference
  2
_CLOSEDFILLED
 10
-87.0
 20
1991.0
 30
0.0
 41
20.0
 42
20.0
 50
270.0
  0
INSERT
  5
133
330
12C
100
AcDbEntity
  8
0
 62
7
100
AcDbBlockReference
  2
_CLOSEDFILLED
 10
-87.0
 20
2307.0
 30
0.0
 41
20.0
 42
20.0
 50
90.0
  0
LINE
  5
135
330
12C
100
AcDbEntity
  8
0
 62
7
100
AcDbLine
 10
-87.0
 20
2011.0
 30
0.0
 11
-87.0
 21
2119.0
 31
0.0
  0
LINE
  5
136
330
12C
100
AcDbEntity
  8
0
 62
7
100
AcDbLine
 10
-87.0
 20
2179.0
 30
0.0
 11
-87.0
 21
2287.0
 31
0.0
  0
MTEXT
  5
137
330
12C
100
AcDbEntity
  8
0
 62
7
100
AcDbMText
 10
-87.0
 20
2149.0
 30
0.0
 40
20.0
 71
5
  1
316
 50
90.0
  0
POINT
  5
138
330
12C
100
AcDbEntity
  8
Defpoints
100
AcDbPoint
 10
-87.0
 20
1991.0
 30
0.0
  0
POINT
  5
139
330
12C
100
AcDbEntity
  8
Defpoints
100
AcDbPoint
 10
0.0
 20
1991.0
 30
0.0
  0
POINT
  5
13A
330
12C
100
AcDbEntity
  8
Defpoints
100
AcDbPoint
 10
0.0
 20
2307.0
 30
0.0
  0
ENDBLK
  5
12E
330
12C
100
AcDbEntity
  8
0
100
AcDbBlockEnd
  0
BLOCK
  5
13D
330
13C
100
AcDbEntity
  8
0
100
AcDbBlockBegin
  2
*D16
 70
1
 10
0.0
 20
0.0
 30
0.0
  3
*D16
  1

  0
LINE
  5
13F
330
13C
100
AcDbEntity
  8
0
 62
7
100
AcDbLine
 10
0.0
 20
2312.0
 30
0.0
 11
0.0
 21
2400.0
 31
0.0
  0
LINE
  5
140
330
13C
100
AcDbEntity
  8
0
 62
7
100
AcDbLine
 10
-62.5
 20
2312.0
 30
0.0
 11
-62.5
 21
2400.0
 31
0.0
  0
INSERT
  5
141
330
13C
100
AcDbEntity
  8
0
 62
7
100
AcDbBlockReference
  2
_CLOSEDFILLED
 10
0.0
 20
2390.0
 30
0.0
 41
20.0
 42
20.0
 50
180.0
  0
INSERT
  5
143
330
13C
100
AcDbEntity
  8
0
 62
7
100
AcDbBlockReference
  2
_CLOSEDFILLED
 10
-62.5
 20
2390.0
 30
0.0
 41
20.0
 42
20.0
  0
LINE
  5
145
330
13C
100
AcDbEntity
  8
0
 62
7
100
AcDbLine
 10
20.0
 20
2390.0
 30
0.0
 11
-82.5
 21
2390.0
 31
0.0
  0
MTEXT
  5
146
330
13C
100
AcDbEntity
  8
0
 62
7
100
AcDbMText
 10
-31.25
 20
2365.0
 30
0.0
 40
20.0
 71
5
  1
62.5
  0
POINT
  5
147
330
13C
100
AcDbEntity
  8
Defpoints
100
AcDbPoint
 10
0.0
 20
2390.0
 30
0.0
  0
POINT
  5
148
330
13C
100
AcDbEntity
  8
Defpoints
100
AcDbPoint
 10
0.0
 20
2307.0
 30
0.0
  0
POINT
  5
149
330
13C
100
AcDbEntity
  8
Defpoints
100
AcDbPoint
 10
-62.5
 20
2307.0
 30
0.0
  0
ENDBLK
  5
13E
330
13C
100
AcDbEntity
  8
0
100
AcDbBlockEnd
  0
BLOCK
  5
14C
330
14B
100
AcDbEntity
  8
0
100
AcDbBlockBegin
  2
*D17
 70
1
 10
0.0
 20
0.0
 30
0.0
  3
*D17
  1

  0
LINE
  5
14E
330
14B
100
AcDbEntity
  8
0
 62
7
100
AcDbLine
 10
-62.5
 20
2312.0
 30
0.0
 11
-62.5
 21
2400.0
 31
0.0
  0
LINE
  5
14F
330
14B
100
AcDbEntity
  8
0
 62
7
100
AcDbLine
 10
63.5
 20
2312.0
 30
0.0
 11
63.5
 21
2400.0
 31
0.0
  0
INSERT
  5
150
330
14B
100
AcDbEntity
  8
0
 62
7
100
AcDbBlockReference
  2
_CLOSEDFILLED
 10
-62.5
 20
2390.0
 30
0.0
 41
20.0
 42
20.0
 50
180.0
  0
INSERT
  5
152
330
14B
100
AcDbEntity
  8
0
 62
7
100
AcDbBlockReference
  2
_CLOSEDFILLED
 10
63.5
 20
2390.0
 30
0.0
 41
20.0
 42
20.0
  0
LINE
  5
154
330
14B
100
AcDbEntity
  8
0
 62
7
100
AcDbLine
 10
-42.5
 20
2390.0
 30
0.0
 11
-29.5
 21
2390.0
 31
0.0
  0
LINE
  5
155
330
14B
100
AcDbEntity
  8
0
 62
7
100
AcDbLine
 10
30.5
 20
2390.0
 30
0.0
 11
43.5
 21
2390.0
 31
0.0
  0
MTEXT
  5
156
330
14B
100
AcDbEntity
  8
0
 62
7
100
AcDbMText
 10
0.5
 20
2390.0
 30
0.0
 40
20.0
 71
5
  1
126
  0
POINT
  5
157
330
14B
100
AcDbEntity
  8
Defpoints
100
AcDbPoint
 10
-62.5
 20
2390.0
 30
0.0
  0
POINT
  5
158
330
14B
100
AcDbEntity
  8
Defpoints
100
AcDbPoint
 10
-62.5
 20
2307.0
 30
0.0
  0
POINT
  5
159
330
14B
100
AcDbEntity
  8
Defpoints
100
AcDbPoint
 10
63.5
 20
2307.0
 30
0.0
  0
ENDBLK
  5
14D
330
14B
100
AcDbEntity
  8
0
100
AcDbBlockEnd
  0
BLOCK
  5
15C
330
15B
100
AcDbEntity
  8
0
100
AcDbBlockBegin
  2
*D18
 70
1
 10
0.0
 20
0.0
 30
0.0
  3
*D18
  1

  0
LINE
  5
15E
330
15B
100
AcDbEntity
  8
0
 62
7
100
AcDbLine
 10
63.5
 20
2312.0
 30
0.0
 11
63.5
 21
2400.0
 31
0.0
  0
LINE
  5
15F
330
15B
100
AcDbEntity
  8
0
 62
7
100
AcDbLine
 10
523.5
 20
2312.0
 30
0.0
 11
523.5
 21
2400.0
 31
0.0
  0
INSERT
  5
160
330
15B
100
AcDbEntity
  8
0
 62
7
100
AcDbBlockReference
  2
_CLOSEDFILLED
 10
63.5
 20
2390.0
 30
0.0
 41
20.0
 42
20.0
 50
180.0
  0
INSERT
  5
162
330
15B
100
AcDbEntity
  8
0
 62
7
100
AcDbBlockReference
  2
_CLOSEDFILLED
 10
523.5
 20
2390.0
 30
0.0
 41
20.0
 42
20.0
  0
LINE
  5
164
330
15B
100
AcDbEntity
  8
0
 62
7
100
AcDbLine
 10
83.5
 20
2390.0
 30
0.0
 11
263.5
 21
2390.0
 31
0.0
  0
LINE
  5
165
330
15B
100
AcDbEntity
  8
0
 62
7
100
AcDbLine
 10
323.5
 20
2390.0
 30
0.0
 11
503.5
 21
2390.0
 31
0.0
  0
MTEXT
  5
166
330
15B
100
AcDbEntity
  8
0
 62
7
100
AcDbMText
 10
293.5
 20
2390.0
 30
0.0
 40
20.0
 71
5
  1
460
  0
POINT
  5
167
330
15B
100
AcDbEntity
  8
Defpoints
100
AcDbPoint
 10
63.5
 20
2390.0
 30
0.0
  0
POINT
  5
168
330
15B
100
AcDbEntity
  8
Defpoints
100
AcDbPoint
 10
63.5
 20
2307.0
 30
0.0
  0
POINT
  5
169
330
15B
100
AcDbEntity
  8
Defpoints
100
AcDbPoint
 10
523.5
 20
2307.0
 30
0.0
  0
ENDBLK
  5
15D
330
15B
100
AcDbEntity
  8
0
100
AcDbBlockEnd
  0
BLOCK
  5
16C
330
16B
100
AcDbEntity
  8
0
100
AcDbBlockBegin
  2
*D19
 70
1
 10
0.0
 20
0.0
 30
0.0
  3
*D19
  1

  0
LINE
  5
16E
330
16B
100
AcDbEntity
  8
0
 62
7
100
AcDbLine
 10
523.5
 20
2312.0
 30
0.0
 11
523.5
 21
2400.0
 31
0.0
  0
LINE
  5
16F
330
16B
100
AcDbEntity
  8
0
 62
7
100
AcDbLine
 10
649.5
 20
2312.0
 30
0.0
 11
649.5
 21
2400.0
 31
0.0
  0
INSERT
  5
170
330
16B
100
AcDbEntity
  8
0
 62
7
100
AcDbBlockReference
  2
_CLOSEDFILLED
 10
523.5
 20
2390.0
 30
0.0
 41
20.0
 42
20.0
 50
180.0
  0
INSERT
  5
172
330
16B
100
AcDbEntity
  8
0
 62
7
100
AcDbBlockReference
  2
_CLOSEDFILLED
 10
649.5
 20
2390.0
 30
0.0
 41
20.0
 42
20.0
  0
LINE
  5
174
330
16B
100
AcDbEntity
  8
0
 62
7
100
AcDbLine
 10
543.5
 20
2390.0
 30
0.0
 11
556.5
 21
2390.0
 31
0.0
  0
LINE
  5
175
330
16B
100
AcDbEntity
  8
0
 62
7
100
AcDbLine
 10
616.5
 20
2390.0
 30
0.0
 11
629.5
 21
2390.0
 31
0.0
  0
MTEXT
  5
176
330
16B
100
AcDbEntity
  8
0
 62
7
100
AcDbMText
 10
586.5
 20
2390.0
 30
0.0
 40
20.0
 71
5
  1
126
  0
POINT
  5
177
330
16B
100
AcDbEntity
  8
Defpoints
100
AcDbPoint
 10
523.5
 20
2390.0
 30
0.0
  0
POINT
  5
178
330
16B
100
AcDbEntity
  8
Defpoints
100
AcDbPoint
 10
523.5
 20
2307.0
 30
0.0
  0
POINT
  5
179
330
16B
100
AcDbEntity
  8
Defpoints
100
AcDbPoint
 10
649.5
 20
2307.0
 30
0.0
  0
ENDBLK
  5
16D
330
16B
100
AcDbEntity
  8
0
100
AcDbBlockEnd
  0
BLOCK
  5
17C
330
17B
100
AcDbEntity
  8
0
100
AcDbBlockBegin
  2
*D20
 70
1
 10
0.0
 20
0.0
 30
0.0
  3
*D20
  1

  0
LINE
  5
17E
330
17B
100
AcDbEntity
  8
0
 62
7
100
AcDbLine
 10
649.5
 20
2312.0
 30
0.0
 11
649.5
 21
2400.0
 31
0.0
  0
LINE
  5
17F
330
17B
100
AcDbEntity
  8
0
 62
7
100
AcDbLine
 10
587.0
 20
2312.0
 30
0.0
 11
587.0
 21
2400.0
 31
0.0
  0
INSERT
  5
180
330
17B
100
AcDbEntity
  8
0
 62
7
100
AcDbBlockReference
  2
_CLOSEDFILLED
 10
649.5
 20
2390.0
 30
0.0
 41
20.0
 42
20.0
 50
180.0
  0
INSERT
  5
182
330
17B
100
AcDbEntity
  8
0
 62
7
100
AcDbBlockReference
  2
_CLOSEDFILLED
 10
587.0
 20
2390.0
 30
0.0
 41
20.0
 42
20.0
  0
LINE
  5
184
330
17B
100
AcDbEntity
  8
0
 62
7
100
AcDbLine
 10
669.5
 20
2390.0
 30
0.0
 11
567.0
 21
2390.0
 31
0.0
  0
MTEXT
  5
185
330
17B
100
AcDbEntity
  8
0
 62
7
100
AcDbMText
 10
618.25
 20
2365.0
 30
0.0
 40
20.0
 71
5
  1
62.5
  0
POINT
  5
186
330
17B
100
AcDbEntity
  8
Defpoints
100
AcDbPoint
 10
649.5
 20
2390.0
 30
0.0
  0
POINT
  5
187
330
17B
100
AcDbEntity
  8
Defpoints
100
AcDbPoint
 10
649.5
 20
2307.0
 30
0.0
  0
POINT
  5
188
330
17B
100
AcDbEntity
  8
Defpoints
100
AcDbPoint
 10
587.0
 20
2307.0
 30
0.0
  0
ENDBLK
  5
17D
330
17B
100
AcDbEntity
  8
0
100
AcDbBlockEnd
  0
BLOCK
  5
18B
330
18A
100
AcDbEntity
  8
0
100
AcDbBlockBegin
  2
*D21
 70
1
 10
0.0
 20
0.0
 30
0.0
  3
*D21
  1

  0
LINE
  5
18D
330
18A
100
AcDbEntity
  8
0
 62
7
100
AcDbLine
 10
0.0
 20
1385.0
 30
0.0
 11
0.0
 21
1294.0
 31
0.0
  0
LINE
  5
18E
330
18A
100
AcDbEntity
  8
0
 62
7
100
AcDbLine
 10
102.0
 20
1385.0
 30
0.0
 11
102.0
 21
1294.0
 31
0.0
  0
INSERT
  5
18F
330
18A
100
AcDbEntity
  8
0
 62
7
100
AcDbBlockReference
  2
_CLOSEDFILLED
 10
0.0
 20
1304.0
 30
0.0
 41
20.0
 42
20.0
 50
180.0
  0
INSERT
  5
191
330
18A
100
AcDbEntity
  8
0
 62
7
100
AcDbBlockReference
  2
_CLOSEDFILLED
 10
102.0
 20
1304.0
 30
0.0
 41
20.0
 42
20.0
  0
LINE
  5
193
330
18A
100
AcDbEntity
  8
0
 62
7
100
AcDbLine
 10
20.0
 20
1304.0
 30
0.0
 11
21.0
 21
1304.0
 31
0.0
  0
LINE
  5
194
330
18A
100
AcDbEntity
  8
0
 62
7
100
AcDbLine
 10
81.0
 20
1304.0
 30
0.0
 11
82.0
 21
1304.0
 31
0.0
  0
MTEXT
  5
195
330
18A
100
AcDbEntity
  8
0
 62
7
100
AcDbMText
 10
51.0
 20
1304.0
 30
0.0
 40
20.0
 71
5
  1
102
  0
POINT
  5
196
330
18A
100
AcDbEntity
  8
Defpoints
100
AcDbPoint
 10
0.0
 20
1304.0
 30
0.0
  0
POINT
  5
197
330
18A
100
AcDbEntity
  8
Defpoints
100
AcDbPoint
 10
0.0
 20
1390.0
 30
0.0
  0
POINT
  5
198
330
18A
100
AcDbEntity
  8
Defpoints
100
AcDbPoint
 10
102.0
 20
1390.0
 30
0.0
  0
ENDBLK
  5
18C
330
18A
100
AcDbEntity
  8
0
100
AcDbBlockEnd
  0
BLOCK
  5
19B
330
19A
100
AcDbEntity
  8
0
100
AcDbBlockBegin
  2
*D22
 70
1
 10
0.0
 20
0.0
 30
0.0
  3
*D22
  1

  0
LINE
  5
19D
330
19A
100
AcDbEntity
  8
0
 62
7
100
AcDbLine
 10
102.0
 20
1385.0
 30
0.0
 11
102.0
 21
1294.0
 31
0.0
  0
LINE
  5
19E
330
19A
100
AcDbEntity
  8
0
 62
7
100
AcDbLine
 10
202.0
 20
1385.0
 30
0.0
 11
202.0
 21
1294.0
 31
0.0
  0
INSERT
  5
19F
330
19A
100
AcDbEntity
  8
0
 62
7
100
AcDbBlockReference
  2
_CLOSEDFILLED
 10
102.0
 20
1304.0
 30
0.0
 41
20.0
 42
20.0
 50
180.0
  0
INSERT
  5
1A1
330
19A
100
AcDbEntity
  8
0
 62
7
100
AcDbBlockReference
  2
_CLOSEDFILLED
 10
202.0
 20
1304.0
 30
0.0
 41
20.0
 42
20.0
  0
MTEXT
  5
1A3
330
19A
100
AcDbEntity
  8
0
 62
7
100
AcDbMText
 10
152.0
 20
1304.0
 30
0.0
 40
20.0
 71
5
  1
100
  0
POINT
  5
1A4
330
19A
100
AcDbEntity
  8
Defpoints
100
AcDbPoint
 10
102.0
 20
1304.0
 30
0.0
  0
POINT
  5
1A5
330
19A
100
AcDbEntity
  8
Defpoints
100
AcDbPoint
 10
102.0
 20
1390.0
 30
0.0
  0
POINT
  5
1A6
330
19A
100
AcDbEntity
  8
Defpoints
100
AcDbPoint
 10
202.0
 20
1390.0
 30
0.0
  0
ENDBLK
  5
19C
330
19A
100
AcDbEntity
  8
0
100
AcDbBlockEnd
  0
BLOCK
  5
1A9
330
1A8
100
AcDbEntity
  8
0
100
AcDbBlockBegin
  2
*D23
 70
1
 10
0.0
 20
0.0
 30
0.0
  3
*D23
  1

  0
LINE
  5
1AB
330
1A8
100
AcDbEntity
  8
0
 62
7
100
AcDbLine
 10
202.0
 20
1385.0
 30
0.0
 11
202.0
 21
1294.0
 31
0.0
  0
LINE
  5
1AC
330
1A8
100
AcDbEntity
  8
0
 62
7
100
AcDbLine
 10
385.0
 20
1385.0
 30
0.0
 11
385.0
 21
1294.0
 31
0.0
  0
INSERT
  5
1AD
330
1A8
100
AcDbEntity
  8
0
 62
7
100
AcDbBlockReference
  2
_CLOSEDFILLED
 10
202.0
 20
1304.0
 30
0.0
 41
20.0
 42
20.0
 50
180.0
  0
INSERT
  5
1AF
330
1A8
100
AcDbEntity
  8
0
 62
7
100
AcDbBlockReference
  2
_CLOSEDFILLED
 10
385.0
 20
1304.0
 30
0.0
 41
20.0
 42
20.0
  0
LINE
  5
1B1
330
1A8
100
AcDbEntity
  8
0
 62
7
100
AcDbLine
 10
222.0
 20
1304.0
 30
0.0
 11
263.5
 21
1304.0
 31
0.0
  0
LINE
  5
1B2
330
1A8
100
AcDbEntity
  8
0
 62
7
100
AcDbLine
 10
323.5
 20
1304.0
 30
0.0
 11
365.0
 21
1304.0
 31
0.0
  0
MTEXT
  5
1B3
330
1A8
100
AcDbEntity
  8
0
 62
7
100
AcDbMText
 10
293.5
 20
1304.0
 30
0.0
 40
20.0
 71
5
  1
183
  0
POINT
  5
1B4
330
1A8
100
AcDbEntity
  8
Defpoints
100
AcDbPoint
 10
202.0
 20
1304.0
 30
0.0
  0
POINT
  5
1B5
330
1A8
100
AcDbEntity
  8
Defpoints
100
AcDbPoint
 10
202.0
 20
1390.0
 30
0.0
  0
POINT
  5
1B6
330
1A8
100
AcDbEntity
  8
Defpoints
100
AcDbPoint
 10
385.0
 20
1390.0
 30
0.0
  0
ENDBLK
  5
1AA
330
1A8
100
AcDbEntity
  8
0
100
AcDbBlockEnd
  0
BLOCK
  5
1B9
330
1B8
100
AcDbEntity
  8
0
100
AcDbBlockBegin
  2
*D24
 70
1
 10
0.0
 20
0.0
 30
0.0
  3
*D24
  1

  0
LINE
  5
1BB
330
1B8
100
AcDbEntity
  8
0
 62
7
100
AcDbLine
 10
385.0
 20
1385.0
 30
0.0
 11
385.0
 21
1294.0
 31
0.0
  0
LINE
  5
1BC
330
1B8
100
AcDbEntity
  8
0
 62
7
100
AcDbLine
 10
485.0
 20
1385.0
 30
0.0
 11
485.0
 21
1294.0
 31
0.0
  0
INSERT
  5
1BD
330
1B8
100
AcDbEntity
  8
0
 62
7
100
AcDbBlockReference
  2
_CLOSEDFILLED
 10
385.0
 20
1304.0
 30
0.0
 41
20.0
 42
20.0
 50
180.0
  0
INSERT
  5
1BF
330
1B8
100
AcDbEntity
  8
0
 62
7
100
AcDbBlockReference
  2
_CLOSEDFILLED
 10
485.0
 20
1304.0
 30
0.0
 41
20.0
 42
20.0
  0
MTEXT
  5
1C1
330
1B8
100
AcDbEntity
  8
0
 62
7
100
AcDbMText
 10
435.0
 20
1304.0
 30
0.0
 40
20.0
 71
5
  1
100
  0
POINT
  5
1C2
330
1B8
100
AcDbEntity
  8
Defpoints
100
AcDbPoint
 10
385.0
 20
1304.0
 30
0.0
  0
POINT
  5
1C3
330
1B8
100
AcDbEntity
  8
Defpoints
100
AcDbPoint
 10
385.0
 20
1390.0
 30
0.0
  0
POINT
  5
1C4
330
1B8
100
AcDbEntity
  8
Defpoints
100
AcDbPoint
 10
485.0
 20
1390.0
 30
0.0
  0
ENDBLK
  5
1BA
330
1B8
100
AcDbEntity
  8
0
100
AcDbBlockEnd
  0
BLOCK
  5
1C7
330
1C6
100
AcDbEntity
  8
0
100
AcDbBlockBegin
  2
*D25
 70
1
 10
0.0
 20
0.0
 30
0.0
  3
*D25
  1

  0
LINE
  5
1C9
330
1C6
100
AcDbEntity
  8
0
 62
7
100
AcDbLine
 10
485.0
 20
1385.0
 30
0.0
 11
485.0
 21
1294.0
 31
0.0
  0
LINE
  5
1CA
330
1C6
100
AcDbEntity
  8
0
 62
7
100
AcDbLine
 10
587.0
 20
1385.0
 30
0.0
 11
587.0
 21
1294.0
 31
0.0
  0
INSERT
  5
1CB
330
1C6
100
AcDbEntity
  8
0
 62
7
100
AcDbBlockReference
  2
_CLOSEDFILLED
 10
485.0
 20
1304.0
 30
0.0
 41
20.0
 42
20.0
 50
180.0
  0
INSERT
  5
1CD
330
1C6
100
AcDbEntity
  8
0
 62
7
100
AcDbBlockReference
  2
_CLOSEDFILLED
 10
587.0
 20
1304.0
 30
0.0
 41
20.0
 42
20.0
  0
LINE
  5
1CF
330
1C6
100
AcDbEntity
  8
0
 62
7
100
AcDbLine
 10
505.0
 20
1304.0
 30
0.0
 11
506.0
 21
1304.0
 31
0.0
  0
LINE
  5
1D0
330
1C6
100
AcDbEntity
  8
0
 62
7
100
AcDbLine
 10
566.0
 20
1304.0
 30
0.0
 11
567.0
 21
1304.0
 31
0.0
  0
MTEXT
  5
1D1
330
1C6
100
AcDbEntity
  8
0
 62
7
100
AcDbMText
 10
536.0
 20
1304.0
 30
0.0
 40
20.0
 71
5
  1
102
  0
POINT
  5
1D2
330
1C6
100
AcDbEntity
  8
Defpoints
100
AcDbPoint
 10
485.0
 20
1304.0
 30
0.0
  0
POINT
  5
1D3
330
1C6
100
AcDbEntity
  8
Defpoints
100
AcDbPoint
 10
485.0
 20
1390.0
 30
0.0
  0
POINT
  5
1D4
330
1C6
100
AcDbEntity
  8
Defpoints
100
AcDbPoint
 10
587.0
 20
1390.0
 30
0.0
  0
ENDBLK
  5
1C8
330
1C6
100
AcDbEntity
  8
0
100
AcDbBlockEnd
  0
BLOCK
  5
1D7
330
1D6
100
AcDbEntity
  8
0
100
AcDbBlockBegin
  2
*D26
 70
1
 10
0.0
 20
0.0
 30
0.0
  3
*D26
  1

  0
LINE
  5
1D9
330
1D6
100
AcDbEntity
  8
0
 62
7
100
AcDbLine
 10
942.0
 20
1390.0
 30
0.0
 11
1911.0
 21
1390.0
 31
0.0
  0
LINE
  5
1DA
330
1D6
100
AcDbEntity
  8
0
 62
7
100
AcDbLine
 10
942.0
 20
1626.0
 30
0.0
 11
1911.0
 21
1626.0
 31
0.0
  0
INSERT
  5
1DB
330
1D6
100
AcDbEntity
  8
0
 62
7
100
AcDbBlockReference
  2
_CLOSEDFILLED
 10
1901.0
 20
1390.0
 30
0.0
 41
20.0
 42
20.0
 50
270.0
  0
INSERT
  5
1DD
330
1D6
100
AcDbEntity
  8
0
 62
7
100
AcDbBlockReference
  2
_CLOSEDFILLED
 10
1901.0
 20
1626.0
 30
0.0
 41
20.0
 42
20.0
 50
90.0
  0
LINE
  5
1DF
330
1D6
100
AcDbEntity
  8
0
 62
7
100
AcDbLine
 10
1901.0
 20
1410.0
 30
0.0
 11
1901.0
 21
1478.0
 31
0.0
  0
LINE
  5
1E0
330
1D6
100
AcDbEntity
  8
0
 62
7
100
AcDbLine
 10
1901.0
 20
1538.0
 30
0.0
 11
1901.0
 21
1606.0
 31
0.0
  0
MTEXT
  5
1E1
330
1D6
100
AcDbEntity
  8
0
 62
7
100
AcDbMText
 10
1901.0
 20
1508.0
 30
0.0
 40
20.0
 71
5
  1
236
 50
90.0
  0
POINT
  5
1E2
330
1D6
100
AcDbEntity
  8
Defpoints
100
AcDbPoint
 10
1901.0
 20
1390.0
 30
0.0
  0
POINT
  5
1E3
330
1D6
100
AcDbEntity
  8
Defpoints
100
AcDbPoint
 10
937.0
 20
1390.0
 30
0.0
  0
POINT
  5
1E4
330
1D6
100
AcDbEntity
  8
Defpoints
100
AcDbPoint
 10
937.0
 20
1626.0
 30
0.0
  0
ENDBLK
  5
1D8
330
1D6
100
AcDbEntity
  8
0
100
AcDbBlockEnd
  0
BLOCK
  5
1E7
330
1E6
100
AcDbEntity
  8
0
100
AcDbBlockBegin
  2
*D27
 70
1
 10
0.0
 20
0.0
 30
0.0
  3
*D27
  1

  0
LINE
  5
1E9
330
1E6
100
AcDbEntity
  8
0
 62
7
100
AcDbLine
 10
942.0
 20
1626.0
 30
0.0
 11
1911.0
 21
1626.0
 31
0.0
  0
LINE
  5
1EA
330
1E6
100
AcDbEntity
  8
0
 62
7
100
AcDbLine
 10
942.0
 20
1991.0
 30
0.0
 11
1911.0
 21
1991.0
 31
0.0
  0
INSERT
  5
1EB
330
1E6
100
AcDbEntity
  8
0
 62
7
100
AcDbBlockReference
  2
_CLOSEDFILLED
 10
1901.0
 20
1626.0
 30
0.0
 41
20.0
 42
20.0
 50
270.0
  0
INSERT
  5
1ED
330
1E6
100
AcDbEntity
  8
0
 62
7
100
AcDbBlockReference
  2
_CLOSEDFILLED
 10
1901.0
 20
1991.0
 30
0.0
 41
20.0
 42
20.0
 50
90.0
  0
LINE
  5
1EF
330
1E6
100
AcDbEntity
  8
0
 62
7
100
AcDbLine
 10
1901.0
 20
1646.0
 30
0.0
 11
1901.0
 21
1778.5
 31
0.0
  0
LINE
  5
1F0
330
1E6
100
AcDbEntity
  8
0
 62
7
100
AcDbLine
 10
1901.0
 20
1838.5
 30
0.0
 11
1901.0
 21
1971.0
 31
0.0
  0
MTEXT
  5
1F1
330
1E6
100
AcDbEntity
  8
0
 62
7
100
AcDbMText
 10
1901.0
 20
1808.5
 30
0.0
 40
20.0
 71
5
  1
365
 50
90.0
  0
POINT
  5
1F2
330
1E6
100
AcDbEntity
  8
Defpoints
100
AcDbPoint
 10
1901.0
 20
1626.0
 30
0.0
  0
POINT
  5
1F3
330
1E6
100
AcDbEntity
  8
Defpoints
100
AcDbPoint
 10
937.0
 20
1626.0
 30
0.0
  0
POINT
  5
1F4
330
1E6
100
AcDbEntity
  8
Defpoints
100
AcDbPoint
 10
937.0
 20
1991.0
 30
0.0
  0
ENDBLK
  5
1E8
330
1E6
100
AcDbEntity
  8
0
100
AcDbBlockEnd
  0
BLOCK
  5
1F7
330
1F6
100
AcDbEntity
  8
0
100
AcDbBlockBegin
  2
*D28
 70
1
 10
0.0
 20
0.0
 30
0.0
  3
*D28
  1

  0
LINE
  5
1F9
330
1F6
100
AcDbEntity
  8
0
 62
7
100
AcDbLine
 10
942.0
 20
1991.0
 30
0.0
 11
1911.0
 21
1991.0
 31
0.0
  0
LINE
  5
1FA
330
1F6
100
AcDbEntity
  8
0
 62
7
100
AcDbLine
 10
942.0
 20
2307.0
 30
0.0
 11
1911.0
 21
2307.0
 31
0.0
  0
INSERT
  5
1FB
330
1F6
100
AcDbEntity
  8
0
 62
7
100
AcDbBlockReference
  2
_CLOSEDFILLED
 10
1901.0
 20
1991.0
 30
0.0
 41
20.0
 42
20.0
 50
270.0
  0
INSERT
  5
1FD
330
1F6
100
AcDbEntity
  8
0
 62
7
100
AcDbBlockReference
  2
_CLOSEDFILLED
 10
1901.0
 20
2307.0
 30
0.0
 41
20.0
 42
20.0
 50
90.0
  0
LINE
  5
1FF
330
1F6
100
AcDbEntity
  8
0
 62
7
100
AcDbLine
 10
1901.0
 20
2011.0
 30
0.0
 11
1901.0
 21
2119.0
 31
0.0
  0
LINE
  5
200
330
1F6
100
AcDbEntity
  8
0
 62
7
100
AcDbLine
 10
1901.0
 20
2179.0
 30
0.0
 11
1901.0
 21
2287.0
 31
0.0
  0
MTEXT
  5
201
330
1F6
100
AcDbEntity
  8
0
 62
7
100
AcDbMText
 10
1901.0
 20
2149.0
 30
0.0
 40
20.0
 71
5
  1
316
 50
90.0
  0
POINT
  5
202
330
1F6
100
AcDbEntity
  8
Defpoints
100
AcDbPoint
 10
1901.0
 20
1991.0
 30
0.0
  0
POINT
  5
203
330
1F6
100
AcDbEntity
  8
Defpoints
100
AcDbPoint
 10
937.0
 20
1991.0
 30
0.0
  0
POINT
  5
204
330
1F6
100
AcDbEntity
  8
Defpoints
100
AcDbPoint
 10
937.0
 20
2307.0
 30
0.0
  0
ENDBLK
  5
1F8
330
1F6
100
AcDbEntity
  8
0
100
AcDbBlockEnd
  0
BLOCK
  5
207
330
206
100
AcDbEntity
  8
0
100
AcDbBlockBegin
  2
*D29
 70
1
 10
0.0
 20
0.0
 30
0.0
  3
*D29
  1

  0
LINE
  5
209
330
206
100
AcDbEntity
  8
0
 62
7
100
AcDbLine
 10
937.0
 20
2312.0
 30
0.0
 11
937.0
 21
2387.0
 31
0.0
  0
LINE
  5
20A
330
206
100
AcDbEntity
  8
0
 62
7
100
AcDbLine
 10
1263.0
 20
2312.0
 30
0.0
 11
1263.0
 21
2387.0
 31
0.0
  0
INSERT
  5
20B
330
206
100
AcDbEntity
  8
0
 62
7
100
AcDbBlockReference
  2
_CLOSEDFILLED
 10
937.0
 20
2377.0
 30
0.0
 41
20.0
 42
20.0
 50
180.0
  0
INSERT
  5
20D
330
206
100
AcDbEntity
  8
0
 62
7
100
AcDbBlockReference
  2
_CLOSEDFILLED
 10
1263.0
 20
2377.0
 30
0.0
 41
20.0
 42
20.0
  0
LINE
  5
20F
330
206
100
AcDbEntity
  8
0
 62
7
100
AcDbLine
 10
957.0
 20
2377.0
 30
0.0
 11
1070.0
 21
2377.0
 31
0.0
  0
LINE
  5
210
330
206
100
AcDbEntity
  8
0
 62
7
100
AcDbLine
 10
1130.0
 20
2377.0
 30
0.0
 11
1243.0
 21
2377.0
 31
0.0
  0
MTEXT
  5
211
330
206
100
AcDbEntity
  8
0
 62
7
100
AcDbMText
 10
1100.0
 20
2377.0
 30
0.0
 40
20.0
 71
5
  1
326
  0
POINT
  5
212
330
206
100
AcDbEntity
  8
Defpoints
100
AcDbPoint
 10
937.0
 20
2377.0
 30
0.0
  0
POINT
  5
213
330
206
100
AcDbEntity
  8
Defpoints
100
AcDbPoint
 10
937.0
 20
2307.0
 30
0.0
  0
POINT
  5
214
330
206
100
AcDbEntity
  8
Defpoints
100
AcDbPoint
 10
1263.0
 20
2307.0
 30
0.0
  0
ENDBLK
  5
208
330
206
100
AcDbEntity
  8
0
100
AcDbBlockEnd
  0
BLOCK
  5
217
330
216
100
AcDbEntity
  8
0
100
AcDbBlockBegin
  2
*D30
 70
1
 10
0.0
 20
0.0
 30
0.0
  3
*D30
  1

  0
LINE
  5
219
330
216
100
AcDbEntity
  8
0
 62
7
100
AcDbLine
 10
1263.0
 20
2312.0
 30
0.0
 11
1263.0
 21
2387.0
 31
0.0
  0
LINE
  5
21A
330
216
100
AcDbEntity
  8
0
 62
7
100
AcDbLine
 10
1501.0
 20
2312.0
 30
0.0
 11
1501.0
 21
2387.0
 31
0.0
  0
INSERT
  5
21B
330
216
100
AcDbEntity
  8
0
 62
7
100
AcDbBlockReference
  2
_CLOSEDFILLED
 10
1263.0
 20
2377.0
 30
0.0
 41
20.0
 42
20.0
 50
180.0
  0
INSERT
  5
21D
330
216
100
AcDbEntity
  8
0
 62
7
100
AcDbBlockReference
  2
_CLOSEDFILLED
 10
1501.0
 20
2377.0
 30
0.0
 41
20.0
 42
20.0
  0
LINE
  5
21F
330
216
100
AcDbEntity
  8
0
 62
7
100
AcDbLine
 10
1283.0
 20
2377.0
 30
0.0
 11
1352.0
 21
2377.0
 31
0.0
  0
LINE
  5
220
330
216
100
AcDbEntity
  8
0
 62
7
100
AcDbLine
 10
1412.0
 20
2377.0
 30
0.0
 11
1481.0
 21
2377.0
 31
0.0
  0
MTEXT
  5
221
330
216
100
AcDbEntity
  8
0
 62
7
100
AcDbMText
 10
1382.0
 20
2377.0
 30
0.0
 40
20.0
 71
5
  1
238
  0
POINT
  5
222
330
216
100
AcDbEntity
  8
Defpoints
100
AcDbPoint
 10
1263.0
 20
2377.0
 30
0.0
  0
POINT
  5
223
330
216
100
AcDbEntity
  8
Defpoints
100
AcDbPoint
 10
1263.0
 20
2307.0
 30
0.0
  0
POINT
  5
224
330
216
100
AcDbEntity
  8
Defpoints
100
AcDbPoint
 10
1501.0
 20
2307.0
 30
0.0
  0
ENDBLK
  5
218
330
216
100
AcDbEntity
  8
0
100
AcDbBlockEnd
  0
BLOCK
  5
227
330
226
100
AcDbEntity
  8
0
100
AcDbBlockBegin
  2
*D31
 70
1
 10
0.0
 20
0.0
 30
0.0
  3
*D31
  1

  0
LINE
  5
229
330
226
100
AcDbEntity
  8
0
 62
7
100
AcDbLine
 10
1501.0
 20
2312.0
 30
0.0
 11
1501.0
 21
2387.0
 31
0.0
  0
LINE
  5
22A
330
226
100
AcDbEntity
  8
0
 62
7
100
AcDbLine
 10
1827.0
 20
2312.0
 30
0.0
 11
1827.0
 21
2387.0
 31
0.0
  0
INSERT
  5
22B
330
226
100
AcDbEntity
  8
0
 62
7
100
AcDbBlockReference
  2
_CLOSEDFILLED
 10
1501.0
 20
2377.0
 30
0.0
 41
20.0
 42
20.0
 50
180.0
  0
INSERT
  5
22D
330
226
100
AcDbEntity
  8
0
 62
7
100
AcDbBlockReference
  2
_CLOSEDFILLED
 10
1827.0
 20
2377.0
 30
0.0
 41
20.0
 42
20.0
  0
LINE
  5
22F
330
226
100
AcDbEntity
  8
0
 62
7
100
AcDbLine
 10
1521.0
 20
2377.0
 30
0.0
 11
1634.0
 21
2377.0
 31
0.0
  0
LINE
  5
230
330
226
100
AcDbEntity
  8
0
 62
7
100
AcDbLine
 10
1694.0
 20
2377.0
 30
0.0
 11
1807.0
 21
2377.0
 31
0.0
  0
MTEXT
  5
231
330
226
100
AcDbEntity
  8
0
 62
7
100
AcDbMText
 10
1664.0
 20
2377.0
 30
0.0
 40
20.0
 71
5
  1
326
  0
POINT
  5
232
330
226
100
AcDbEntity
  8
Defpoints
100
AcDbPoint
 10
1501.0
 20
2377.0
 30
0.0
  0
POINT
  5
233
330
226
100
AcDbEntity
  8
Defpoints
100
AcDbPoint
 10
1501.0
 20
2307.0
 30
0.0
  0
POINT
  5
234
330
226
100
AcDbEntity
  8
Defpoints
100
AcDbPoint
 10
1827.0
 20
2307.0
 30
0.0
  0
ENDBLK
  5
228
330
226
100
AcDbEntity
  8
0
100
AcDbBlockEnd
  0
BLOCK
  5
237
330
236
100
AcDbEntity
  8
0
100
AcDbBlockBegin
  2
*D32
 70
1
 10
0.0
 20
0.0
 30
0.0
  3
*D32
  1

  0
LINE
  5
239
330
236
100
AcDbEntity
  8
0
 62
7
100
AcDbLine
 10
937.0
 20
1385.0
 30
0.0
 11
937.0
 21
1293.0
 31
0.0
  0
LINE
  5
23A
330
236
100
AcDbEntity
  8
0
 62
7
100
AcDbLine
 10
1062.0
 20
1385.0
 30
0.0
 11
1062.0
 21
1293.0
 31
0.0
  0
INSERT
  5
23B
330
236
100
AcDbEntity
  8
0
 62
7
100
AcDbBlockReference
  2
_CLOSEDFILLED
 10
937.0
 20
1303.0
 30
0.0
 41
20.0
 42
20.0
 50
180.0
  0
INSERT
  5
23D
330
236
100
AcDbEntity
  8
0
 62
7
100
AcDbBlockReference
  2
_CLOSEDFILLED
 10
1062.0
 20
1303.0
 30
0.0
 41
20.0
 42
20.0
  0
LINE
  5
23F
330
236
100
AcDbEntity
  8
0
 62
7
100
AcDbLine
 10
957.0
 20
1303.0
 30
0.0
 11
969.5
 21
1303.0
 31
0.0
  0
LINE
  5
240
330
236
100
AcDbEntity
  8
0
 62
7
100
AcDbLine
 10
1029.5
 20
1303.0
 30
0.0
 11
1042.0
 21
1303.0
 31
0.0
  0
MTEXT
  5
241
330
236
100
AcDbEntity
  8
0
 62
7
100
AcDbMText
 10
999.5
 20
1303.0
 30
0.0
 40
20.0
 71
5
  1
125
  0
POINT
  5
242
330
236
100
AcDbEntity
  8
Defpoints
100
AcDbPoint
 10
937.0
 20
1303.0
 30
0.0
  0
POINT
  5
243
330
236
100
AcDbEntity
  8
Defpoints
100
AcDbPoint
 10
937.0
 20
1390.0
 30
0.0
  0
POINT
  5
244
330
236
100
AcDbEntity
  8
Defpoints
100
AcDbPoint
 10
1062.0
 20
1390.0
 30
0.0
  0
ENDBLK
  5
238
330
236
100
AcDbEntity
  8
0
100
AcDbBlockEnd
  0
BLOCK
  5
247
330
246
100
AcDbEntity
  8
0
100
AcDbBlockBegin
  2
*D33
 70
1
 10
0.0
 20
0.0
 30
0.0
  3
*D33
  1

  0
LINE
  5
249
330
246
100
AcDbEntity
  8
0
 62
7
100
AcDbLine
 10
1062.0
 20
1385.0
 30
0.0
 11
1062.0
 21
1293.0
 31
0.0
  0
LINE
  5
24A
330
246
100
AcDbEntity
  8
0
 62
7
100
AcDbLine
 10
1162.0
 20
1385.0
 30
0.0
 11
1162.0
 21
1293.0
 31
0.0
  0
INSERT
  5
24B
330
246
100
AcDbEntity
  8
0
 62
7
100
AcDbBlockReference
  2
_CLOSEDFILLED
 10
1062.0
 20
1303.0
 30
0.0
 41
20.0
 42
20.0
 50
180.0
  0
INSERT
  5
24D
330
246
100
AcDbEntity
  8
0
 62
7
100
AcDbBlockReference
  2
_CLOSEDFILLED
 10
1162.0
 20
1303.0
 30
0.0
 41
20.0
 42
20.0
  0
MTEXT
  5
24F
330
246
100
AcDbEntity
  8
0
 62
7
100
AcDbMText
 10
1112.0
 20
1303.0
 30
0.0
 40
20.0
 71
5
  1
100
  0
POINT
  5
250
330
246
100
AcDbEntity
  8
Defpoints
100
AcDbPoint
 10
1062.0
 20
1303.0
 30
0.0
  0
POINT
  5
251
330
246
100
AcDbEntity
  8
Defpoints
100
AcDbPoint
 10
1062.0
 20
1390.0
 30
0.0
  0
POINT
  5
252
330
246
100
AcDbEntity
  8
Defpoints
100
AcDbPoint
 10
1162.0
 20
1390.0
 30
0.0
  0
ENDBLK
  5
248
330
246
100
AcDbEntity
  8
0
100
AcDbBlockEnd
  0
BLOCK
  5
255
330
254
100
AcDbEntity
  8
0
100
AcDbBlockBegin
  2
*D34
 70
1
 10
0.0
 20
0.0
 30
0.0
  3
*D34
  1

  0
LINE
  5
257
330
254
100
AcDbEntity
  8
0
 62
7
100
AcDbLine
 10
1162.0
 20
1385.0
 30
0.0
 11
1162.0
 21
1293.0
 31
0.0
  0
LINE
  5
258
330
254
100
AcDbEntity
  8
0
 62
7
100
AcDbLine
 10
1332.0
 20
1385.0
 30
0.0
 11
1332.0
 21
1293.0
 31
0.0
  0
INSERT
  5
259
330
254
100
AcDbEntity
  8
0
 62
7
100
AcDbBlockReference
  2
_CLOSEDFILLED
 10
1162.0
 20
1303.0
 30
0.0
 41
20.0
 42
20.0
 50
180.0
  0
INSERT
  5
25B
330
254
100
AcDbEntity
  8
0
 62
7
100
AcDbBlockReference
  2
_CLOSEDFILLED
 10
1332.0
 20
1303.0
 30
0.0
 41
20.0
 42
20.0
  0
LINE
  5
25D
330
254
100
AcDbEntity
  8
0
 62
7
100
AcDbLine
 10
1182.0
 20
1303.0
 30
0.0
 11
1217.0
 21
1303.0
 31
0.0
  0
LINE
  5
25E
330
254
100
AcDbEntity
  8
0
 62
7
100
AcDbLine
 10
1277.0
 20
1303.0
 30
0.0
 11
1312.0
 21
1303.0
 31
0.0
  0
MTEXT
  5
25F
330
254
100
AcDbEntity
  8
0
 62
7
100
AcDbMText
 10
1247.0
 20
1303.0
 30
0.0
 40
20.0
 71
5
  1
170
  0
POINT
  5
260
330
254
100
AcDbEntity
  8
Defpoints
100
AcDbPoint
 10
1162.0
 20
1303.0
 30
0.0
  0
POINT
  5
261
330
254
100
AcDbEntity
  8
Defpoints
100
AcDbPoint
 10
1162.0
 20
1390.0
 30
0.0
  0
POINT
  5
262
330
254
100
AcDbEntity
  8
Defpoints
100
AcDbPoint
 10
1332.0
 20
1390.0
 30
0.0
  0
ENDBLK
  5
256
330
254
100
AcDbEntity
  8
0
100
AcDbBlockEnd
  0
BLOCK
  5
265
330
264
100
AcDbEntity
  8
0
100
AcDbBlockBegin
  2
*D35
 70
1
 10
0.0
 20
0.0
 30
0.0
  3
*D35
  1

  0
LINE
  5
267
330
264
100
AcDbEntity
  8
0
 62
7
100
AcDbLine
 10
1332.0
 20
1385.0
 30
0.0
 11
1332.0
 21
1293.0
 31
0.0
  0
LINE
  5
268
330
264
100
AcDbEntity
  8
0
 62
7
100
AcDbLine
 10
1432.0
 20
1385.0
 30
0.0
 11
1432.0
 21
1293.0
 31
0.0
  0
INSERT
  5
269
330
264
100
AcDbEntity
  8
0
 62
7
100
AcDbBlockReference
  2
_CLOSEDFILLED
 10
1332.0
 20
1303.0
 30
0.0
 41
20.0
 42
20.0
 50
180.0
  0
INSERT
  5
26B
330
264
100
AcDbEntity
  8
0
 62
7
100
AcDbBlockReference
  2
_CLOSEDFILLED
 10
1432.0
 20
1303.0
 30
0.0
 41
20.0
 42
20.0
  0
MTEXT
  5
26D
330
264
100
AcDbEntity
  8
0
 62
7
100
AcDbMText
 10
1382.0
 20
1303.0
 30
0.0
 40
20.0
 71
5
  1
100
  0
POINT
  5
26E
330
264
100
AcDbEntity
  8
Defpoints
100
AcDbPoint
 10
1332.0
 20
1303.0
 30
0.0
  0
POINT
  5
26F
330
264
100
AcDbEntity
  8
Defpoints
100
AcDbPoint
 10
1332.0
 20
1390.0
 30
0.0
  0
POINT
  5
270
330
264
100
AcDbEntity
  8
Defpoints
100
AcDbPoint
 10
1432.0
 20
1390.0
 30
0.0
  0
ENDBLK
  5
266
330
264
100
AcDbEntity
  8
0
100
AcDbBlockEnd
  0
BLOCK
  5
273
330
272
100
AcDbEntity
  8
0
100
AcDbBlockBegin
  2
*D36
 70
1
 10
0.0
 20
0.0
 30
0.0
  3
*D36
  1

  0
LINE
  5
275
330
272
100
AcDbEntity
  8
0
 62
7
100
AcDbLine
 10
1432.0
 20
1385.0
 30
0.0
 11
1432.0
 21
1293.0
 31
0.0
  0
LINE
  5
276
330
272
100
AcDbEntity
  8
0
 62
7
100
AcDbLine
 10
1602.0
 20
1385.0
 30
0.0
 11
1602.0
 21
1293.0
 31
0.0
  0
INSERT
  5
277
330
272
100
AcDbEntity
  8
0
 62
7
100
AcDbBlockReference
  2
_CLOSEDFILLED
 10
1432.0
 20
1303.0
 30
0.0
 41
20.0
 42
20.0
 50
180.0
  0
INSERT
  5
279
330
272
100
AcDbEntity
  8
0
 62
7
100
AcDbBlockReference
  2
_CLOSEDFILLED
 10
1602.0
 20
1303.0
 30
0.0
 41
20.0
 42
20.0
  0
LINE
  5
27B
330
272
100
AcDbEntity
  8
0
 62
7
100
AcDbLine
 10
1452.0
 20
1303.0
 30
0.0
 11
1487.0
 21
1303.0
 31
0.0
  0
LINE
  5
27C
330
272
100
AcDbEntity
  8
0
 62
7
100
AcDbLine
 10
1547.0
 20
1303.0
 30
0.0
 11
1582.0
 21
1303.0
 31
0.0
  0
MTEXT
  5
27D
330
272
100
AcDbEntity
  8
0
 62
7
100
AcDbMText
 10
1517.0
 20
1303.0
 30
0.0
 40
20.0
 71
5
  1
170
  0
POINT
  5
27E
330
272
100
AcDbEntity
  8
Defpoints
100
AcDbPoint
 10
1432.0
 20
1303.0
 30
0.0
  0
POINT
  5
27F
330
272
100
AcDbEntity
  8
Defpoints
100
AcDbPoint
 10
1432.0
 20
1390.0
 30
0.0
  0
POINT
  5
280
330
272
100
AcDbEntity
  8
Defpoints
100
AcDbPoint
 10
1602.0
 20
1390.0
 30
0.0
  0
ENDBLK
  5
274
330
272
100
AcDbEntity
  8
0
100
AcDbBlockEnd
  0
BLOCK
  5
283
330
282
100
AcDbEntity
  8
0
100
AcDbBlockBegin
  2
*D37
 70
1
 10
0.0
 20
0.0
 30
0.0
  3
*D37
  1

  0
LINE
  5
285
330
282
100
AcDbEntity
  8
0
 62
7
100
AcDbLine
 10
1602.0
 20
1385.0
 30
0.0
 11
1602.0
 21
1293.0
 31
0.0
  0
LINE
  5
286
330
282
100
AcDbEntity
  8
0
 62
7
100
AcDbLine
 10
1702.0
 20
1385.0
 30
0.0
 11
1702.0
 21
1293.0
 31
0.0
  0
INSERT
  5
287
330
282
100
AcDbEntity
  8
0
 62
7
100
AcDbBlockReference
  2
_CLOSEDFILLED
 10
1602.0
 20
1303.0
 30
0.0
 41
20.0
 42
20.0
 50
180.0
  0
INSERT
  5
289
330
282
100
AcDbEntity
  8
0
 62
7
100
AcDbBlockReference
  2
_CLOSEDFILLED
 10
1702.0
 20
1303.0
 30
0.0
 41
20.0
 42
20.0
  0
MTEXT
  5
28B
330
282
100
AcDbEntity
  8
0
 62
7
100
AcDbMText
 10
1652.0
 20
1303.0
 30
0.0
 40
20.0
 71
5
  1
100
  0
POINT
  5
28C
330
282
100
AcDbEntity
  8
Defpoints
100
AcDbPoint
 10
1602.0
 20
1303.0
 30
0.0
  0
POINT
  5
28D
330
282
100
AcDbEntity
  8
Defpoints
100
AcDbPoint
 10
1602.0
 20
1390.0
 30
0.0
  0
POINT
  5
28E
330
282
100
AcDbEntity
  8
Defpoints
100
AcDbPoint
 10
1702.0
 20
1390.0
 30
0.0
  0
ENDBLK
  5
284
330
282
100
AcDbEntity
  8
0
100
AcDbBlockEnd
  0
BLOCK
  5
291
330
290
100
AcDbEntity
  8
0
100
AcDbBlockBegin
  2
*D38
 70
1
 10
0.0
 20
0.0
 30
0.0
  3
*D38
  1

  0
LINE
  5
293
330
290
100
AcDbEntity
  8
0
 62
7
100
AcDbLine
 10
1702.0
 20
1385.0
 30
0.0
 11
1702.0
 21
1293.0
 31
0.0
  0
LINE
  5
294
330
290
100
AcDbEntity
  8
0
 62
7
100
AcDbLine
 10
1827.0
 20
1385.0
 30
0.0
 11
1827.0
 21
1293.0
 31
0.0
  0
INSERT
  5
295
330
290
100
AcDbEntity
  8
0
 62
7
100
AcDbBlockReference
  2
_CLOSEDFILLED
 10
1702.0
 20
1303.0
 30
0.0
 41
20.0
 42
20.0
 50
180.0
  0
INSERT
  5
297
330
290
100
AcDbEntity
  8
0
 62
7
100
AcDbBlockReference
  2
_CLOSEDFILLED
 10
1827.0
 20
1303.0
 30
0.0
 41
20.0
 42
20.0
  0
LINE
  5
299
330
290
100
AcDbEntity
  8
0
 62
7
100
AcDbLine
 10
1722.0
 20
1303.0
 30
0.0
 11
1734.5
 21
1303.0
 31
0.0
  0
LINE
  5
29A
330
290
100
AcDbEntity
  8
0
 62
7
100
AcDbLine
 10
1794.5
 20
1303.0
 30
0.0
 11
1807.0
 21
1303.0
 31
0.0
  0
MTEXT
  5
29B
330
290
100
AcDbEntity
  8
0
 62
7
100
AcDbMText
 10
1764.5
 20
1303.0
 30
0.0
 40
20.0
 71
5
  1
125
  0
POINT
  5
29C
330
290
100
AcDbEntity
  8
Defpoints
100
AcDbPoint
 10
1702.0
 20
1303.0
 30
0.0
  0
POINT
  5
29D
330
290
100
AcDbEntity
  8
Defpoints
100
AcDbPoint
 10
1702.0
 20
1390.0
 30
0.0
  0
POINT
  5
29E
330
290
100
AcDbEntity
  8
Defpoints
100
AcDbPoint
 10
1827.0
 20
1390.0
 30
0.0
  0
ENDBLK
  5
292
330
290
100
AcDbEntity
  8
0
100
AcDbBlockEnd
  0
ENDSEC
  0
SECTION
  2
ENTITIES
  0
LWPOLYLINE
  5
32
330
17
100
AcDbEntity
  8
chengtai
100
AcDbPolyline
 90
5
 70
0
 10
0.0
 20
0.0
 10
587.0
 20
0.0
 10
587.0
 20
890.0
 10
0.0
 20
890.0
 10
0.0
 20
0.0
  0
LINE
  5
33
330
17
100
AcDbEntity
  8
dunzhu
100
AcDbLine
 10
-45.5
 20
326.0
 30
0.0
 11
46.5
 21
326.0
 31
0.0
  0
LINE
  5
34
330
17
100
AcDbEntity
  8
dunzhu
100
AcDbLine
 10
63.5
 20
343.0
 30
0.0
 11
63.5
 21
547.0
 31
0.0
  0
LINE
  5
35
330
17
100
AcDbEntity
  8
dunzhu
100
AcDbLine
 10
46.5
 20
564.0
 30
0.0
 11
-45.5
 21
564.0
 31
0.0
  0
LINE
  5
36
330
17
100
AcDbEntity
  8
dunzhu
100
AcDbLine
 10
-62.5
 20
547.0
 30
0.0
 11
-62.5
 21
343.0
 31
0.0
  0
ARC
  5
37
330
17
100
AcDbEntity
  8
dunzhu
100
AcDbCircle
 10
-45.5
 20
343.0
 30
0.0
 40
17.0
100
AcDbArc
 50
180.0
 51
270.0
  0
ARC
  5
38
330
17
100
AcDbEntity
  8
dunzhu
100
AcDbCircle
 10
46.5
 20
343.0
 30
0.0
 40
17.0
100
AcDbArc
 50
270.0
 51
360.0
  0
ARC
  5
39
330
17
100
AcDbEntity
  8
dunzhu
100
AcDbCircle
 10
46.5
 20
547.0
 30
0.0
 40
17.0
100
AcDbArc
 50
0.0
 51
90.0
  0
ARC
  5
3A
330
17
100
AcDbEntity
  8
dunzhu
100
AcDbCircle
 10
-45.5
 20
547.0
 30
0.0
 40
17.0
100
AcDbArc
 50
90.0
 51
180.0
  0
LINE
  5
3B
330
17
100
AcDbEntity
  8
dunzhu
100
AcDbLine
 10
540.5
 20
326.0
 30
0.0
 11
632.5
 21
326.0
 31
0.0
  0
LINE
  5
3C
330
17
100
AcDbEntity
  8
dunzhu
100
AcDbLine
 10
649.5
 20
343.0
 30
0.0
 11
649.5
 21
547.0
 31
0.0
  0
LINE
  5
3D
330
17
100
AcDbEntity
  8
dunzhu
100
AcDbLine
 10
632.5
 20
564.0
 30
0.0
 11
540.5
 21
564.0
 31
0.0
  0
LINE
  5
3E
330
17
100
AcDbEntity
  8
dunzhu
100
AcDbLine
 10
523.5
 20
547.0
 30
0.0
 11
523.5
 21
343.0
 31
0.0
  0
ARC
  5
3F
330
17
100
AcDbEntity
  8
dunzhu
100
AcDbCircle
 10
540.5
 20
343.0
 30
0.0
 40
17.0
100
AcDbArc
 50
180.0
 51
270.0
  0
ARC
  5
40
330
17
100
AcDbEntity
  8
dunzhu
100
AcDbCircle
 10
632.5
 20
343.0
 30
0.0
 40
17.0
100
AcDbArc
 50
270.0
 51
360.0
  0
ARC
  5
41
330
17
100
AcDbEntity
  8
dunzhu
100
AcDbCircle
 10
632.5
 20
547.0
 30
0.0
 40
17.0
100
AcDbArc
 50
0.0
 51
90.0
  0
ARC
  5
42
330
17
100
AcDbEntity
  8
dunzhu
100
AcDbCircle
 10
540.5
 20
547.0
 30
0.0
 40
17.0
100
AcDbArc
 50
90.0
 51
180.0
  0
CIRCLE
  5
43
330
17
100
AcDbEntity
  8
zhuangji
100
AcDbCircle
 10
152.0
 20
175.0
 30
0.0
 40
50.0
  0
CIRCLE
  5
44
330
17
100
AcDbEntity
  8
zhuangji
  6
DASHED
100
AcDbCircle
 10
152.0
 20
175.0
 30
0.0
 40
50.0
  0
CIRCLE
  5
45
330
17
100
AcDbEntity
  8
zhuangji
100
AcDbCircle
 10
152.0
 20
445.0
 30
0.0
 40
50.0
  0
CIRCLE
  5
46
330
17
100
AcDbEntity
  8
zhuangji
  6
DASHED
100
AcDbCircle
 10
152.0
 20
445.0
 30
0.0
 40
50.0
  0
CIRCLE
  5
47
330
17
100
AcDbEntity
  8
zhuangji
100
AcDbCircle
 10
152.0
 20
715.0
 30
0.0
 40
50.0
  0
CIRCLE
  5
48
330
17
100
AcDbEntity
  8
zhuangji
  6
DASHED
100
AcDbCircle
 10
152.0
 20
715.0
 30
0.0
 40
50.0
  0
CIRCLE
  5
49
330
17
100
AcDbEntity
  8
zhuangji
100
AcDbCircle
 10
435.0
 20
175.0
 30
0.0
 40
50.0
  0
CIRCLE
  5
4A
330
17
100
AcDbEntity
  8
zhuangji
  6
DASHED
100
AcDbCircle
 10
435.0
 20
175.0
 30
0.0
 40
50.0
  0
CIRCLE
  5
4B
330
17
100
AcDbEntity
  8
zhuangji
100
AcDbCircle
 10
435.0
 20
445.0
 30
0.0
 40
50.0
  0
CIRCLE
  5
4C
330
17
100
AcDbEntity
  8
zhuangji
  6
DASHED
100
AcDbCircle
 10
435.0
 20
445.0
 30
0.0
 40
50.0
  0
CIRCLE
  5
4D
330
17
100
AcDbEntity
  8
zhuangji
100
AcDbCircle
 10
435.0
 20
715.0
 30
0.0
 40
50.0
  0
CIRCLE
  5
4E
330
17
100
AcDbEntity
  8
zhuangji
  6
DASHED
100
AcDbCircle
 10
435.0
 20
715.0
 30
0.0
 40
50.0
  0
LWPOLYLINE
  5
4F
330
17
100
AcDbEntity
  8
chengtai
100
AcDbPolyline
 90
5
 70
0
 10
0.0
 20
1626.0
 10
587.0
 20
1626.0
 10
587.0
 20
1991.0
 10
0.0
 20
1991.0
 10
0.0
 20
1626.0
  0
LWPOLYLINE
  5
50
330
17
100
AcDbEntity
  8
dunzhu
100
AcDbPolyline
 90
5
 70
0
 10
-62.5
 20
1991.0
 10
63.5
 20
1991.0
 10
63.5
 20
2307.0
 10
-62.5
 20
2307.0
 10
-62.5
 20
1991.0
  0
LWPOLYLINE
  5
51
330
17
100
AcDbEntity
  8
dunzhu
100
AcDbPolyline
 90
5
 70
0
 10
523.5
 20
1991.0
 10
649.5
 20
1991.0
 10
649.5
 20
2307.0
 10
523.5
 20
2307.0
 10
523.5
 20
1991.0
  0
LWPOLYLINE
  5
52
330
17
100
AcDbEntity
  8
zhuangji
100
AcDbPolyline
 90
5
 70
0
 10
102.0
 20
1390.0
 10
202.0
 20
1390.0
 10
202.0
 20
1626.0
 10
102.0
 20
1626.0
 10
102.0
 20
1390.0
  0
LWPOLYLINE
  5
53
330
17
100
AcDbEntity
  8
zhuangji
100
AcDbPolyline
 90
5
 70
0
 10
385.0
 20
1390.0
 10
485.0
 20
1390.0
 10
485.0
 20
1626.0
 10
385.0
 20
1626.0
 10
385.0
 20
1390.0
  0
LWPOLYLINE
  5
54
330
17
100
AcDbEntity
  8
chengtai
100
AcDbPolyline
 90
5
 70
0
 10
937.0
 20
1626.0
 10
1827.0
 20
1626.0
 10
1827.0
 20
1991.0
 10
937.0
 20
1991.0
 10
937.0
 20
1626.0
  0
LWPOLYLINE
  5
55
330
17
100
AcDbEntity
  8
dunzhu
100
AcDbPolyline
 90
5
 70
0
 10
1263.0
 20
1991.0
 10
1501.0
 20
1991.0
 10
1501.0
 20
2307.0
 10
1263.0
 20
2307.0
 10
1263.0
 20
1991.0
  0
LWPOLYLINE
  5
56
330
17
100
AcDbEntity
  8
zhuangji
100
AcDbPolyline
 90
5
 70
0
 10
1062.0
 20
1390.0
 10
1162.0
 20
1390.0
 10
1162.0
 20
1626.0
 10
1062.0
 20
1626.0
 10
1062.0
 20
1390.0
  0
LWPOLYLINE
  5
57
330
17
100
AcDbEntity
  8
zhuangji
100
AcDbPolyline
 90
5
 70
0
 10
1332.0
 20
1390.0
 10
1432.0
 20
1390.0
 10
1432.0
 20
1626.0
 10
1332.0
 20
1626.0
 10
1332.0
 20
1390.0
  0
LWPOLYLINE
  5
58
330
17
100
AcDbEntity
  8
zhuangji
100
AcDbPolyline
 90
5
 70
0
 10
1602.0
 20
1390.0
 10
1702.0
 20
1390.0
 10
1702.0
 20
1626.0
 10
1602.0
 20
1626.0
 10
1602.0
 20
1390.0
  0
INSERT
  5
29F
330
17
100
AcDbEntity
  8
0
 62
7
100
AcDbBlockReference
  2
_CLOSEDFILLED
 10
58.520815280171306
 20
330.9791847198287
 30
0.0
 41
20.0
 42
20.0
 50
135.00000000000003
  0
LINE
  5
2A1
330
17
100
AcDbEntity
  8
0
 62
7
100
AcDbLine
 10
46.5
 20
343.0
 30
0.0
 11
58.520815280171306
 21
330.9791847198287
 31
0.0
  0
LINE
  5
2A2
330
17
100
AcDbEntity
  8
0
 62
7
100
AcDbLine
 10
76.19848480983498
 20
313.30151519016505
 30
0.0
 11
72.66295090390226
 21
316.83704909609776
 31
0.0
  0
MTEXT
  5
2A3
330
17
100
AcDbEntity
  8
0
 62
7
100
AcDbMText
 10
97.41168824543144
 20
292.0883117545686
 30
0.0
 40
20.0
 71
5
  1
R17
 50
315.00000000000006
  0
POINT
  5
2A4
330
17
100
AcDbEntity
  8
Defpoints
 62
7
100
AcDbPoint
 10
46.5
 20
343.0
 30
0.0
  0
POINT
  5
2A5
330
17
100
AcDbEntity
  8
Defpoints
 62
7
100
AcDbPoint
 10
58.520815280171306
 20
330.9791847198287
 30
0.0
  0
INSERT
  5
2A6
330
17
100
AcDbEntity
  8
0
 62
7
100
AcDbBlockReference
  2
_CLOSEDFILLED
 10
644.5208152801713
 20
330.9791847198287
 30
0.0
 41
20.0
 42
20.0
 50
135.0
  0
LINE
  5
2A8
330
17
100
AcDbEntity
  8
0
 62
7
100
AcDbLine
 10
632.5
 20
343.0
 30
0.0
 11
644.5208152801713
 21
330.9791847198287
 31
0.0
  0
LINE
  5
2A9
330
17
100
AcDbEntity
  8
0
 62
7
100
AcDbLine
 10
662.198484809835
 20
313.301515190165
 30
0.0
 11
658.6629509039022
 21
316.83704909609776
 31
0.0
  0
MTEXT
  5
2AA
330
17
100
AcDbEntity
  8
0
 62
7
100
AcDbMText
 10
683.4116882454314
 20
292.0883117545686
 30
0.0
 40
20.0
 71
5
  1
R17
 50
315.0
  0
POINT
  5
2AB
330
17
100
AcDbEntity
  8
Defpoints
 62
7
100
AcDbPoint
 10
632.5
 20
343.0
 30
0.0
  0
POINT
  5
2AC
330
17
100
AcDbEntity
  8
Defpoints
 62
7
100
AcDbPoint
 10
644.5208152801713
 20
330.9791847198287
 30
0.0
  0
INSERT
  5
2AD
330
17
100
AcDbEntity
  8
0
 62
7
100
AcDbBlockReference
  2
_CLOSEDFILLED
 10
187.35533905932738
 20
139.64466094067262
 30
0.0
 41
20.0
 42
20.0
 50
135.0
  0
INSERT
  5
2AF
330
17
100
AcDbEntity
  8
0
 62
7
100
AcDbBlockReference
  2
_CLOSEDFILLED
 10
116.64466094067262
 20
210.35533905932738
 30
0.0
 41
20.0
 42
20.0
 50
135.0
  0
LINE
  5
2B1
330
17
100
AcDbEntity
  8
0
 62
7
100
AcDbLine
 10
201.49747468305833
 20
125.50252531694167
 30
0.0
 11
130.78679656440357
 21
196.21320343559643
 31
0.0
  0
LINE
  5
2B2
330
17
100
AcDbEntity
  8
0
 62
7
100
AcDbLine
 10
205.03300858899107
 20
121.96699141100893
 30
0.0
 11
201.49747468305833
 21
125.50252531694167
 31
0.0
  0
MTEXT
  5
2B3
330
17
100
AcDbEntity
  8
0
 62
7
100
AcDbMText
 10
233.31727983645297
 20
93.68272016354703
 30
0.0
 40
20.0
 71
5
  1
%%c100
 50
315.0
  0
POINT
  5
2B4
330
17
100
AcDbEntity
  8
Defpoints
 62
7
100
AcDbPoint
 10
152.0
 20
175.0
 30
0.0
  0
POINT
  5
2B5
330
17
100
AcDbEntity
  8
Defpoints
 62
7
100
AcDbPoint
 10
187.35533905932738
 20
139.64466094067262
 30
0.0
  0
INSERT
  5
2B6
330
17
100
AcDbEntity
  8
0
 62
7
100
AcDbBlockReference
  2
_CLOSEDFILLED
 10
470.3553390593274
 20
750.3553390593273
 30
0.0
 41
20.0
 42
20.0
 50
224.99999999999994
  0
INSERT
  5
2B8
330
17
100
AcDbEntity
  8
0
 62
7
100
AcDbBlockReference
  2
_CLOSEDFILLED
 10
399.6446609406726
 20
679.6446609406727
 30
0.0
 41
20.0
 42
20.0
 50
224.99999999999994
  0
LINE
  5
2BA
330
17
100
AcDbEntity
  8
0
 62
7
100
AcDbLine
 10
484.49747468305833
 20
764.4974746830583
 30
0.0
 11
413.7867965644036
 21
693.7867965644036
 31
0.0
  0
LINE
  5
2BB
330
17
100
AcDbEntity
  8
0
 62
7
100
AcDbLine
 10
488.0330085889911
 20
768.033008588991
 30
0.0
 11
484.49747468305833
 21
764.4974746830583
 31
0.0
  0
MTEXT
  5
2BC
330
17
100
AcDbEntity
  8
0
 62
7
100
AcDbMText
 10
516.317279836453
 20
796.3172798364528
 30
0.0
 40
20.0
 71
5
  1
%%c100
 50
44.99999999999996
  0
POINT
  5
2BD
330
17
100
AcDbEntity
  8
Defpoints
 62
7
100
AcDbPoint
 10
435.0
 20
715.0
 30
0.0
  0
POINT
  5
2BE
330
17
100
AcDbEntity
  8
Defpoints
 62
7
100
AcDbPoint
 10
470.3553390593274
 20
750.3553390593273
 30
0.0
  0
LINE
  5
2BF
330
17
100
AcDbEntity
  8
0
 62
7
100
AcDbLine
 10
0.0
 20
-5.0
 30
0.0
 11
0.0
 21
-83.0
 31
0.0
  0
LINE
  5
2C0
330
17
100
AcDbEntity
  8
0
 62
7
100
AcDbLine
 10
-62.5
 20
-5.0
 30
0.0
 11
-62.5
 21
-83.0
 31
0.0
  0
INSERT
  5
2C1
330
17
100
AcDbEntity
  8
0
 62
7
100
AcDbBlockReference
  2
_CLOSEDFILLED
 10
0.0
 20
-73.0
 30
0.0
 41
20.0
 42
20.0
 50
180.0
  0
INSERT
  5
2C3
330
17
100
AcDbEntity
  8
0
 62
7
100
AcDbBlockReference
  2
_CLOSEDFILLED
 10
-62.5
 20
-73.0
 30
0.0
 41
20.0
 42
20.0
  0
LINE
  5
2C5
330
17
100
AcDbEntity
  8
0
 62
7
100
AcDbLine
 10
20.0
 20
-73.0
 30
0.0
 11
-82.5
 21
-73.0
 31
0.0
  0
MTEXT
  5
2C6
330
17
100
AcDbEntity
  8
0
 62
7
100
AcDbMText
 10
-31.25
 20
-98.0
 30
0.0
 40
20.0
 71
5
  1
62.5
  0
POINT
  5
2C7
330
17
100
AcDbEntity
  8
Defpoints
 62
7
100
AcDbPoint
 10
0.0
 20
-73.0
 30
0.0
  0
POINT
  5
2C8
330
17
100
AcDbEntity
  8
Defpoints
 62
7
100
AcDbPoint
 10
0.0
 20
0.0
 30
0.0
  0
POINT
  5
2C9
330
17
100
AcDbEntity
  8
Defpoints
 62
7
100
AcDbPoint
 10
-62.5
 20
0.0
 30
0.0
  0
LINE
  5
2CA
330
17
100
AcDbEntity
  8
0
 62
7
100
AcDbLine
 10
-62.5
 20
-5.0
 30
0.0
 11
-62.5
 21
-83.0
 31
0.0
  0
LINE
  5
2CB
330
17
100
AcDbEntity
  8
0
 62
7
100
AcDbLine
 10
63.5
 20
-5.0
 30
0.0
 11
63.5
 21
-83.0
 31
0.0
  0
INSERT
  5
2CC
330
17
100
AcDbEntity
  8
0
 62
7
100
AcDbBlockReference
  2
_CLOSEDFILLED
 10
-62.5
 20
-73.0
 30
0.0
 41
20.0
 42
20.0
 50
180.0
  0
INSERT
  5
2CE
330
17
100
AcDbEntity
  8
0
 62
7
100
AcDbBlockReference
  2
_CLOSEDFILLED
 10
63.5
 20
-73.0
 30
0.0
 41
20.0
 42
20.0
  0
LINE
  5
2D0
330
17
100
AcDbEntity
  8
0
 62
7
100
AcDbLine
 10
-42.5
 20
-73.0
 30
0.0
 11
-29.5
 21
-73.0
 31
0.0
  0
LINE
  5
2D1
330
17
100
AcDbEntity
  8
0
 62
7
100
AcDbLine
 10
30.5
 20
-73.0
 30
0.0
 11
43.5
 21
-73.0
 31
0.0
  0
MTEXT
  5
2D2
330
17
100
AcDbEntity
  8
0
 62
7
100
AcDbMText
 10
0.5
 20
-73.0
 30
0.0
 40
20.0
 71
5
  1
126
  0
POINT
  5
2D3
330
17
100
AcDbEntity
  8
Defpoints
 62
7
100
AcDbPoint
 10
-62.5
 20
-73.0
 30
0.0
  0
POINT
  5
2D4
330
17
100
AcDbEntity
  8
Defpoints
 62
7
100
AcDbPoint
 10
-62.5
 20
0.0
 30
0.0
  0
POINT
  5
2D5
330
17
100
AcDbEntity
  8
Defpoints
 62
7
100
AcDbPoint
 10
63.5
 20
0.0
 30
0.0
  0
LINE
  5
2D6
330
17
100
AcDbEntity
  8
0
 62
7
100
AcDbLine
 10
63.5
 20
-5.0
 30
0.0
 11
63.5
 21
-83.0
 31
0.0
  0
LINE
  5
2D7
330
17
100
AcDbEntity
  8
0
 62
7
100
AcDbLine
 10
523.5
 20
-5.0
 30
0.0
 11
523.5
 21
-83.0
 31
0.0
  0
INSERT
  5
2D8
330
17
100
AcDbEntity
  8
0
 62
7
100
AcDbBlockReference
  2
_CLOSEDFILLED
 10
63.5
 20
-73.0
 30
0.0
 41
20.0
 42
20.0
 50
180.0
  0
INSERT
  5
2DA
330
17
100
AcDbEntity
  8
0
 62
7
100
AcDbBlockReference
  2
_CLOSEDFILLED
 10
523.5
 20
-73.0
 30
0.0
 41
20.0
 42
20.0
  0
LINE
  5
2DC
330
17
100
AcDbEntity
  8
0
 62
7
100
AcDbLine
 10
83.5
 20
-73.0
 30
0.0
 11
263.5
 21
-73.0
 31
0.0
  0
LINE
  5
2DD
330
17
100
AcDbEntity
  8
0
 62
7
100
AcDbLine
 10
323.5
 20
-73.0
 30
0.0
 11
503.5
 21
-73.0
 31
0.0
  0
MTEXT
  5
2DE
330
17
100
AcDbEntity
  8
0
 62
7
100
AcDbMText
 10
293.5
 20
-73.0
 30
0.0
 40
20.0
 71
5
  1
460
  0
POINT
  5
2DF
330
17
100
AcDbEntity
  8
Defpoints
 62
7
100
AcDbPoint
 10
63.5
 20
-73.0
 30
0.0
  0
POINT
  5
2E0
330
17
100
AcDbEntity
  8
Defpoints
 62
7
100
AcDbPoint
 10
63.5
 20
0.0
 30
0.0
  0
POINT
  5
2E1
330
17
100
AcDbEntity
  8
Defpoints
 62
7
100
AcDbPoint
 10
523.5
 20
0.0
 30
0.0
  0
LINE
  5
2E2
330
17
100
AcDbEntity
  8
0
 62
7
100
AcDbLine
 10
523.5
 20
-5.0
 30
0.0
 11
523.5
 21
-83.0
 31
0.0
  0
LINE
  5
2E3
330
17
100
AcDbEntity
  8
0
 62
7
100
AcDbLine
 10
649.5
 20
-5.0
 30
0.0
 11
649.5
 21
-83.0
 31
0.0
  0
INSERT
  5
2E4
330
17
100
AcDbEntity
  8
0
 62
7
100
AcDbBlockReference
  2
_CLOSEDFILLED
 10
523.5
 20
-73.0
 30
0.0
 41
20.0
 42
20.0
 50
180.0
  0
INSERT
  5
2E6
330
17
100
AcDbEntity
  8
0
 62
7
100
AcDbBlockReference
  2
_CLOSEDFILLED
 10
649.5
 20
-73.0
 30
0.0
 41
20.0
 42
20.0
  0
LINE
  5
2E8
330
17
100
AcDbEntity
  8
0
 62
7
100
AcDbLine
 10
543.5
 20
-73.0
 30
0.0
 11
556.5
 21
-73.0
 31
0.0
  0
LINE
  5
2E9
330
17
100
AcDbEntity
  8
0
 62
7
100
AcDbLine
 10
616.5
 20
-73.0
 30
0.0
 11
629.5
 21
-73.0
 31
0.0
  0
MTEXT
  5
2EA
330
17
100
AcDbEntity
  8
0
 62
7
100
AcDbMText
 10
586.5
 20
-73.0
 30
0.0
 40
20.0
 71
5
  1
126
  0
POINT
  5
2EB
330
17
100
AcDbEntity
  8
Defpoints
 62
7
100
AcDbPoint
 10
523.5
 20
-73.0
 30
0.0
  0
POINT
  5
2EC
330
17
100
AcDbEntity
  8
Defpoints
 62
7
100
AcDbPoint
 10
523.5
 20
0.0
 30
0.0
  0
POINT
  5
2ED
330
17
100
AcDbEntity
  8
Defpoints
 62
7
100
AcDbPoint
 10
649.5
 20
0.0
 30
0.0
  0
LINE
  5
2EE
330
17
100
AcDbEntity
  8
0
 62
7
100
AcDbLine
 10
649.5
 20
-5.0
 30
0.0
 11
649.5
 21
-83.0
 31
0.0
  0
LINE
  5
2EF
330
17
100
AcDbEntity
  8
0
 62
7
100
AcDbLine
 10
587.0
 20
-5.0
 30
0.0
 11
587.0
 21
-83.0
 31
0.0
  0
INSERT
  5
2F0
330
17
100
AcDbEntity
  8
0
 62
7
100
AcDbBlockReference
  2
_CLOSEDFILLED
 10
649.5
 20
-73.0
 30
0.0
 41
20.0
 42
20.0
 50
180.0
  0
INSERT
  5
2F2
330
17
100
AcDbEntity
  8
0
 62
7
100
AcDbBlockReference
  2
_CLOSEDFILLED
 10
587.0
 20
-73.0
 30
0.0
 41
20.0
 42
20.0
  0
LINE
  5
2F4
330
17
100
AcDbEntity
  8
0
 62
7
100
AcDbLine
 10
669.5
 20
-73.0
 30
0.0
 11
567.0
 21
-73.0
 31
0.0
  0
MTEXT
  5
2F5
330
17
100
AcDbEntity
  8
0
 62
7
100
AcDbMText
 10
618.25
 20
-98.0
 30
0.0
 40
20.0
 71
5
  1
62.5
  0
POINT
  5
2F6
330
17
100
AcDbEntity
  8
Defpoints
 62
7
100
AcDbPoint
 10
649.5
 20
-73.0
 30
0.0
  0
POINT
  5
2F7
330
17
100
AcDbEntity
  8
Defpoints
 62
7
100
AcDbPoint
 10
649.5
 20
0.0
 30
0.0
  0
POINT
  5
2F8
330
17
100
AcDbEntity
  8
Defpoints
 62
7
100
AcDbPoint
 10
587.0
 20
0.0
 30
0.0
  0
LINE
  5
2F9
330
17
100
AcDbEntity
  8
0
 62
7
100
AcDbLine
 10
-5.0
 20
0.0
 30
0.0
 11
-77.0
 21
0.0
 31
0.0
  0
LINE
  5
2FA
330
17
100
AcDbEntity
  8
0
 62
7
100
AcDbLine
 10
-5.0
 20
326.0
 30
0.0
 11
-77.0
 21
326.0
 31
0.0
  0
INSERT
  5
2FB
330
17
100
AcDbEntity
  8
0
 62
7
100
AcDbBlockReference
  2
_CLOSEDFILLED
 10
-67.0
 20
0.0
 30
0.0
 41
20.0
 42
20.0
 50
270.0
  0
INSERT
  5
2FD
330
17
100
AcDbEntity
  8
0
 62
7
100
AcDbBlockReference
  2
_CLOSEDFILLED
 10
-67.0
 20
326.0
 30
0.0
 41
20.0
 42
20.0
 50
90.0
  0
LINE
  5
2FF
330
17
100
AcDbEntity
  8
0
 62
7
100
AcDbLine
 10
-67.0
 20
20.0
 30
0.0
 11
-67.0
 21
133.0
 31
0.0
  0
LINE
  5
300
330
17
100
AcDbEntity
  8
0
 62
7
100
AcDbLine
 10
-67.0
 20
193.0
 30
0.0
 11
-67.0
 21
306.0
 31
0.0
  0
MTEXT
  5
301
330
17
100
AcDbEntity
  8
0
 62
7
100
AcDbMText
 10
-67.0
 20
163.0
 30
0.0
 40
20.0
 71
5
  1
326
 50
90.0
  0
POINT
  5
302
330
17
100
AcDbEntity
  8
Defpoints
 62
7
100
AcDbPoint
 10
-67.0
 20
0.0
 30
0.0
  0
POINT
  5
303
330
17
100
AcDbEntity
  8
Defpoints
 62
7
100
AcDbPoint
 10
0.0
 20
0.0
 30
0.0
  0
POINT
  5
304
330
17
100
AcDbEntity
  8
Defpoints
 62
7
100
AcDbPoint
 10
0.0
 20
326.0
 30
0.0
  0
LINE
  5
305
330
17
100
AcDbEntity
  8
0
 62
7
100
AcDbLine
 10
-5.0
 20
326.0
 30
0.0
 11
-77.0
 21
326.0
 31
0.0
  0
LINE
  5
306
330
17
100
AcDbEntity
  8
0
 62
7
100
AcDbLine
 10
-5.0
 20
564.0
 30
0.0
 11
-77.0
 21
564.0
 31
0.0
  0
INSERT
  5
307
330
17
100
AcDbEntity
  8
0
 62
7
100
AcDbBlockReference
  2
_CLOSEDFILLED
 10
-67.0
 20
326.0
 30
0.0
 41
20.0
 42
20.0
 50
270.0
  0
INSERT
  5
309
330
17
100
AcDbEntity
  8
0
 62
7
100
AcDbBlockReference
  2
_CLOSEDFILLED
 10
-67.0
 20
564.0
 30
0.0
 41
20.0
 42
20.0
 50
90.0
  0
LINE
  5
30B
330
17
100
AcDbEntity
  8
0
 62
7
100
AcDbLine
 10
-67.0
 20
346.0
 30
0.0
 11
-67.0
 21
415.0
 31
0.0
  0
LINE
  5
30C
330
17
100
AcDbEntity
  8
0
 62
7
100
AcDbLine
 10
-67.0
 20
475.0
 30
0.0
 11
-67.0
 21
544.0
 31
0.0
  0
MTEXT
  5
30D
330
17
100
AcDbEntity
  8
0
 62
7
100
AcDbMText
 10
-67.0
 20
445.0
 30
0.0
 40
20.0
 71
5
  1
238
 50
90.0
  0
POINT
  5
30E
330
17
100
AcDbEntity
  8
Defpoints
 62
7
100
AcDbPoint
 10
-67.0
 20
326.0
 30
0.0
  0
POINT
  5
30F
330
17
100
AcDbEntity
  8
Defpoints
 62
7
100
AcDbPoint
 10
0.0
 20
326.0
 30
0.0
  0
POINT
  5
310
330
17
100
AcDbEntity
  8
Defpoints
 62
7
100
AcDbPoint
 10
0.0
 20
564.0
 30
0.0
  0
LINE
  5
311
330
17
100
AcDbEntity
  8
0
 62
7
100
AcDbLine
 10
-5.0
 20
564.0
 30
0.0
 11
-77.0
 21
564.0
 31
0.0
  0
LINE
  5
312
330
17
100
AcDbEntity
  8
0
 62
7
100
AcDbLine
 10
-5.0
 20
890.0
 30
0.0
 11
-77.0
 21
890.0
 31
0.0
  0
INSERT
  5
313
330
17
100
AcDbEntity
  8
0
 62
7
100
AcDbBlockReference
  2
_CLOSEDFILLED
 10
-67.0
 20
564.0
 30
0.0
 41
20.0
 42
20.0
 50
270.0
  0
INSERT
  5
315
330
17
100
AcDbEntity
  8
0
 62
7
100
AcDbBlockReference
  2
_CLOSEDFILLED
 10
-67.0
 20
890.0
 30
0.0
 41
20.0
 42
20.0
 50
90.0
  0
LINE
  5
317
330
17
100
AcDbEntity
  8
0
 62
7
100
AcDbLine
 10
-67.0
 20
584.0
 30
0.0
 11
-67.0
 21
697.0
 31
0.0
  0
LINE
  5
318
330
17
100
AcDbEntity
  8
0
 62
7
100
AcDbLine
 10
-67.0
 20
757.0
 30
0.0
 11
-67.0
 21
870.0
 31
0.0
  0
MTEXT
  5
319
330
17
100
AcDbEntity
  8
0
 62
7
100
AcDbMText
 10
-67.0
 20
727.0
 30
0.0
 40
20.0
 71
5
  1
326
 50
90.0
  0
POINT
  5
31A
330
17
100
AcDbEntity
  8
Defpoints
 62
7
100
AcDbPoint
 10
-67.0
 20
564.0
 30
0.0
  0
POINT
  5
31B
330
17
100
AcDbEntity
  8
Defpoints
 62
7
100
AcDbPoint
 10
0.0
 20
564.0
 30
0.0
  0
POINT
  5
31C
330
17
100
AcDbEntity
  8
Defpoints
 62
7
100
AcDbPoint
 10
0.0
 20
890.0
 30
0.0
  0
LINE
  5
31D
330
17
100
AcDbEntity
  8
0
 62
7
100
AcDbLine
 10
-5.0
 20
1390.0
 30
0.0
 11
-97.0
 21
1390.0
 31
0.0
  0
LINE
  5
31E
330
17
100
AcDbEntity
  8
0
 62
7
100
AcDbLine
 10
-5.0
 20
1626.0
 30
0.0
 11
-97.0
 21
1626.0
 31
0.0
  0
INSERT
  5
31F
330
17
100
AcDbEntity
  8
0
 62
7
100
AcDbBlockReference
  2
_CLOSEDFILLED
 10
-87.0
 20
1390.0
 30
0.0
 41
20.0
 42
20.0
 50
270.0
  0
INSERT
  5
321
330
17
100
AcDbEntity
  8
0
 62
7
100
AcDbBlockReference
  2
_CLOSEDFILLED
 10
-87.0
 20
1626.0
 30
0.0
 41
20.0
 42
20.0
 50
90.0
  0
LINE
  5
323
330
17
100
AcDbEntity
  8
0
 62
7
100
AcDbLine
 10
-87.0
 20
1410.0
 30
0.0
 11
-87.0
 21
1478.0
 31
0.0
  0
LINE
  5
324
330
17
100
AcDbEntity
  8
0
 62
7
100
AcDbLine
 10
-87.0
 20
1538.0
 30
0.0
 11
-87.0
 21
1606.0
 31
0.0
  0
MTEXT
  5
325
330
17
100
AcDbEntity
  8
0
 62
7
100
AcDbMText
 10
-87.0
 20
1508.0
 30
0.0
 40
20.0
 71
5
  1
236
 50
90.0
  0
POINT
  5
326
330
17
100
AcDbEntity
  8
Defpoints
 62
7
100
AcDbPoint
 10
-87.0
 20
1390.0
 30
0.0
  0
POINT
  5
327
330
17
100
AcDbEntity
  8
Defpoints
 62
7
100
AcDbPoint
 10
0.0
 20
1390.0
 30
0.0
  0
POINT
  5
328
330
17
100
AcDbEntity
  8
Defpoints
 62
7
100
AcDbPoint
 10
0.0
 20
1626.0
 30
0.0
  0
LINE
  5
329
330
17
100
AcDbEntity
  8
0
 62
7
100
AcDbLine
 10
-5.0
 20
1626.0
 30
0.0
 11
-97.0
 21
1626.0
 31
0.0
  0
LINE
  5
32A
330
17
100
AcDbEntity
  8
0
 62
7
100
AcDbLine
 10
-5.0
 20
1991.0
 30
0.0
 11
-97.0
 21
1991.0
 31
0.0
  0
INSERT
  5
32B
330
17
100
AcDbEntity
  8
0
 62
7
100
AcDbBlockReference
  2
_CLOSEDFILLED
 10
-87.0
 20
1626.0
 30
0.0
 41
20.0
 42
20.0
 50
270.0
  0
INSERT
  5
32D
330
17
100
AcDbEntity
  8
0
 62
7
100
AcDbBlockReference
  2
_CLOSEDFILLED
 10
-87.0
 20
1991.0
 30
0.0
 41
20.0
 42
20.0
 50
90.0
  0
LINE
  5
32F
330
17
100
AcDbEntity
  8
0
 62
7
100
AcDbLine
 10
-87.0
 20
1646.0
 30
0.0
 11
-87.0
 21
1778.5
 31
0.0
  0
LINE
  5
330
330
17
100
AcDbEntity
  8
0
 62
7
100
AcDbLine
 10
-87.0
 20
1838.5
 30
0.0
 11
-87.0
 21
1971.0
 31
0.0
  0
MTEXT
  5
331
330
17
100
AcDbEntity
  8
0
 62
7
100
AcDbMText
 10
-87.0
 20
1808.5
 30
0.0
 40
20.0
 71
5
  1
365
 50
90.0
  0
POINT
  5
332
330
17
100
AcDbEntity
  8
Defpoints
 62
7
100
AcDbPoint
 10
-87.0
 20
1626.0
 30
0.0
  0
POINT
  5
333
330
17
100
AcDbEntity
  8
Defpoints
 62
7
100
AcDbPoint
 10
0.0
 20
1626.0
 30
0.0
  0
POINT
  5
334
330
17
100
AcDbEntity
  8
Defpoints
 62
7
100
AcDbPoint
 10
0.0
 20
1991.0
 30
0.0
  0
LINE
  5
335
330
17
100
AcDbEntity
  8
0
 62
7
100
AcDbLine
 10
-5.0
 20
1991.0
 30
0.0
 11
-97.0
 21
1991.0
 31
0.0
  0
LINE
  5
336
330
17
100
AcDbEntity
  8
0
 62
7
100
AcDbLine
 10
-5.0
 20
2307.0
 30
0.0
 11
-97.0
 21
2307.0
 31
0.0
  0
INSERT
  5
337
330
17
100
AcDbEntity
  8
0
 62
7
100
AcDbBlockReference
  2
_CLOSEDFILLED
 10
-87.0
 20
1991.0
 30
0.0
 41
20.0
 42
20.0
 50
270.0
  0
INSERT
  5
339
330
17
100
AcDbEntity
  8
0
 62
7
100
AcDbBlockReference
  2
_CLOSEDFILLED
 10
-87.0
 20
2307.0
 30
0.0
 41
20.0
 42
20.0
 50
90.0
  0
LINE
  5
33B
330
17
100
AcDbEntity
  8
0
 62
7
100
AcDbLine
 10
-87.0
 20
2011.0
 30
0.0
 11
-87.0
 21
2119.0
 31
0.0
  0
LINE
  5
33C
330
17
100
AcDbEntity
  8
0
 62
7
100
AcDbLine
 10
-87.0
 20
2179.0
 30
0.0
 11
-87.0
 21
2287.0
 31
0.0
  0
MTEXT
  5
33D
330
17
100
AcDbEntity
  8
0
 62
7
100
AcDbMText
 10
-87.0
 20
2149.0
 30
0.0
 40
20.0
 71
5
  1
316
 50
90.0
  0
POINT
  5
33E
330
17
100
AcDbEntity
  8
Defpoints
 62
7
100
AcDbPoint
 10
-87.0
 20
1991.0
 30
0.0
  0
POINT
  5
33F
330
17
100
AcDbEntity
  8
Defpoints
 62
7
100
AcDbPoint
 10
0.0
 20
1991.0
 30
0.0
  0
POINT
  5
340
330
17
100
AcDbEntity
  8
Defpoints
 62
7
100
AcDbPoint
 10
0.0
 20
2307.0
 30
0.0
  0
LINE
  5
341
330
17
100
AcDbEntity
  8
0
 62
7
100
AcDbLine
 10
0.0
 20
2312.0
 30
0.0
 11
0.0
 21
2400.0
 31
0.0
  0
LINE
  5
342
330
17
100
AcDbEntity
  8
0
 62
7
100
AcDbLine
 10
-62.5
 20
2312.0
 30
0.0
 11
-62.5
 21
2400.0
 31
0.0
  0
INSERT
  5
343
330
17
100
AcDbEntity
  8
0
 62
7
100
AcDbBlockReference
  2
_CLOSEDFILLED
 10
0.0
 20
2390.0
 30
0.0
 41
20.0
 42
20.0
 50
180.0
  0
INSERT
  5
345
330
17
100
AcDbEntity
  8
0
 62
7
100
AcDbBlockReference
  2
_CLOSEDFILLED
 10
-62.5
 20
2390.0
 30
0.0
 41
20.0
 42
20.0
  0
LINE
  5
347
330
17
100
AcDbEntity
  8
0
 62
7
100
AcDbLine
 10
20.0
 20
2390.0
 30
0.0
 11
-82.5
 21
2390.0
 31
0.0
  0
MTEXT
  5
348
330
17
100
AcDbEntity
  8
0
 62
7
100
AcDbMText
 10
-31.25
 20
2365.0
 30
0.0
 40
20.0
 71
5
  1
62.5
  0
POINT
  5
349
330
17
100
AcDbEntity
  8
Defpoints
 62
7
100
AcDbPoint
 10
0.0
 20
2390.0
 30
0.0
  0
POINT
  5
34A
330
17
100
AcDbEntity
  8
Defpoints
 62
7
100
AcDbPoint
 10
0.0
 20
2307.0
 30
0.0
  0
POINT
  5
34B
330
17
100
AcDbEntity
  8
Defpoints
 62
7
100
AcDbPoint
 10
-62.5
 20
2307.0
 30
0.0
  0
LINE
  5
34C
330
17
100
AcDbEntity
  8
0
 62
7
100
AcDbLine
 10
-62.5
 20
2312.0
 30
0.0
 11
-62.5
 21
2400.0
 31
0.0
  0
LINE
  5
34D
330
17
100
AcDbEntity
  8
0
 62
7
100
AcDbLine
 10
63.5
 20
2312.0
 30
0.0
 11
63.5
 21
2400.0
 31
0.0
  0
INSERT
  5
34E
330
17
100
AcDbEntity
  8
0
 62
7
100
AcDbBlockReference
  2
_CLOSEDFILLED
 10
-62.5
 20
2390.0
 30
0.0
 41
20.0
 42
20.0
 50
180.0
  0
INSERT
  5
350
330
17
100
AcDbEntity
  8
0
 62
7
100
AcDbBlockReference
  2
_CLOSEDFILLED
 10
63.5
 20
2390.0
 30
0.0
 41
20.0
 42
20.0
  0
LINE
  5
352
330
17
100
AcDbEntity
  8
0
 62
7
100
AcDbLine
 10
-42.5
 20
2390.0
 30
0.0
 11
-29.5
 21
2390.0
 31
0.0
  0
LINE
  5
353
330
17
100
AcDbEntity
  8
0
 62
7
100
AcDbLine
 10
30.5
 20
2390.0
 30
0.0
 11
43.5
 21
2390.0
 31
0.0
  0
MTEXT
  5
354
330
17
100
AcDbEntity
  8
0
 62
7
100
AcDbMText
 10
0.5
 20
2390.0
 30
0.0
 40
20.0
 71
5
  1
126
  0
POINT
  5
355
330
17
100
AcDbEntity
  8
Defpoints
 62
7
100
AcDbPoint
 10
-62.5
 20
2390.0
 30
0.0
  0
POINT
  5
356
330
17
100
AcDbEntity
  8
Defpoints
 62
7
100
AcDbPoint
 10
-62.5
 20
2307.0
 30
0.0
  0
POINT
  5
357
330
17
100
AcDbEntity
  8
Defpoints
 62
7
100
AcDbPoint
 10
63.5
 20
2307.0
 30
0.0
  0
LINE
  5
358
330
17
100
AcDbEntity
  8
0
 62
7
100
AcDbLine
 10
63.5
 20
2312.0
 30
0.0
 11
63.5
 21
2400.0
 31
0.0
  0
LINE
  5
359
330
17
100
AcDbEntity
  8
0
 62
7
100
AcDbLine
 10
523.5
 20
2312.0
 30
0.0
 11
523.5
 21
2400.0
 31
0.0
  0
INSERT
  5
35A
330
17
100
AcDbEntity
  8
0
 62
7
100
AcDbBlockReference
  2
_CLOSEDFILLED
 10
63.5
 20
2390.0
 30
0.0
 41
20.0
 42
20.0
 50
180.0
  0
INSERT
  5
35C
330
17
100
AcDbEntity
  8
0
 62
7
100
AcDbBlockReference
  2
_CLOSEDFILLED
 10
523.5
 20
2390.0
 30
0.0
 41
20.0
 42
20.0
  0
LINE
  5
35E
330
17
100
AcDbEntity
  8
0
 62
7
100
AcDbLine
 10
83.5
 20
2390.0
 30
0.0
 11
263.5
 21
2390.0
 31
0.0
  0
LINE
  5
35F
330
17
100
AcDbEntity
  8
0
 62
7
100
AcDbLine
 10
323.5
 20
2390.0
 30
0.0
 11
503.5
 21
2390.0
 31
0.0
  0
MTEXT
  5
360
330
17
100
AcDbEntity
  8
0
 62
7
100
AcDbMText
 10
293.5
 20
2390.0
 30
0.0
 40
20.0
 71
5
  1
460
  0
POINT
  5
361
330
17
100
AcDbEntity
  8
Defpoints
 62
7
100
AcDbPoint
 10
63.5
 20
2390.0
 30
0.0
  0
POINT
  5
362
330
17
100
AcDbEntity
  8
Defpoints
 62
7
100
AcDbPoint
 10
63.5
 20
2307.0
 30
0.0
  0
POINT
  5
363
330
17
100
AcDbEntity
  8
Defpoints
 62
7
100
AcDbPoint
 10
523.5
 20
2307.0
 30
0.0
  0
LINE
  5
364
330
17
100
AcDbEntity
  8
0
 62
7
100
AcDbLine
 10
523.5
 20
2312.0
 30
0.0
 11
523.5
 21
2400.0
 31
0.0
  0
LINE
  5
365
330
17
100
AcDbEntity
  8
0
 62
7
100
AcDbLine
 10
649.5
 20
2312.0
 30
0.0
 11
649.5
 21
2400.0
 31
0.0
  0
INSERT
  5
366
330
17
100
AcDbEntity
  8
0
 62
7
100
AcDbBlockReference
  2
_CLOSEDFILLED
 10
523.5
 20
2390.0
 30
0.0
 41
20.0
 42
20.0
 50
180.0
  0
INSERT
  5
368
330
17
100
AcDbEntity
  8
0
 62
7
100
AcDbBlockReference
  2
_CLOSEDFILLED
 10
649.5
 20
2390.0
 30
0.0
 41
20.0
 42
20.0
  0
LINE
  5
36A
330
17
100
AcDbEntity
  8
0
 62
7
100
AcDbLine
 10
543.5
 20
2390.0
 30
0.0
 11
556.5
 21
2390.0
 31
0.0
  0
LINE
  5
36B
330
17
100
AcDbEntity
  8
0
 62
7
100
AcDbLine
 10
616.5
 20
2390.0
 30
0.0
 11
629.5
 21
2390.0
 31
0.0
  0
MTEXT
  5
36C
330
17
100
AcDbEntity
  8
0
 62
7
100
AcDbMText
 10
586.5
 20
2390.0
 30
0.0
 40
20.0
 71
5
  1
126
  0
POINT
  5
36D
330
17
100
AcDbEntity
  8
Defpoints
 62
7
100
AcDbPoint
 10
523.5
 20
2390.0
 30
0.0
  0
POINT
  5
36E
330
17
100
AcDbEntity
  8
Defpoints
 62
7
100
AcDbPoint
 10
523.5
 20
2307.0
 30
0.0
  0
POINT
  5
36F
330
17
100
AcDbEntity
  8
Defpoints
 62
7
100
AcDbPoint
 10
649.5
 20
2307.0
 30
0.0
  0
LINE
  5
370
330
17
100
AcDbEntity
  8
0
 62
7
100
AcDbLine
 10
649.5
 20
2312.0
 30
0.0
 11
649.5
 21
2400.0
 31
0.0
  0
LINE
  5
371
330
17
100
AcDbEntity
  8
0
 62
7
100
AcDbLine
 10
587.0
 20
2312.0
 30
0.0
 11
587.0
 21
2400.0
 31
0.0
  0
INSERT
  5
372
330
17
100
AcDbEntity
  8
0
 62
7
100
AcDbBlockReference
  2
_CLOSEDFILLED
 10
649.5
 20
2390.0
 30
0.0
 41
20.0
 42
20.0
 50
180.0
  0
INSERT
  5
374
330
17
100
AcDbEntity
  8
0
 62
7
100
AcDbBlockReference
  2
_CLOSEDFILLED
 10
587.0
 20
2390.0
 30
0.0
 41
20.0
 42
20.0
  0
LINE
  5
376
330
17
100
AcDbEntity
  8
0
 62
7
100
AcDbLine
 10
669.5
 20
2390.0
 30
0.0
 11
567.0
 21
2390.0
 31
0.0
  0
MTEXT
  5
377
330
17
100
AcDbEntity
  8
0
 62
7
100
AcDbMText
 10
618.25
 20
2365.0
 30
0.0
 40
20.0
 71
5
  1
62.5
  0
POINT
  5
378
330
17
100
AcDbEntity
  8
Defpoints
 62
7
100
AcDbPoint
 10
649.5
 20
2390.0
 30
0.0
  0
POINT
  5
379
330
17
100
AcDbEntity
  8
Defpoints
 62
7
100
AcDbPoint
 10
649.5
 20
2307.0
 30
0.0
  0
POINT
  5
37A
330
17
100
AcDbEntity
  8
Defpoints
 62
7
100
AcDbPoint
 10
587.0
 20
2307.0
 30
0.0
  0
LINE
  5
37B
330
17
100
AcDbEntity
  8
0
 62
7
100
AcDbLine
 10
0.0
 20
1385.0
 30
0.0
 11
0.0
 21
1294.0
 31
0.0
  0
LINE
  5
37C
330
17
100
AcDbEntity
  8
0
 62
7
100
AcDbLine
 10
102.0
 20
1385.0
 30
0.0
 11
102.0
 21
1294.0
 31
0.0
  0
INSERT
  5
37D
330
17
100
AcDbEntity
  8
0
 62
7
100
AcDbBlockReference
  2
_CLOSEDFILLED
 10
0.0
 20
1304.0
 30
0.0
 41
20.0
 42
20.0
 50
180.0
  0
INSERT
  5
37F
330
17
100
AcDbEntity
  8
0
 62
7
100
AcDbBlockReference
  2
_CLOSEDFILLED
 10
102.0
 20
1304.0
 30
0.0
 41
20.0
 42
20.0
  0
LINE
  5
381
330
17
100
AcDbEntity
  8
0
 62
7
100
AcDbLine
 10
20.0
 20
1304.0
 30
0.0
 11
21.0
 21
1304.0
 31
0.0
  0
LINE
  5
382
330
17
100
AcDbEntity
  8
0
 62
7
100
AcDbLine
 10
81.0
 20
1304.0
 30
0.0
 11
82.0
 21
1304.0
 31
0.0
  0
MTEXT
  5
383
330
17
100
AcDbEntity
  8
0
 62
7
100
AcDbMText
 10
51.0
 20
1304.0
 30
0.0
 40
20.0
 71
5
  1
102
  0
POINT
  5
384
330
17
100
AcDbEntity
  8
Defpoints
 62
7
100
AcDbPoint
 10
0.0
 20
1304.0
 30
0.0
  0
POINT
  5
385
330
17
100
AcDbEntity
  8
Defpoints
 62
7
100
AcDbPoint
 10
0.0
 20
1390.0
 30
0.0
  0
POINT
  5
386
330
17
100
AcDbEntity
  8
Defpoints
 62
7
100
AcDbPoint
 10
102.0
 20
1390.0
 30
0.0
  0
LINE
  5
387
330
17
100
AcDbEntity
  8
0
 62
7
100
AcDbLine
 10
102.0
 20
1385.0
 30
0.0
 11
102.0
 21
1294.0
 31
0.0
  0
LINE
  5
388
330
17
100
AcDbEntity
  8
0
 62
7
100
AcDbLine
 10
202.0
 20
1385.0
 30
0.0
 11
202.0
 21
1294.0
 31
0.0
  0
INSERT
  5
389
330
17
100
AcDbEntity
  8
0
 62
7
100
AcDbBlockReference
  2
_CLOSEDFILLED
 10
102.0
 20
1304.0
 30
0.0
 41
20.0
 42
20.0
 50
180.0
  0
INSERT
  5
38B
330
17
100
AcDbEntity
  8
0
 62
7
100
AcDbBlockReference
  2
_CLOSEDFILLED
 10
202.0
 20
1304.0
 30
0.0
 41
20.0
 42
20.0
  0
MTEXT
  5
38D
330
17
100
AcDbEntity
  8
0
 62
7
100
AcDbMText
 10
152.0
 20
1304.0
 30
0.0
 40
20.0
 71
5
  1
100
  0
POINT
  5
38E
330
17
100
AcDbEntity
  8
Defpoints
 62
7
100
AcDbPoint
 10
102.0
 20
1304.0
 30
0.0
  0
POINT
  5
38F
330
17
100
AcDbEntity
  8
Defpoints
 62
7
100
AcDbPoint
 10
102.0
 20
1390.0
 30
0.0
  0
POINT
  5
390
330
17
100
AcDbEntity
  8
Defpoints
 62
7
100
AcDbPoint
 10
202.0
 20
1390.0
 30
0.0
  0
LINE
  5
391
330
17
100
AcDbEntity
  8
0
 62
7
100
AcDbLine
 10
202.0
 20
1385.0
 30
0.0
 11
202.0
 21
1294.0
 31
0.0
  0
LINE
  5
392
330
17
100
AcDbEntity
  8
0
 62
7
100
AcDbLine
 10
385.0
 20
1385.0
 30
0.0
 11
385.0
 21
1294.0
 31
0.0
  0
INSERT
  5
393
330
17
100
AcDbEntity
  8
0
 62
7
100
AcDbBlockReference
  2
_CLOSEDFILLED
 10
202.0
 20
1304.0
 30
0.0
 41
20.0
 42
20.0
 50
180.0
  0
INSERT
  5
395
330
17
100
AcDbEntity
  8
0
 62
7
100
AcDbBlockReference
  2
_CLOSEDFILLED
 10
385.0
 20
1304.0
 30
0.0
 41
20.0
 42
20.0
  0
LINE
  5
397
330
17
100
AcDbEntity
  8
0
 62
7
100
AcDbLine
 10
222.0
 20
1304.0
 30
0.0
 11
263.5
 21
1304.0
 31
0.0
  0
LINE
  5
398
330
17
100
AcDbEntity
  8
0
 62
7
100
AcDbLine
 10
323.5
 20
1304.0
 30
0.0
 11
365.0
 21
1304.0
 31
0.0
  0
MTEXT
  5
399
330
17
100
AcDbEntity
  8
0
 62
7
100
AcDbMText
 10
293.5
 20
1304.0
 30
0.0
 40
20.0
 71
5
  1
183
  0
POINT
  5
39A
330
17
100
AcDbEntity
  8
Defpoints
 62
7
100
AcDbPoint
 10
202.0
 20
1304.0
 30
0.0
  0
POINT
  5
39B
330
17
100
AcDbEntity
  8
Defpoints
 62
7
100
AcDbPoint
 10
202.0
 20
1390.0
 30
0.0
  0
POINT
  5
39C
330
17
100
AcDbEntity
  8
Defpoints
 62
7
100
AcDbPoint
 10
385.0
 20
1390.0
 30
0.0
  0
LINE
  5
39D
330
17
100
AcDbEntity
  8
0
 62
7
100
AcDbLine
 10
385.0
 20
1385.0
 30
0.0
 11
385.0
 21
1294.0
 31
0.0
  0
LINE
  5
39E
330
17
100
AcDbEntity
  8
0
 62
7
100
AcDbLine
 10
485.0
 20
1385.0
 30
0.0
 11
485.0
 21
1294.0
 31
0.0
  0
INSERT
  5
39F
330
17
100
AcDbEntity
  8
0
 62
7
100
AcDbBlockReference
  2
_CLOSEDFILLED
 10
385.0
 20
1304.0
 30
0.0
 41
20.0
 42
20.0
 50
180.0
  0
INSERT
  5
3A1
330
17
100
AcDbEntity
  8
0
 62
7
100
AcDbBlockReference
  2
_CLOSEDFILLED
 10
485.0
 20
1304.0
 30
0.0
 41
20.0
 42
20.0
  0
MTEXT
  5
3A3
330
17
100
AcDbEntity
  8
0
 62
7
100
AcDbMText
 10
435.0
 20
1304.0
 30
0.0
 40
20.0
 71
5
  1
100
  0
POINT
  5
3A4
330
17
100
AcDbEntity
  8
Defpoints
 62
7
100
AcDbPoint
 10
385.0
 20
1304.0
 30
0.0
  0
POINT
  5
3A5
330
17
100
AcDbEntity
  8
Defpoints
 62
7
100
AcDbPoint
 10
385.0
 20
1390.0
 30
0.0
  0
POINT
  5
3A6
330
17
100
AcDbEntity
  8
Defpoints
 62
7
100
AcDbPoint
 10
485.0
 20
1390.0
 30
0.0
  0
LINE
  5
3A7
330
17
100
AcDbEntity
  8
0
 62
7
100
AcDbLine
 10
485.0
 20
1385.0
 30
0.0
 11
485.0
 21
1294.0
 31
0.0
  0
LINE
  5
3A8
330
17
100
AcDbEntity
  8
0
 62
7
100
AcDbLine
 10
587.0
 20
1385.0
 30
0.0
 11
587.0
 21
1294.0
 31
0.0
  0
INSERT
  5
3A9
330
17
100
AcDbEntity
  8
0
 62
7
100
AcDbBlockReference
  2
_CLOSEDFILLED
 10
485.0
 20
1304.0
 30
0.0
 41
20.0
 42
20.0
 50
180.0
  0
INSERT
  5
3AB
330
17
100
AcDbEntity
  8
0
 62
7
100
AcDbBlockReference
  2
_CLOSEDFILLED
 10
587.0
 20
1304.0
 30
0.0
 41
20.0
 42
20.0
  0
LINE
  5
3AD
330
17
100
AcDbEntity
  8
0
 62
7
100
AcDbLine
 10
505.0
 20
1304.0
 30
0.0
 11
506.0
 21
1304.0
 31
0.0
  0
LINE
  5
3AE
330
17
100
AcDbEntity
  8
0
 62
7
100
AcDbLine
 10
566.0
 20
1304.0
 30
0.0
 11
567.0
 21
1304.0
 31
0.0
  0
MTEXT
  5
3AF
330
17
100
AcDbEntity
  8
0
 62
7
100
AcDbMText
 10
536.0
 20
1304.0
 30
0.0
 40
20.0
 71
5
  1
102
  0
POINT
  5
3B0
330
17
100
AcDbEntity
  8
Defpoints
 62
7
100
AcDbPoint
 10
485.0
 20
1304.0
 30
0.0
  0
POINT
  5
3B1
330
17
100
AcDbEntity
  8
Defpoints
 62
7
100
AcDbPoint
 10
485.0
 20
1390.0
 30
0.0
  0
POINT
  5
3B2
330
17
100
AcDbEntity
  8
Defpoints
 62
7
100
AcDbPoint
 10
587.0
 20
1390.0
 30
0.0
  0
LINE
  5
3B3
330
17
100
AcDbEntity
  8
0
 62
7
100
AcDbLine
 10
942.0
 20
1390.0
 30
0.0
 11
1911.0
 21
1390.0
 31
0.0
  0
LINE
  5
3B4
330
17
100
AcDbEntity
  8
0
 62
7
100
AcDbLine
 10
942.0
 20
1626.0
 30
0.0
 11
1911.0
 21
1626.0
 31
0.0
  0
INSERT
  5
3B5
330
17
100
AcDbEntity
  8
0
 62
7
100
AcDbBlockReference
  2
_CLOSEDFILLED
 10
1901.0
 20
1390.0
 30
0.0
 41
20.0
 42
20.0
 50
270.0
  0
INSERT
  5
3B7
330
17
100
AcDbEntity
  8
0
 62
7
100
AcDbBlockReference
  2
_CLOSEDFILLED
 10
1901.0
 20
1626.0
 30
0.0
 41
20.0
 42
20.0
 50
90.0
  0
LINE
  5
3B9
330
17
100
AcDbEntity
  8
0
 62
7
100
AcDbLine
 10
1901.0
 20
1410.0
 30
0.0
 11
1901.0
 21
1478.0
 31
0.0
  0
LINE
  5
3BA
330
17
100
AcDbEntity
  8
0
 62
7
100
AcDbLine
 10
1901.0
 20
1538.0
 30
0.0
 11
1901.0
 21
1606.0
 31
0.0
  0
MTEXT
  5
3BB
330
17
100
AcDbEntity
  8
0
 62
7
100
AcDbMText
 10
1901.0
 20
1508.0
 30
0.0
 40
20.0
 71
5
  1
236
 50
90.0
  0
POINT
  5
3BC
330
17
100
AcDbEntity
  8
Defpoints
 62
7
100
AcDbPoint
 10
1901.0
 20
1390.0
 30
0.0
  0
POINT
  5
3BD
330
17
100
AcDbEntity
  8
Defpoints
 62
7
100
AcDbPoint
 10
937.0
 20
1390.0
 30
0.0
  0
POINT
  5
3BE
330
17
100
AcDbEntity
  8
Defpoints
 62
7
100
AcDbPoint
 10
937.0
 20
1626.0
 30
0.0
  0
LINE
  5
3BF
330
17
100
AcDbEntity
  8
0
 62
7
100
AcDbLine
 10
942.0
 20
1626.0
 30
0.0
 11
1911.0
 21
1626.0
 31
0.0
  0
LINE
  5
3C0
330
17
100
AcDbEntity
  8
0
 62
7
100
AcDbLine
 10
942.0
 20
1991.0
 30
0.0
 11
1911.0
 21
1991.0
 31
0.0
  0
INSERT
  5
3C1
330
17
100
AcDbEntity
  8
0
 62
7
100
AcDbBlockReference
  2
_CLOSEDFILLED
 10
1901.0
 20
1626.0
 30
0.0
 41
20.0
 42
20.0
 50
270.0
  0
INSERT
  5
3C3
330
17
100
AcDbEntity
  8
0
 62
7
100
AcDbBlockReference
  2
_CLOSEDFILLED
 10
1901.0
 20
1991.0
 30
0.0
 41
20.0
 42
20.0
 50
90.0
  0
LINE
  5
3C5
330
17
100
AcDbEntity
  8
0
 62
7
100
AcDbLine
 10
1901.0
 20
1646.0
 30
0.0
 11
1901.0
 21
1778.5
 31
0.0
  0
LINE
  5
3C6
330
17
100
AcDbEntity
  8
0
 62
7
100
AcDbLine
 10
1901.0
 20
1838.5
 30
0.0
 11
1901.0
 21
1971.0
 31
0.0
  0
MTEXT
  5
3C7
330
17
100
AcDbEntity
  8
0
 62
7
100
AcDbMText
 10
1901.0
 20
1808.5
 30
0.0
 40
20.0
 71
5
  1
365
 50
90.0
  0
POINT
  5
3C8
330
17
100
AcDbEntity
  8
Defpoints
 62
7
100
AcDbPoint
 10
1901.0
 20
1626.0
 30
0.0
  0
POINT
  5
3C9
330
17
100
AcDbEntity
  8
Defpoints
 62
7
100
AcDbPoint
 10
937.0
 20
1626.0
 30
0.0
  0
POINT
  5
3CA
330
17
100
AcDbEntity
  8
Defpoints
 62
7
100
AcDbPoint
 10
937.0
 20
1991.0
 30
0.0
  0
LINE
  5
3CB
330
17
100
AcDbEntity
  8
0
 62
7
100
AcDbLine
 10
942.0
 20
1991.0
 30
0.0
 11
1911.0
 21
1991.0
 31
0.0
  0
LINE
  5
3CC
330
17
100
AcDbEntity
  8
0
 62
7
100
AcDbLine
 10
942.0
 20
2307.0
 30
0.0
 11
1911.0
 21
2307.0
 31
0.0
  0
INSERT
  5
3CD
330
17
100
AcDbEntity
  8
0
 62
7
100
AcDbBlockReference
  2
_CLOSEDFILLED
 10
1901.0
 20
1991.0
 30
0.0
 41
20.0
 42
20.0
 50
270.0
  0
INSERT
  5
3CF
330
17
100
AcDbEntity
  8
0
 62
7
100
AcDbBlockReference
  2
_CLOSEDFILLED
 10
1901.0
 20
2307.0
 30
0.0
 41
20.0
 42
20.0
 50
90.0
  0
LINE
  5
3D1
330
17
100
AcDbEntity
  8
0
 62
7
100
AcDbLine
 10
1901.0
 20
2011.0
 30
0.0
 11
1901.0
 21
2119.0
 31
0.0
  0
LINE
  5
3D2
330
17
100
AcDbEntity
  8
0
 62
7
100
AcDbLine
 10
1901.0
 20
2179.0
 30
0.0
 11
1901.0
 21
2287.0
 31
0.0
  0
MTEXT
  5
3D3
330
17
100
AcDbEntity
  8
0
 62
7
100
AcDbMText
 10
1901.0
 20
2149.0
 30
0.0
 40
20.0
 71
5
  1
316
 50
90.0
  0
POINT
  5
3D4
330
17
100
AcDbEntity
  8
Defpoints
 62
7
100
AcDbPoint
 10
1901.0
 20
1991.0
 30
0.0
  0
POINT
  5
3D5
330
17
100
AcDbEntity
  8
Defpoints
 62
7
100
AcDbPoint
 10
937.0
 20
1991.0
 30
0.0
  0
POINT
  5
3D6
330
17
100
AcDbEntity
  8
Defpoints
 62
7
100
AcDbPoint
 10
937.0
 20
2307.0
 30
0.0
  0
LINE
  5
3D7
330
17
100
AcDbEntity
  8
0
 62
7
100
AcDbLine
 10
937.0
 20
2312.0
 30
0.0
 11
937.0
 21
2387.0
 31
0.0
  0
LINE
  5
3D8
330
17
100
AcDbEntity
  8
0
 62
7
100
AcDbLine
 10
1263.0
 20
2312.0
 30
0.0
 11
1263.0
 21
2387.0
 31
0.0
  0
INSERT
  5
3D9
330
17
100
AcDbEntity
  8
0
 62
7
100
AcDbBlockReference
  2
_CLOSEDFILLED
 10
937.0
 20
2377.0
 30
0.0
 41
20.0
 42
20.0
 50
180.0
  0
INSERT
  5
3DB
330
17
100
AcDbEntity
  8
0
 62
7
100
AcDbBlockReference
  2
_CLOSEDFILLED
 10
1263.0
 20
2377.0
 30
0.0
 41
20.0
 42
20.0
  0
LINE
  5
3DD
330
17
100
AcDbEntity
  8
0
 62
7
100
AcDbLine
 10
957.0
 20
2377.0
 30
0.0
 11
1070.0
 21
2377.0
 31
0.0
  0
LINE
  5
3DE
330
17
100
AcDbEntity
  8
0
 62
7
100
AcDbLine
 10
1130.0
 20
2377.0
 30
0.0
 11
1243.0
 21
2377.0
 31
0.0
  0
MTEXT
  5
3DF
330
17
100
AcDbEntity
  8
0
 62
7
100
AcDbMText
 10
1100.0
 20
2377.0
 30
0.0
 40
20.0
 71
5
  1
326
  0
POINT
  5
3E0
330
17
100
AcDbEntity
  8
Defpoints
 62
7
100
AcDbPoint
 10
937.0
 20
2377.0
 30
0.0
  0
POINT
  5
3E1
330
17
100
AcDbEntity
  8
Defpoints
 62
7
100
AcDbPoint
 10
937.0
 20
2307.0
 30
0.0
  0
POINT
  5
3E2
330
17
100
AcDbEntity
  8
Defpoints
 62
7
100
AcDbPoint
 10
1263.0
 20
2307.0
 30
0.0
  0
LINE
  5
3E3
330
17
100
AcDbEntity
  8
0
 62
7
100
AcDbLine
 10
1263.0
 20
2312.0
 30
0.0
 11
1263.0
 21
2387.0
 31
0.0
  0
LINE
  5
3E4
330
17
100
AcDbEntity
  8
0
 62
7
100
AcDbLine
 10
1501.0
 20
2312.0
 30
0.0
 11
1501.0
 21
2387.0
 31
0.0
  0
INSERT
  5
3E5
330
17
100
AcDbEntity
  8
0
 62
7
100
AcDbBlockReference
  2
_CLOSEDFILLED
 10
1263.0
 20
2377.0
 30
0.0
 41
20.0
 42
20.0
 50
180.0
  0
INSERT
  5
3E7
330
17
100
AcDbEntity
  8
0
 62
7
100
AcDbBlockReference
  2
_CLOSEDFILLED
 10
1501.0
 20
2377.0
 30
0.0
 41
20.0
 42
20.0
  0
LINE
  5
3E9
330
17
100
AcDbEntity
  8
0
 62
7
100
AcDbLine
 10
1283.0
 20
2377.0
 30
0.0
 11
1352.0
 21
2377.0
 31
0.0
  0
LINE
  5
3EA
330
17
100
AcDbEntity
  8
0
 62
7
100
AcDbLine
 10
1412.0
 20
2377.0
 30
0.0
 11
1481.0
 21
2377.0
 31
0.0
  0
MTEXT
  5
3EB
330
17
100
AcDbEntity
  8
0
 62
7
100
AcDbMText
 10
1382.0
 20
2377.0
 30
0.0
 40
20.0
 71
5
  1
238
  0
POINT
  5
3EC
330
17
100
AcDbEntity
  8
Defpoints
 62
7
100
AcDbPoint
 10
1263.0
 20
2377.0
 30
0.0
  0
POINT
  5
3ED
330
17
100
AcDbEntity
  8
Defpoints
 62
7
100
AcDbPoint
 10
1263.0
 20
2307.0
 30
0.0
  0
POINT
  5
3EE
330
17
100
AcDbEntity
  8
Defpoints
 62
7
100
AcDbPoint
 10
1501.0
 20
2307.0
 30
0.0
  0
LINE
  5
3EF
330
17
100
AcDbEntity
  8
0
 62
7
100
AcDbLine
 10
1501.0
 20
2312.0
 30
0.0
 11
1501.0
 21
2387.0
 31
0.0
  0
LINE
  5
3F0
330
17
100
AcDbEntity
  8
0
 62
7
100
AcDbLine
 10
1827.0
 20
2312.0
 30
0.0
 11
1827.0
 21
2387.0
 31
0.0
  0
INSERT
  5
3F1
330
17
100
AcDbEntity
  8
0
 62
7
100
AcDbBlockReference
  2
_CLOSEDFILLED
 10
1501.0
 20
2377.0
 30
0.0
 41
20.0
 42
20.0
 50
180.0
  0
INSERT
  5
3F3
330
17
100
AcDbEntity
  8
0
 62
7
100
AcDbBlockReference
  2
_CLOSEDFILLED
 10
1827.0
 20
2377.0
 30
0.0
 41
20.0
 42
20.0
  0
LINE
  5
3F5
330
17
100
AcDbEntity
  8
0
 62
7
100
AcDbLine
 10
1521.0
 20
2377.0
 30
0.0
 11
1634.0
 21
2377.0
 31
0.0
  0
LINE
  5
3F6
330
17
100
AcDbEntity
  8
0
 62
7
100
AcDbLine
 10
1694.0
 20
2377.0
 30
0.0
 11
1807.0
 21
2377.0
 31
0.0
  0
MTEXT
  5
3F7
330
17
100
AcDbEntity
  8
0
 62
7
100
AcDbMText
 10
1664.0
 20
2377.0
 30
0.0
 40
20.0
 71
5
  1
326
  0
POINT
  5
3F8
330
17
100
AcDbEntity
  8
Defpoints
 62
7
100
AcDbPoint
 10
1501.0
 20
2377.0
 30
0.0
  0
POINT
  5
3F9
330
17
100
AcDbEntity
  8
Defpoints
 62
7
100
AcDbPoint
 10
1501.0
 20
2307.0
 30
0.0
  0
POINT
  5
3FA
330
17
100
AcDbEntity
  8
Defpoints
 62
7
100
AcDbPoint
 10
1827.0
 20
2307.0
 30
0.0
  0
LINE
  5
3FB
330
17
100
AcDbEntity
  8
0
 62
7
100
AcDbLine
 10
937.0
 20
1385.0
 30
0.0
 11
937.0
 21
1293.0
 31
0.0
  0
LINE
  5
3FC
330
17
100
AcDbEntity
  8
0
 62
7
100
AcDbLine
 10
1062.0
 20
1385.0
 30
0.0
 11
1062.0
 21
1293.0
 31
0.0
  0
INSERT
  5
3FD
330
17
100
AcDbEntity
  8
0
 62
7
100
AcDbBlockReference
  2
_CLOSEDFILLED
 10
937.0
 20
1303.0
 30
0.0
 41
20.0
 42
20.0
 50
180.0
  0
INSERT
  5
3FF
330
17
100
AcDbEntity
  8
0
 62
7
100
AcDbBlockReference
  2
_CLOSEDFILLED
 10
1062.0
 20
1303.0
 30
0.0
 41
20.0
 42
20.0
  0
LINE
  5
401
330
17
100
AcDbEntity
  8
0
 62
7
100
AcDbLine
 10
957.0
 20
1303.0
 30
0.0
 11
969.5
 21
1303.0
 31
0.0
  0
LINE
  5
402
330
17
100
AcDbEntity
  8
0
 62
7
100
AcDbLine
 10
1029.5
 20
1303.0
 30
0.0
 11
1042.0
 21
1303.0
 31
0.0
  0
MTEXT
  5
403
330
17
100
AcDbEntity
  8
0
 62
7
100
AcDbMText
 10
999.5
 20
1303.0
 30
0.0
 40
20.0
 71
5
  1
125
  0
POINT
  5
404
330
17
100
AcDbEntity
  8
Defpoints
 62
7
100
AcDbPoint
 10
937.0
 20
1303.0
 30
0.0
  0
POINT
  5
405
330
17
100
AcDbEntity
  8
Defpoints
 62
7
100
AcDbPoint
 10
937.0
 20
1390.0
 30
0.0
  0
POINT
  5
406
330
17
100
AcDbEntity
  8
Defpoints
 62
7
100
AcDbPoint
 10
1062.0
 20
1390.0
 30
0.0
  0
LINE
  5
407
330
17
100
AcDbEntity
  8
0
 62
7
100
AcDbLine
 10
1062.0
 20
1385.0
 30
0.0
 11
1062.0
 21
1293.0
 31
0.0
  0
LINE
  5
408
330
17
100
AcDbEntity
  8
0
 62
7
100
AcDbLine
 10
1162.0
 20
1385.0
 30
0.0
 11
1162.0
 21
1293.0
 31
0.0
  0
INSERT
  5
409
330
17
100
AcDbEntity
  8
0
 62
7
100
AcDbBlockReference
  2
_CLOSEDFILLED
 10
1062.0
 20
1303.0
 30
0.0
 41
20.0
 42
20.0
 50
180.0
  0
INSERT
  5
40B
330
17
100
AcDbEntity
  8
0
 62
7
100
AcDbBlockReference
  2
_CLOSEDFILLED
 10
1162.0
 20
1303.0
 30
0.0
 41
20.0
 42
20.0
  0
MTEXT
  5
40D
330
17
100
AcDbEntity
  8
0
 62
7
100
AcDbMText
 10
1112.0
 20
1303.0
 30
0.0
 40
20.0
 71
5
  1
100
  0
POINT
  5
40E
330
17
100
AcDbEntity
  8
Defpoints
 62
7
100
AcDbPoint
 10
1062.0
 20
1303.0
 30
0.0
  0
POINT
  5
40F
330
17
100
AcDbEntity
  8
Defpoints
 62
7
100
AcDbPoint
 10
1062.0
 20
1390.0
 30
0.0
  0
POINT
  5
410
330
17
100
AcDbEntity
  8
Defpoints
 62
7
100
AcDbPoint
 10
1162.0
 20
1390.0
 30
0.0
  0
LINE
  5
411
330
17
100
AcDbEntity
  8
0
 62
7
100
AcDbLine
 10
1162.0
 20
1385.0
 30
0.0
 11
1162.0
 21
1293.0
 31
0.0
  0
LINE
  5
412
330
17
100
AcDbEntity
  8
0
 62
7
100
AcDbLine
 10
1332.0
 20
1385.0
 30
0.0
 11
1332.0
 21
1293.0
 31
0.0
  0
INSERT
  5
413
330
17
100
AcDbEntity
  8
0
 62
7
100
AcDbBlockReference
  2
_CLOSEDFILLED
 10
1162.0
 20
1303.0
 30
0.0
 41
20.0
 42
20.0
 50
180.0
  0
INSERT
  5
415
330
17
100
AcDbEntity
  8
0
 62
7
100
AcDbBlockReference
  2
_CLOSEDFILLED
 10
1332.0
 20
1303.0
 30
0.0
 41
20.0
 42
20.0
  0
LINE
  5
417
330
17
100
AcDbEntity
  8
0
 62
7
100
AcDbLine
 10
1182.0
 20
1303.0
 30
0.0
 11
1217.0
 21
1303.0
 31
0.0
  0
LINE
  5
418
330
17
100
AcDbEntity
  8
0
 62
7
100
AcDbLine
 10
1277.0
 20
1303.0
 30
0.0
 11
1312.0
 21
1303.0
 31
0.0
  0
MTEXT
  5
419
330
17
100
AcDbEntity
  8
0
 62
7
100
AcDbMText
 10
1247.0
 20
1303.0
 30
0.0
 40
20.0
 71
5
  1
170
  0
POINT
  5
41A
330
17
100
AcDbEntity
  8
Defpoints
 62
7
100
AcDbPoint
 10
1162.0
 20
1303.0
 30
0.0
  0
POINT
  5
41B
330
17
100
AcDbEntity
  8
Defpoints
 62
7
100
AcDbPoint
 10
1162.0
 20
1390.0
 30
0.0
  0
POINT
  5
41C
330
17
100
AcDbEntity
  8
Defpoints
 62
7
100
AcDbPoint
 10
1332.0
 20
1390.0
 30
0.0
  0
LINE
  5
41D
330
17
100
AcDbEntity
  8
0
 62
7
100
AcDbLine
 10
1332.0
 20
1385.0
 30
0.0
 11
1332.0
 21
1293.0
 31
0.0
  0
LINE
  5
41E
330
17
100
AcDbEntity
  8
0
 62
7
100
AcDbLine
 10
1432.0
 20
1385.0
 30
0.0
 11
1432.0
 21
1293.0
 31
0.0
  0
INSERT
  5
41F
330
17
100
AcDbEntity
  8
0
 62
7
100
AcDbBlockReference
  2
_CLOSEDFILLED
 10
1332.0
 20
1303.0
 30
0.0
 41
20.0
 42
20.0
 50
180.0
  0
INSERT
  5
421
330
17
100
AcDbEntity
  8
0
 62
7
100
AcDbBlockReference
  2
_CLOSEDFILLED
 10
1432.0
 20
1303.0
 30
0.0
 41
20.0
 42
20.0
  0
MTEXT
  5
423
330
17
100
AcDbEntity
  8
0
 62
7
100
AcDbMText
 10
1382.0
 20
1303.0
 30
0.0
 40
20.0
 71
5
  1
100
  0
POINT
  5
424
330
17
100
AcDbEntity
  8
Defpoints
 62
7
100
AcDbPoint
 10
1332.0
 20
1303.0
 30
0.0
  0
POINT
  5
425
330
17
100
AcDbEntity
  8
Defpoints
 62
7
100
AcDbPoint
 10
1332.0
 20
1390.0
 30
0.0
  0
POINT
  5
426
330
17
100
AcDbEntity
  8
Defpoints
 62
7
100
AcDbPoint
 10
1432.0
 20
1390.0
 30
0.0
  0
LINE
  5
427
330
17
100
AcDbEntity
  8
0
 62
7
100
AcDbLine
 10
1432.0
 20
1385.0
 30
0.0
 11
1432.0
 21
1293.0
 31
0.0
  0
LINE
  5
428
330
17
100
AcDbEntity
  8
0
 62
7
100
AcDbLine
 10
1602.0
 20
1385.0
 30
0.0
 11
1602.0
 21
1293.0
 31
0.0
  0
INSERT
  5
429
330
17
100
AcDbEntity
  8
0
 62
7
100
AcDbBlockReference
  2
_CLOSEDFILLED
 10
1432.0
 20
1303.0
 30
0.0
 41
20.0
 42
20.0
 50
180.0
  0
INSERT
  5
42B
330
17
100
AcDbEntity
  8
0
 62
7
100
AcDbBlockReference
  2
_CLOSEDFILLED
 10
1602.0
 20
1303.0
 30
0.0
 41
20.0
 42
20.0
  0
LINE
  5
42D
330
17
100
AcDbEntity
  8
0
 62
7
100
AcDbLine
 10
1452.0
 20
1303.0
 30
0.0
 11
1487.0
 21
1303.0
 31
0.0
  0
LINE
  5
42E
330
17
100
AcDbEntity
  8
0
 62
7
100
AcDbLine
 10
1547.0
 20
1303.0
 30
0.0
 11
1582.0
 21
1303.0
 31
0.0
  0
MTEXT
  5
42F
330
17
100
AcDbEntity
  8
0
 62
7
100
AcDbMText
 10
1517.0
 20
1303.0
 30
0.0
 40
20.0
 71
5
  1
170
  0
POINT
  5
430
330
17
100
AcDbEntity
  8
Defpoints
 62
7
100
AcDbPoint
 10
1432.0
 20
1303.0
 30
0.0
  0
POINT
  5
431
330
17
100
AcDbEntity
  8
Defpoints
 62
7
100
AcDbPoint
 10
1432.0
 20
1390.0
 30
0.0
  0
POINT
  5
432
330
17
100
AcDbEntity
  8
Defpoints
 62
7
100
AcDbPoint
 10
1602.0
 20
1390.0
 30
0.0
  0
LINE
  5
433
330
17
100
AcDbEntity
  8
0
 62
7
100
AcDbLine
 10
1602.0
 20
1385.0
 30
0.0
 11
1602.0
 21
1293.0
 31
0.0
  0
LINE
  5
434
330
17
100
AcDbEntity
  8
0
 62
7
100
AcDbLine
 10
1702.0
 20
1385.0
 30
0.0
 11
1702.0
 21
1293.0
 31
0.0
  0
INSERT
  5
435
330
17
100
AcDbEntity
  8
0
 62
7
100
AcDbBlockReference
  2
_CLOSEDFILLED
 10
1602.0
 20
1303.0
 30
0.0
 41
20.0
 42
20.0
 50
180.0
  0
INSERT
  5
437
330
17
100
AcDbEntity
  8
0
 62
7
100
AcDbBlockReference
  2
_CLOSEDFILLED
 10
1702.0
 20
1303.0
 30
0.0
 41
20.0
 42
20.0
  0
MTEXT
  5
439
330
17
100
AcDbEntity
  8
0
 62
7
100
AcDbMText
 10
1652.0
 20
1303.0
 30
0.0
 40
20.0
 71
5
  1
100
  0
POINT
  5
43A
330
17
100
AcDbEntity
  8
Defpoints
 62
7
100
AcDbPoint
 10
1602.0
 20
1303.0
 30
0.0
  0
POINT
  5
43B
330
17
100
AcDbEntity
  8
Defpoints
 62
7
100
AcDbPoint
 10
1602.0
 20
1390.0
 30
0.0
  0
POINT
  5
43C
330
17
100
AcDbEntity
  8
Defpoints
 62
7
100
AcDbPoint
 10
1702.0
 20
1390.0
 30
0.0
  0
LINE
  5
43D
330
17
100
AcDbEntity
  8
0
 62
7
100
AcDbLine
 10
1702.0
 20
1385.0
 30
0.0
 11
1702.0
 21
1293.0
 31
0.0
  0
LINE
  5
43E
330
17
100
AcDbEntity
  8
0
 62
7
100
AcDbLine
 10
1827.0
 20
1385.0
 30
0.0
 11
1827.0
 21
1293.0
 31
0.0
  0
INSERT
  5
43F
330
17
100
AcDbEntity
  8
0
 62
7
100
AcDbBlockReference
  2
_CLOSEDFILLED
 10
1702.0
 20
1303.0
 30
0.0
 41
20.0
 42
20.0
 50
180.0
  0
INSERT
  5
441
330
17
100
AcDbEntity
  8
0
 62
7
100
AcDbBlockReference
  2
_CLOSEDFILLED
 10
1827.0
 20
1303.0
 30
0.0
 41
20.0
 42
20.0
  0
LINE
  5
443
330
17
100
AcDbEntity
  8
0
 62
7
100
AcDbLine
 10
1722.0
 20
1303.0
 30
0.0
 11
1734.5
 21
1303.0
 31
0.0
  0
LINE
  5
444
330
17
100
AcDbEntity
  8
0
 62
7
100
AcDbLine
 10
1794.5
 20
1303.0
 30
0.0
 11
1807.0
 21
1303.0
 31
0.0
  0
MTEXT
  5
445
330
17
100
AcDbEntity
  8
0
 62
7
100
AcDbMText
 10
1764.5
 20
1303.0
 30
0.0
 40
20.0
 71
5
  1
125
  0
POINT
  5
446
330
17
100
AcDbEntity
  8
Defpoints
 62
7
100
AcDbPoint
 10
1702.0
 20
1303.0
 30
0.0
  0
POINT
  5
447
330
17
100
AcDbEntity
  8
Defpoints
 62
7
100
AcDbPoint
 10
1702.0
 20
1390.0
 30
0.0
  0
POINT
  5
448
330
17
100
AcDbEntity
  8
Defpoints
 62
7
100
AcDbPoint
 10
1827.0
 20
1390.0
 30
0.0
  0
ENDSEC
  0
SECTION
  2
OBJECTS
  0
DICTIONARY
  5
A
330
0
100
AcDbDictionary
281
1
  3
ACAD_COLOR
350
B
  3
ACAD_GROUP
350
C
  3
ACAD_LAYOUT
350
D
  3
ACAD_MATERIAL
350
E
  3
ACAD_MLEADERSTYLE
350
F
  3
ACAD_MLINESTYLE
350
10
  3
ACAD_PLOTSETTINGS
350
11
  3
ACAD_PLOTSTYLENAME
350
12
  3
ACAD_SCALELIST
350
14
  3
ACAD_TABLESTYLE
350
15
  3
ACAD_VISUALSTYLE
350
16
  3
EZDXF_META
350
2D
  0
DICTIONARY
  5
B
330
A
100
AcDbDictionary
281
1
  0
DICTIONARY
  5
C
330
A
100
AcDbDictionary
281
1
  0
DICTIONARY
  5
D
330
A
100
AcDbDictionary
281
1
  3
Model
350
1A
  3
Layout1
350
1E
  0
DICTIONARY
  5
E
330
A
100
AcDbDictionary
281
1
  3
ByBlock
350
1F
  3
ByLayer
350
20
  3
Global
350
21
  0
DICTIONARY
  5
F
330
A
100
AcDbDictionary
281
1
  3
Standard
350
2C
  0
DICTIONARY
  5
10
330
A
100
AcDbDictionary
281
1
  3
Standard
350
22
  0
DICTIONARY
  5
11
330
A
100
AcDbDictionary
281
1
  0
ACDBDICTIONARYWDFLT
  5
12
330
A
100
AcDbDictionary
281
1
  3
Normal
350
13
100
AcDbDictionaryWithDefault
340
13
  0
ACDBPLACEHOLDER
  5
13
330
12
  0
DICTIONARY
  5
14
330
A
100
AcDbDictionary
281
1
  0
DICTIONARY
  5
15
330
A
100
AcDbDictionary
281
1
  0
DICTIONARY
  5
16
330
A
100
AcDbDictionary
281
1
  0
LAYOUT
  5
1A
330
D
100
AcDbPlotSettings
  1

  4
A3
  6

 40
7.5
 41
20.0
 42
7.5
 43
20.0
 44
420.0
 45
297.0
 46
0.0
 47
0.0
 48
0.0
 49
0.0
140
0.0
141
0.0
142
1.0
143
1.0
 70
1024
 72
1
 73
0
 74
5
  7

 75
16
 76
0
 77
2
 78
300
147
1.0
148
0.0
149
0.0
100
AcDbLayout
  1
Model
 70
1
 71
0
 10
0.0
 20
0.0
 11
420.0
 21
297.0
 12
0.0
 22
0.0
 32
0.0
 14
1e+20
 24
1e+20
 34
1e+20
 15
-1e+20
 25
-1e+20
 35
-1e+20
146
0.0
 13
0.0
 23
0.0
 33
0.0
 16
1.0
 26
0.0
 36
0.0
 17
0.0
 27
1.0
 37
0.0
 76
1
330
17
  0
LAYOUT
  5
1E
330
D
100
AcDbPlotSettings
  1

  4
A3
  6

 40
7.5
 41
20.0
 42
7.5
 43
20.0
 44
420.0
 45
297.0
 46
0.0
 47
0.0
 48
0.0
 49
0.0
140
0.0
141
0.0
142
1.0
143
1.0
 70
0
 72
1
 73
0
 74
5
  7

 75
16
 76
0
 77
2
 78
300
147
1.0
148
0.0
149
0.0
100
AcDbLayout
  1
Layout1
 70
1
 71
1
 10
0.0
 20
0.0
 11
420.0
 21
297.0
 12
0.0
 22
0.0
 32
0.0
 14
1e+20
 24
1e+20
 34
1e+20
 15
-1e+20
 25
-1e+20
 35
-1e+20
146
0.0
 13
0.0
 23
0.0
 33
0.0
 16
1.0
 26
0.0
 36
0.0
 17
0.0
 27
1.0
 37
0.0
 76
1
330
1B
  0
MATERIAL
  5
1F
102
{ACAD_REACTORS
330
E
102
}
330
E
100
AcDbMaterial
  1
ByBlock
  2

 70
0
 40
1.0
 71
1
 41
1.0
 91
-1023410177
 42
1.0
 72
1
  3

 73
1
 74
1
 75
1
 44
0.5
 73
0
 45
1.0
 46
1.0
 77
1
  4

 78
1
 79
1
170
1
 48
1.0
171
1
  6

172
1
173
1
174
1
140
1.0
141
1.0
175
1
  7

176
1
177
1
178
1
143
1.0
179
1
  8

270
1
271
1
272
1
145
1.0
146
1.0
273
1
  9

274
1
275
1
276
1
 42
1.0
 72
1
  3

 73
1
 74
1
 75
1
 94
63
  0
MATERIAL
  5
20
102
{ACAD_REACTORS
330
E
102
}
330
E
100
AcDbMaterial
  1
ByLayer
  2

 70
0
 40
1.0
 71
1
 41
1.0
 91
-1023410177
 42
1.0
 72
1
  3

 73
1
 74
1
 75
1
 44
0.5
 73
0
 45
1.0
 46
1.0
 77
1
  4

 78
1
 79
1
170
1
 48
1.0
171
1
  6

172
1
173
1
174
1
140
1.0
141
1.0
175
1
  7

176
1
177
1
178
1
143
1.0
179
1
  8

270
1
271
1
272
1
145
1.0
146
1.0
273
1
  9

274
1
275
1
276
1
 42
1.0
 72
1
  3

 73
1
 74
1
 75
1
 94
63
  0
MATERIAL
  5
21
102
{ACAD_REACTORS
330
E
102
}
330
E
100
AcDbMaterial
  1
Global
  2

 70
0
 40
1.0
 71
1
 41
1.0
 91
-1023410177
 42
1.0
 72
1
  3

 73
1
 74
1
 75
1
 44
0.5
 73
0
 45
1.0
 46
1.0
 77
1
  4

 78
1
 79
1
170
1
 48
1.0
171
1
  6

172
1
173
1
174
1
140
1.0
141
1.0
175
1
  7

176
1
177
1
178
1
143
1.0
179
1
  8

270
1
271
1
272
1
145
1.0
146
1.0
273
1
  9

274
1
275
1
276
1
 42
1.0
 72
1
  3

 73
1
 74
1
 75
1
 94
63
  0
MLINESTYLE
  5
22
102
{ACAD_REACTORS
330
10
102
}
330
10
100
AcDbMlineStyle
  2
Standard
 70
0
  3

 62
256
 51
90.0
 52
90.0
 71
2
 49
0.5
 62
256
  6
BYLAYER
 49
-0.5
 62
256
  6
BYLAYER
  0
MLEADERSTYLE
  5
2C
102
{ACAD_REACTORS
330
F
102
}
330
F
100
AcDbMLeaderStyle
179
2
170
2
171
1
172
0
 90
2
 40
0.0
 41
0.0
173
1
 91
-1056964608
 92
-2
290
1
 42
2.0
291
1
 43
8.0
  3
Standard
 44
4.0
300

342
29
174
1
175
1
176
0
178
1
 93
-1056964608
 45
4.0
292
0
297
0
 46
4.0
 94
-1056964608
 47
1.0
 49
1.0
140
1.0
294
1
141
0.0
177
0
142
1.0
295
0
296
0
143
3.75
271
0
272
9
273
9
  0
DICTIONARY
  5
2D
330
A
100
AcDbDictionary
280
1
281
1
  3
CREATED_BY_EZDXF
350
2E
  3
WRITTEN_BY_EZDXF
350
44B
  0
DICTIONARYVAR
  5
2E
330
2D
100
DictionaryVariables
280
0
  1
1.4.4 @ 2026-05-20T08:53:48.184973+00:00
  0
DICTIONARYVAR
  5
44B
330
2D
100
DictionaryVariables
280
0
  1
1.4.4 @ 2026-05-20T08:53:48.348966+00:00
  0
ENDSEC
  0
EOF
