  0
SECTION
  2
HEADER
  9
$ACADVER
  1
AC1027
  9
$ACADMAINTVER
 70
105
  9
$DWGCODEPAGE
  3
ANSI_1252
  9
$LASTSAVEDBY
  1
ezdxf
  9
$REQUIREDVERSIONS
160
0
  9
$INSBASE
 10
0.0
 20
0.0
 30
0.0
  9
$EXTMIN
 10
1e+20
 20
1e+20
 30
1e+20
  9
$EXTMAX
 10
-1e+20
 20
-1e+20
 30
-1e+20
  9
$LIMMIN
 10
0.0
 20
0.0
  9
$LIMMAX
 10
420.0
 20
297.0
  9
$ORTHOMODE
 70
0
  9
$REGENMODE
 70
1
  9
$FILLMODE
 70
1
  9
$QTEXTMODE
 70
0
  9
$MIRRTEXT
 70
1
  9
$LTSCALE
 40
1.0
  9
$ATTMODE
 70
1
  9
$TEXTSIZE
 40
2.5
  9
$TRACEWID
 40
1.0
  9
$TEXTSTYLE
  7
Standard
  9
$CLAYER
  8
0
  9
$CELTYPE
  6
ByLayer
  9
$CECOLOR
 62
256
  9
$CELTSCALE
 40
1.0
  9
$DISPSILH
 70
0
  9
$DIMSCALE
 40
1.0
  9
$DIMASZ
 40
2.5
  9
$DIMEXO
 40
0.625
  9
$DIMDLI
 40
3.75
  9
$DIMRND
 40
0.0
  9
$DIMDLE
 40
0.0
  9
$DIMEXE
 40
1.25
  9
$DIMTP
 40
0.0
  9
$DIMTM
 40
0.0
  9
$DIMTXT
 40
2.5
  9
$DIMCEN
 40
2.5
  9
$DIMTSZ
 40
0.0
  9
$DIMTOL
 70
0
  9
$DIMLIM
 70
0
  9
$DIMTIH
 70
0
  9
$DIMTOH
 70
0
  9
$DIMSE1
 70
0
  9
$DIMSE2
 70
0
  9
$DIMTAD
 70
1
  9
$DIMZIN
 70
8
  9
$DIMBLK
  1

  9
$DIMASO
 70
1
  9
$DIMSHO
 70
1
  9
$DIMPOST
  1

  9
$DIMAPOST
  1

  9
$DIMALT
 70
0
  9
$DIMALTD
 70
3
  9
$DIMALTF
 40
0.03937007874
  9
$DIMLFAC
 40
1.0
  9
$DIMTOFL
 70
1
  9
$DIMTVP
 40
0.0
  9
$DIMTIX
 70
0
  9
$DIMSOXD
 70
0
  9
$DIMSAH
 70
0
  9
$DIMBLK1
  1

  9
$DIMBLK2
  1

  9
$DIMSTYLE
  2
ISO-25
  9
$DIMCLRD
 70
0
  9
$DIMCLRE
 70
0
  9
$DIMCLRT
 70
0
  9
$DIMTFAC
 40
1.0
  9
$DIMGAP
 40
0.625
  9
$DIMJUST
 70
0
  9
$DIMSD1
 70
0
  9
$DIMSD2
 70
0
  9
$DIMTOLJ
 70
0
  9
$DIMTZIN
 70
8
  9
$DIMALTZ
 70
0
  9
$DIMALTTZ
 70
0
  9
$DIMUPT
 70
0
  9
$DIMDEC
 70
2
  9
$DIMTDEC
 70
2
  9
$DIMALTU
 70
2
  9
$DIMALTTD
 70
3
  9
$DIMTXSTY
  7
Standard
  9
$DIMAUNIT
 70
0
  9
$DIMADEC
 70
0
  9
$DIMALTRND
 40
0.0
  9
$DIMAZIN
 70
0
  9
$DIMDSEP
 70
44
  9
$DIMATFIT
 70
3
  9
$DIMFRAC
 70
0
  9
$DIMLDRBLK
  1

  9
$DIMLUNIT
 70
2
  9
$DIMLWD
 70
-2
  9
$DIMLWE
 70
-2
  9
$DIMTMOVE
 70
0
  9
$DIMFXL
 40
1.0
  9
$DIMFXLON
 70
0
  9
$DIMJOGANG
 40
0.785398163397
  9
$DIMTFILL
 70
0
  9
$DIMTFILLCLR
 70
0
  9
$DIMARCSYM
 70
0
  9
$DIMLTYPE
  6

  9
$DIMLTEX1
  6

  9
$DIMLTEX2
  6

  9
$DIMTXTDIRECTION
 70
0
  9
$LUNITS
 70
2
  9
$LUPREC
 70
4
  9
$SKETCHINC
 40
1.0
  9
$FILLETRAD
 40
10.0
  9
$AUNITS
 70
0
  9
$AUPREC
 70
2
  9
$MENU
  1
.
  9
$ELEVATION
 40
0.0
  9
$PELEVATION
 40
0.0
  9
$THICKNESS
 40
0.0
  9
$LIMCHECK
 70
0
  9
$CHAMFERA
 40
0.0
  9
$CHAMFERB
 40
0.0
  9
$CHAMFERC
 40
0.0
  9
$CHAMFERD
 40
0.0
  9
$SKPOLY
 70
0
  9
$TDCREATE
 40
2461181.7039467595
  9
$TDUCREATE
 40
2458532.153996898
  9
$TDUPDATE
 40
2461181.7039467595
  9
$TDUUPDATE
 40
2458532.1544311
  9
$TDINDWG
 40
0.0
  9
$TDUSRTIMER
 40
0.0
  9
$USRTIMER
 70
1
  9
$ANGBASE
 50
0.0
  9
$ANGDIR
 70
0
  9
$PDMODE
 70
0
  9
$PDSIZE
 40
0.0
  9
$PLINEWID
 40
0.0
  9
$SPLFRAME
 70
0
  9
$SPLINETYPE
 70
6
  9
$SPLINESEGS
 70
8
  9
$HANDSEED
  5
419
  9
$SURFTAB1
 70
6
  9
$SURFTAB2
 70
6
  9
$SURFTYPE
 70
6
  9
$SURFU
 70
6
  9
$SURFV
 70
6
  9
$UCSBASE
  2

  9
$UCSNAME
  2

  9
$UCSORG
 10
0.0
 20
0.0
 30
0.0
  9
$UCSXDIR
 10
1.0
 20
0.0
 30
0.0
  9
$UCSYDIR
 10
0.0
 20
1.0
 30
0.0
  9
$UCSORTHOREF
  2

  9
$UCSORTHOVIEW
 70
0
  9
$UCSORGTOP
 10
0.0
 20
0.0
 30
0.0
  9
$UCSORGBOTTOM
 10
0.0
 20
0.0
 30
0.0
  9
$UCSORGLEFT
 10
0.0
 20
0.0
 30
0.0
  9
$UCSORGRIGHT
 10
0.0
 20
0.0
 30
0.0
  9
$UCSORGFRONT
 10
0.0
 20
0.0
 30
0.0
  9
$UCSORGBACK
 10
0.0
 20
0.0
 30
0.0
  9
$PUCSBASE
  2

  9
$PUCSNAME
  2

  9
$PUCSORG
 10
0.0
 20
0.0
 30
0.0
  9
$PUCSXDIR
 10
1.0
 20
0.0
 30
0.0
  9
$PUCSYDIR
 10
0.0
 20
1.0
 30
0.0
  9
$PUCSORTHOREF
  2

  9
$PUCSORTHOVIEW
 70
0
  9
$PUCSORGTOP
 10
0.0
 20
0.0
 30
0.0
  9
$PUCSORGBOTTOM
 10
0.0
 20
0.0
 30
0.0
  9
$PUCSORGLEFT
 10
0.0
 20
0.0
 30
0.0
  9
$PUCSORGRIGHT
 10
0.0
 20
0.0
 30
0.0
  9
$PUCSORGFRONT
 10
0.0
 20
0.0
 30
0.0
  9
$PUCSORGBACK
 10
0.0
 20
0.0
 30
0.0
  9
$USERI1
 70
0
  9
$USERI2
 70
0
  9
$USERI3
 70
0
  9
$USERI4
 70
0
  9
$USERI5
 70
0
  9
$USERR1
 40
0.0
  9
$USERR2
 40
0.0
  9
$USERR3
 40
0.0
  9
$USERR4
 40
0.0
  9
$USERR5
 40
0.0
  9
$WORLDVIEW
 70
1
  9
$SHADEDGE
 70
3
  9
$SHADEDIF
 70
70
  9
$TILEMODE
 70
1
  9
$MAXACTVP
 70
64
  9
$PINSBASE
 10
0.0
 20
0.0
 30
0.0
  9
$PLIMCHECK
 70
0
  9
$PEXTMIN
 10
1e+20
 20
1e+20
 30
1e+20
  9
$PEXTMAX
 10
-1e+20
 20
-1e+20
 30
-1e+20
  9
$PLIMMIN
 10
0.0
 20
0.0
  9
$PLIMMAX
 10
420.0
 20
297.0
  9
$UNITMODE
 70
0
  9
$VISRETAIN
 70
1
  9
$PLINEGEN
 70
0
  9
$PSLTSCALE
 70
1
  9
$TREEDEPTH
 70
3020
  9
$CMLSTYLE
  2
Standard
  9
$CMLJUST
 70
0
  9
$CMLSCALE
 40
20.0
  9
$PROXYGRAPHICS
 70
1
  9
$MEASUREMENT
 70
1
  9
$CELWEIGHT
370
-1
  9
$ENDCAPS
280
0
  9
$JOINSTYLE
280
0
  9
$LWDISPLAY
290
0
  9
$INSUNITS
 70
6
  9
$HYPERLINKBASE
  1

  9
$STYLESHEET
  1

  9
$XEDIT
290
1
  9
$CEPSNTYPE
380
0
  9
$PSTYLEMODE
290
1
  9
$FINGERPRINTGUID
  2
{5227EA83-B7A0-4C8B-995E-B4920120AC01}
  9
$VERSIONGUID
  2
{7DF38A45-59C7-47F5-823A-E27F0F6C7AAD}
  9
$EXTNAMES
290
1
  9
$PSVPSCALE
 40
0.0
  9
$OLESTARTUP
290
0
  9
$SORTENTS
280
127
  9
$INDEXCTL
280
0
  9
$HIDETEXT
280
1
  9
$XCLIPFRAME
280
1
  9
$HALOGAP
280
0
  9
$OBSCOLOR
 70
257
  9
$OBSLTYPE
280
0
  9
$INTERSECTIONDISPLAY
280
0
  9
$INTERSECTIONCOLOR
 70
257
  9
$DIMASSOC
280
2
  9
$PROJECTNAME
  1

  9
$CAMERADISPLAY
290
0
  9
$LENSLENGTH
 40
50.0
  9
$CAMERAHEIGHT
 40
0.0
  9
$STEPSPERSEC
 40
24.0
  9
$STEPSIZE
 40
100.0
  9
$3DDWFPREC
 40
2.0
  9
$PSOLWIDTH
 40
0.005
  9
$PSOLHEIGHT
 40
0.08
  9
$LOFTANG1
 40
1.570796326795
  9
$LOFTANG2
 40
1.570796326795
  9
$LOFTMAG1
 40
0.0
  9
$LOFTMAG2
 40
0.0
  9
$LOFTPARAM
 70
7
  9
$LOFTNORMALS
280
1
  9
$LATITUDE
 40
37.795
  9
$LONGITUDE
 40
-122.394
  9
$NORTHDIRECTION
 40
0.0
  9
$TIMEZONE
 70
-8000
  9
$LIGHTGLYPHDISPLAY
280
1
  9
$TILEMODELIGHTSYNCH
280
1
  9
$CMATERIAL
347
20
  9
$SOLIDHIST
280
0
  9
$SHOWHIST
280
1
  9
$DWFFRAME
280
2
  9
$DGNFRAME
280
2
  9
$REALWORLDSCALE
290
1
  9
$INTERFERECOLOR
 62
256
  9
$CSHADOW
280
0
  9
$SHADOWPLANELOCATION
 40
0.0
  0
ENDSEC
  0
SECTION
  2
CLASSES
  0
CLASS
  1
ACDBDICTIONARYWDFLT
  2
AcDbDictionaryWithDefault
  3
ObjectDBX Classes
 90
0
 91
0
280
0
281
0
  0
CLASS
  1
SUN
  2
AcDbSun
  3
SCENEOE
 90
1153
 91
0
280
0
281
0
  0
CLASS
  1
VISUALSTYLE
  2
AcDbVisualStyle
  3
ObjectDBX Classes
 90
4095
 91
0
280
0
281
0
  0
CLASS
  1
MATERIAL
  2
AcDbMaterial
  3
ObjectDBX Classes
 90
1153
 91
0
280
0
281
0
  0
CLASS
  1
SCALE
  2
AcDbScale
  3
ObjectDBX Classes
 90
1153
 91
0
280
0
281
0
  0
CLASS
  1
TABLESTYLE
  2
AcDbTableStyle
  3
ObjectDBX Classes
 90
4095
 91
0
280
0
281
0
  0
CLASS
  1
MLEADERSTYLE
  2
AcDbMLeaderStyle
  3
ACDB_MLEADERSTYLE_CLASS
 90
4095
 91
0
280
0
281
0
  0
CLASS
  1
DICTIONARYVAR
  2
AcDbDictionaryVar
  3
ObjectDBX Classes
 90
0
 91
0
280
0
281
0
  0
CLASS
  1
CELLSTYLEMAP
  2
AcDbCellStyleMap
  3
ObjectDBX Classes
 90
1152
 91
0
280
0
281
0
  0
CLASS
  1
MENTALRAYRENDERSETTINGS
  2
AcDbMentalRayRenderSettings
  3
SCENEOE
 90
1024
 91
0
280
0
281
0
  0
CLASS
  1
ACDBDETAILVIEWSTYLE
  2
AcDbDetailViewStyle
  3
ObjectDBX Classes
 90
1025
 91
0
280
0
281
0
  0
CLASS
  1
ACDBSECTIONVIEWSTYLE
  2
AcDbSectionViewStyle
  3
ObjectDBX Classes
 90
1025
 91
0
280
0
281
0
  0
CLASS
  1
RASTERVARIABLES
  2
AcDbRasterVariables
  3
ISM
 90
0
 91
0
280
0
281
0
  0
CLASS
  1
LAYOUT
  2
AcDbLayout
  3
ObjectDBX Classes
 90
0
 91
0
280
0
281
0
  0
CLASS
  1
ACDBPLACEHOLDER
  2
AcDbPlaceHolder
  3
ObjectDBX Classes
 90
0
 91
0
280
0
281
0
  0
ENDSEC
  0
SECTION
  2
TABLES
  0
TABLE
  2
VPORT
  5
8
330
0
100
AcDbSymbolTable
 70
1
  0
VPORT
  5
23
330
8
100
AcDbSymbolTableRecord
100
AcDbViewportTableRecord
  2
*Active
 70
0
 10
0.0
 20
0.0
 11
1.0
 21
1.0
 12
0.0
 22
0.0
 13
0.0
 23
0.0
 14
0.5
 24
0.5
 15
0.5
 25
0.5
 16
0.0
 26
0.0
 36
1.0
 17
0.0
 27
0.0
 37
0.0
 40
1000.0
 41
1.34
 42
50.0
 43
0.0
 44
0.0
 50
0.0
 51
0.0
 71
0
 72
1000
 73
1
 74
3
 75
0
 76
0
 77
0
 78
0
281
0
 65
0
146
0.0
  0
ENDTAB
  0
TABLE
  2
LTYPE
  5
2
330
0
100
AcDbSymbolTable
 70
3
  0
LTYPE
  5
24
330
2
100
AcDbSymbolTableRecord
100
AcDbLinetypeTableRecord
  2
ByBlock
 70
0
  3

 72
65
 73
0
 40
0.0
  0
LTYPE
  5
25
330
2
100
AcDbSymbolTableRecord
100
AcDbLinetypeTableRecord
  2
ByLayer
 70
0
  3

 72
65
 73
0
 40
0.0
  0
LTYPE
  5
26
330
2
100
AcDbSymbolTableRecord
100
AcDbLinetypeTableRecord
  2
Continuous
 70
0
  3

 72
65
 73
0
 40
0.0
  0
ENDTAB
  0
TABLE
  2
LAYER
  5
1
330
0
100
AcDbSymbolTable
 70
5
  0
LAYER
  5
27
330
1
100
AcDbSymbolTableRecord
100
AcDbLayerTableRecord
  2
0
 70
0
 62
7
  6
Continuous
370
-3
390
13
347
21
  0
LAYER
  5
28
330
1
100
AcDbSymbolTableRecord
100
AcDbLayerTableRecord
  2
Defpoints
 70
0
 62
7
  6
Continuous
290
0
370
-3
390
13
347
21
  0
LAYER
  5
2F
330
1
100
AcDbSymbolTableRecord
100
AcDbLayerTableRecord
  2
chengtai
 70
0
 62
7
  6
Continuous
370
-3
390
13
347
21
  0
LAYER
  5
30
330
1
100
AcDbSymbolTableRecord
100
AcDbLayerTableRecord
  2
dunzhu
 70
0
 62
7
  6
Continuous
370
-3
390
13
347
21
  0
LAYER
  5
31
330
1
100
AcDbSymbolTableRecord
100
AcDbLayerTableRecord
  2
zhuangji
 70
0
 62
7
  6
Continuous
370
-3
390
13
347
21
  0
ENDTAB
  0
TABLE
  2
STYLE
  5
5
330
0
100
AcDbSymbolTable
 70
1
  0
STYLE
  5
29
330
5
100
AcDbSymbolTableRecord
100
AcDbTextStyleTableRecord
  2
Standard
 70
0
 40
0.0
 41
1.0
 50
0.0
 71
0
 42
2.5
  3
txt
  4

  0
ENDTAB
  0
TABLE
  2
VIEW
  5
7
330
0
100
AcDbSymbolTable
 70
0
  0
ENDTAB
  0
TABLE
  2
UCS
  5
6
330
0
100
AcDbSymbolTable
 70
0
  0
ENDTAB
  0
TABLE
  2
APPID
  5
3
330
0
100
AcDbSymbolTable
 70
3
  0
APPID
  5
2A
330
3
100
AcDbSymbolTableRecord
100
AcDbRegAppTableRecord
  2
ACAD
 70
0
  0
APPID
  5
416
330
3
100
AcDbSymbolTableRecord
100
AcDbRegAppTableRecord
  2
HATCHBACKGROUNDCOLOR
 70
0
  0
APPID
  5
417
330
3
100
AcDbSymbolTableRecord
100
AcDbRegAppTableRecord
  2
EZDXF
 70
0
  0
ENDTAB
  0
TABLE
  2
DIMSTYLE
  5
4
330
0
100
AcDbSymbolTable
 70
1
100
AcDbDimStyleTable
  0
DIMSTYLE
105
2B
330
4
100
AcDbSymbolTableRecord
100
AcDbDimStyleTableRecord
  2
Standard
 70
0
 40
8.0
 41
2.5
 42
0.625
 43
3.75
 44
1.25
 45
0.0
 46
0.0
 47
0.0
 48
0.0
 49
2.5
140
2.5
141
2.5
142
0.0
143
0.03937007874
144
1.0
145
0.0
146
1.0
147
0.625
148
0.0
 69
0
 70
0
 71
0
 72
0
 73
0
 74
0
 75
0
 76
0
 77
0
 78
8
 79
3
170
0
171
3
172
1
173
0
174
0
175
0
176
7
177
7
178
7
179
2
271
1
272
2
273
2
274
3
275
0
276
0
277
2
278
46
279
0
280
0
281
0
282
0
283
0
284
8
285
0
286
0
288
0
289
3
290
0
371
-2
372
-2
  0
ENDTAB
  0
TABLE
  2
BLOCK_RECORD
  5
9
330
0
100
AcDbSymbolTable
 70
39
  0
BLOCK_RECORD
  5
17
330
9
100
AcDbSymbolTableRecord
100
AcDbBlockTableRecord
  2
*Model_Space
340
1A
 70
0
280
1
281
0
  0
BLOCK_RECORD
  5
1B
330
9
100
AcDbSymbolTableRecord
100
AcDbBlockTableRecord
  2
*Paper_Space
340
1E
 70
0
280
1
281
0
  0
BLOCK_RECORD
  5
53
330
9
100
AcDbSymbolTableRecord
100
AcDbBlockTableRecord
  2
*D1
340
0
 70
0
280
1
281
0
  0
BLOCK_RECORD
  5
56
330
9
100
AcDbSymbolTableRecord
100
AcDbBlockTableRecord
  2
_CLOSEDFILLED
340
0
 70
0
280
1
281
0
  0
BLOCK_RECORD
  5
62
330
9
100
AcDbSymbolTableRecord
100
AcDbBlockTableRecord
  2
*D2
340
0
 70
0
280
1
281
0
  0
BLOCK_RECORD
  5
6D
330
9
100
AcDbSymbolTableRecord
100
AcDbBlockTableRecord
  2
*D3
340
0
 70
0
280
1
281
0
  0
BLOCK_RECORD
  5
7A
330
9
100
AcDbSymbolTableRecord
100
AcDbBlockTableRecord
  2
*D4
340
0
 70
0
280
1
281
0
  0
BLOCK_RECORD
  5
87
330
9
100
AcDbSymbolTableRecord
100
AcDbBlockTableRecord
  2
*D5
340
0
 70
0
280
1
281
0
  0
BLOCK_RECORD
  5
96
330
9
100
AcDbSymbolTableRecord
100
AcDbBlockTableRecord
  2
*D6
340
0
 70
0
280
1
281
0
  0
BLOCK_RECORD
  5
A6
330
9
100
AcDbSymbolTableRecord
100
AcDbBlockTableRecord
  2
*D7
340
0
 70
0
280
1
281
0
  0
BLOCK_RECORD
  5
B6
330
9
100
AcDbSymbolTableRecord
100
AcDbBlockTableRecord
  2
*D8
340
0
 70
0
280
1
281
0
  0
BLOCK_RECORD
  5
C6
330
9
100
AcDbSymbolTableRecord
100
AcDbBlockTableRecord
  2
*D9
340
0
 70
0
280
1
281
0
  0
BLOCK_RECORD
  5
D5
330
9
100
AcDbSymbolTableRecord
100
AcDbBlockTableRecord
  2
*D10
340
0
 70
0
280
1
281
0
  0
BLOCK_RECORD
  5
E5
330
9
100
AcDbSymbolTableRecord
100
AcDbBlockTableRecord
  2
*D11
340
0
 70
0
280
1
281
0
  0
BLOCK_RECORD
  5
F5
330
9
100
AcDbSymbolTableRecord
100
AcDbBlockTableRecord
  2
*D12
340
0
 70
0
280
1
281
0
  0
BLOCK_RECORD
  5
105
330
9
100
AcDbSymbolTableRecord
100
AcDbBlockTableRecord
  2
*D13
340
0
 70
0
280
1
281
0
  0
BLOCK_RECORD
  5
115
330
9
100
AcDbSymbolTableRecord
100
AcDbBlockTableRecord
  2
*D14
340
0
 70
0
280
1
281
0
  0
BLOCK_RECORD
  5
125
330
9
100
AcDbSymbolTableRecord
100
AcDbBlockTableRecord
  2
*D15
340
0
 70
0
280
1
281
0
  0
BLOCK_RECORD
  5
135
330
9
100
AcDbSymbolTableRecord
100
AcDbBlockTableRecord
  2
*D16
340
0
 70
0
280
1
281
0
  0
BLOCK_RECORD
  5
144
330
9
100
AcDbSymbolTableRecord
100
AcDbBlockTableRecord
  2
*D17
340
0
 70
0
280
1
281
0
  0
BLOCK_RECORD
  5
154
330
9
100
AcDbSymbolTableRecord
100
AcDbBlockTableRecord
  2
*D18
340
0
 70
0
280
1
281
0
  0
BLOCK_RECORD
  5
164
330
9
100
AcDbSymbolTableRecord
100
AcDbBlockTableRecord
  2
*D19
340
0
 70
0
280
1
281
0
  0
BLOCK_RECORD
  5
174
330
9
100
AcDbSymbolTableRecord
100
AcDbBlockTableRecord
  2
*D20
340
0
 70
0
280
1
281
0
  0
BLOCK_RECORD
  5
183
330
9
100
AcDbSymbolTableRecord
100
AcDbBlockTableRecord
  2
*D21
340
0
 70
0
280
1
281
0
  0
BLOCK_RECORD
  5
192
330
9
100
AcDbSymbolTableRecord
100
AcDbBlockTableRecord
  2
*D22
340
0
 70
0
280
1
281
0
  0
BLOCK_RECORD
  5
1A2
330
9
100
AcDbSymbolTableRecord
100
AcDbBlockTableRecord
  2
*D23
340
0
 70
0
280
1
281
0
  0
BLOCK_RECORD
  5
1B1
330
9
100
AcDbSymbolTableRecord
100
AcDbBlockTableRecord
  2
*D24
340
0
 70
0
280
1
281
0
  0
BLOCK_RECORD
  5
1C1
330
9
100
AcDbSymbolTableRecord
100
AcDbBlockTableRecord
  2
*D25
340
0
 70
0
280
1
281
0
  0
BLOCK_RECORD
  5
1D0
330
9
100
AcDbSymbolTableRecord
100
AcDbBlockTableRecord
  2
*D26
340
0
 70
0
280
1
281
0
  0
BLOCK_RECORD
  5
1E0
330
9
100
AcDbSymbolTableRecord
100
AcDbBlockTableRecord
  2
*D27
340
0
 70
0
280
1
281
0
  0
BLOCK_RECORD
  5
1EF
330
9
100
AcDbSymbolTableRecord
100
AcDbBlockTableRecord
  2
*D28
340
0
 70
0
280
1
281
0
  0
BLOCK_RECORD
  5
1FF
330
9
100
AcDbSymbolTableRecord
100
AcDbBlockTableRecord
  2
*D29
340
0
 70
0
280
1
281
0
  0
BLOCK_RECORD
  5
20F
330
9
100
AcDbSymbolTableRecord
100
AcDbBlockTableRecord
  2
*D30
340
0
 70
0
280
1
281
0
  0
BLOCK_RECORD
  5
21F
330
9
100
AcDbSymbolTableRecord
100
AcDbBlockTableRecord
  2
*D31
340
0
 70
0
280
1
281
0
  0
BLOCK_RECORD
  5
22F
330
9
100
AcDbSymbolTableRecord
100
AcDbBlockTableRecord
  2
*D32
340
0
 70
0
280
1
281
0
  0
BLOCK_RECORD
  5
23F
330
9
100
AcDbSymbolTableRecord
100
AcDbBlockTableRecord
  2
*D33
340
0
 70
0
280
1
281
0
  0
BLOCK_RECORD
  5
24F
330
9
100
AcDbSymbolTableRecord
100
AcDbBlockTableRecord
  2
*D34
340
0
 70
0
280
1
281
0
  0
BLOCK_RECORD
  5
25F
330
9
100
AcDbSymbolTableRecord
100
AcDbBlockTableRecord
  2
*D35
340
0
 70
0
280
1
281
0
  0
BLOCK_RECORD
  5
26F
330
9
100
AcDbSymbolTableRecord
100
AcDbBlockTableRecord
  2
*D36
340
0
 70
0
280
1
281
0
  0
ENDTAB
  0
ENDSEC
  0
SECTION
  2
BLOCKS
  0
BLOCK
  5
18
330
17
100
AcDbEntity
  8
0
100
AcDbBlockBegin
  2
*Model_Space
 70
0
 10
0.0
 20
0.0
 30
0.0
  3
*Model_Space
  1

  0
ENDBLK
  5
19
330
17
100
AcDbEntity
  8
0
100
AcDbBlockEnd
  0
BLOCK
  5
1C
330
1B
100
AcDbEntity
  8
0
100
AcDbBlockBegin
  2
*Paper_Space
 70
0
 10
0.0
 20
0.0
 30
0.0
  3
*Paper_Space
  1

  0
ENDBLK
  5
1D
330
1B
100
AcDbEntity
  8
0
100
AcDbBlockEnd
  0
BLOCK
  5
54
330
53
100
AcDbEntity
  8
0
100
AcDbBlockBegin
  2
*D1
 70
1
 10
0.0
 20
0.0
 30
0.0
  3
*D1
  1

  0
INSERT
  5
5A
330
53
100
AcDbEntity
  8
0
 62
7
100
AcDbBlockReference
  2
_CLOSEDFILLED
 10
246.71320343559643
 20
347.2867965644036
 30
0.0
 41
20.0
 42
20.0
 50
135.0
  0
LINE
  5
5C
330
53
100
AcDbEntity
  8
0
 62
7
100
AcDbLine
 10
225.5
 20
368.5
 30
0.0
 11
246.71320343559643
 21
347.2867965644036
 31
0.0
  0
LINE
  5
5D
330
53
100
AcDbEntity
  8
0
 62
7
100
AcDbLine
 10
264.3908729652601
 20
329.6091270347399
 30
0.0
 11
260.8553390593274
 21
333.1446609406726
 31
0.0
  0
MTEXT
  5
5E
330
53
100
AcDbEntity
  8
0
 62
7
100
AcDbMText
 10
285.6040764008565
 20
308.3959235991435
 30
0.0
 40
20.0
 71
5
  1
R30
 50
315.0
  0
POINT
  5
5F
330
53
100
AcDbEntity
  8
Defpoints
100
AcDbPoint
 10
225.5
 20
368.5
 30
0.0
  0
POINT
  5
60
330
53
100
AcDbEntity
  8
Defpoints
100
AcDbPoint
 10
246.71320343559643
 20
347.2867965644036
 30
0.0
  0
ENDBLK
  5
55
330
53
100
AcDbEntity
  8
0
100
AcDbBlockEnd
  0
BLOCK
  5
57
330
56
100
AcDbEntity
  8
0
100
AcDbBlockBegin
  2
_CLOSEDFILLED
 70
0
 10
0.0
 20
0.0
 30
0.0
  3
_CLOSEDFILLED
  1

  0
SOLID
  5
59
330
56
100
AcDbEntity
  8
0
  6
BYBLOCK
 62
0
100
AcDbTrace
 10
-1.0
 20
0.16439898372402537
 30
0.0
 11
0.0
 21
0.0
 31
0.0
 12
-1.0
 22
-0.16439898372402537
 32
0.0
 13
-1.0
 23
-0.16439898372402537
 33
0.0
  0
ENDBLK
  5
58
330
56
100
AcDbEntity
  8
0
100
AcDbBlockEnd
  0
BLOCK
  5
63
330
62
100
AcDbEntity
  8
0
100
AcDbBlockBegin
  2
*D2
 70
1
 10
0.0
 20
0.0
 30
0.0
  3
*D2
  1

  0
INSERT
  5
65
330
62
100
AcDbEntity
  8
0
 62
7
100
AcDbBlockReference
  2
_CLOSEDFILLED
 10
539.7132034355964
 20
347.2867965644036
 30
0.0
 41
20.0
 42
20.0
 50
134.99999999999991
  0
LINE
  5
67
330
62
100
AcDbEntity
  8
0
 62
7
100
AcDbLine
 10
518.5
 20
368.5
 30
0.0
 11
539.7132034355964
 21
347.2867965644036
 31
0.0
  0
LINE
  5
68
330
62
100
AcDbEntity
  8
0
 62
7
100
AcDbLine
 10
557.3908729652601
 20
329.60912703473986
 30
0.0
 11
553.8553390593273
 21
333.1446609406726
 31
0.0
  0
MTEXT
  5
69
330
62
100
AcDbEntity
  8
0
 62
7
100
AcDbMText
 10
578.6040764008565
 20
308.39592359914343
 30
0.0
 40
20.0
 71
5
  1
R30
 50
314.99999999999994
  0
POINT
  5
6A
330
62
100
AcDbEntity
  8
Defpoints
100
AcDbPoint
 10
518.5
 20
368.5
 30
0.0
  0
POINT
  5
6B
330
62
100
AcDbEntity
  8
Defpoints
100
AcDbPoint
 10
539.7132034355964
 20
347.2867965644036
 30
0.0
  0
ENDBLK
  5
64
330
62
100
AcDbEntity
  8
0
100
AcDbBlockEnd
  0
BLOCK
  5
6E
330
6D
100
AcDbEntity
  8
0
100
AcDbBlockBegin
  2
*D3
 70
1
 10
0.0
 20
0.0
 30
0.0
  3
*D3
  1

  0
INSERT
  5
70
330
6D
100
AcDbEntity
  8
0
 62
7
100
AcDbBlockReference
  2
_CLOSEDFILLED
 10
162.06244584051393
 20
456.93755415948607
 30
0.0
 41
20.0
 42
20.0
 50
135.0
  0
INSERT
  5
72
330
6D
100
AcDbEntity
  8
0
 62
7
100
AcDbBlockReference
  2
_CLOSEDFILLED
 10
89.93755415948607
 20
529.0624458405139
 30
0.0
 41
20.0
 42
20.0
 50
135.0
  0
LINE
  5
74
330
6D
100
AcDbEntity
  8
0
 62
7
100
AcDbLine
 10
176.20458146424488
 20
442.7954185357551
 30
0.0
 11
104.07968978321702
 21
514.9203102167829
 31
0.0
  0
LINE
  5
75
330
6D
100
AcDbEntity
  8
0
 62
7
100
AcDbLine
 10
179.74011537017762
 20
439.2598846298224
 30
0.0
 11
176.20458146424488
 21
442.7954185357551
 31
0.0
  0
MTEXT
  5
76
330
6D
100
AcDbEntity
  8
0
 62
7
100
AcDbMText
 10
208.02438661763952
 20
410.9756133823605
 30
0.0
 40
20.0
 71
5
  1
%%c102
 50
315.0
  0
POINT
  5
77
330
6D
100
AcDbEntity
  8
Defpoints
100
AcDbPoint
 10
126.0
 20
493.0
 30
0.0
  0
POINT
  5
78
330
6D
100
AcDbEntity
  8
Defpoints
100
AcDbPoint
 10
162.06244584051393
 20
456.93755415948607
 30
0.0
  0
ENDBLK
  5
6F
330
6D
100
AcDbEntity
  8
0
100
AcDbBlockEnd
  0
BLOCK
  5
7B
330
7A
100
AcDbEntity
  8
0
100
AcDbBlockBegin
  2
*D4
 70
1
 10
0.0
 20
0.0
 30
0.0
  3
*D4
  1

  0
INSERT
  5
7D
330
7A
100
AcDbEntity
  8
0
 62
7
100
AcDbBlockReference
  2
_CLOSEDFILLED
 10
518.0624458405139
 20
529.0624458405139
 30
0.0
 41
20.0
 42
20.0
 50
225.0
  0
INSERT
  5
7F
330
7A
100
AcDbEntity
  8
0
 62
7
100
AcDbBlockReference
  2
_CLOSEDFILLED
 10
445.93755415948607
 20
456.93755415948607
 30
0.0
 41
20.0
 42
20.0
 50
225.0
  0
LINE
  5
81
330
7A
100
AcDbEntity
  8
0
 62
7
100
AcDbLine
 10
532.2045814642448
 20
543.2045814642448
 30
0.0
 11
460.079689783217
 21
471.079689783217
 31
0.0
  0
LINE
  5
82
330
7A
100
AcDbEntity
  8
0
 62
7
100
AcDbLine
 10
535.7401153701776
 20
546.7401153701776
 30
0.0
 11
532.2045814642448
 21
543.2045814642448
 31
0.0
  0
MTEXT
  5
83
330
7A
100
AcDbEntity
  8
0
 62
7
100
AcDbMText
 10
564.0243866176395
 20
575.0243866176395
 30
0.0
 40
20.0
 71
5
  1
%%c102
 50
45.0
  0
POINT
  5
84
330
7A
100
AcDbEntity
  8
Defpoints
100
AcDbPoint
 10
482.0
 20
493.0
 30
0.0
  0
POINT
  5
85
330
7A
100
AcDbEntity
  8
Defpoints
100
AcDbPoint
 10
518.0624458405139
 20
529.0624458405139
 30
0.0
  0
ENDBLK
  5
7C
330
7A
100
AcDbEntity
  8
0
100
AcDbBlockEnd
  0
BLOCK
  5
88
330
87
100
AcDbEntity
  8
0
100
AcDbBlockBegin
  2
*D5
 70
1
 10
0.0
 20
0.0
 30
0.0
  3
*D5
  1

  0
LINE
  5
8A
330
87
100
AcDbEntity
  8
0
 62
7
100
AcDbLine
 10
0.0
 20
-5.0
 30
0.0
 11
0.0
 21
-83.0
 31
0.0
  0
LINE
  5
8B
330
87
100
AcDbEntity
  8
0
 62
7
100
AcDbLine
 10
59.5
 20
-5.0
 30
0.0
 11
59.5
 21
-83.0
 31
0.0
  0
INSERT
  5
8C
330
87
100
AcDbEntity
  8
0
 62
7
100
AcDbBlockReference
  2
_CLOSEDFILLED
 10
0.0
 20
-73.0
 30
0.0
 41
20.0
 42
20.0
 50
180.0
  0
INSERT
  5
8E
330
87
100
AcDbEntity
  8
0
 62
7
100
AcDbBlockReference
  2
_CLOSEDFILLED
 10
59.5
 20
-73.0
 30
0.0
 41
20.0
 42
20.0
  0
LINE
  5
90
330
87
100
AcDbEntity
  8
0
 62
7
100
AcDbLine
 10
20.0
 20
-73.0
 30
0.0
 11
39.5
 21
-73.0
 31
0.0
  0
MTEXT
  5
91
330
87
100
AcDbEntity
  8
0
 62
7
100
AcDbMText
 10
29.75
 20
-48.0
 30
0.0
 40
20.0
 71
5
  1
59.5
  0
POINT
  5
92
330
87
100
AcDbEntity
  8
Defpoints
100
AcDbPoint
 10
0.0
 20
-73.0
 30
0.0
  0
POINT
  5
93
330
87
100
AcDbEntity
  8
Defpoints
100
AcDbPoint
 10
0.0
 20
0.0
 30
0.0
  0
POINT
  5
94
330
87
100
AcDbEntity
  8
Defpoints
100
AcDbPoint
 10
59.5
 20
0.0
 30
0.0
  0
ENDBLK
  5
89
330
87
100
AcDbEntity
  8
0
100
AcDbBlockEnd
  0
BLOCK
  5
97
330
96
100
AcDbEntity
  8
0
100
AcDbBlockBegin
  2
*D6
 70
1
 10
0.0
 20
0.0
 30
0.0
  3
*D6
  1

  0
LINE
  5
99
330
96
100
AcDbEntity
  8
0
 62
7
100
AcDbLine
 10
59.5
 20
-5.0
 30
0.0
 11
59.5
 21
-83.0
 31
0.0
  0
LINE
  5
9A
330
96
100
AcDbEntity
  8
0
 62
7
100
AcDbLine
 10
255.5
 20
-5.0
 30
0.0
 11
255.5
 21
-83.0
 31
0.0
  0
INSERT
  5
9B
330
96
100
AcDbEntity
  8
0
 62
7
100
AcDbBlockReference
  2
_CLOSEDFILLED
 10
59.5
 20
-73.0
 30
0.0
 41
20.0
 42
20.0
 50
180.0
  0
INSERT
  5
9D
330
96
100
AcDbEntity
  8
0
 62
7
100
AcDbBlockReference
  2
_CLOSEDFILLED
 10
255.5
 20
-73.0
 30
0.0
 41
20.0
 42
20.0
  0
LINE
  5
9F
330
96
100
AcDbEntity
  8
0
 62
7
100
AcDbLine
 10
79.5
 20
-73.0
 30
0.0
 11
127.5
 21
-73.0
 31
0.0
  0
LINE
  5
A0
330
96
100
AcDbEntity
  8
0
 62
7
100
AcDbLine
 10
187.5
 20
-73.0
 30
0.0
 11
235.5
 21
-73.0
 31
0.0
  0
MTEXT
  5
A1
330
96
100
AcDbEntity
  8
0
 62
7
100
AcDbMText
 10
157.5
 20
-73.0
 30
0.0
 40
20.0
 71
5
  1
196
  0
POINT
  5
A2
330
96
100
AcDbEntity
  8
Defpoints
100
AcDbPoint
 10
59.5
 20
-73.0
 30
0.0
  0
POINT
  5
A3
330
96
100
AcDbEntity
  8
Defpoints
100
AcDbPoint
 10
59.5
 20
0.0
 30
0.0
  0
POINT
  5
A4
330
96
100
AcDbEntity
  8
Defpoints
100
AcDbPoint
 10
255.5
 20
0.0
 30
0.0
  0
ENDBLK
  5
98
330
96
100
AcDbEntity
  8
0
100
AcDbBlockEnd
  0
BLOCK
  5
A7
330
A6
100
AcDbEntity
  8
0
100
AcDbBlockBegin
  2
*D7
 70
1
 10
0.0
 20
0.0
 30
0.0
  3
*D7
  1

  0
LINE
  5
A9
330
A6
100
AcDbEntity
  8
0
 62
7
100
AcDbLine
 10
255.5
 20
-5.0
 30
0.0
 11
255.5
 21
-83.0
 31
0.0
  0
LINE
  5
AA
330
A6
100
AcDbEntity
  8
0
 62
7
100
AcDbLine
 10
352.5
 20
-5.0
 30
0.0
 11
352.5
 21
-83.0
 31
0.0
  0
INSERT
  5
AB
330
A6
100
AcDbEntity
  8
0
 62
7
100
AcDbBlockReference
  2
_CLOSEDFILLED
 10
255.5
 20
-73.0
 30
0.0
 41
20.0
 42
20.0
 50
180.0
  0
INSERT
  5
AD
330
A6
100
AcDbEntity
  8
0
 62
7
100
AcDbBlockReference
  2
_CLOSEDFILLED
 10
352.5
 20
-73.0
 30
0.0
 41
20.0
 42
20.0
  0
LINE
  5
AF
330
A6
100
AcDbEntity
  8
0
 62
7
100
AcDbLine
 10
275.5
 20
-73.0
 30
0.0
 11
284.0
 21
-73.0
 31
0.0
  0
LINE
  5
B0
330
A6
100
AcDbEntity
  8
0
 62
7
100
AcDbLine
 10
324.0
 20
-73.0
 30
0.0
 11
332.5
 21
-73.0
 31
0.0
  0
MTEXT
  5
B1
330
A6
100
AcDbEntity
  8
0
 62
7
100
AcDbMText
 10
304.0
 20
-73.0
 30
0.0
 40
20.0
 71
5
  1
97
  0
POINT
  5
B2
330
A6
100
AcDbEntity
  8
Defpoints
100
AcDbPoint
 10
255.5
 20
-73.0
 30
0.0
  0
POINT
  5
B3
330
A6
100
AcDbEntity
  8
Defpoints
100
AcDbPoint
 10
255.5
 20
0.0
 30
0.0
  0
POINT
  5
B4
330
A6
100
AcDbEntity
  8
Defpoints
100
AcDbPoint
 10
352.5
 20
0.0
 30
0.0
  0
ENDBLK
  5
A8
330
A6
100
AcDbEntity
  8
0
100
AcDbBlockEnd
  0
BLOCK
  5
B7
330
B6
100
AcDbEntity
  8
0
100
AcDbBlockBegin
  2
*D8
 70
1
 10
0.0
 20
0.0
 30
0.0
  3
*D8
  1

  0
LINE
  5
B9
330
B6
100
AcDbEntity
  8
0
 62
7
100
AcDbLine
 10
352.5
 20
-5.0
 30
0.0
 11
352.5
 21
-83.0
 31
0.0
  0
LINE
  5
BA
330
B6
100
AcDbEntity
  8
0
 62
7
100
AcDbLine
 10
548.5
 20
-5.0
 30
0.0
 11
548.5
 21
-83.0
 31
0.0
  0
INSERT
  5
BB
330
B6
100
AcDbEntity
  8
0
 62
7
100
AcDbBlockReference
  2
_CLOSEDFILLED
 10
352.5
 20
-73.0
 30
0.0
 41
20.0
 42
20.0
 50
180.0
  0
INSERT
  5
BD
330
B6
100
AcDbEntity
  8
0
 62
7
100
AcDbBlockReference
  2
_CLOSEDFILLED
 10
548.5
 20
-73.0
 30
0.0
 41
20.0
 42
20.0
  0
LINE
  5
BF
330
B6
100
AcDbEntity
  8
0
 62
7
100
AcDbLine
 10
372.5
 20
-73.0
 30
0.0
 11
420.5
 21
-73.0
 31
0.0
  0
LINE
  5
C0
330
B6
100
AcDbEntity
  8
0
 62
7
100
AcDbLine
 10
480.5
 20
-73.0
 30
0.0
 11
528.5
 21
-73.0
 31
0.0
  0
MTEXT
  5
C1
330
B6
100
AcDbEntity
  8
0
 62
7
100
AcDbMText
 10
450.5
 20
-73.0
 30
0.0
 40
20.0
 71
5
  1
196
  0
POINT
  5
C2
330
B6
100
AcDbEntity
  8
Defpoints
100
AcDbPoint
 10
352.5
 20
-73.0
 30
0.0
  0
POINT
  5
C3
330
B6
100
AcDbEntity
  8
Defpoints
100
AcDbPoint
 10
352.5
 20
0.0
 30
0.0
  0
POINT
  5
C4
330
B6
100
AcDbEntity
  8
Defpoints
100
AcDbPoint
 10
548.5
 20
0.0
 30
0.0
  0
ENDBLK
  5
B8
330
B6
100
AcDbEntity
  8
0
100
AcDbBlockEnd
  0
BLOCK
  5
C7
330
C6
100
AcDbEntity
  8
0
100
AcDbBlockBegin
  2
*D9
 70
1
 10
0.0
 20
0.0
 30
0.0
  3
*D9
  1

  0
LINE
  5
C9
330
C6
100
AcDbEntity
  8
0
 62
7
100
AcDbLine
 10
548.5
 20
-5.0
 30
0.0
 11
548.5
 21
-83.0
 31
0.0
  0
LINE
  5
CA
330
C6
100
AcDbEntity
  8
0
 62
7
100
AcDbLine
 10
608.0
 20
-5.0
 30
0.0
 11
608.0
 21
-83.0
 31
0.0
  0
INSERT
  5
CB
330
C6
100
AcDbEntity
  8
0
 62
7
100
AcDbBlockReference
  2
_CLOSEDFILLED
 10
548.5
 20
-73.0
 30
0.0
 41
20.0
 42
20.0
 50
180.0
  0
INSERT
  5
CD
330
C6
100
AcDbEntity
  8
0
 62
7
100
AcDbBlockReference
  2
_CLOSEDFILLED
 10
608.0
 20
-73.0
 30
0.0
 41
20.0
 42
20.0
  0
LINE
  5
CF
330
C6
100
AcDbEntity
  8
0
 62
7
100
AcDbLine
 10
568.5
 20
-73.0
 30
0.0
 11
588.0
 21
-73.0
 31
0.0
  0
MTEXT
  5
D0
330
C6
100
AcDbEntity
  8
0
 62
7
100
AcDbMText
 10
578.25
 20
-48.0
 30
0.0
 40
20.0
 71
5
  1
59.5
  0
POINT
  5
D1
330
C6
100
AcDbEntity
  8
Defpoints
100
AcDbPoint
 10
548.5
 20
-73.0
 30
0.0
  0
POINT
  5
D2
330
C6
100
AcDbEntity
  8
Defpoints
100
AcDbPoint
 10
548.5
 20
0.0
 30
0.0
  0
POINT
  5
D3
330
C6
100
AcDbEntity
  8
Defpoints
100
AcDbPoint
 10
608.0
 20
0.0
 30
0.0
  0
ENDBLK
  5
C8
330
C6
100
AcDbEntity
  8
0
100
AcDbBlockEnd
  0
BLOCK
  5
D6
330
D5
100
AcDbEntity
  8
0
100
AcDbBlockBegin
  2
*D10
 70
1
 10
0.0
 20
0.0
 30
0.0
  3
*D10
  1

  0
LINE
  5
D8
330
D5
100
AcDbEntity
  8
0
 62
7
100
AcDbLine
 10
-5.0
 20
0.0
 30
0.0
 11
-77.0
 21
0.0
 31
0.0
  0
LINE
  5
D9
330
D5
100
AcDbEntity
  8
0
 62
7
100
AcDbLine
 10
-5.0
 20
338.5
 30
0.0
 11
-77.0
 21
338.5
 31
0.0
  0
INSERT
  5
DA
330
D5
100
AcDbEntity
  8
0
 62
7
100
AcDbBlockReference
  2
_CLOSEDFILLED
 10
-67.0
 20
0.0
 30
0.0
 41
20.0
 42
20.0
 50
270.0
  0
INSERT
  5
DC
330
D5
100
AcDbEntity
  8
0
 62
7
100
AcDbBlockReference
  2
_CLOSEDFILLED
 10
-67.0
 20
338.5
 30
0.0
 41
20.0
 42
20.0
 50
90.0
  0
LINE
  5
DE
330
D5
100
AcDbEntity
  8
0
 62
7
100
AcDbLine
 10
-67.0
 20
20.0
 30
0.0
 11
-67.0
 21
119.25
 31
0.0
  0
LINE
  5
DF
330
D5
100
AcDbEntity
  8
0
 62
7
100
AcDbLine
 10
-67.0
 20
219.25
 30
0.0
 11
-67.0
 21
318.5
 31
0.0
  0
MTEXT
  5
E0
330
D5
100
AcDbEntity
  8
0
 62
7
100
AcDbMText
 10
-67.0
 20
169.25
 30
0.0
 40
20.0
 71
5
  1
338.5
 50
90.0
  0
POINT
  5
E1
330
D5
100
AcDbEntity
  8
Defpoints
100
AcDbPoint
 10
-67.0
 20
0.0
 30
0.0
  0
POINT
  5
E2
330
D5
100
AcDbEntity
  8
Defpoints
100
AcDbPoint
 10
0.0
 20
0.0
 30
0.0
  0
POINT
  5
E3
330
D5
100
AcDbEntity
  8
Defpoints
100
AcDbPoint
 10
0.0
 20
338.5
 30
0.0
  0
ENDBLK
  5
D7
330
D5
100
AcDbEntity
  8
0
100
AcDbBlockEnd
  0
BLOCK
  5
E6
330
E5
100
AcDbEntity
  8
0
100
AcDbBlockBegin
  2
*D11
 70
1
 10
0.0
 20
0.0
 30
0.0
  3
*D11
  1

  0
LINE
  5
E8
330
E5
100
AcDbEntity
  8
0
 62
7
100
AcDbLine
 10
-5.0
 20
338.5
 30
0.0
 11
-77.0
 21
338.5
 31
0.0
  0
LINE
  5
E9
330
E5
100
AcDbEntity
  8
0
 62
7
100
AcDbLine
 10
-5.0
 20
647.5
 30
0.0
 11
-77.0
 21
647.5
 31
0.0
  0
INSERT
  5
EA
330
E5
100
AcDbEntity
  8
0
 62
7
100
AcDbBlockReference
  2
_CLOSEDFILLED
 10
-67.0
 20
338.5
 30
0.0
 41
20.0
 42
20.0
 50
270.0
  0
INSERT
  5
EC
330
E5
100
AcDbEntity
  8
0
 62
7
100
AcDbBlockReference
  2
_CLOSEDFILLED
 10
-67.0
 20
647.5
 30
0.0
 41
20.0
 42
20.0
 50
90.0
  0
LINE
  5
EE
330
E5
100
AcDbEntity
  8
0
 62
7
100
AcDbLine
 10
-67.0
 20
358.5
 30
0.0
 11
-67.0
 21
463.0
 31
0.0
  0
LINE
  5
EF
330
E5
100
AcDbEntity
  8
0
 62
7
100
AcDbLine
 10
-67.0
 20
523.0
 30
0.0
 11
-67.0
 21
627.5
 31
0.0
  0
MTEXT
  5
F0
330
E5
100
AcDbEntity
  8
0
 62
7
100
AcDbMText
 10
-67.0
 20
493.0
 30
0.0
 40
20.0
 71
5
  1
309
 50
90.0
  0
POINT
  5
F1
330
E5
100
AcDbEntity
  8
Defpoints
100
AcDbPoint
 10
-67.0
 20
338.5
 30
0.0
  0
POINT
  5
F2
330
E5
100
AcDbEntity
  8
Defpoints
100
AcDbPoint
 10
0.0
 20
338.5
 30
0.0
  0
POINT
  5
F3
330
E5
100
AcDbEntity
  8
Defpoints
100
AcDbPoint
 10
0.0
 20
647.5
 30
0.0
  0
ENDBLK
  5
E7
330
E5
100
AcDbEntity
  8
0
100
AcDbBlockEnd
  0
BLOCK
  5
F6
330
F5
100
AcDbEntity
  8
0
100
AcDbBlockBegin
  2
*D12
 70
1
 10
0.0
 20
0.0
 30
0.0
  3
*D12
  1

  0
LINE
  5
F8
330
F5
100
AcDbEntity
  8
0
 62
7
100
AcDbLine
 10
-5.0
 20
647.5
 30
0.0
 11
-77.0
 21
647.5
 31
0.0
  0
LINE
  5
F9
330
F5
100
AcDbEntity
  8
0
 62
7
100
AcDbLine
 10
-5.0
 20
986.0
 30
0.0
 11
-77.0
 21
986.0
 31
0.0
  0
INSERT
  5
FA
330
F5
100
AcDbEntity
  8
0
 62
7
100
AcDbBlockReference
  2
_CLOSEDFILLED
 10
-67.0
 20
647.5
 30
0.0
 41
20.0
 42
20.0
 50
270.0
  0
INSERT
  5
FC
330
F5
100
AcDbEntity
  8
0
 62
7
100
AcDbBlockReference
  2
_CLOSEDFILLED
 10
-67.0
 20
986.0
 30
0.0
 41
20.0
 42
20.0
 50
90.0
  0
LINE
  5
FE
330
F5
100
AcDbEntity
  8
0
 62
7
100
AcDbLine
 10
-67.0
 20
667.5
 30
0.0
 11
-67.0
 21
766.75
 31
0.0
  0
LINE
  5
FF
330
F5
100
AcDbEntity
  8
0
 62
7
100
AcDbLine
 10
-67.0
 20
866.75
 30
0.0
 11
-67.0
 21
966.0
 31
0.0
  0
MTEXT
  5
100
330
F5
100
AcDbEntity
  8
0
 62
7
100
AcDbMText
 10
-67.0
 20
816.75
 30
0.0
 40
20.0
 71
5
  1
338.5
 50
90.0
  0
POINT
  5
101
330
F5
100
AcDbEntity
  8
Defpoints
100
AcDbPoint
 10
-67.0
 20
647.5
 30
0.0
  0
POINT
  5
102
330
F5
100
AcDbEntity
  8
Defpoints
100
AcDbPoint
 10
0.0
 20
647.5
 30
0.0
  0
POINT
  5
103
330
F5
100
AcDbEntity
  8
Defpoints
100
AcDbPoint
 10
0.0
 20
986.0
 30
0.0
  0
ENDBLK
  5
F7
330
F5
100
AcDbEntity
  8
0
100
AcDbBlockEnd
  0
BLOCK
  5
106
330
105
100
AcDbEntity
  8
0
100
AcDbBlockBegin
  2
*D13
 70
1
 10
0.0
 20
0.0
 30
0.0
  3
*D13
  1

  0
LINE
  5
108
330
105
100
AcDbEntity
  8
0
 62
7
100
AcDbLine
 10
-5.0
 20
1486.0
 30
0.0
 11
-97.0
 21
1486.0
 31
0.0
  0
LINE
  5
109
330
105
100
AcDbEntity
  8
0
 62
7
100
AcDbLine
 10
-5.0
 20
1785.0
 30
0.0
 11
-97.0
 21
1785.0
 31
0.0
  0
INSERT
  5
10A
330
105
100
AcDbEntity
  8
0
 62
7
100
AcDbBlockReference
  2
_CLOSEDFILLED
 10
-87.0
 20
1486.0
 30
0.0
 41
20.0
 42
20.0
 50
270.0
  0
INSERT
  5
10C
330
105
100
AcDbEntity
  8
0
 62
7
100
AcDbBlockReference
  2
_CLOSEDFILLED
 10
-87.0
 20
1785.0
 30
0.0
 41
20.0
 42
20.0
 50
90.0
  0
LINE
  5
10E
330
105
100
AcDbEntity
  8
0
 62
7
100
AcDbLine
 10
-87.0
 20
1506.0
 30
0.0
 11
-87.0
 21
1605.5
 31
0.0
  0
LINE
  5
10F
330
105
100
AcDbEntity
  8
0
 62
7
100
AcDbLine
 10
-87.0
 20
1665.5
 30
0.0
 11
-87.0
 21
1765.0
 31
0.0
  0
MTEXT
  5
110
330
105
100
AcDbEntity
  8
0
 62
7
100
AcDbMText
 10
-87.0
 20
1635.5
 30
0.0
 40
20.0
 71
5
  1
299
 50
90.0
  0
POINT
  5
111
330
105
100
AcDbEntity
  8
Defpoints
100
AcDbPoint
 10
-87.0
 20
1486.0
 30
0.0
  0
POINT
  5
112
330
105
100
AcDbEntity
  8
Defpoints
100
AcDbPoint
 10
0.0
 20
1486.0
 30
0.0
  0
POINT
  5
113
330
105
100
AcDbEntity
  8
Defpoints
100
AcDbPoint
 10
0.0
 20
1785.0
 30
0.0
  0
ENDBLK
  5
107
330
105
100
AcDbEntity
  8
0
100
AcDbBlockEnd
  0
BLOCK
  5
116
330
115
100
AcDbEntity
  8
0
100
AcDbBlockBegin
  2
*D14
 70
1
 10
0.0
 20
0.0
 30
0.0
  3
*D14
  1

  0
LINE
  5
118
330
115
100
AcDbEntity
  8
0
 62
7
100
AcDbLine
 10
-5.0
 20
1785.0
 30
0.0
 11
-97.0
 21
1785.0
 31
0.0
  0
LINE
  5
119
330
115
100
AcDbEntity
  8
0
 62
7
100
AcDbLine
 10
-5.0
 20
2017.0
 30
0.0
 11
-97.0
 21
2017.0
 31
0.0
  0
INSERT
  5
11A
330
115
100
AcDbEntity
  8
0
 62
7
100
AcDbBlockReference
  2
_CLOSEDFILLED
 10
-87.0
 20
1785.0
 30
0.0
 41
20.0
 42
20.0
 50
270.0
  0
INSERT
  5
11C
330
115
100
AcDbEntity
  8
0
 62
7
100
AcDbBlockReference
  2
_CLOSEDFILLED
 10
-87.0
 20
2017.0
 30
0.0
 41
20.0
 42
20.0
 50
90.0
  0
LINE
  5
11E
330
115
100
AcDbEntity
  8
0
 62
7
100
AcDbLine
 10
-87.0
 20
1805.0
 30
0.0
 11
-87.0
 21
1871.0
 31
0.0
  0
LINE
  5
11F
330
115
100
AcDbEntity
  8
0
 62
7
100
AcDbLine
 10
-87.0
 20
1931.0
 30
0.0
 11
-87.0
 21
1997.0
 31
0.0
  0
MTEXT
  5
120
330
115
100
AcDbEntity
  8
0
 62
7
100
AcDbMText
 10
-87.0
 20
1901.0
 30
0.0
 40
20.0
 71
5
  1
232
 50
90.0
  0
POINT
  5
121
330
115
100
AcDbEntity
  8
Defpoints
100
AcDbPoint
 10
-87.0
 20
1785.0
 30
0.0
  0
POINT
  5
122
330
115
100
AcDbEntity
  8
Defpoints
100
AcDbPoint
 10
0.0
 20
1785.0
 30
0.0
  0
POINT
  5
123
330
115
100
AcDbEntity
  8
Defpoints
100
AcDbPoint
 10
0.0
 20
2017.0
 30
0.0
  0
ENDBLK
  5
117
330
115
100
AcDbEntity
  8
0
100
AcDbBlockEnd
  0
BLOCK
  5
126
330
125
100
AcDbEntity
  8
0
100
AcDbBlockBegin
  2
*D15
 70
1
 10
0.0
 20
0.0
 30
0.0
  3
*D15
  1

  0
LINE
  5
128
330
125
100
AcDbEntity
  8
0
 62
7
100
AcDbLine
 10
-5.0
 20
2017.0
 30
0.0
 11
-97.0
 21
2017.0
 31
0.0
  0
LINE
  5
129
330
125
100
AcDbEntity
  8
0
 62
7
100
AcDbLine
 10
-5.0
 20
2272.0
 30
0.0
 11
-97.0
 21
2272.0
 31
0.0
  0
INSERT
  5
12A
330
125
100
AcDbEntity
  8
0
 62
7
100
AcDbBlockReference
  2
_CLOSEDFILLED
 10
-87.0
 20
2017.0
 30
0.0
 41
20.0
 42
20.0
 50
270.0
  0
INSERT
  5
12C
330
125
100
AcDbEntity
  8
0
 62
7
100
AcDbBlockReference
  2
_CLOSEDFILLED
 10
-87.0
 20
2272.0
 30
0.0
 41
20.0
 42
20.0
 50
90.0
  0
LINE
  5
12E
330
125
100
AcDbEntity
  8
0
 62
7
100
AcDbLine
 10
-87.0
 20
2037.0
 30
0.0
 11
-87.0
 21
2114.5
 31
0.0
  0
LINE
  5
12F
330
125
100
AcDbEntity
  8
0
 62
7
100
AcDbLine
 10
-87.0
 20
2174.5
 30
0.0
 11
-87.0
 21
2252.0
 31
0.0
  0
MTEXT
  5
130
330
125
100
AcDbEntity
  8
0
 62
7
100
AcDbMText
 10
-87.0
 20
2144.5
 30
0.0
 40
20.0
 71
5
  1
255
 50
90.0
  0
POINT
  5
131
330
125
100
AcDbEntity
  8
Defpoints
100
AcDbPoint
 10
-87.0
 20
2017.0
 30
0.0
  0
POINT
  5
132
330
125
100
AcDbEntity
  8
Defpoints
100
AcDbPoint
 10
0.0
 20
2017.0
 30
0.0
  0
POINT
  5
133
330
125
100
AcDbEntity
  8
Defpoints
100
AcDbPoint
 10
0.0
 20
2272.0
 30
0.0
  0
ENDBLK
  5
127
330
125
100
AcDbEntity
  8
0
100
AcDbBlockEnd
  0
BLOCK
  5
136
330
135
100
AcDbEntity
  8
0
100
AcDbBlockBegin
  2
*D16
 70
1
 10
0.0
 20
0.0
 30
0.0
  3
*D16
  1

  0
LINE
  5
138
330
135
100
AcDbEntity
  8
0
 62
7
100
AcDbLine
 10
0.0
 20
2277.0
 30
0.0
 11
0.0
 21
2365.0
 31
0.0
  0
LINE
  5
139
330
135
100
AcDbEntity
  8
0
 62
7
100
AcDbLine
 10
59.5
 20
2277.0
 30
0.0
 11
59.5
 21
2365.0
 31
0.0
  0
INSERT
  5
13A
330
135
100
AcDbEntity
  8
0
 62
7
100
AcDbBlockReference
  2
_CLOSEDFILLED
 10
0.0
 20
2355.0
 30
0.0
 41
20.0
 42
20.0
 50
180.0
  0
INSERT
  5
13C
330
135
100
AcDbEntity
  8
0
 62
7
100
AcDbBlockReference
  2
_CLOSEDFILLED
 10
59.5
 20
2355.0
 30
0.0
 41
20.0
 42
20.0
  0
LINE
  5
13E
330
135
100
AcDbEntity
  8
0
 62
7
100
AcDbLine
 10
20.0
 20
2355.0
 30
0.0
 11
39.5
 21
2355.0
 31
0.0
  0
MTEXT
  5
13F
330
135
100
AcDbEntity
  8
0
 62
7
100
AcDbMText
 10
29.75
 20
2380.0
 30
0.0
 40
20.0
 71
5
  1
59.5
  0
POINT
  5
140
330
135
100
AcDbEntity
  8
Defpoints
100
AcDbPoint
 10
0.0
 20
2355.0
 30
0.0
  0
POINT
  5
141
330
135
100
AcDbEntity
  8
Defpoints
100
AcDbPoint
 10
0.0
 20
2272.0
 30
0.0
  0
POINT
  5
142
330
135
100
AcDbEntity
  8
Defpoints
100
AcDbPoint
 10
59.5
 20
2272.0
 30
0.0
  0
ENDBLK
  5
137
330
135
100
AcDbEntity
  8
0
100
AcDbBlockEnd
  0
BLOCK
  5
145
330
144
100
AcDbEntity
  8
0
100
AcDbBlockBegin
  2
*D17
 70
1
 10
0.0
 20
0.0
 30
0.0
  3
*D17
  1

  0
LINE
  5
147
330
144
100
AcDbEntity
  8
0
 62
7
100
AcDbLine
 10
59.5
 20
2277.0
 30
0.0
 11
59.5
 21
2365.0
 31
0.0
  0
LINE
  5
148
330
144
100
AcDbEntity
  8
0
 62
7
100
AcDbLine
 10
255.5
 20
2277.0
 30
0.0
 11
255.5
 21
2365.0
 31
0.0
  0
INSERT
  5
149
330
144
100
AcDbEntity
  8
0
 62
7
100
AcDbBlockReference
  2
_CLOSEDFILLED
 10
59.5
 20
2355.0
 30
0.0
 41
20.0
 42
20.0
 50
180.0
  0
INSERT
  5
14B
330
144
100
AcDbEntity
  8
0
 62
7
100
AcDbBlockReference
  2
_CLOSEDFILLED
 10
255.5
 20
2355.0
 30
0.0
 41
20.0
 42
20.0
  0
LINE
  5
14D
330
144
100
AcDbEntity
  8
0
 62
7
100
AcDbLine
 10
79.5
 20
2355.0
 30
0.0
 11
127.5
 21
2355.0
 31
0.0
  0
LINE
  5
14E
330
144
100
AcDbEntity
  8
0
 62
7
100
AcDbLine
 10
187.5
 20
2355.0
 30
0.0
 11
235.5
 21
2355.0
 31
0.0
  0
MTEXT
  5
14F
330
144
100
AcDbEntity
  8
0
 62
7
100
AcDbMText
 10
157.5
 20
2355.0
 30
0.0
 40
20.0
 71
5
  1
196
  0
POINT
  5
150
330
144
100
AcDbEntity
  8
Defpoints
100
AcDbPoint
 10
59.5
 20
2355.0
 30
0.0
  0
POINT
  5
151
330
144
100
AcDbEntity
  8
Defpoints
100
AcDbPoint
 10
59.5
 20
2272.0
 30
0.0
  0
POINT
  5
152
330
144
100
AcDbEntity
  8
Defpoints
100
AcDbPoint
 10
255.5
 20
2272.0
 30
0.0
  0
ENDBLK
  5
146
330
144
100
AcDbEntity
  8
0
100
AcDbBlockEnd
  0
BLOCK
  5
155
330
154
100
AcDbEntity
  8
0
100
AcDbBlockBegin
  2
*D18
 70
1
 10
0.0
 20
0.0
 30
0.0
  3
*D18
  1

  0
LINE
  5
157
330
154
100
AcDbEntity
  8
0
 62
7
100
AcDbLine
 10
255.5
 20
2277.0
 30
0.0
 11
255.5
 21
2365.0
 31
0.0
  0
LINE
  5
158
330
154
100
AcDbEntity
  8
0
 62
7
100
AcDbLine
 10
352.5
 20
2277.0
 30
0.0
 11
352.5
 21
2365.0
 31
0.0
  0
INSERT
  5
159
330
154
100
AcDbEntity
  8
0
 62
7
100
AcDbBlockReference
  2
_CLOSEDFILLED
 10
255.5
 20
2355.0
 30
0.0
 41
20.0
 42
20.0
 50
180.0
  0
INSERT
  5
15B
330
154
100
AcDbEntity
  8
0
 62
7
100
AcDbBlockReference
  2
_CLOSEDFILLED
 10
352.5
 20
2355.0
 30
0.0
 41
20.0
 42
20.0
  0
LINE
  5
15D
330
154
100
AcDbEntity
  8
0
 62
7
100
AcDbLine
 10
275.5
 20
2355.0
 30
0.0
 11
284.0
 21
2355.0
 31
0.0
  0
LINE
  5
15E
330
154
100
AcDbEntity
  8
0
 62
7
100
AcDbLine
 10
324.0
 20
2355.0
 30
0.0
 11
332.5
 21
2355.0
 31
0.0
  0
MTEXT
  5
15F
330
154
100
AcDbEntity
  8
0
 62
7
100
AcDbMText
 10
304.0
 20
2355.0
 30
0.0
 40
20.0
 71
5
  1
97
  0
POINT
  5
160
330
154
100
AcDbEntity
  8
Defpoints
100
AcDbPoint
 10
255.5
 20
2355.0
 30
0.0
  0
POINT
  5
161
330
154
100
AcDbEntity
  8
Defpoints
100
AcDbPoint
 10
255.5
 20
2272.0
 30
0.0
  0
POINT
  5
162
330
154
100
AcDbEntity
  8
Defpoints
100
AcDbPoint
 10
352.5
 20
2272.0
 30
0.0
  0
ENDBLK
  5
156
330
154
100
AcDbEntity
  8
0
100
AcDbBlockEnd
  0
BLOCK
  5
165
330
164
100
AcDbEntity
  8
0
100
AcDbBlockBegin
  2
*D19
 70
1
 10
0.0
 20
0.0
 30
0.0
  3
*D19
  1

  0
LINE
  5
167
330
164
100
AcDbEntity
  8
0
 62
7
100
AcDbLine
 10
352.5
 20
2277.0
 30
0.0
 11
352.5
 21
2365.0
 31
0.0
  0
LINE
  5
168
330
164
100
AcDbEntity
  8
0
 62
7
100
AcDbLine
 10
548.5
 20
2277.0
 30
0.0
 11
548.5
 21
2365.0
 31
0.0
  0
INSERT
  5
169
330
164
100
AcDbEntity
  8
0
 62
7
100
AcDbBlockReference
  2
_CLOSEDFILLED
 10
352.5
 20
2355.0
 30
0.0
 41
20.0
 42
20.0
 50
180.0
  0
INSERT
  5
16B
330
164
100
AcDbEntity
  8
0
 62
7
100
AcDbBlockReference
  2
_CLOSEDFILLED
 10
548.5
 20
2355.0
 30
0.0
 41
20.0
 42
20.0
  0
LINE
  5
16D
330
164
100
AcDbEntity
  8
0
 62
7
100
AcDbLine
 10
372.5
 20
2355.0
 30
0.0
 11
420.5
 21
2355.0
 31
0.0
  0
LINE
  5
16E
330
164
100
AcDbEntity
  8
0
 62
7
100
AcDbLine
 10
480.5
 20
2355.0
 30
0.0
 11
528.5
 21
2355.0
 31
0.0
  0
MTEXT
  5
16F
330
164
100
AcDbEntity
  8
0
 62
7
100
AcDbMText
 10
450.5
 20
2355.0
 30
0.0
 40
20.0
 71
5
  1
196
  0
POINT
  5
170
330
164
100
AcDbEntity
  8
Defpoints
100
AcDbPoint
 10
352.5
 20
2355.0
 30
0.0
  0
POINT
  5
171
330
164
100
AcDbEntity
  8
Defpoints
100
AcDbPoint
 10
352.5
 20
2272.0
 30
0.0
  0
POINT
  5
172
330
164
100
AcDbEntity
  8
Defpoints
100
AcDbPoint
 10
548.5
 20
2272.0
 30
0.0
  0
ENDBLK
  5
166
330
164
100
AcDbEntity
  8
0
100
AcDbBlockEnd
  0
BLOCK
  5
175
330
174
100
AcDbEntity
  8
0
100
AcDbBlockBegin
  2
*D20
 70
1
 10
0.0
 20
0.0
 30
0.0
  3
*D20
  1

  0
LINE
  5
177
330
174
100
AcDbEntity
  8
0
 62
7
100
AcDbLine
 10
548.5
 20
2277.0
 30
0.0
 11
548.5
 21
2365.0
 31
0.0
  0
LINE
  5
178
330
174
100
AcDbEntity
  8
0
 62
7
100
AcDbLine
 10
608.0
 20
2277.0
 30
0.0
 11
608.0
 21
2365.0
 31
0.0
  0
INSERT
  5
179
330
174
100
AcDbEntity
  8
0
 62
7
100
AcDbBlockReference
  2
_CLOSEDFILLED
 10
548.5
 20
2355.0
 30
0.0
 41
20.0
 42
20.0
 50
180.0
  0
INSERT
  5
17B
330
174
100
AcDbEntity
  8
0
 62
7
100
AcDbBlockReference
  2
_CLOSEDFILLED
 10
608.0
 20
2355.0
 30
0.0
 41
20.0
 42
20.0
  0
LINE
  5
17D
330
174
100
AcDbEntity
  8
0
 62
7
100
AcDbLine
 10
568.5
 20
2355.0
 30
0.0
 11
588.0
 21
2355.0
 31
0.0
  0
MTEXT
  5
17E
330
174
100
AcDbEntity
  8
0
 62
7
100
AcDbMText
 10
578.25
 20
2380.0
 30
0.0
 40
20.0
 71
5
  1
59.5
  0
POINT
  5
17F
330
174
100
AcDbEntity
  8
Defpoints
100
AcDbPoint
 10
548.5
 20
2355.0
 30
0.0
  0
POINT
  5
180
330
174
100
AcDbEntity
  8
Defpoints
100
AcDbPoint
 10
548.5
 20
2272.0
 30
0.0
  0
POINT
  5
181
330
174
100
AcDbEntity
  8
Defpoints
100
AcDbPoint
 10
608.0
 20
2272.0
 30
0.0
  0
ENDBLK
  5
176
330
174
100
AcDbEntity
  8
0
100
AcDbBlockEnd
  0
BLOCK
  5
184
330
183
100
AcDbEntity
  8
0
100
AcDbBlockBegin
  2
*D21
 70
1
 10
0.0
 20
0.0
 30
0.0
  3
*D21
  1

  0
LINE
  5
186
330
183
100
AcDbEntity
  8
0
 62
7
100
AcDbLine
 10
0.0
 20
1481.0
 30
0.0
 11
0.0
 21
1390.0
 31
0.0
  0
LINE
  5
187
330
183
100
AcDbEntity
  8
0
 62
7
100
AcDbLine
 10
75.0
 20
1481.0
 30
0.0
 11
75.0
 21
1390.0
 31
0.0
  0
INSERT
  5
188
330
183
100
AcDbEntity
  8
0
 62
7
100
AcDbBlockReference
  2
_CLOSEDFILLED
 10
0.0
 20
1400.0
 30
0.0
 41
20.0
 42
20.0
 50
180.0
  0
INSERT
  5
18A
330
183
100
AcDbEntity
  8
0
 62
7
100
AcDbBlockReference
  2
_CLOSEDFILLED
 10
75.0
 20
1400.0
 30
0.0
 41
20.0
 42
20.0
  0
LINE
  5
18C
330
183
100
AcDbEntity
  8
0
 62
7
100
AcDbLine
 10
20.0
 20
1400.0
 30
0.0
 11
55.0
 21
1400.0
 31
0.0
  0
MTEXT
  5
18D
330
183
100
AcDbEntity
  8
0
 62
7
100
AcDbMText
 10
37.5
 20
1425.0
 30
0.0
 40
20.0
 71
5
  1
75
  0
POINT
  5
18E
330
183
100
AcDbEntity
  8
Defpoints
100
AcDbPoint
 10
0.0
 20
1400.0
 30
0.0
  0
POINT
  5
18F
330
183
100
AcDbEntity
  8
Defpoints
100
AcDbPoint
 10
0.0
 20
1486.0
 30
0.0
  0
POINT
  5
190
330
183
100
AcDbEntity
  8
Defpoints
100
AcDbPoint
 10
75.0
 20
1486.0
 30
0.0
  0
ENDBLK
  5
185
330
183
100
AcDbEntity
  8
0
100
AcDbBlockEnd
  0
BLOCK
  5
193
330
192
100
AcDbEntity
  8
0
100
AcDbBlockBegin
  2
*D22
 70
1
 10
0.0
 20
0.0
 30
0.0
  3
*D22
  1

  0
LINE
  5
195
330
192
100
AcDbEntity
  8
0
 62
7
100
AcDbLine
 10
75.0
 20
1481.0
 30
0.0
 11
75.0
 21
1390.0
 31
0.0
  0
LINE
  5
196
330
192
100
AcDbEntity
  8
0
 62
7
100
AcDbLine
 10
177.0
 20
1481.0
 30
0.0
 11
177.0
 21
1390.0
 31
0.0
  0
INSERT
  5
197
330
192
100
AcDbEntity
  8
0
 62
7
100
AcDbBlockReference
  2
_CLOSEDFILLED
 10
75.0
 20
1400.0
 30
0.0
 41
20.0
 42
20.0
 50
180.0
  0
INSERT
  5
199
330
192
100
AcDbEntity
  8
0
 62
7
100
AcDbBlockReference
  2
_CLOSEDFILLED
 10
177.0
 20
1400.0
 30
0.0
 41
20.0
 42
20.0
  0
LINE
  5
19B
330
192
100
AcDbEntity
  8
0
 62
7
100
AcDbLine
 10
95.0
 20
1400.0
 30
0.0
 11
96.0
 21
1400.0
 31
0.0
  0
LINE
  5
19C
330
192
100
AcDbEntity
  8
0
 62
7
100
AcDbLine
 10
156.0
 20
1400.0
 30
0.0
 11
157.0
 21
1400.0
 31
0.0
  0
MTEXT
  5
19D
330
192
100
AcDbEntity
  8
0
 62
7
100
AcDbMText
 10
126.0
 20
1400.0
 30
0.0
 40
20.0
 71
5
  1
102
  0
POINT
  5
19E
330
192
100
AcDbEntity
  8
Defpoints
100
AcDbPoint
 10
75.0
 20
1400.0
 30
0.0
  0
POINT
  5
19F
330
192
100
AcDbEntity
  8
Defpoints
100
AcDbPoint
 10
75.0
 20
1486.0
 30
0.0
  0
POINT
  5
1A0
330
192
100
AcDbEntity
  8
Defpoints
100
AcDbPoint
 10
177.0
 20
1486.0
 30
0.0
  0
ENDBLK
  5
194
330
192
100
AcDbEntity
  8
0
100
AcDbBlockEnd
  0
BLOCK
  5
1A3
330
1A2
100
AcDbEntity
  8
0
100
AcDbBlockBegin
  2
*D23
 70
1
 10
0.0
 20
0.0
 30
0.0
  3
*D23
  1

  0
LINE
  5
1A5
330
1A2
100
AcDbEntity
  8
0
 62
7
100
AcDbLine
 10
177.0
 20
1481.0
 30
0.0
 11
177.0
 21
1390.0
 31
0.0
  0
LINE
  5
1A6
330
1A2
100
AcDbEntity
  8
0
 62
7
100
AcDbLine
 10
253.0
 20
1481.0
 30
0.0
 11
253.0
 21
1390.0
 31
0.0
  0
INSERT
  5
1A7
330
1A2
100
AcDbEntity
  8
0
 62
7
100
AcDbBlockReference
  2
_CLOSEDFILLED
 10
177.0
 20
1400.0
 30
0.0
 41
20.0
 42
20.0
 50
180.0
  0
INSERT
  5
1A9
330
1A2
100
AcDbEntity
  8
0
 62
7
100
AcDbBlockReference
  2
_CLOSEDFILLED
 10
253.0
 20
1400.0
 30
0.0
 41
20.0
 42
20.0
  0
LINE
  5
1AB
330
1A2
100
AcDbEntity
  8
0
 62
7
100
AcDbLine
 10
197.0
 20
1400.0
 30
0.0
 11
233.0
 21
1400.0
 31
0.0
  0
MTEXT
  5
1AC
330
1A2
100
AcDbEntity
  8
0
 62
7
100
AcDbMText
 10
215.0
 20
1425.0
 30
0.0
 40
20.0
 71
5
  1
76
  0
POINT
  5
1AD
330
1A2
100
AcDbEntity
  8
Defpoints
100
AcDbPoint
 10
177.0
 20
1400.0
 30
0.0
  0
POINT
  5
1AE
330
1A2
100
AcDbEntity
  8
Defpoints
100
AcDbPoint
 10
177.0
 20
1486.0
 30
0.0
  0
POINT
  5
1AF
330
1A2
100
AcDbEntity
  8
Defpoints
100
AcDbPoint
 10
253.0
 20
1486.0
 30
0.0
  0
ENDBLK
  5
1A4
330
1A2
100
AcDbEntity
  8
0
100
AcDbBlockEnd
  0
BLOCK
  5
1B2
330
1B1
100
AcDbEntity
  8
0
100
AcDbBlockBegin
  2
*D24
 70
1
 10
0.0
 20
0.0
 30
0.0
  3
*D24
  1

  0
LINE
  5
1B4
330
1B1
100
AcDbEntity
  8
0
 62
7
100
AcDbLine
 10
253.0
 20
1481.0
 30
0.0
 11
253.0
 21
1390.0
 31
0.0
  0
LINE
  5
1B5
330
1B1
100
AcDbEntity
  8
0
 62
7
100
AcDbLine
 10
355.0
 20
1481.0
 30
0.0
 11
355.0
 21
1390.0
 31
0.0
  0
INSERT
  5
1B6
330
1B1
100
AcDbEntity
  8
0
 62
7
100
AcDbBlockReference
  2
_CLOSEDFILLED
 10
253.0
 20
1400.0
 30
0.0
 41
20.0
 42
20.0
 50
180.0
  0
INSERT
  5
1B8
330
1B1
100
AcDbEntity
  8
0
 62
7
100
AcDbBlockReference
  2
_CLOSEDFILLED
 10
355.0
 20
1400.0
 30
0.0
 41
20.0
 42
20.0
  0
LINE
  5
1BA
330
1B1
100
AcDbEntity
  8
0
 62
7
100
AcDbLine
 10
273.0
 20
1400.0
 30
0.0
 11
274.0
 21
1400.0
 31
0.0
  0
LINE
  5
1BB
330
1B1
100
AcDbEntity
  8
0
 62
7
100
AcDbLine
 10
334.0
 20
1400.0
 30
0.0
 11
335.0
 21
1400.0
 31
0.0
  0
MTEXT
  5
1BC
330
1B1
100
AcDbEntity
  8
0
 62
7
100
AcDbMText
 10
304.0
 20
1400.0
 30
0.0
 40
20.0
 71
5
  1
102
  0
POINT
  5
1BD
330
1B1
100
AcDbEntity
  8
Defpoints
100
AcDbPoint
 10
253.0
 20
1400.0
 30
0.0
  0
POINT
  5
1BE
330
1B1
100
AcDbEntity
  8
Defpoints
100
AcDbPoint
 10
253.0
 20
1486.0
 30
0.0
  0
POINT
  5
1BF
330
1B1
100
AcDbEntity
  8
Defpoints
100
AcDbPoint
 10
355.0
 20
1486.0
 30
0.0
  0
ENDBLK
  5
1B3
330
1B1
100
AcDbEntity
  8
0
100
AcDbBlockEnd
  0
BLOCK
  5
1C2
330
1C1
100
AcDbEntity
  8
0
100
AcDbBlockBegin
  2
*D25
 70
1
 10
0.0
 20
0.0
 30
0.0
  3
*D25
  1

  0
LINE
  5
1C4
330
1C1
100
AcDbEntity
  8
0
 62
7
100
AcDbLine
 10
355.0
 20
1481.0
 30
0.0
 11
355.0
 21
1390.0
 31
0.0
  0
LINE
  5
1C5
330
1C1
100
AcDbEntity
  8
0
 62
7
100
AcDbLine
 10
431.0
 20
1481.0
 30
0.0
 11
431.0
 21
1390.0
 31
0.0
  0
INSERT
  5
1C6
330
1C1
100
AcDbEntity
  8
0
 62
7
100
AcDbBlockReference
  2
_CLOSEDFILLED
 10
355.0
 20
1400.0
 30
0.0
 41
20.0
 42
20.0
 50
180.0
  0
INSERT
  5
1C8
330
1C1
100
AcDbEntity
  8
0
 62
7
100
AcDbBlockReference
  2
_CLOSEDFILLED
 10
431.0
 20
1400.0
 30
0.0
 41
20.0
 42
20.0
  0
LINE
  5
1CA
330
1C1
100
AcDbEntity
  8
0
 62
7
100
AcDbLine
 10
375.0
 20
1400.0
 30
0.0
 11
411.0
 21
1400.0
 31
0.0
  0
MTEXT
  5
1CB
330
1C1
100
AcDbEntity
  8
0
 62
7
100
AcDbMText
 10
393.0
 20
1425.0
 30
0.0
 40
20.0
 71
5
  1
76
  0
POINT
  5
1CC
330
1C1
100
AcDbEntity
  8
Defpoints
100
AcDbPoint
 10
355.0
 20
1400.0
 30
0.0
  0
POINT
  5
1CD
330
1C1
100
AcDbEntity
  8
Defpoints
100
AcDbPoint
 10
355.0
 20
1486.0
 30
0.0
  0
POINT
  5
1CE
330
1C1
100
AcDbEntity
  8
Defpoints
100
AcDbPoint
 10
431.0
 20
1486.0
 30
0.0
  0
ENDBLK
  5
1C3
330
1C1
100
AcDbEntity
  8
0
100
AcDbBlockEnd
  0
BLOCK
  5
1D1
330
1D0
100
AcDbEntity
  8
0
100
AcDbBlockBegin
  2
*D26
 70
1
 10
0.0
 20
0.0
 30
0.0
  3
*D26
  1

  0
LINE
  5
1D3
330
1D0
100
AcDbEntity
  8
0
 62
7
100
AcDbLine
 10
431.0
 20
1481.0
 30
0.0
 11
431.0
 21
1390.0
 31
0.0
  0
LINE
  5
1D4
330
1D0
100
AcDbEntity
  8
0
 62
7
100
AcDbLine
 10
533.0
 20
1481.0
 30
0.0
 11
533.0
 21
1390.0
 31
0.0
  0
INSERT
  5
1D5
330
1D0
100
AcDbEntity
  8
0
 62
7
100
AcDbBlockReference
  2
_CLOSEDFILLED
 10
431.0
 20
1400.0
 30
0.0
 41
20.0
 42
20.0
 50
180.0
  0
INSERT
  5
1D7
330
1D0
100
AcDbEntity
  8
0
 62
7
100
AcDbBlockReference
  2
_CLOSEDFILLED
 10
533.0
 20
1400.0
 30
0.0
 41
20.0
 42
20.0
  0
LINE
  5
1D9
330
1D0
100
AcDbEntity
  8
0
 62
7
100
AcDbLine
 10
451.0
 20
1400.0
 30
0.0
 11
452.0
 21
1400.0
 31
0.0
  0
LINE
  5
1DA
330
1D0
100
AcDbEntity
  8
0
 62
7
100
AcDbLine
 10
512.0
 20
1400.0
 30
0.0
 11
513.0
 21
1400.0
 31
0.0
  0
MTEXT
  5
1DB
330
1D0
100
AcDbEntity
  8
0
 62
7
100
AcDbMText
 10
482.0
 20
1400.0
 30
0.0
 40
20.0
 71
5
  1
102
  0
POINT
  5
1DC
330
1D0
100
AcDbEntity
  8
Defpoints
100
AcDbPoint
 10
431.0
 20
1400.0
 30
0.0
  0
POINT
  5
1DD
330
1D0
100
AcDbEntity
  8
Defpoints
100
AcDbPoint
 10
431.0
 20
1486.0
 30
0.0
  0
POINT
  5
1DE
330
1D0
100
AcDbEntity
  8
Defpoints
100
AcDbPoint
 10
533.0
 20
1486.0
 30
0.0
  0
ENDBLK
  5
1D2
330
1D0
100
AcDbEntity
  8
0
100
AcDbBlockEnd
  0
BLOCK
  5
1E1
330
1E0
100
AcDbEntity
  8
0
100
AcDbBlockBegin
  2
*D27
 70
1
 10
0.0
 20
0.0
 30
0.0
  3
*D27
  1

  0
LINE
  5
1E3
330
1E0
100
AcDbEntity
  8
0
 62
7
100
AcDbLine
 10
533.0
 20
1481.0
 30
0.0
 11
533.0
 21
1390.0
 31
0.0
  0
LINE
  5
1E4
330
1E0
100
AcDbEntity
  8
0
 62
7
100
AcDbLine
 10
608.0
 20
1481.0
 30
0.0
 11
608.0
 21
1390.0
 31
0.0
  0
INSERT
  5
1E5
330
1E0
100
AcDbEntity
  8
0
 62
7
100
AcDbBlockReference
  2
_CLOSEDFILLED
 10
533.0
 20
1400.0
 30
0.0
 41
20.0
 42
20.0
 50
180.0
  0
INSERT
  5
1E7
330
1E0
100
AcDbEntity
  8
0
 62
7
100
AcDbBlockReference
  2
_CLOSEDFILLED
 10
608.0
 20
1400.0
 30
0.0
 41
20.0
 42
20.0
  0
LINE
  5
1E9
330
1E0
100
AcDbEntity
  8
0
 62
7
100
AcDbLine
 10
553.0
 20
1400.0
 30
0.0
 11
588.0
 21
1400.0
 31
0.0
  0
MTEXT
  5
1EA
330
1E0
100
AcDbEntity
  8
0
 62
7
100
AcDbMText
 10
570.5
 20
1425.0
 30
0.0
 40
20.0
 71
5
  1
75
  0
POINT
  5
1EB
330
1E0
100
AcDbEntity
  8
Defpoints
100
AcDbPoint
 10
533.0
 20
1400.0
 30
0.0
  0
POINT
  5
1EC
330
1E0
100
AcDbEntity
  8
Defpoints
100
AcDbPoint
 10
533.0
 20
1486.0
 30
0.0
  0
POINT
  5
1ED
330
1E0
100
AcDbEntity
  8
Defpoints
100
AcDbPoint
 10
608.0
 20
1486.0
 30
0.0
  0
ENDBLK
  5
1E2
330
1E0
100
AcDbEntity
  8
0
100
AcDbBlockEnd
  0
BLOCK
  5
1F0
330
1EF
100
AcDbEntity
  8
0
100
AcDbBlockBegin
  2
*D28
 70
1
 10
0.0
 20
0.0
 30
0.0
  3
*D28
  1

  0
LINE
  5
1F2
330
1EF
100
AcDbEntity
  8
0
 62
7
100
AcDbLine
 10
963.0
 20
1486.0
 30
0.0
 11
2028.0
 21
1486.0
 31
0.0
  0
LINE
  5
1F3
330
1EF
100
AcDbEntity
  8
0
 62
7
100
AcDbLine
 10
963.0
 20
1785.0
 30
0.0
 11
2028.0
 21
1785.0
 31
0.0
  0
INSERT
  5
1F4
330
1EF
100
AcDbEntity
  8
0
 62
7
100
AcDbBlockReference
  2
_CLOSEDFILLED
 10
2018.0
 20
1486.0
 30
0.0
 41
20.0
 42
20.0
 50
270.0
  0
INSERT
  5
1F6
330
1EF
100
AcDbEntity
  8
0
 62
7
100
AcDbBlockReference
  2
_CLOSEDFILLED
 10
2018.0
 20
1785.0
 30
0.0
 41
20.0
 42
20.0
 50
90.0
  0
LINE
  5
1F8
330
1EF
100
AcDbEntity
  8
0
 62
7
100
AcDbLine
 10
2018.0
 20
1506.0
 30
0.0
 11
2018.0
 21
1605.5
 31
0.0
  0
LINE
  5
1F9
330
1EF
100
AcDbEntity
  8
0
 62
7
100
AcDbLine
 10
2018.0
 20
1665.5
 30
0.0
 11
2018.0
 21
1765.0
 31
0.0
  0
MTEXT
  5
1FA
330
1EF
100
AcDbEntity
  8
0
 62
7
100
AcDbMText
 10
2018.0
 20
1635.5
 30
0.0
 40
20.0
 71
5
  1
299
 50
90.0
  0
POINT
  5
1FB
330
1EF
100
AcDbEntity
  8
Defpoints
100
AcDbPoint
 10
2018.0
 20
1486.0
 30
0.0
  0
POINT
  5
1FC
330
1EF
100
AcDbEntity
  8
Defpoints
100
AcDbPoint
 10
958.0
 20
1486.0
 30
0.0
  0
POINT
  5
1FD
330
1EF
100
AcDbEntity
  8
Defpoints
100
AcDbPoint
 10
958.0
 20
1785.0
 30
0.0
  0
ENDBLK
  5
1F1
330
1EF
100
AcDbEntity
  8
0
100
AcDbBlockEnd
  0
BLOCK
  5
200
330
1FF
100
AcDbEntity
  8
0
100
AcDbBlockBegin
  2
*D29
 70
1
 10
0.0
 20
0.0
 30
0.0
  3
*D29
  1

  0
LINE
  5
202
330
1FF
100
AcDbEntity
  8
0
 62
7
100
AcDbLine
 10
963.0
 20
1785.0
 30
0.0
 11
2028.0
 21
1785.0
 31
0.0
  0
LINE
  5
203
330
1FF
100
AcDbEntity
  8
0
 62
7
100
AcDbLine
 10
963.0
 20
2017.0
 30
0.0
 11
2028.0
 21
2017.0
 31
0.0
  0
INSERT
  5
204
330
1FF
100
AcDbEntity
  8
0
 62
7
100
AcDbBlockReference
  2
_CLOSEDFILLED
 10
2018.0
 20
1785.0
 30
0.0
 41
20.0
 42
20.0
 50
270.0
  0
INSERT
  5
206
330
1FF
100
AcDbEntity
  8
0
 62
7
100
AcDbBlockReference
  2
_CLOSEDFILLED
 10
2018.0
 20
2017.0
 30
0.0
 41
20.0
 42
20.0
 50
90.0
  0
LINE
  5
208
330
1FF
100
AcDbEntity
  8
0
 62
7
100
AcDbLine
 10
2018.0
 20
1805.0
 30
0.0
 11
2018.0
 21
1871.0
 31
0.0
  0
LINE
  5
209
330
1FF
100
AcDbEntity
  8
0
 62
7
100
AcDbLine
 10
2018.0
 20
1931.0
 30
0.0
 11
2018.0
 21
1997.0
 31
0.0
  0
MTEXT
  5
20A
330
1FF
100
AcDbEntity
  8
0
 62
7
100
AcDbMText
 10
2018.0
 20
1901.0
 30
0.0
 40
20.0
 71
5
  1
232
 50
90.0
  0
POINT
  5
20B
330
1FF
100
AcDbEntity
  8
Defpoints
100
AcDbPoint
 10
2018.0
 20
1785.0
 30
0.0
  0
POINT
  5
20C
330
1FF
100
AcDbEntity
  8
Defpoints
100
AcDbPoint
 10
958.0
 20
1785.0
 30
0.0
  0
POINT
  5
20D
330
1FF
100
AcDbEntity
  8
Defpoints
100
AcDbPoint
 10
958.0
 20
2017.0
 30
0.0
  0
ENDBLK
  5
201
330
1FF
100
AcDbEntity
  8
0
100
AcDbBlockEnd
  0
BLOCK
  5
210
330
20F
100
AcDbEntity
  8
0
100
AcDbBlockBegin
  2
*D30
 70
1
 10
0.0
 20
0.0
 30
0.0
  3
*D30
  1

  0
LINE
  5
212
330
20F
100
AcDbEntity
  8
0
 62
7
100
AcDbLine
 10
963.0
 20
2017.0
 30
0.0
 11
2028.0
 21
2017.0
 31
0.0
  0
LINE
  5
213
330
20F
100
AcDbEntity
  8
0
 62
7
100
AcDbLine
 10
963.0
 20
2272.0
 30
0.0
 11
2028.0
 21
2272.0
 31
0.0
  0
INSERT
  5
214
330
20F
100
AcDbEntity
  8
0
 62
7
100
AcDbBlockReference
  2
_CLOSEDFILLED
 10
2018.0
 20
2017.0
 30
0.0
 41
20.0
 42
20.0
 50
270.0
  0
INSERT
  5
216
330
20F
100
AcDbEntity
  8
0
 62
7
100
AcDbBlockReference
  2
_CLOSEDFILLED
 10
2018.0
 20
2272.0
 30
0.0
 41
20.0
 42
20.0
 50
90.0
  0
LINE
  5
218
330
20F
100
AcDbEntity
  8
0
 62
7
100
AcDbLine
 10
2018.0
 20
2037.0
 30
0.0
 11
2018.0
 21
2114.5
 31
0.0
  0
LINE
  5
219
330
20F
100
AcDbEntity
  8
0
 62
7
100
AcDbLine
 10
2018.0
 20
2174.5
 30
0.0
 11
2018.0
 21
2252.0
 31
0.0
  0
MTEXT
  5
21A
330
20F
100
AcDbEntity
  8
0
 62
7
100
AcDbMText
 10
2018.0
 20
2144.5
 30
0.0
 40
20.0
 71
5
  1
255
 50
90.0
  0
POINT
  5
21B
330
20F
100
AcDbEntity
  8
Defpoints
100
AcDbPoint
 10
2018.0
 20
2017.0
 30
0.0
  0
POINT
  5
21C
330
20F
100
AcDbEntity
  8
Defpoints
100
AcDbPoint
 10
958.0
 20
2017.0
 30
0.0
  0
POINT
  5
21D
330
20F
100
AcDbEntity
  8
Defpoints
100
AcDbPoint
 10
958.0
 20
2272.0
 30
0.0
  0
ENDBLK
  5
211
330
20F
100
AcDbEntity
  8
0
100
AcDbBlockEnd
  0
BLOCK
  5
220
330
21F
100
AcDbEntity
  8
0
100
AcDbBlockBegin
  2
*D31
 70
1
 10
0.0
 20
0.0
 30
0.0
  3
*D31
  1

  0
LINE
  5
222
330
21F
100
AcDbEntity
  8
0
 62
7
100
AcDbLine
 10
958.0
 20
2277.0
 30
0.0
 11
958.0
 21
2352.0
 31
0.0
  0
LINE
  5
223
330
21F
100
AcDbEntity
  8
0
 62
7
100
AcDbLine
 10
1296.5
 20
2277.0
 30
0.0
 11
1296.5
 21
2352.0
 31
0.0
  0
INSERT
  5
224
330
21F
100
AcDbEntity
  8
0
 62
7
100
AcDbBlockReference
  2
_CLOSEDFILLED
 10
958.0
 20
2342.0
 30
0.0
 41
20.0
 42
20.0
 50
180.0
  0
INSERT
  5
226
330
21F
100
AcDbEntity
  8
0
 62
7
100
AcDbBlockReference
  2
_CLOSEDFILLED
 10
1296.5
 20
2342.0
 30
0.0
 41
20.0
 42
20.0
  0
LINE
  5
228
330
21F
100
AcDbEntity
  8
0
 62
7
100
AcDbLine
 10
978.0
 20
2342.0
 30
0.0
 11
1077.25
 21
2342.0
 31
0.0
  0
LINE
  5
229
330
21F
100
AcDbEntity
  8
0
 62
7
100
AcDbLine
 10
1177.25
 20
2342.0
 30
0.0
 11
1276.5
 21
2342.0
 31
0.0
  0
MTEXT
  5
22A
330
21F
100
AcDbEntity
  8
0
 62
7
100
AcDbMText
 10
1127.25
 20
2342.0
 30
0.0
 40
20.0
 71
5
  1
338.5
  0
POINT
  5
22B
330
21F
100
AcDbEntity
  8
Defpoints
100
AcDbPoint
 10
958.0
 20
2342.0
 30
0.0
  0
POINT
  5
22C
330
21F
100
AcDbEntity
  8
Defpoints
100
AcDbPoint
 10
958.0
 20
2272.0
 30
0.0
  0
POINT
  5
22D
330
21F
100
AcDbEntity
  8
Defpoints
100
AcDbPoint
 10
1296.5
 20
2272.0
 30
0.0
  0
ENDBLK
  5
221
330
21F
100
AcDbEntity
  8
0
100
AcDbBlockEnd
  0
BLOCK
  5
230
330
22F
100
AcDbEntity
  8
0
100
AcDbBlockBegin
  2
*D32
 70
1
 10
0.0
 20
0.0
 30
0.0
  3
*D32
  1

  0
LINE
  5
232
330
22F
100
AcDbEntity
  8
0
 62
7
100
AcDbLine
 10
1296.5
 20
2277.0
 30
0.0
 11
1296.5
 21
2352.0
 31
0.0
  0
LINE
  5
233
330
22F
100
AcDbEntity
  8
0
 62
7
100
AcDbLine
 10
1605.5
 20
2277.0
 30
0.0
 11
1605.5
 21
2352.0
 31
0.0
  0
INSERT
  5
234
330
22F
100
AcDbEntity
  8
0
 62
7
100
AcDbBlockReference
  2
_CLOSEDFILLED
 10
1296.5
 20
2342.0
 30
0.0
 41
20.0
 42
20.0
 50
180.0
  0
INSERT
  5
236
330
22F
100
AcDbEntity
  8
0
 62
7
100
AcDbBlockReference
  2
_CLOSEDFILLED
 10
1605.5
 20
2342.0
 30
0.0
 41
20.0
 42
20.0
  0
LINE
  5
238
330
22F
100
AcDbEntity
  8
0
 62
7
100
AcDbLine
 10
1316.5
 20
2342.0
 30
0.0
 11
1421.0
 21
2342.0
 31
0.0
  0
LINE
  5
239
330
22F
100
AcDbEntity
  8
0
 62
7
100
AcDbLine
 10
1481.0
 20
2342.0
 30
0.0
 11
1585.5
 21
2342.0
 31
0.0
  0
MTEXT
  5
23A
330
22F
100
AcDbEntity
  8
0
 62
7
100
AcDbMText
 10
1451.0
 20
2342.0
 30
0.0
 40
20.0
 71
5
  1
309
  0
POINT
  5
23B
330
22F
100
AcDbEntity
  8
Defpoints
100
AcDbPoint
 10
1296.5
 20
2342.0
 30
0.0
  0
POINT
  5
23C
330
22F
100
AcDbEntity
  8
Defpoints
100
AcDbPoint
 10
1296.5
 20
2272.0
 30
0.0
  0
POINT
  5
23D
330
22F
100
AcDbEntity
  8
Defpoints
100
AcDbPoint
 10
1605.5
 20
2272.0
 30
0.0
  0
ENDBLK
  5
231
330
22F
100
AcDbEntity
  8
0
100
AcDbBlockEnd
  0
BLOCK
  5
240
330
23F
100
AcDbEntity
  8
0
100
AcDbBlockBegin
  2
*D33
 70
1
 10
0.0
 20
0.0
 30
0.0
  3
*D33
  1

  0
LINE
  5
242
330
23F
100
AcDbEntity
  8
0
 62
7
100
AcDbLine
 10
1605.5
 20
2277.0
 30
0.0
 11
1605.5
 21
2352.0
 31
0.0
  0
LINE
  5
243
330
23F
100
AcDbEntity
  8
0
 62
7
100
AcDbLine
 10
1944.0
 20
2277.0
 30
0.0
 11
1944.0
 21
2352.0
 31
0.0
  0
INSERT
  5
244
330
23F
100
AcDbEntity
  8
0
 62
7
100
AcDbBlockReference
  2
_CLOSEDFILLED
 10
1605.5
 20
2342.0
 30
0.0
 41
20.0
 42
20.0
 50
180.0
  0
INSERT
  5
246
330
23F
100
AcDbEntity
  8
0
 62
7
100
AcDbBlockReference
  2
_CLOSEDFILLED
 10
1944.0
 20
2342.0
 30
0.0
 41
20.0
 42
20.0
  0
LINE
  5
248
330
23F
100
AcDbEntity
  8
0
 62
7
100
AcDbLine
 10
1625.5
 20
2342.0
 30
0.0
 11
1724.75
 21
2342.0
 31
0.0
  0
LINE
  5
249
330
23F
100
AcDbEntity
  8
0
 62
7
100
AcDbLine
 10
1824.75
 20
2342.0
 30
0.0
 11
1924.0
 21
2342.0
 31
0.0
  0
MTEXT
  5
24A
330
23F
100
AcDbEntity
  8
0
 62
7
100
AcDbMText
 10
1774.75
 20
2342.0
 30
0.0
 40
20.0
 71
5
  1
338.5
  0
POINT
  5
24B
330
23F
100
AcDbEntity
  8
Defpoints
100
AcDbPoint
 10
1605.5
 20
2342.0
 30
0.0
  0
POINT
  5
24C
330
23F
100
AcDbEntity
  8
Defpoints
100
AcDbPoint
 10
1605.5
 20
2272.0
 30
0.0
  0
POINT
  5
24D
330
23F
100
AcDbEntity
  8
Defpoints
100
AcDbPoint
 10
1944.0
 20
2272.0
 30
0.0
  0
ENDBLK
  5
241
330
23F
100
AcDbEntity
  8
0
100
AcDbBlockEnd
  0
BLOCK
  5
250
330
24F
100
AcDbEntity
  8
0
100
AcDbBlockBegin
  2
*D34
 70
1
 10
0.0
 20
0.0
 30
0.0
  3
*D34
  1

  0
LINE
  5
252
330
24F
100
AcDbEntity
  8
0
 62
7
100
AcDbLine
 10
958.0
 20
1481.0
 30
0.0
 11
958.0
 21
1389.0
 31
0.0
  0
LINE
  5
253
330
24F
100
AcDbEntity
  8
0
 62
7
100
AcDbLine
 10
1400.0
 20
1481.0
 30
0.0
 11
1400.0
 21
1389.0
 31
0.0
  0
INSERT
  5
254
330
24F
100
AcDbEntity
  8
0
 62
7
100
AcDbBlockReference
  2
_CLOSEDFILLED
 10
958.0
 20
1399.0
 30
0.0
 41
20.0
 42
20.0
 50
180.0
  0
INSERT
  5
256
330
24F
100
AcDbEntity
  8
0
 62
7
100
AcDbBlockReference
  2
_CLOSEDFILLED
 10
1400.0
 20
1399.0
 30
0.0
 41
20.0
 42
20.0
  0
LINE
  5
258
330
24F
100
AcDbEntity
  8
0
 62
7
100
AcDbLine
 10
978.0
 20
1399.0
 30
0.0
 11
1149.0
 21
1399.0
 31
0.0
  0
LINE
  5
259
330
24F
100
AcDbEntity
  8
0
 62
7
100
AcDbLine
 10
1209.0
 20
1399.0
 30
0.0
 11
1380.0
 21
1399.0
 31
0.0
  0
MTEXT
  5
25A
330
24F
100
AcDbEntity
  8
0
 62
7
100
AcDbMText
 10
1179.0
 20
1399.0
 30
0.0
 40
20.0
 71
5
  1
442
  0
POINT
  5
25B
330
24F
100
AcDbEntity
  8
Defpoints
100
AcDbPoint
 10
958.0
 20
1399.0
 30
0.0
  0
POINT
  5
25C
330
24F
100
AcDbEntity
  8
Defpoints
100
AcDbPoint
 10
958.0
 20
1486.0
 30
0.0
  0
POINT
  5
25D
330
24F
100
AcDbEntity
  8
Defpoints
100
AcDbPoint
 10
1400.0
 20
1486.0
 30
0.0
  0
ENDBLK
  5
251
330
24F
100
AcDbEntity
  8
0
100
AcDbBlockEnd
  0
BLOCK
  5
260
330
25F
100
AcDbEntity
  8
0
100
AcDbBlockBegin
  2
*D35
 70
1
 10
0.0
 20
0.0
 30
0.0
  3
*D35
  1

  0
LINE
  5
262
330
25F
100
AcDbEntity
  8
0
 62
7
100
AcDbLine
 10
1400.0
 20
1481.0
 30
0.0
 11
1400.0
 21
1389.0
 31
0.0
  0
LINE
  5
263
330
25F
100
AcDbEntity
  8
0
 62
7
100
AcDbLine
 10
1502.0
 20
1481.0
 30
0.0
 11
1502.0
 21
1389.0
 31
0.0
  0
INSERT
  5
264
330
25F
100
AcDbEntity
  8
0
 62
7
100
AcDbBlockReference
  2
_CLOSEDFILLED
 10
1400.0
 20
1399.0
 30
0.0
 41
20.0
 42
20.0
 50
180.0
  0
INSERT
  5
266
330
25F
100
AcDbEntity
  8
0
 62
7
100
AcDbBlockReference
  2
_CLOSEDFILLED
 10
1502.0
 20
1399.0
 30
0.0
 41
20.0
 42
20.0
  0
LINE
  5
268
330
25F
100
AcDbEntity
  8
0
 62
7
100
AcDbLine
 10
1420.0
 20
1399.0
 30
0.0
 11
1421.0
 21
1399.0
 31
0.0
  0
LINE
  5
269
330
25F
100
AcDbEntity
  8
0
 62
7
100
AcDbLine
 10
1481.0
 20
1399.0
 30
0.0
 11
1482.0
 21
1399.0
 31
0.0
  0
MTEXT
  5
26A
330
25F
100
AcDbEntity
  8
0
 62
7
100
AcDbMText
 10
1451.0
 20
1399.0
 30
0.0
 40
20.0
 71
5
  1
102
  0
POINT
  5
26B
330
25F
100
AcDbEntity
  8
Defpoints
100
AcDbPoint
 10
1400.0
 20
1399.0
 30
0.0
  0
POINT
  5
26C
330
25F
100
AcDbEntity
  8
Defpoints
100
AcDbPoint
 10
1400.0
 20
1486.0
 30
0.0
  0
POINT
  5
26D
330
25F
100
AcDbEntity
  8
Defpoints
100
AcDbPoint
 10
1502.0
 20
1486.0
 30
0.0
  0
ENDBLK
  5
261
330
25F
100
AcDbEntity
  8
0
100
AcDbBlockEnd
  0
BLOCK
  5
270
330
26F
100
AcDbEntity
  8
0
100
AcDbBlockBegin
  2
*D36
 70
1
 10
0.0
 20
0.0
 30
0.0
  3
*D36
  1

  0
LINE
  5
272
330
26F
100
AcDbEntity
  8
0
 62
7
100
AcDbLine
 10
1502.0
 20
1481.0
 30
0.0
 11
1502.0
 21
1389.0
 31
0.0
  0
LINE
  5
273
330
26F
100
AcDbEntity
  8
0
 62
7
100
AcDbLine
 10
1944.0
 20
1481.0
 30
0.0
 11
1944.0
 21
1389.0
 31
0.0
  0
INSERT
  5
274
330
26F
100
AcDbEntity
  8
0
 62
7
100
AcDbBlockReference
  2
_CLOSEDFILLED
 10
1502.0
 20
1399.0
 30
0.0
 41
20.0
 42
20.0
 50
180.0
  0
INSERT
  5
276
330
26F
100
AcDbEntity
  8
0
 62
7
100
AcDbBlockReference
  2
_CLOSEDFILLED
 10
1944.0
 20
1399.0
 30
0.0
 41
20.0
 42
20.0
  0
LINE
  5
278
330
26F
100
AcDbEntity
  8
0
 62
7
100
AcDbLine
 10
1522.0
 20
1399.0
 30
0.0
 11
1693.0
 21
1399.0
 31
0.0
  0
LINE
  5
279
330
26F
100
AcDbEntity
  8
0
 62
7
100
AcDbLine
 10
1753.0
 20
1399.0
 30
0.0
 11
1924.0
 21
1399.0
 31
0.0
  0
MTEXT
  5
27A
330
26F
100
AcDbEntity
  8
0
 62
7
100
AcDbMText
 10
1723.0
 20
1399.0
 30
0.0
 40
20.0
 71
5
  1
442
  0
POINT
  5
27B
330
26F
100
AcDbEntity
  8
Defpoints
100
AcDbPoint
 10
1502.0
 20
1399.0
 30
0.0
  0
POINT
  5
27C
330
26F
100
AcDbEntity
  8
Defpoints
100
AcDbPoint
 10
1502.0
 20
1486.0
 30
0.0
  0
POINT
  5
27D
330
26F
100
AcDbEntity
  8
Defpoints
100
AcDbPoint
 10
1944.0
 20
1486.0
 30
0.0
  0
ENDBLK
  5
271
330
26F
100
AcDbEntity
  8
0
100
AcDbBlockEnd
  0
ENDSEC
  0
SECTION
  2
ENTITIES
  0
LWPOLYLINE
  5
32
330
17
100
AcDbEntity
  8
chengtai
100
AcDbPolyline
 90
5
 70
0
 10
0.0
 20
0.0
 10
608.0
 20
0.0
 10
608.0
 20
986.0
 10
0.0
 20
986.0
 10
0.0
 20
0.0
  0
LINE
  5
33
330
17
100
AcDbEntity
  8
dunzhu
100
AcDbLine
 10
89.5
 20
338.5
 30
0.0
 11
225.5
 21
338.5
 31
0.0
  0
LINE
  5
34
330
17
100
AcDbEntity
  8
dunzhu
100
AcDbLine
 10
255.5
 20
368.5
 30
0.0
 11
255.5
 21
617.5
 31
0.0
  0
LINE
  5
35
330
17
100
AcDbEntity
  8
dunzhu
100
AcDbLine
 10
225.5
 20
647.5
 30
0.0
 11
89.5
 21
647.5
 31
0.0
  0
LINE
  5
36
330
17
100
AcDbEntity
  8
dunzhu
100
AcDbLine
 10
59.5
 20
617.5
 30
0.0
 11
59.5
 21
368.5
 31
0.0
  0
ARC
  5
37
330
17
100
AcDbEntity
  8
dunzhu
100
AcDbCircle
 10
89.5
 20
368.5
 30
0.0
 40
30.0
100
AcDbArc
 50
180.0
 51
270.0
  0
ARC
  5
38
330
17
100
AcDbEntity
  8
dunzhu
100
AcDbCircle
 10
225.5
 20
368.5
 30
0.0
 40
30.0
100
AcDbArc
 50
270.0
 51
360.0
  0
ARC
  5
39
330
17
100
AcDbEntity
  8
dunzhu
100
AcDbCircle
 10
225.5
 20
617.5
 30
0.0
 40
30.0
100
AcDbArc
 50
0.0
 51
90.0
  0
ARC
  5
3A
330
17
100
AcDbEntity
  8
dunzhu
100
AcDbCircle
 10
89.5
 20
617.5
 30
0.0
 40
30.0
100
AcDbArc
 50
90.0
 51
180.0
  0
LINE
  5
3B
330
17
100
AcDbEntity
  8
dunzhu
100
AcDbLine
 10
382.5
 20
338.5
 30
0.0
 11
518.5
 21
338.5
 31
0.0
  0
LINE
  5
3C
330
17
100
AcDbEntity
  8
dunzhu
100
AcDbLine
 10
548.5
 20
368.5
 30
0.0
 11
548.5
 21
617.5
 31
0.0
  0
LINE
  5
3D
330
17
100
AcDbEntity
  8
dunzhu
100
AcDbLine
 10
518.5
 20
647.5
 30
0.0
 11
382.5
 21
647.5
 31
0.0
  0
LINE
  5
3E
330
17
100
AcDbEntity
  8
dunzhu
100
AcDbLine
 10
352.5
 20
617.5
 30
0.0
 11
352.5
 21
368.5
 31
0.0
  0
ARC
  5
3F
330
17
100
AcDbEntity
  8
dunzhu
100
AcDbCircle
 10
382.5
 20
368.5
 30
0.0
 40
30.0
100
AcDbArc
 50
180.0
 51
270.0
  0
ARC
  5
40
330
17
100
AcDbEntity
  8
dunzhu
100
AcDbCircle
 10
518.5
 20
368.5
 30
0.0
 40
30.0
100
AcDbArc
 50
270.0
 51
360.0
  0
ARC
  5
41
330
17
100
AcDbEntity
  8
dunzhu
100
AcDbCircle
 10
518.5
 20
617.5
 30
0.0
 40
30.0
100
AcDbArc
 50
0.0
 51
90.0
  0
ARC
  5
42
330
17
100
AcDbEntity
  8
dunzhu
100
AcDbCircle
 10
382.5
 20
617.5
 30
0.0
 40
30.0
100
AcDbArc
 50
90.0
 51
180.0
  0
CIRCLE
  5
43
330
17
100
AcDbEntity
  8
zhuangji
100
AcDbCircle
 10
126.0
 20
493.0
 30
0.0
 40
51.0
  0
CIRCLE
  5
44
330
17
100
AcDbEntity
  8
zhuangji
  6
DASHED
100
AcDbCircle
 10
126.0
 20
493.0
 30
0.0
 40
51.0
  0
CIRCLE
  5
45
330
17
100
AcDbEntity
  8
zhuangji
100
AcDbCircle
 10
304.0
 20
493.0
 30
0.0
 40
51.0
  0
CIRCLE
  5
46
330
17
100
AcDbEntity
  8
zhuangji
  6
DASHED
100
AcDbCircle
 10
304.0
 20
493.0
 30
0.0
 40
51.0
  0
CIRCLE
  5
47
330
17
100
AcDbEntity
  8
zhuangji
100
AcDbCircle
 10
482.0
 20
493.0
 30
0.0
 40
51.0
  0
CIRCLE
  5
48
330
17
100
AcDbEntity
  8
zhuangji
  6
DASHED
100
AcDbCircle
 10
482.0
 20
493.0
 30
0.0
 40
51.0
  0
LWPOLYLINE
  5
49
330
17
100
AcDbEntity
  8
chengtai
100
AcDbPolyline
 90
5
 70
0
 10
0.0
 20
1785.0
 10
608.0
 20
1785.0
 10
608.0
 20
2017.0
 10
0.0
 20
2017.0
 10
0.0
 20
1785.0
  0
LWPOLYLINE
  5
4A
330
17
100
AcDbEntity
  8
dunzhu
100
AcDbPolyline
 90
5
 70
0
 10
59.5
 20
2017.0
 10
255.5
 20
2017.0
 10
255.5
 20
2272.0
 10
59.5
 20
2272.0
 10
59.5
 20
2017.0
  0
LWPOLYLINE
  5
4B
330
17
100
AcDbEntity
  8
dunzhu
100
AcDbPolyline
 90
5
 70
0
 10
352.5
 20
2017.0
 10
548.5
 20
2017.0
 10
548.5
 20
2272.0
 10
352.5
 20
2272.0
 10
352.5
 20
2017.0
  0
LWPOLYLINE
  5
4C
330
17
100
AcDbEntity
  8
zhuangji
100
AcDbPolyline
 90
5
 70
0
 10
75.0
 20
1486.0
 10
177.0
 20
1486.0
 10
177.0
 20
1785.0
 10
75.0
 20
1785.0
 10
75.0
 20
1486.0
  0
LWPOLYLINE
  5
4D
330
17
100
AcDbEntity
  8
zhuangji
100
AcDbPolyline
 90
5
 70
0
 10
253.0
 20
1486.0
 10
355.0
 20
1486.0
 10
355.0
 20
1785.0
 10
253.0
 20
1785.0
 10
253.0
 20
1486.0
  0
LWPOLYLINE
  5
4E
330
17
100
AcDbEntity
  8
zhuangji
100
AcDbPolyline
 90
5
 70
0
 10
431.0
 20
1486.0
 10
533.0
 20
1486.0
 10
533.0
 20
1785.0
 10
431.0
 20
1785.0
 10
431.0
 20
1486.0
  0
LWPOLYLINE
  5
4F
330
17
100
AcDbEntity
  8
chengtai
100
AcDbPolyline
 90
5
 70
0
 10
958.0
 20
1785.0
 10
1944.0
 20
1785.0
 10
1944.0
 20
2017.0
 10
958.0
 20
2017.0
 10
958.0
 20
1785.0
  0
LWPOLYLINE
  5
50
330
17
100
AcDbEntity
  8
dunzhu
100
AcDbPolyline
 90
5
 70
0
 10
1296.5
 20
2017.0
 10
1605.5
 20
2017.0
 10
1605.5
 20
2272.0
 10
1296.5
 20
2272.0
 10
1296.5
 20
2017.0
  0
LWPOLYLINE
  5
51
330
17
100
AcDbEntity
  8
zhuangji
100
AcDbPolyline
 90
5
 70
0
 10
1400.0
 20
1486.0
 10
1502.0
 20
1486.0
 10
1502.0
 20
1785.0
 10
1400.0
 20
1785.0
 10
1400.0
 20
1486.0
  0
INSERT
  5
27E
330
17
100
AcDbEntity
  8
0
 62
7
100
AcDbBlockReference
  2
_CLOSEDFILLED
 10
246.71320343559643
 20
347.2867965644036
 30
0.0
 41
20.0
 42
20.0
 50
135.0
  0
LINE
  5
280
330
17
100
AcDbEntity
  8
0
 62
7
100
AcDbLine
 10
225.5
 20
368.5
 30
0.0
 11
246.71320343559643
 21
347.2867965644036
 31
0.0
  0
LINE
  5
281
330
17
100
AcDbEntity
  8
0
 62
7
100
AcDbLine
 10
264.3908729652601
 20
329.6091270347399
 30
0.0
 11
260.8553390593274
 21
333.1446609406726
 31
0.0
  0
MTEXT
  5
282
330
17
100
AcDbEntity
  8
0
 62
7
100
AcDbMText
 10
285.6040764008565
 20
308.3959235991435
 30
0.0
 40
20.0
 71
5
  1
R30
 50
315.0
  0
POINT
  5
283
330
17
100
AcDbEntity
  8
Defpoints
 62
7
100
AcDbPoint
 10
225.5
 20
368.5
 30
0.0
  0
POINT
  5
284
330
17
100
AcDbEntity
  8
Defpoints
 62
7
100
AcDbPoint
 10
246.71320343559643
 20
347.2867965644036
 30
0.0
  0
INSERT
  5
285
330
17
100
AcDbEntity
  8
0
 62
7
100
AcDbBlockReference
  2
_CLOSEDFILLED
 10
539.7132034355964
 20
347.2867965644036
 30
0.0
 41
20.0
 42
20.0
 50
134.99999999999991
  0
LINE
  5
287
330
17
100
AcDbEntity
  8
0
 62
7
100
AcDbLine
 10
518.5
 20
368.5
 30
0.0
 11
539.7132034355964
 21
347.2867965644036
 31
0.0
  0
LINE
  5
288
330
17
100
AcDbEntity
  8
0
 62
7
100
AcDbLine
 10
557.3908729652601
 20
329.60912703473986
 30
0.0
 11
553.8553390593273
 21
333.1446609406726
 31
0.0
  0
MTEXT
  5
289
330
17
100
AcDbEntity
  8
0
 62
7
100
AcDbMText
 10
578.6040764008565
 20
308.39592359914343
 30
0.0
 40
20.0
 71
5
  1
R30
 50
314.99999999999994
  0
POINT
  5
28A
330
17
100
AcDbEntity
  8
Defpoints
 62
7
100
AcDbPoint
 10
518.5
 20
368.5
 30
0.0
  0
POINT
  5
28B
330
17
100
AcDbEntity
  8
Defpoints
 62
7
100
AcDbPoint
 10
539.7132034355964
 20
347.2867965644036
 30
0.0
  0
INSERT
  5
28C
330
17
100
AcDbEntity
  8
0
 62
7
100
AcDbBlockReference
  2
_CLOSEDFILLED
 10
162.06244584051393
 20
456.93755415948607
 30
0.0
 41
20.0
 42
20.0
 50
135.0
  0
INSERT
  5
28E
330
17
100
AcDbEntity
  8
0
 62
7
100
AcDbBlockReference
  2
_CLOSEDFILLED
 10
89.93755415948607
 20
529.0624458405139
 30
0.0
 41
20.0
 42
20.0
 50
135.0
  0
LINE
  5
290
330
17
100
AcDbEntity
  8
0
 62
7
100
AcDbLine
 10
176.20458146424488
 20
442.7954185357551
 30
0.0
 11
104.07968978321702
 21
514.9203102167829
 31
0.0
  0
LINE
  5
291
330
17
100
AcDbEntity
  8
0
 62
7
100
AcDbLine
 10
179.74011537017762
 20
439.2598846298224
 30
0.0
 11
176.20458146424488
 21
442.7954185357551
 31
0.0
  0
MTEXT
  5
292
330
17
100
AcDbEntity
  8
0
 62
7
100
AcDbMText
 10
208.02438661763952
 20
410.9756133823605
 30
0.0
 40
20.0
 71
5
  1
%%c102
 50
315.0
  0
POINT
  5
293
330
17
100
AcDbEntity
  8
Defpoints
 62
7
100
AcDbPoint
 10
126.0
 20
493.0
 30
0.0
  0
POINT
  5
294
330
17
100
AcDbEntity
  8
Defpoints
 62
7
100
AcDbPoint
 10
162.06244584051393
 20
456.93755415948607
 30
0.0
  0
INSERT
  5
295
330
17
100
AcDbEntity
  8
0
 62
7
100
AcDbBlockReference
  2
_CLOSEDFILLED
 10
518.0624458405139
 20
529.0624458405139
 30
0.0
 41
20.0
 42
20.0
 50
225.0
  0
INSERT
  5
297
330
17
100
AcDbEntity
  8
0
 62
7
100
AcDbBlockReference
  2
_CLOSEDFILLED
 10
445.93755415948607
 20
456.93755415948607
 30
0.0
 41
20.0
 42
20.0
 50
225.0
  0
LINE
  5
299
330
17
100
AcDbEntity
  8
0
 62
7
100
AcDbLine
 10
532.2045814642448
 20
543.2045814642448
 30
0.0
 11
460.079689783217
 21
471.079689783217
 31
0.0
  0
LINE
  5
29A
330
17
100
AcDbEntity
  8
0
 62
7
100
AcDbLine
 10
535.7401153701776
 20
546.7401153701776
 30
0.0
 11
532.2045814642448
 21
543.2045814642448
 31
0.0
  0
MTEXT
  5
29B
330
17
100
AcDbEntity
  8
0
 62
7
100
AcDbMText
 10
564.0243866176395
 20
575.0243866176395
 30
0.0
 40
20.0
 71
5
  1
%%c102
 50
45.0
  0
POINT
  5
29C
330
17
100
AcDbEntity
  8
Defpoints
 62
7
100
AcDbPoint
 10
482.0
 20
493.0
 30
0.0
  0
POINT
  5
29D
330
17
100
AcDbEntity
  8
Defpoints
 62
7
100
AcDbPoint
 10
518.0624458405139
 20
529.0624458405139
 30
0.0
  0
LINE
  5
29E
330
17
100
AcDbEntity
  8
0
 62
7
100
AcDbLine
 10
0.0
 20
-5.0
 30
0.0
 11
0.0
 21
-83.0
 31
0.0
  0
LINE
  5
29F
330
17
100
AcDbEntity
  8
0
 62
7
100
AcDbLine
 10
59.5
 20
-5.0
 30
0.0
 11
59.5
 21
-83.0
 31
0.0
  0
INSERT
  5
2A0
330
17
100
AcDbEntity
  8
0
 62
7
100
AcDbBlockReference
  2
_CLOSEDFILLED
 10
0.0
 20
-73.0
 30
0.0
 41
20.0
 42
20.0
 50
180.0
  0
INSERT
  5
2A2
330
17
100
AcDbEntity
  8
0
 62
7
100
AcDbBlockReference
  2
_CLOSEDFILLED
 10
59.5
 20
-73.0
 30
0.0
 41
20.0
 42
20.0
  0
LINE
  5
2A4
330
17
100
AcDbEntity
  8
0
 62
7
100
AcDbLine
 10
20.0
 20
-73.0
 30
0.0
 11
39.5
 21
-73.0
 31
0.0
  0
MTEXT
  5
2A5
330
17
100
AcDbEntity
  8
0
 62
7
100
AcDbMText
 10
29.75
 20
-48.0
 30
0.0
 40
20.0
 71
5
  1
59.5
  0
POINT
  5
2A6
330
17
100
AcDbEntity
  8
Defpoints
 62
7
100
AcDbPoint
 10
0.0
 20
-73.0
 30
0.0
  0
POINT
  5
2A7
330
17
100
AcDbEntity
  8
Defpoints
 62
7
100
AcDbPoint
 10
0.0
 20
0.0
 30
0.0
  0
POINT
  5
2A8
330
17
100
AcDbEntity
  8
Defpoints
 62
7
100
AcDbPoint
 10
59.5
 20
0.0
 30
0.0
  0
LINE
  5
2A9
330
17
100
AcDbEntity
  8
0
 62
7
100
AcDbLine
 10
59.5
 20
-5.0
 30
0.0
 11
59.5
 21
-83.0
 31
0.0
  0
LINE
  5
2AA
330
17
100
AcDbEntity
  8
0
 62
7
100
AcDbLine
 10
255.5
 20
-5.0
 30
0.0
 11
255.5
 21
-83.0
 31
0.0
  0
INSERT
  5
2AB
330
17
100
AcDbEntity
  8
0
 62
7
100
AcDbBlockReference
  2
_CLOSEDFILLED
 10
59.5
 20
-73.0
 30
0.0
 41
20.0
 42
20.0
 50
180.0
  0
INSERT
  5
2AD
330
17
100
AcDbEntity
  8
0
 62
7
100
AcDbBlockReference
  2
_CLOSEDFILLED
 10
255.5
 20
-73.0
 30
0.0
 41
20.0
 42
20.0
  0
LINE
  5
2AF
330
17
100
AcDbEntity
  8
0
 62
7
100
AcDbLine
 10
79.5
 20
-73.0
 30
0.0
 11
127.5
 21
-73.0
 31
0.0
  0
LINE
  5
2B0
330
17
100
AcDbEntity
  8
0
 62
7
100
AcDbLine
 10
187.5
 20
-73.0
 30
0.0
 11
235.5
 21
-73.0
 31
0.0
  0
MTEXT
  5
2B1
330
17
100
AcDbEntity
  8
0
 62
7
100
AcDbMText
 10
157.5
 20
-73.0
 30
0.0
 40
20.0
 71
5
  1
196
  0
POINT
  5
2B2
330
17
100
AcDbEntity
  8
Defpoints
 62
7
100
AcDbPoint
 10
59.5
 20
-73.0
 30
0.0
  0
POINT
  5
2B3
330
17
100
AcDbEntity
  8
Defpoints
 62
7
100
AcDbPoint
 10
59.5
 20
0.0
 30
0.0
  0
POINT
  5
2B4
330
17
100
AcDbEntity
  8
Defpoints
 62
7
100
AcDbPoint
 10
255.5
 20
0.0
 30
0.0
  0
LINE
  5
2B5
330
17
100
AcDbEntity
  8
0
 62
7
100
AcDbLine
 10
255.5
 20
-5.0
 30
0.0
 11
255.5
 21
-83.0
 31
0.0
  0
LINE
  5
2B6
330
17
100
AcDbEntity
  8
0
 62
7
100
AcDbLine
 10
352.5
 20
-5.0
 30
0.0
 11
352.5
 21
-83.0
 31
0.0
  0
INSERT
  5
2B7
330
17
100
AcDbEntity
  8
0
 62
7
100
AcDbBlockReference
  2
_CLOSEDFILLED
 10
255.5
 20
-73.0
 30
0.0
 41
20.0
 42
20.0
 50
180.0
  0
INSERT
  5
2B9
330
17
100
AcDbEntity
  8
0
 62
7
100
AcDbBlockReference
  2
_CLOSEDFILLED
 10
352.5
 20
-73.0
 30
0.0
 41
20.0
 42
20.0
  0
LINE
  5
2BB
330
17
100
AcDbEntity
  8
0
 62
7
100
AcDbLine
 10
275.5
 20
-73.0
 30
0.0
 11
284.0
 21
-73.0
 31
0.0
  0
LINE
  5
2BC
330
17
100
AcDbEntity
  8
0
 62
7
100
AcDbLine
 10
324.0
 20
-73.0
 30
0.0
 11
332.5
 21
-73.0
 31
0.0
  0
MTEXT
  5
2BD
330
17
100
AcDbEntity
  8
0
 62
7
100
AcDbMText
 10
304.0
 20
-73.0
 30
0.0
 40
20.0
 71
5
  1
97
  0
POINT
  5
2BE
330
17
100
AcDbEntity
  8
Defpoints
 62
7
100
AcDbPoint
 10
255.5
 20
-73.0
 30
0.0
  0
POINT
  5
2BF
330
17
100
AcDbEntity
  8
Defpoints
 62
7
100
AcDbPoint
 10
255.5
 20
0.0
 30
0.0
  0
POINT
  5
2C0
330
17
100
AcDbEntity
  8
Defpoints
 62
7
100
AcDbPoint
 10
352.5
 20
0.0
 30
0.0
  0
LINE
  5
2C1
330
17
100
AcDbEntity
  8
0
 62
7
100
AcDbLine
 10
352.5
 20
-5.0
 30
0.0
 11
352.5
 21
-83.0
 31
0.0
  0
LINE
  5
2C2
330
17
100
AcDbEntity
  8
0
 62
7
100
AcDbLine
 10
548.5
 20
-5.0
 30
0.0
 11
548.5
 21
-83.0
 31
0.0
  0
INSERT
  5
2C3
330
17
100
AcDbEntity
  8
0
 62
7
100
AcDbBlockReference
  2
_CLOSEDFILLED
 10
352.5
 20
-73.0
 30
0.0
 41
20.0
 42
20.0
 50
180.0
  0
INSERT
  5
2C5
330
17
100
AcDbEntity
  8
0
 62
7
100
AcDbBlockReference
  2
_CLOSEDFILLED
 10
548.5
 20
-73.0
 30
0.0
 41
20.0
 42
20.0
  0
LINE
  5
2C7
330
17
100
AcDbEntity
  8
0
 62
7
100
AcDbLine
 10
372.5
 20
-73.0
 30
0.0
 11
420.5
 21
-73.0
 31
0.0
  0
LINE
  5
2C8
330
17
100
AcDbEntity
  8
0
 62
7
100
AcDbLine
 10
480.5
 20
-73.0
 30
0.0
 11
528.5
 21
-73.0
 31
0.0
  0
MTEXT
  5
2C9
330
17
100
AcDbEntity
  8
0
 62
7
100
AcDbMText
 10
450.5
 20
-73.0
 30
0.0
 40
20.0
 71
5
  1
196
  0
POINT
  5
2CA
330
17
100
AcDbEntity
  8
Defpoints
 62
7
100
AcDbPoint
 10
352.5
 20
-73.0
 30
0.0
  0
POINT
  5
2CB
330
17
100
AcDbEntity
  8
Defpoints
 62
7
100
AcDbPoint
 10
352.5
 20
0.0
 30
0.0
  0
POINT
  5
2CC
330
17
100
AcDbEntity
  8
Defpoints
 62
7
100
AcDbPoint
 10
548.5
 20
0.0
 30
0.0
  0
LINE
  5
2CD
330
17
100
AcDbEntity
  8
0
 62
7
100
AcDbLine
 10
548.5
 20
-5.0
 30
0.0
 11
548.5
 21
-83.0
 31
0.0
  0
LINE
  5
2CE
330
17
100
AcDbEntity
  8
0
 62
7
100
AcDbLine
 10
608.0
 20
-5.0
 30
0.0
 11
608.0
 21
-83.0
 31
0.0
  0
INSERT
  5
2CF
330
17
100
AcDbEntity
  8
0
 62
7
100
AcDbBlockReference
  2
_CLOSEDFILLED
 10
548.5
 20
-73.0
 30
0.0
 41
20.0
 42
20.0
 50
180.0
  0
INSERT
  5
2D1
330
17
100
AcDbEntity
  8
0
 62
7
100
AcDbBlockReference
  2
_CLOSEDFILLED
 10
608.0
 20
-73.0
 30
0.0
 41
20.0
 42
20.0
  0
LINE
  5
2D3
330
17
100
AcDbEntity
  8
0
 62
7
100
AcDbLine
 10
568.5
 20
-73.0
 30
0.0
 11
588.0
 21
-73.0
 31
0.0
  0
MTEXT
  5
2D4
330
17
100
AcDbEntity
  8
0
 62
7
100
AcDbMText
 10
578.25
 20
-48.0
 30
0.0
 40
20.0
 71
5
  1
59.5
  0
POINT
  5
2D5
330
17
100
AcDbEntity
  8
Defpoints
 62
7
100
AcDbPoint
 10
548.5
 20
-73.0
 30
0.0
  0
POINT
  5
2D6
330
17
100
AcDbEntity
  8
Defpoints
 62
7
100
AcDbPoint
 10
548.5
 20
0.0
 30
0.0
  0
POINT
  5
2D7
330
17
100
AcDbEntity
  8
Defpoints
 62
7
100
AcDbPoint
 10
608.0
 20
0.0
 30
0.0
  0
LINE
  5
2D8
330
17
100
AcDbEntity
  8
0
 62
7
100
AcDbLine
 10
-5.0
 20
0.0
 30
0.0
 11
-77.0
 21
0.0
 31
0.0
  0
LINE
  5
2D9
330
17
100
AcDbEntity
  8
0
 62
7
100
AcDbLine
 10
-5.0
 20
338.5
 30
0.0
 11
-77.0
 21
338.5
 31
0.0
  0
INSERT
  5
2DA
330
17
100
AcDbEntity
  8
0
 62
7
100
AcDbBlockReference
  2
_CLOSEDFILLED
 10
-67.0
 20
0.0
 30
0.0
 41
20.0
 42
20.0
 50
270.0
  0
INSERT
  5
2DC
330
17
100
AcDbEntity
  8
0
 62
7
100
AcDbBlockReference
  2
_CLOSEDFILLED
 10
-67.0
 20
338.5
 30
0.0
 41
20.0
 42
20.0
 50
90.0
  0
LINE
  5
2DE
330
17
100
AcDbEntity
  8
0
 62
7
100
AcDbLine
 10
-67.0
 20
20.0
 30
0.0
 11
-67.0
 21
119.25
 31
0.0
  0
LINE
  5
2DF
330
17
100
AcDbEntity
  8
0
 62
7
100
AcDbLine
 10
-67.0
 20
219.25
 30
0.0
 11
-67.0
 21
318.5
 31
0.0
  0
MTEXT
  5
2E0
330
17
100
AcDbEntity
  8
0
 62
7
100
AcDbMText
 10
-67.0
 20
169.25
 30
0.0
 40
20.0
 71
5
  1
338.5
 50
90.0
  0
POINT
  5
2E1
330
17
100
AcDbEntity
  8
Defpoints
 62
7
100
AcDbPoint
 10
-67.0
 20
0.0
 30
0.0
  0
POINT
  5
2E2
330
17
100
AcDbEntity
  8
Defpoints
 62
7
100
AcDbPoint
 10
0.0
 20
0.0
 30
0.0
  0
POINT
  5
2E3
330
17
100
AcDbEntity
  8
Defpoints
 62
7
100
AcDbPoint
 10
0.0
 20
338.5
 30
0.0
  0
LINE
  5
2E4
330
17
100
AcDbEntity
  8
0
 62
7
100
AcDbLine
 10
-5.0
 20
338.5
 30
0.0
 11
-77.0
 21
338.5
 31
0.0
  0
LINE
  5
2E5
330
17
100
AcDbEntity
  8
0
 62
7
100
AcDbLine
 10
-5.0
 20
647.5
 30
0.0
 11
-77.0
 21
647.5
 31
0.0
  0
INSERT
  5
2E6
330
17
100
AcDbEntity
  8
0
 62
7
100
AcDbBlockReference
  2
_CLOSEDFILLED
 10
-67.0
 20
338.5
 30
0.0
 41
20.0
 42
20.0
 50
270.0
  0
INSERT
  5
2E8
330
17
100
AcDbEntity
  8
0
 62
7
100
AcDbBlockReference
  2
_CLOSEDFILLED
 10
-67.0
 20
647.5
 30
0.0
 41
20.0
 42
20.0
 50
90.0
  0
LINE
  5
2EA
330
17
100
AcDbEntity
  8
0
 62
7
100
AcDbLine
 10
-67.0
 20
358.5
 30
0.0
 11
-67.0
 21
463.0
 31
0.0
  0
LINE
  5
2EB
330
17
100
AcDbEntity
  8
0
 62
7
100
AcDbLine
 10
-67.0
 20
523.0
 30
0.0
 11
-67.0
 21
627.5
 31
0.0
  0
MTEXT
  5
2EC
330
17
100
AcDbEntity
  8
0
 62
7
100
AcDbMText
 10
-67.0
 20
493.0
 30
0.0
 40
20.0
 71
5
  1
309
 50
90.0
  0
POINT
  5
2ED
330
17
100
AcDbEntity
  8
Defpoints
 62
7
100
AcDbPoint
 10
-67.0
 20
338.5
 30
0.0
  0
POINT
  5
2EE
330
17
100
AcDbEntity
  8
Defpoints
 62
7
100
AcDbPoint
 10
0.0
 20
338.5
 30
0.0
  0
POINT
  5
2EF
330
17
100
AcDbEntity
  8
Defpoints
 62
7
100
AcDbPoint
 10
0.0
 20
647.5
 30
0.0
  0
LINE
  5
2F0
330
17
100
AcDbEntity
  8
0
 62
7
100
AcDbLine
 10
-5.0
 20
647.5
 30
0.0
 11
-77.0
 21
647.5
 31
0.0
  0
LINE
  5
2F1
330
17
100
AcDbEntity
  8
0
 62
7
100
AcDbLine
 10
-5.0
 20
986.0
 30
0.0
 11
-77.0
 21
986.0
 31
0.0
  0
INSERT
  5
2F2
330
17
100
AcDbEntity
  8
0
 62
7
100
AcDbBlockReference
  2
_CLOSEDFILLED
 10
-67.0
 20
647.5
 30
0.0
 41
20.0
 42
20.0
 50
270.0
  0
INSERT
  5
2F4
330
17
100
AcDbEntity
  8
0
 62
7
100
AcDbBlockReference
  2
_CLOSEDFILLED
 10
-67.0
 20
986.0
 30
0.0
 41
20.0
 42
20.0
 50
90.0
  0
LINE
  5
2F6
330
17
100
AcDbEntity
  8
0
 62
7
100
AcDbLine
 10
-67.0
 20
667.5
 30
0.0
 11
-67.0
 21
766.75
 31
0.0
  0
LINE
  5
2F7
330
17
100
AcDbEntity
  8
0
 62
7
100
AcDbLine
 10
-67.0
 20
866.75
 30
0.0
 11
-67.0
 21
966.0
 31
0.0
  0
MTEXT
  5
2F8
330
17
100
AcDbEntity
  8
0
 62
7
100
AcDbMText
 10
-67.0
 20
816.75
 30
0.0
 40
20.0
 71
5
  1
338.5
 50
90.0
  0
POINT
  5
2F9
330
17
100
AcDbEntity
  8
Defpoints
 62
7
100
AcDbPoint
 10
-67.0
 20
647.5
 30
0.0
  0
POINT
  5
2FA
330
17
100
AcDbEntity
  8
Defpoints
 62
7
100
AcDbPoint
 10
0.0
 20
647.5
 30
0.0
  0
POINT
  5
2FB
330
17
100
AcDbEntity
  8
Defpoints
 62
7
100
AcDbPoint
 10
0.0
 20
986.0
 30
0.0
  0
LINE
  5
2FC
330
17
100
AcDbEntity
  8
0
 62
7
100
AcDbLine
 10
-5.0
 20
1486.0
 30
0.0
 11
-97.0
 21
1486.0
 31
0.0
  0
LINE
  5
2FD
330
17
100
AcDbEntity
  8
0
 62
7
100
AcDbLine
 10
-5.0
 20
1785.0
 30
0.0
 11
-97.0
 21
1785.0
 31
0.0
  0
INSERT
  5
2FE
330
17
100
AcDbEntity
  8
0
 62
7
100
AcDbBlockReference
  2
_CLOSEDFILLED
 10
-87.0
 20
1486.0
 30
0.0
 41
20.0
 42
20.0
 50
270.0
  0
INSERT
  5
300
330
17
100
AcDbEntity
  8
0
 62
7
100
AcDbBlockReference
  2
_CLOSEDFILLED
 10
-87.0
 20
1785.0
 30
0.0
 41
20.0
 42
20.0
 50
90.0
  0
LINE
  5
302
330
17
100
AcDbEntity
  8
0
 62
7
100
AcDbLine
 10
-87.0
 20
1506.0
 30
0.0
 11
-87.0
 21
1605.5
 31
0.0
  0
LINE
  5
303
330
17
100
AcDbEntity
  8
0
 62
7
100
AcDbLine
 10
-87.0
 20
1665.5
 30
0.0
 11
-87.0
 21
1765.0
 31
0.0
  0
MTEXT
  5
304
330
17
100
AcDbEntity
  8
0
 62
7
100
AcDbMText
 10
-87.0
 20
1635.5
 30
0.0
 40
20.0
 71
5
  1
299
 50
90.0
  0
POINT
  5
305
330
17
100
AcDbEntity
  8
Defpoints
 62
7
100
AcDbPoint
 10
-87.0
 20
1486.0
 30
0.0
  0
POINT
  5
306
330
17
100
AcDbEntity
  8
Defpoints
 62
7
100
AcDbPoint
 10
0.0
 20
1486.0
 30
0.0
  0
POINT
  5
307
330
17
100
AcDbEntity
  8
Defpoints
 62
7
100
AcDbPoint
 10
0.0
 20
1785.0
 30
0.0
  0
LINE
  5
308
330
17
100
AcDbEntity
  8
0
 62
7
100
AcDbLine
 10
-5.0
 20
1785.0
 30
0.0
 11
-97.0
 21
1785.0
 31
0.0
  0
LINE
  5
309
330
17
100
AcDbEntity
  8
0
 62
7
100
AcDbLine
 10
-5.0
 20
2017.0
 30
0.0
 11
-97.0
 21
2017.0
 31
0.0
  0
INSERT
  5
30A
330
17
100
AcDbEntity
  8
0
 62
7
100
AcDbBlockReference
  2
_CLOSEDFILLED
 10
-87.0
 20
1785.0
 30
0.0
 41
20.0
 42
20.0
 50
270.0
  0
INSERT
  5
30C
330
17
100
AcDbEntity
  8
0
 62
7
100
AcDbBlockReference
  2
_CLOSEDFILLED
 10
-87.0
 20
2017.0
 30
0.0
 41
20.0
 42
20.0
 50
90.0
  0
LINE
  5
30E
330
17
100
AcDbEntity
  8
0
 62
7
100
AcDbLine
 10
-87.0
 20
1805.0
 30
0.0
 11
-87.0
 21
1871.0
 31
0.0
  0
LINE
  5
30F
330
17
100
AcDbEntity
  8
0
 62
7
100
AcDbLine
 10
-87.0
 20
1931.0
 30
0.0
 11
-87.0
 21
1997.0
 31
0.0
  0
MTEXT
  5
310
330
17
100
AcDbEntity
  8
0
 62
7
100
AcDbMText
 10
-87.0
 20
1901.0
 30
0.0
 40
20.0
 71
5
  1
232
 50
90.0
  0
POINT
  5
311
330
17
100
AcDbEntity
  8
Defpoints
 62
7
100
AcDbPoint
 10
-87.0
 20
1785.0
 30
0.0
  0
POINT
  5
312
330
17
100
AcDbEntity
  8
Defpoints
 62
7
100
AcDbPoint
 10
0.0
 20
1785.0
 30
0.0
  0
POINT
  5
313
330
17
100
AcDbEntity
  8
Defpoints
 62
7
100
AcDbPoint
 10
0.0
 20
2017.0
 30
0.0
  0
LINE
  5
314
330
17
100
AcDbEntity
  8
0
 62
7
100
AcDbLine
 10
-5.0
 20
2017.0
 30
0.0
 11
-97.0
 21
2017.0
 31
0.0
  0
LINE
  5
315
330
17
100
AcDbEntity
  8
0
 62
7
100
AcDbLine
 10
-5.0
 20
2272.0
 30
0.0
 11
-97.0
 21
2272.0
 31
0.0
  0
INSERT
  5
316
330
17
100
AcDbEntity
  8
0
 62
7
100
AcDbBlockReference
  2
_CLOSEDFILLED
 10
-87.0
 20
2017.0
 30
0.0
 41
20.0
 42
20.0
 50
270.0
  0
INSERT
  5
318
330
17
100
AcDbEntity
  8
0
 62
7
100
AcDbBlockReference
  2
_CLOSEDFILLED
 10
-87.0
 20
2272.0
 30
0.0
 41
20.0
 42
20.0
 50
90.0
  0
LINE
  5
31A
330
17
100
AcDbEntity
  8
0
 62
7
100
AcDbLine
 10
-87.0
 20
2037.0
 30
0.0
 11
-87.0
 21
2114.5
 31
0.0
  0
LINE
  5
31B
330
17
100
AcDbEntity
  8
0
 62
7
100
AcDbLine
 10
-87.0
 20
2174.5
 30
0.0
 11
-87.0
 21
2252.0
 31
0.0
  0
MTEXT
  5
31C
330
17
100
AcDbEntity
  8
0
 62
7
100
AcDbMText
 10
-87.0
 20
2144.5
 30
0.0
 40
20.0
 71
5
  1
255
 50
90.0
  0
POINT
  5
31D
330
17
100
AcDbEntity
  8
Defpoints
 62
7
100
AcDbPoint
 10
-87.0
 20
2017.0
 30
0.0
  0
POINT
  5
31E
330
17
100
AcDbEntity
  8
Defpoints
 62
7
100
AcDbPoint
 10
0.0
 20
2017.0
 30
0.0
  0
POINT
  5
31F
330
17
100
AcDbEntity
  8
Defpoints
 62
7
100
AcDbPoint
 10
0.0
 20
2272.0
 30
0.0
  0
LINE
  5
320
330
17
100
AcDbEntity
  8
0
 62
7
100
AcDbLine
 10
0.0
 20
2277.0
 30
0.0
 11
0.0
 21
2365.0
 31
0.0
  0
LINE
  5
321
330
17
100
AcDbEntity
  8
0
 62
7
100
AcDbLine
 10
59.5
 20
2277.0
 30
0.0
 11
59.5
 21
2365.0
 31
0.0
  0
INSERT
  5
322
330
17
100
AcDbEntity
  8
0
 62
7
100
AcDbBlockReference
  2
_CLOSEDFILLED
 10
0.0
 20
2355.0
 30
0.0
 41
20.0
 42
20.0
 50
180.0
  0
INSERT
  5
324
330
17
100
AcDbEntity
  8
0
 62
7
100
AcDbBlockReference
  2
_CLOSEDFILLED
 10
59.5
 20
2355.0
 30
0.0
 41
20.0
 42
20.0
  0
LINE
  5
326
330
17
100
AcDbEntity
  8
0
 62
7
100
AcDbLine
 10
20.0
 20
2355.0
 30
0.0
 11
39.5
 21
2355.0
 31
0.0
  0
MTEXT
  5
327
330
17
100
AcDbEntity
  8
0
 62
7
100
AcDbMText
 10
29.75
 20
2380.0
 30
0.0
 40
20.0
 71
5
  1
59.5
  0
POINT
  5
328
330
17
100
AcDbEntity
  8
Defpoints
 62
7
100
AcDbPoint
 10
0.0
 20
2355.0
 30
0.0
  0
POINT
  5
329
330
17
100
AcDbEntity
  8
Defpoints
 62
7
100
AcDbPoint
 10
0.0
 20
2272.0
 30
0.0
  0
POINT
  5
32A
330
17
100
AcDbEntity
  8
Defpoints
 62
7
100
AcDbPoint
 10
59.5
 20
2272.0
 30
0.0
  0
LINE
  5
32B
330
17
100
AcDbEntity
  8
0
 62
7
100
AcDbLine
 10
59.5
 20
2277.0
 30
0.0
 11
59.5
 21
2365.0
 31
0.0
  0
LINE
  5
32C
330
17
100
AcDbEntity
  8
0
 62
7
100
AcDbLine
 10
255.5
 20
2277.0
 30
0.0
 11
255.5
 21
2365.0
 31
0.0
  0
INSERT
  5
32D
330
17
100
AcDbEntity
  8
0
 62
7
100
AcDbBlockReference
  2
_CLOSEDFILLED
 10
59.5
 20
2355.0
 30
0.0
 41
20.0
 42
20.0
 50
180.0
  0
INSERT
  5
32F
330
17
100
AcDbEntity
  8
0
 62
7
100
AcDbBlockReference
  2
_CLOSEDFILLED
 10
255.5
 20
2355.0
 30
0.0
 41
20.0
 42
20.0
  0
LINE
  5
331
330
17
100
AcDbEntity
  8
0
 62
7
100
AcDbLine
 10
79.5
 20
2355.0
 30
0.0
 11
127.5
 21
2355.0
 31
0.0
  0
LINE
  5
332
330
17
100
AcDbEntity
  8
0
 62
7
100
AcDbLine
 10
187.5
 20
2355.0
 30
0.0
 11
235.5
 21
2355.0
 31
0.0
  0
MTEXT
  5
333
330
17
100
AcDbEntity
  8
0
 62
7
100
AcDbMText
 10
157.5
 20
2355.0
 30
0.0
 40
20.0
 71
5
  1
196
  0
POINT
  5
334
330
17
100
AcDbEntity
  8
Defpoints
 62
7
100
AcDbPoint
 10
59.5
 20
2355.0
 30
0.0
  0
POINT
  5
335
330
17
100
AcDbEntity
  8
Defpoints
 62
7
100
AcDbPoint
 10
59.5
 20
2272.0
 30
0.0
  0
POINT
  5
336
330
17
100
AcDbEntity
  8
Defpoints
 62
7
100
AcDbPoint
 10
255.5
 20
2272.0
 30
0.0
  0
LINE
  5
337
330
17
100
AcDbEntity
  8
0
 62
7
100
AcDbLine
 10
255.5
 20
2277.0
 30
0.0
 11
255.5
 21
2365.0
 31
0.0
  0
LINE
  5
338
330
17
100
AcDbEntity
  8
0
 62
7
100
AcDbLine
 10
352.5
 20
2277.0
 30
0.0
 11
352.5
 21
2365.0
 31
0.0
  0
INSERT
  5
339
330
17
100
AcDbEntity
  8
0
 62
7
100
AcDbBlockReference
  2
_CLOSEDFILLED
 10
255.5
 20
2355.0
 30
0.0
 41
20.0
 42
20.0
 50
180.0
  0
INSERT
  5
33B
330
17
100
AcDbEntity
  8
0
 62
7
100
AcDbBlockReference
  2
_CLOSEDFILLED
 10
352.5
 20
2355.0
 30
0.0
 41
20.0
 42
20.0
  0
LINE
  5
33D
330
17
100
AcDbEntity
  8
0
 62
7
100
AcDbLine
 10
275.5
 20
2355.0
 30
0.0
 11
284.0
 21
2355.0
 31
0.0
  0
LINE
  5
33E
330
17
100
AcDbEntity
  8
0
 62
7
100
AcDbLine
 10
324.0
 20
2355.0
 30
0.0
 11
332.5
 21
2355.0
 31
0.0
  0
MTEXT
  5
33F
330
17
100
AcDbEntity
  8
0
 62
7
100
AcDbMText
 10
304.0
 20
2355.0
 30
0.0
 40
20.0
 71
5
  1
97
  0
POINT
  5
340
330
17
100
AcDbEntity
  8
Defpoints
 62
7
100
AcDbPoint
 10
255.5
 20
2355.0
 30
0.0
  0
POINT
  5
341
330
17
100
AcDbEntity
  8
Defpoints
 62
7
100
AcDbPoint
 10
255.5
 20
2272.0
 30
0.0
  0
POINT
  5
342
330
17
100
AcDbEntity
  8
Defpoints
 62
7
100
AcDbPoint
 10
352.5
 20
2272.0
 30
0.0
  0
LINE
  5
343
330
17
100
AcDbEntity
  8
0
 62
7
100
AcDbLine
 10
352.5
 20
2277.0
 30
0.0
 11
352.5
 21
2365.0
 31
0.0
  0
LINE
  5
344
330
17
100
AcDbEntity
  8
0
 62
7
100
AcDbLine
 10
548.5
 20
2277.0
 30
0.0
 11
548.5
 21
2365.0
 31
0.0
  0
INSERT
  5
345
330
17
100
AcDbEntity
  8
0
 62
7
100
AcDbBlockReference
  2
_CLOSEDFILLED
 10
352.5
 20
2355.0
 30
0.0
 41
20.0
 42
20.0
 50
180.0
  0
INSERT
  5
347
330
17
100
AcDbEntity
  8
0
 62
7
100
AcDbBlockReference
  2
_CLOSEDFILLED
 10
548.5
 20
2355.0
 30
0.0
 41
20.0
 42
20.0
  0
LINE
  5
349
330
17
100
AcDbEntity
  8
0
 62
7
100
AcDbLine
 10
372.5
 20
2355.0
 30
0.0
 11
420.5
 21
2355.0
 31
0.0
  0
LINE
  5
34A
330
17
100
AcDbEntity
  8
0
 62
7
100
AcDbLine
 10
480.5
 20
2355.0
 30
0.0
 11
528.5
 21
2355.0
 31
0.0
  0
MTEXT
  5
34B
330
17
100
AcDbEntity
  8
0
 62
7
100
AcDbMText
 10
450.5
 20
2355.0
 30
0.0
 40
20.0
 71
5
  1
196
  0
POINT
  5
34C
330
17
100
AcDbEntity
  8
Defpoints
 62
7
100
AcDbPoint
 10
352.5
 20
2355.0
 30
0.0
  0
POINT
  5
34D
330
17
100
AcDbEntity
  8
Defpoints
 62
7
100
AcDbPoint
 10
352.5
 20
2272.0
 30
0.0
  0
POINT
  5
34E
330
17
100
AcDbEntity
  8
Defpoints
 62
7
100
AcDbPoint
 10
548.5
 20
2272.0
 30
0.0
  0
LINE
  5
34F
330
17
100
AcDbEntity
  8
0
 62
7
100
AcDbLine
 10
548.5
 20
2277.0
 30
0.0
 11
548.5
 21
2365.0
 31
0.0
  0
LINE
  5
350
330
17
100
AcDbEntity
  8
0
 62
7
100
AcDbLine
 10
608.0
 20
2277.0
 30
0.0
 11
608.0
 21
2365.0
 31
0.0
  0
INSERT
  5
351
330
17
100
AcDbEntity
  8
0
 62
7
100
AcDbBlockReference
  2
_CLOSEDFILLED
 10
548.5
 20
2355.0
 30
0.0
 41
20.0
 42
20.0
 50
180.0
  0
INSERT
  5
353
330
17
100
AcDbEntity
  8
0
 62
7
100
AcDbBlockReference
  2
_CLOSEDFILLED
 10
608.0
 20
2355.0
 30
0.0
 41
20.0
 42
20.0
  0
LINE
  5
355
330
17
100
AcDbEntity
  8
0
 62
7
100
AcDbLine
 10
568.5
 20
2355.0
 30
0.0
 11
588.0
 21
2355.0
 31
0.0
  0
MTEXT
  5
356
330
17
100
AcDbEntity
  8
0
 62
7
100
AcDbMText
 10
578.25
 20
2380.0
 30
0.0
 40
20.0
 71
5
  1
59.5
  0
POINT
  5
357
330
17
100
AcDbEntity
  8
Defpoints
 62
7
100
AcDbPoint
 10
548.5
 20
2355.0
 30
0.0
  0
POINT
  5
358
330
17
100
AcDbEntity
  8
Defpoints
 62
7
100
AcDbPoint
 10
548.5
 20
2272.0
 30
0.0
  0
POINT
  5
359
330
17
100
AcDbEntity
  8
Defpoints
 62
7
100
AcDbPoint
 10
608.0
 20
2272.0
 30
0.0
  0
LINE
  5
35A
330
17
100
AcDbEntity
  8
0
 62
7
100
AcDbLine
 10
0.0
 20
1481.0
 30
0.0
 11
0.0
 21
1390.0
 31
0.0
  0
LINE
  5
35B
330
17
100
AcDbEntity
  8
0
 62
7
100
AcDbLine
 10
75.0
 20
1481.0
 30
0.0
 11
75.0
 21
1390.0
 31
0.0
  0
INSERT
  5
35C
330
17
100
AcDbEntity
  8
0
 62
7
100
AcDbBlockReference
  2
_CLOSEDFILLED
 10
0.0
 20
1400.0
 30
0.0
 41
20.0
 42
20.0
 50
180.0
  0
INSERT
  5
35E
330
17
100
AcDbEntity
  8
0
 62
7
100
AcDbBlockReference
  2
_CLOSEDFILLED
 10
75.0
 20
1400.0
 30
0.0
 41
20.0
 42
20.0
  0
LINE
  5
360
330
17
100
AcDbEntity
  8
0
 62
7
100
AcDbLine
 10
20.0
 20
1400.0
 30
0.0
 11
55.0
 21
1400.0
 31
0.0
  0
MTEXT
  5
361
330
17
100
AcDbEntity
  8
0
 62
7
100
AcDbMText
 10
37.5
 20
1425.0
 30
0.0
 40
20.0
 71
5
  1
75
  0
POINT
  5
362
330
17
100
AcDbEntity
  8
Defpoints
 62
7
100
AcDbPoint
 10
0.0
 20
1400.0
 30
0.0
  0
POINT
  5
363
330
17
100
AcDbEntity
  8
Defpoints
 62
7
100
AcDbPoint
 10
0.0
 20
1486.0
 30
0.0
  0
POINT
  5
364
330
17
100
AcDbEntity
  8
Defpoints
 62
7
100
AcDbPoint
 10
75.0
 20
1486.0
 30
0.0
  0
LINE
  5
365
330
17
100
AcDbEntity
  8
0
 62
7
100
AcDbLine
 10
75.0
 20
1481.0
 30
0.0
 11
75.0
 21
1390.0
 31
0.0
  0
LINE
  5
366
330
17
100
AcDbEntity
  8
0
 62
7
100
AcDbLine
 10
177.0
 20
1481.0
 30
0.0
 11
177.0
 21
1390.0
 31
0.0
  0
INSERT
  5
367
330
17
100
AcDbEntity
  8
0
 62
7
100
AcDbBlockReference
  2
_CLOSEDFILLED
 10
75.0
 20
1400.0
 30
0.0
 41
20.0
 42
20.0
 50
180.0
  0
INSERT
  5
369
330
17
100
AcDbEntity
  8
0
 62
7
100
AcDbBlockReference
  2
_CLOSEDFILLED
 10
177.0
 20
1400.0
 30
0.0
 41
20.0
 42
20.0
  0
LINE
  5
36B
330
17
100
AcDbEntity
  8
0
 62
7
100
AcDbLine
 10
95.0
 20
1400.0
 30
0.0
 11
96.0
 21
1400.0
 31
0.0
  0
LINE
  5
36C
330
17
100
AcDbEntity
  8
0
 62
7
100
AcDbLine
 10
156.0
 20
1400.0
 30
0.0
 11
157.0
 21
1400.0
 31
0.0
  0
MTEXT
  5
36D
330
17
100
AcDbEntity
  8
0
 62
7
100
AcDbMText
 10
126.0
 20
1400.0
 30
0.0
 40
20.0
 71
5
  1
102
  0
POINT
  5
36E
330
17
100
AcDbEntity
  8
Defpoints
 62
7
100
AcDbPoint
 10
75.0
 20
1400.0
 30
0.0
  0
POINT
  5
36F
330
17
100
AcDbEntity
  8
Defpoints
 62
7
100
AcDbPoint
 10
75.0
 20
1486.0
 30
0.0
  0
POINT
  5
370
330
17
100
AcDbEntity
  8
Defpoints
 62
7
100
AcDbPoint
 10
177.0
 20
1486.0
 30
0.0
  0
LINE
  5
371
330
17
100
AcDbEntity
  8
0
 62
7
100
AcDbLine
 10
177.0
 20
1481.0
 30
0.0
 11
177.0
 21
1390.0
 31
0.0
  0
LINE
  5
372
330
17
100
AcDbEntity
  8
0
 62
7
100
AcDbLine
 10
253.0
 20
1481.0
 30
0.0
 11
253.0
 21
1390.0
 31
0.0
  0
INSERT
  5
373
330
17
100
AcDbEntity
  8
0
 62
7
100
AcDbBlockReference
  2
_CLOSEDFILLED
 10
177.0
 20
1400.0
 30
0.0
 41
20.0
 42
20.0
 50
180.0
  0
INSERT
  5
375
330
17
100
AcDbEntity
  8
0
 62
7
100
AcDbBlockReference
  2
_CLOSEDFILLED
 10
253.0
 20
1400.0
 30
0.0
 41
20.0
 42
20.0
  0
LINE
  5
377
330
17
100
AcDbEntity
  8
0
 62
7
100
AcDbLine
 10
197.0
 20
1400.0
 30
0.0
 11
233.0
 21
1400.0
 31
0.0
  0
MTEXT
  5
378
330
17
100
AcDbEntity
  8
0
 62
7
100
AcDbMText
 10
215.0
 20
1425.0
 30
0.0
 40
20.0
 71
5
  1
76
  0
POINT
  5
379
330
17
100
AcDbEntity
  8
Defpoints
 62
7
100
AcDbPoint
 10
177.0
 20
1400.0
 30
0.0
  0
POINT
  5
37A
330
17
100
AcDbEntity
  8
Defpoints
 62
7
100
AcDbPoint
 10
177.0
 20
1486.0
 30
0.0
  0
POINT
  5
37B
330
17
100
AcDbEntity
  8
Defpoints
 62
7
100
AcDbPoint
 10
253.0
 20
1486.0
 30
0.0
  0
LINE
  5
37C
330
17
100
AcDbEntity
  8
0
 62
7
100
AcDbLine
 10
253.0
 20
1481.0
 30
0.0
 11
253.0
 21
1390.0
 31
0.0
  0
LINE
  5
37D
330
17
100
AcDbEntity
  8
0
 62
7
100
AcDbLine
 10
355.0
 20
1481.0
 30
0.0
 11
355.0
 21
1390.0
 31
0.0
  0
INSERT
  5
37E
330
17
100
AcDbEntity
  8
0
 62
7
100
AcDbBlockReference
  2
_CLOSEDFILLED
 10
253.0
 20
1400.0
 30
0.0
 41
20.0
 42
20.0
 50
180.0
  0
INSERT
  5
380
330
17
100
AcDbEntity
  8
0
 62
7
100
AcDbBlockReference
  2
_CLOSEDFILLED
 10
355.0
 20
1400.0
 30
0.0
 41
20.0
 42
20.0
  0
LINE
  5
382
330
17
100
AcDbEntity
  8
0
 62
7
100
AcDbLine
 10
273.0
 20
1400.0
 30
0.0
 11
274.0
 21
1400.0
 31
0.0
  0
LINE
  5
383
330
17
100
AcDbEntity
  8
0
 62
7
100
AcDbLine
 10
334.0
 20
1400.0
 30
0.0
 11
335.0
 21
1400.0
 31
0.0
  0
MTEXT
  5
384
330
17
100
AcDbEntity
  8
0
 62
7
100
AcDbMText
 10
304.0
 20
1400.0
 30
0.0
 40
20.0
 71
5
  1
102
  0
POINT
  5
385
330
17
100
AcDbEntity
  8
Defpoints
 62
7
100
AcDbPoint
 10
253.0
 20
1400.0
 30
0.0
  0
POINT
  5
386
330
17
100
AcDbEntity
  8
Defpoints
 62
7
100
AcDbPoint
 10
253.0
 20
1486.0
 30
0.0
  0
POINT
  5
387
330
17
100
AcDbEntity
  8
Defpoints
 62
7
100
AcDbPoint
 10
355.0
 20
1486.0
 30
0.0
  0
LINE
  5
388
330
17
100
AcDbEntity
  8
0
 62
7
100
AcDbLine
 10
355.0
 20
1481.0
 30
0.0
 11
355.0
 21
1390.0
 31
0.0
  0
LINE
  5
389
330
17
100
AcDbEntity
  8
0
 62
7
100
AcDbLine
 10
431.0
 20
1481.0
 30
0.0
 11
431.0
 21
1390.0
 31
0.0
  0
INSERT
  5
38A
330
17
100
AcDbEntity
  8
0
 62
7
100
AcDbBlockReference
  2
_CLOSEDFILLED
 10
355.0
 20
1400.0
 30
0.0
 41
20.0
 42
20.0
 50
180.0
  0
INSERT
  5
38C
330
17
100
AcDbEntity
  8
0
 62
7
100
AcDbBlockReference
  2
_CLOSEDFILLED
 10
431.0
 20
1400.0
 30
0.0
 41
20.0
 42
20.0
  0
LINE
  5
38E
330
17
100
AcDbEntity
  8
0
 62
7
100
AcDbLine
 10
375.0
 20
1400.0
 30
0.0
 11
411.0
 21
1400.0
 31
0.0
  0
MTEXT
  5
38F
330
17
100
AcDbEntity
  8
0
 62
7
100
AcDbMText
 10
393.0
 20
1425.0
 30
0.0
 40
20.0
 71
5
  1
76
  0
POINT
  5
390
330
17
100
AcDbEntity
  8
Defpoints
 62
7
100
AcDbPoint
 10
355.0
 20
1400.0
 30
0.0
  0
POINT
  5
391
330
17
100
AcDbEntity
  8
Defpoints
 62
7
100
AcDbPoint
 10
355.0
 20
1486.0
 30
0.0
  0
POINT
  5
392
330
17
100
AcDbEntity
  8
Defpoints
 62
7
100
AcDbPoint
 10
431.0
 20
1486.0
 30
0.0
  0
LINE
  5
393
330
17
100
AcDbEntity
  8
0
 62
7
100
AcDbLine
 10
431.0
 20
1481.0
 30
0.0
 11
431.0
 21
1390.0
 31
0.0
  0
LINE
  5
394
330
17
100
AcDbEntity
  8
0
 62
7
100
AcDbLine
 10
533.0
 20
1481.0
 30
0.0
 11
533.0
 21
1390.0
 31
0.0
  0
INSERT
  5
395
330
17
100
AcDbEntity
  8
0
 62
7
100
AcDbBlockReference
  2
_CLOSEDFILLED
 10
431.0
 20
1400.0
 30
0.0
 41
20.0
 42
20.0
 50
180.0
  0
INSERT
  5
397
330
17
100
AcDbEntity
  8
0
 62
7
100
AcDbBlockReference
  2
_CLOSEDFILLED
 10
533.0
 20
1400.0
 30
0.0
 41
20.0
 42
20.0
  0
LINE
  5
399
330
17
100
AcDbEntity
  8
0
 62
7
100
AcDbLine
 10
451.0
 20
1400.0
 30
0.0
 11
452.0
 21
1400.0
 31
0.0
  0
LINE
  5
39A
330
17
100
AcDbEntity
  8
0
 62
7
100
AcDbLine
 10
512.0
 20
1400.0
 30
0.0
 11
513.0
 21
1400.0
 31
0.0
  0
MTEXT
  5
39B
330
17
100
AcDbEntity
  8
0
 62
7
100
AcDbMText
 10
482.0
 20
1400.0
 30
0.0
 40
20.0
 71
5
  1
102
  0
POINT
  5
39C
330
17
100
AcDbEntity
  8
Defpoints
 62
7
100
AcDbPoint
 10
431.0
 20
1400.0
 30
0.0
  0
POINT
  5
39D
330
17
100
AcDbEntity
  8
Defpoints
 62
7
100
AcDbPoint
 10
431.0
 20
1486.0
 30
0.0
  0
POINT
  5
39E
330
17
100
AcDbEntity
  8
Defpoints
 62
7
100
AcDbPoint
 10
533.0
 20
1486.0
 30
0.0
  0
LINE
  5
39F
330
17
100
AcDbEntity
  8
0
 62
7
100
AcDbLine
 10
533.0
 20
1481.0
 30
0.0
 11
533.0
 21
1390.0
 31
0.0
  0
LINE
  5
3A0
330
17
100
AcDbEntity
  8
0
 62
7
100
AcDbLine
 10
608.0
 20
1481.0
 30
0.0
 11
608.0
 21
1390.0
 31
0.0
  0
INSERT
  5
3A1
330
17
100
AcDbEntity
  8
0
 62
7
100
AcDbBlockReference
  2
_CLOSEDFILLED
 10
533.0
 20
1400.0
 30
0.0
 41
20.0
 42
20.0
 50
180.0
  0
INSERT
  5
3A3
330
17
100
AcDbEntity
  8
0
 62
7
100
AcDbBlockReference
  2
_CLOSEDFILLED
 10
608.0
 20
1400.0
 30
0.0
 41
20.0
 42
20.0
  0
LINE
  5
3A5
330
17
100
AcDbEntity
  8
0
 62
7
100
AcDbLine
 10
553.0
 20
1400.0
 30
0.0
 11
588.0
 21
1400.0
 31
0.0
  0
MTEXT
  5
3A6
330
17
100
AcDbEntity
  8
0
 62
7
100
AcDbMText
 10
570.5
 20
1425.0
 30
0.0
 40
20.0
 71
5
  1
75
  0
POINT
  5
3A7
330
17
100
AcDbEntity
  8
Defpoints
 62
7
100
AcDbPoint
 10
533.0
 20
1400.0
 30
0.0
  0
POINT
  5
3A8
330
17
100
AcDbEntity
  8
Defpoints
 62
7
100
AcDbPoint
 10
533.0
 20
1486.0
 30
0.0
  0
POINT
  5
3A9
330
17
100
AcDbEntity
  8
Defpoints
 62
7
100
AcDbPoint
 10
608.0
 20
1486.0
 30
0.0
  0
LINE
  5
3AA
330
17
100
AcDbEntity
  8
0
 62
7
100
AcDbLine
 10
963.0
 20
1486.0
 30
0.0
 11
2028.0
 21
1486.0
 31
0.0
  0
LINE
  5
3AB
330
17
100
AcDbEntity
  8
0
 62
7
100
AcDbLine
 10
963.0
 20
1785.0
 30
0.0
 11
2028.0
 21
1785.0
 31
0.0
  0
INSERT
  5
3AC
330
17
100
AcDbEntity
  8
0
 62
7
100
AcDbBlockReference
  2
_CLOSEDFILLED
 10
2018.0
 20
1486.0
 30
0.0
 41
20.0
 42
20.0
 50
270.0
  0
INSERT
  5
3AE
330
17
100
AcDbEntity
  8
0
 62
7
100
AcDbBlockReference
  2
_CLOSEDFILLED
 10
2018.0
 20
1785.0
 30
0.0
 41
20.0
 42
20.0
 50
90.0
  0
LINE
  5
3B0
330
17
100
AcDbEntity
  8
0
 62
7
100
AcDbLine
 10
2018.0
 20
1506.0
 30
0.0
 11
2018.0
 21
1605.5
 31
0.0
  0
LINE
  5
3B1
330
17
100
AcDbEntity
  8
0
 62
7
100
AcDbLine
 10
2018.0
 20
1665.5
 30
0.0
 11
2018.0
 21
1765.0
 31
0.0
  0
MTEXT
  5
3B2
330
17
100
AcDbEntity
  8
0
 62
7
100
AcDbMText
 10
2018.0
 20
1635.5
 30
0.0
 40
20.0
 71
5
  1
299
 50
90.0
  0
POINT
  5
3B3
330
17
100
AcDbEntity
  8
Defpoints
 62
7
100
AcDbPoint
 10
2018.0
 20
1486.0
 30
0.0
  0
POINT
  5
3B4
330
17
100
AcDbEntity
  8
Defpoints
 62
7
100
AcDbPoint
 10
958.0
 20
1486.0
 30
0.0
  0
POINT
  5
3B5
330
17
100
AcDbEntity
  8
Defpoints
 62
7
100
AcDbPoint
 10
958.0
 20
1785.0
 30
0.0
  0
LINE
  5
3B6
330
17
100
AcDbEntity
  8
0
 62
7
100
AcDbLine
 10
963.0
 20
1785.0
 30
0.0
 11
2028.0
 21
1785.0
 31
0.0
  0
LINE
  5
3B7
330
17
100
AcDbEntity
  8
0
 62
7
100
AcDbLine
 10
963.0
 20
2017.0
 30
0.0
 11
2028.0
 21
2017.0
 31
0.0
  0
INSERT
  5
3B8
330
17
100
AcDbEntity
  8
0
 62
7
100
AcDbBlockReference
  2
_CLOSEDFILLED
 10
2018.0
 20
1785.0
 30
0.0
 41
20.0
 42
20.0
 50
270.0
  0
INSERT
  5
3BA
330
17
100
AcDbEntity
  8
0
 62
7
100
AcDbBlockReference
  2
_CLOSEDFILLED
 10
2018.0
 20
2017.0
 30
0.0
 41
20.0
 42
20.0
 50
90.0
  0
LINE
  5
3BC
330
17
100
AcDbEntity
  8
0
 62
7
100
AcDbLine
 10
2018.0
 20
1805.0
 30
0.0
 11
2018.0
 21
1871.0
 31
0.0
  0
LINE
  5
3BD
330
17
100
AcDbEntity
  8
0
 62
7
100
AcDbLine
 10
2018.0
 20
1931.0
 30
0.0
 11
2018.0
 21
1997.0
 31
0.0
  0
MTEXT
  5
3BE
330
17
100
AcDbEntity
  8
0
 62
7
100
AcDbMText
 10
2018.0
 20
1901.0
 30
0.0
 40
20.0
 71
5
  1
232
 50
90.0
  0
POINT
  5
3BF
330
17
100
AcDbEntity
  8
Defpoints
 62
7
100
AcDbPoint
 10
2018.0
 20
1785.0
 30
0.0
  0
POINT
  5
3C0
330
17
100
AcDbEntity
  8
Defpoints
 62
7
100
AcDbPoint
 10
958.0
 20
1785.0
 30
0.0
  0
POINT
  5
3C1
330
17
100
AcDbEntity
  8
Defpoints
 62
7
100
AcDbPoint
 10
958.0
 20
2017.0
 30
0.0
  0
LINE
  5
3C2
330
17
100
AcDbEntity
  8
0
 62
7
100
AcDbLine
 10
963.0
 20
2017.0
 30
0.0
 11
2028.0
 21
2017.0
 31
0.0
  0
LINE
  5
3C3
330
17
100
AcDbEntity
  8
0
 62
7
100
AcDbLine
 10
963.0
 20
2272.0
 30
0.0
 11
2028.0
 21
2272.0
 31
0.0
  0
INSERT
  5
3C4
330
17
100
AcDbEntity
  8
0
 62
7
100
AcDbBlockReference
  2
_CLOSEDFILLED
 10
2018.0
 20
2017.0
 30
0.0
 41
20.0
 42
20.0
 50
270.0
  0
INSERT
  5
3C6
330
17
100
AcDbEntity
  8
0
 62
7
100
AcDbBlockReference
  2
_CLOSEDFILLED
 10
2018.0
 20
2272.0
 30
0.0
 41
20.0
 42
20.0
 50
90.0
  0
LINE
  5
3C8
330
17
100
AcDbEntity
  8
0
 62
7
100
AcDbLine
 10
2018.0
 20
2037.0
 30
0.0
 11
2018.0
 21
2114.5
 31
0.0
  0
LINE
  5
3C9
330
17
100
AcDbEntity
  8
0
 62
7
100
AcDbLine
 10
2018.0
 20
2174.5
 30
0.0
 11
2018.0
 21
2252.0
 31
0.0
  0
MTEXT
  5
3CA
330
17
100
AcDbEntity
  8
0
 62
7
100
AcDbMText
 10
2018.0
 20
2144.5
 30
0.0
 40
20.0
 71
5
  1
255
 50
90.0
  0
POINT
  5
3CB
330
17
100
AcDbEntity
  8
Defpoints
 62
7
100
AcDbPoint
 10
2018.0
 20
2017.0
 30
0.0
  0
POINT
  5
3CC
330
17
100
AcDbEntity
  8
Defpoints
 62
7
100
AcDbPoint
 10
958.0
 20
2017.0
 30
0.0
  0
POINT
  5
3CD
330
17
100
AcDbEntity
  8
Defpoints
 62
7
100
AcDbPoint
 10
958.0
 20
2272.0
 30
0.0
  0
LINE
  5
3CE
330
17
100
AcDbEntity
  8
0
 62
7
100
AcDbLine
 10
958.0
 20
2277.0
 30
0.0
 11
958.0
 21
2352.0
 31
0.0
  0
LINE
  5
3CF
330
17
100
AcDbEntity
  8
0
 62
7
100
AcDbLine
 10
1296.5
 20
2277.0
 30
0.0
 11
1296.5
 21
2352.0
 31
0.0
  0
INSERT
  5
3D0
330
17
100
AcDbEntity
  8
0
 62
7
100
AcDbBlockReference
  2
_CLOSEDFILLED
 10
958.0
 20
2342.0
 30
0.0
 41
20.0
 42
20.0
 50
180.0
  0
INSERT
  5
3D2
330
17
100
AcDbEntity
  8
0
 62
7
100
AcDbBlockReference
  2
_CLOSEDFILLED
 10
1296.5
 20
2342.0
 30
0.0
 41
20.0
 42
20.0
  0
LINE
  5
3D4
330
17
100
AcDbEntity
  8
0
 62
7
100
AcDbLine
 10
978.0
 20
2342.0
 30
0.0
 11
1077.25
 21
2342.0
 31
0.0
  0
LINE
  5
3D5
330
17
100
AcDbEntity
  8
0
 62
7
100
AcDbLine
 10
1177.25
 20
2342.0
 30
0.0
 11
1276.5
 21
2342.0
 31
0.0
  0
MTEXT
  5
3D6
330
17
100
AcDbEntity
  8
0
 62
7
100
AcDbMText
 10
1127.25
 20
2342.0
 30
0.0
 40
20.0
 71
5
  1
338.5
  0
POINT
  5
3D7
330
17
100
AcDbEntity
  8
Defpoints
 62
7
100
AcDbPoint
 10
958.0
 20
2342.0
 30
0.0
  0
POINT
  5
3D8
330
17
100
AcDbEntity
  8
Defpoints
 62
7
100
AcDbPoint
 10
958.0
 20
2272.0
 30
0.0
  0
POINT
  5
3D9
330
17
100
AcDbEntity
  8
Defpoints
 62
7
100
AcDbPoint
 10
1296.5
 20
2272.0
 30
0.0
  0
LINE
  5
3DA
330
17
100
AcDbEntity
  8
0
 62
7
100
AcDbLine
 10
1296.5
 20
2277.0
 30
0.0
 11
1296.5
 21
2352.0
 31
0.0
  0
LINE
  5
3DB
330
17
100
AcDbEntity
  8
0
 62
7
100
AcDbLine
 10
1605.5
 20
2277.0
 30
0.0
 11
1605.5
 21
2352.0
 31
0.0
  0
INSERT
  5
3DC
330
17
100
AcDbEntity
  8
0
 62
7
100
AcDbBlockReference
  2
_CLOSEDFILLED
 10
1296.5
 20
2342.0
 30
0.0
 41
20.0
 42
20.0
 50
180.0
  0
INSERT
  5
3DE
330
17
100
AcDbEntity
  8
0
 62
7
100
AcDbBlockReference
  2
_CLOSEDFILLED
 10
1605.5
 20
2342.0
 30
0.0
 41
20.0
 42
20.0
  0
LINE
  5
3E0
330
17
100
AcDbEntity
  8
0
 62
7
100
AcDbLine
 10
1316.5
 20
2342.0
 30
0.0
 11
1421.0
 21
2342.0
 31
0.0
  0
LINE
  5
3E1
330
17
100
AcDbEntity
  8
0
 62
7
100
AcDbLine
 10
1481.0
 20
2342.0
 30
0.0
 11
1585.5
 21
2342.0
 31
0.0
  0
MTEXT
  5
3E2
330
17
100
AcDbEntity
  8
0
 62
7
100
AcDbMText
 10
1451.0
 20
2342.0
 30
0.0
 40
20.0
 71
5
  1
309
  0
POINT
  5
3E3
330
17
100
AcDbEntity
  8
Defpoints
 62
7
100
AcDbPoint
 10
1296.5
 20
2342.0
 30
0.0
  0
POINT
  5
3E4
330
17
100
AcDbEntity
  8
Defpoints
 62
7
100
AcDbPoint
 10
1296.5
 20
2272.0
 30
0.0
  0
POINT
  5
3E5
330
17
100
AcDbEntity
  8
Defpoints
 62
7
100
AcDbPoint
 10
1605.5
 20
2272.0
 30
0.0
  0
LINE
  5
3E6
330
17
100
AcDbEntity
  8
0
 62
7
100
AcDbLine
 10
1605.5
 20
2277.0
 30
0.0
 11
1605.5
 21
2352.0
 31
0.0
  0
LINE
  5
3E7
330
17
100
AcDbEntity
  8
0
 62
7
100
AcDbLine
 10
1944.0
 20
2277.0
 30
0.0
 11
1944.0
 21
2352.0
 31
0.0
  0
INSERT
  5
3E8
330
17
100
AcDbEntity
  8
0
 62
7
100
AcDbBlockReference
  2
_CLOSEDFILLED
 10
1605.5
 20
2342.0
 30
0.0
 41
20.0
 42
20.0
 50
180.0
  0
INSERT
  5
3EA
330
17
100
AcDbEntity
  8
0
 62
7
100
AcDbBlockReference
  2
_CLOSEDFILLED
 10
1944.0
 20
2342.0
 30
0.0
 41
20.0
 42
20.0
  0
LINE
  5
3EC
330
17
100
AcDbEntity
  8
0
 62
7
100
AcDbLine
 10
1625.5
 20
2342.0
 30
0.0
 11
1724.75
 21
2342.0
 31
0.0
  0
LINE
  5
3ED
330
17
100
AcDbEntity
  8
0
 62
7
100
AcDbLine
 10
1824.75
 20
2342.0
 30
0.0
 11
1924.0
 21
2342.0
 31
0.0
  0
MTEXT
  5
3EE
330
17
100
AcDbEntity
  8
0
 62
7
100
AcDbMText
 10
1774.75
 20
2342.0
 30
0.0
 40
20.0
 71
5
  1
338.5
  0
POINT
  5
3EF
330
17
100
AcDbEntity
  8
Defpoints
 62
7
100
AcDbPoint
 10
1605.5
 20
2342.0
 30
0.0
  0
POINT
  5
3F0
330
17
100
AcDbEntity
  8
Defpoints
 62
7
100
AcDbPoint
 10
1605.5
 20
2272.0
 30
0.0
  0
POINT
  5
3F1
330
17
100
AcDbEntity
  8
Defpoints
 62
7
100
AcDbPoint
 10
1944.0
 20
2272.0
 30
0.0
  0
LINE
  5
3F2
330
17
100
AcDbEntity
  8
0
 62
7
100
AcDbLine
 10
958.0
 20
1481.0
 30
0.0
 11
958.0
 21
1389.0
 31
0.0
  0
LINE
  5
3F3
330
17
100
AcDbEntity
  8
0
 62
7
100
AcDbLine
 10
1400.0
 20
1481.0
 30
0.0
 11
1400.0
 21
1389.0
 31
0.0
  0
INSERT
  5
3F4
330
17
100
AcDbEntity
  8
0
 62
7
100
AcDbBlockReference
  2
_CLOSEDFILLED
 10
958.0
 20
1399.0
 30
0.0
 41
20.0
 42
20.0
 50
180.0
  0
INSERT
  5
3F6
330
17
100
AcDbEntity
  8
0
 62
7
100
AcDbBlockReference
  2
_CLOSEDFILLED
 10
1400.0
 20
1399.0
 30
0.0
 41
20.0
 42
20.0
  0
LINE
  5
3F8
330
17
100
AcDbEntity
  8
0
 62
7
100
AcDbLine
 10
978.0
 20
1399.0
 30
0.0
 11
1149.0
 21
1399.0
 31
0.0
  0
LINE
  5
3F9
330
17
100
AcDbEntity
  8
0
 62
7
100
AcDbLine
 10
1209.0
 20
1399.0
 30
0.0
 11
1380.0
 21
1399.0
 31
0.0
  0
MTEXT
  5
3FA
330
17
100
AcDbEntity
  8
0
 62
7
100
AcDbMText
 10
1179.0
 20
1399.0
 30
0.0
 40
20.0
 71
5
  1
442
  0
POINT
  5
3FB
330
17
100
AcDbEntity
  8
Defpoints
 62
7
100
AcDbPoint
 10
958.0
 20
1399.0
 30
0.0
  0
POINT
  5
3FC
330
17
100
AcDbEntity
  8
Defpoints
 62
7
100
AcDbPoint
 10
958.0
 20
1486.0
 30
0.0
  0
POINT
  5
3FD
330
17
100
AcDbEntity
  8
Defpoints
 62
7
100
AcDbPoint
 10
1400.0
 20
1486.0
 30
0.0
  0
LINE
  5
3FE
330
17
100
AcDbEntity
  8
0
 62
7
100
AcDbLine
 10
1400.0
 20
1481.0
 30
0.0
 11
1400.0
 21
1389.0
 31
0.0
  0
LINE
  5
3FF
330
17
100
AcDbEntity
  8
0
 62
7
100
AcDbLine
 10
1502.0
 20
1481.0
 30
0.0
 11
1502.0
 21
1389.0
 31
0.0
  0
INSERT
  5
400
330
17
100
AcDbEntity
  8
0
 62
7
100
AcDbBlockReference
  2
_CLOSEDFILLED
 10
1400.0
 20
1399.0
 30
0.0
 41
20.0
 42
20.0
 50
180.0
  0
INSERT
  5
402
330
17
100
AcDbEntity
  8
0
 62
7
100
AcDbBlockReference
  2
_CLOSEDFILLED
 10
1502.0
 20
1399.0
 30
0.0
 41
20.0
 42
20.0
  0
LINE
  5
404
330
17
100
AcDbEntity
  8
0
 62
7
100
AcDbLine
 10
1420.0
 20
1399.0
 30
0.0
 11
1421.0
 21
1399.0
 31
0.0
  0
LINE
  5
405
330
17
100
AcDbEntity
  8
0
 62
7
100
AcDbLine
 10
1481.0
 20
1399.0
 30
0.0
 11
1482.0
 21
1399.0
 31
0.0
  0
MTEXT
  5
406
330
17
100
AcDbEntity
  8
0
 62
7
100
AcDbMText
 10
1451.0
 20
1399.0
 30
0.0
 40
20.0
 71
5
  1
102
  0
POINT
  5
407
330
17
100
AcDbEntity
  8
Defpoints
 62
7
100
AcDbPoint
 10
1400.0
 20
1399.0
 30
0.0
  0
POINT
  5
408
330
17
100
AcDbEntity
  8
Defpoints
 62
7
100
AcDbPoint
 10
1400.0
 20
1486.0
 30
0.0
  0
POINT
  5
409
330
17
100
AcDbEntity
  8
Defpoints
 62
7
100
AcDbPoint
 10
1502.0
 20
1486.0
 30
0.0
  0
LINE
  5
40A
330
17
100
AcDbEntity
  8
0
 62
7
100
AcDbLine
 10
1502.0
 20
1481.0
 30
0.0
 11
1502.0
 21
1389.0
 31
0.0
  0
LINE
  5
40B
330
17
100
AcDbEntity
  8
0
 62
7
100
AcDbLine
 10
1944.0
 20
1481.0
 30
0.0
 11
1944.0
 21
1389.0
 31
0.0
  0
INSERT
  5
40C
330
17
100
AcDbEntity
  8
0
 62
7
100
AcDbBlockReference
  2
_CLOSEDFILLED
 10
1502.0
 20
1399.0
 30
0.0
 41
20.0
 42
20.0
 50
180.0
  0
INSERT
  5
40E
330
17
100
AcDbEntity
  8
0
 62
7
100
AcDbBlockReference
  2
_CLOSEDFILLED
 10
1944.0
 20
1399.0
 30
0.0
 41
20.0
 42
20.0
  0
LINE
  5
410
330
17
100
AcDbEntity
  8
0
 62
7
100
AcDbLine
 10
1522.0
 20
1399.0
 30
0.0
 11
1693.0
 21
1399.0
 31
0.0
  0
LINE
  5
411
330
17
100
AcDbEntity
  8
0
 62
7
100
AcDbLine
 10
1753.0
 20
1399.0
 30
0.0
 11
1924.0
 21
1399.0
 31
0.0
  0
MTEXT
  5
412
330
17
100
AcDbEntity
  8
0
 62
7
100
AcDbMText
 10
1723.0
 20
1399.0
 30
0.0
 40
20.0
 71
5
  1
442
  0
POINT
  5
413
330
17
100
AcDbEntity
  8
Defpoints
 62
7
100
AcDbPoint
 10
1502.0
 20
1399.0
 30
0.0
  0
POINT
  5
414
330
17
100
AcDbEntity
  8
Defpoints
 62
7
100
AcDbPoint
 10
1502.0
 20
1486.0
 30
0.0
  0
POINT
  5
415
330
17
100
AcDbEntity
  8
Defpoints
 62
7
100
AcDbPoint
 10
1944.0
 20
1486.0
 30
0.0
  0
ENDSEC
  0
SECTION
  2
OBJECTS
  0
DICTIONARY
  5
A
330
0
100
AcDbDictionary
281
1
  3
ACAD_COLOR
350
B
  3
ACAD_GROUP
350
C
  3
ACAD_LAYOUT
350
D
  3
ACAD_MATERIAL
350
E
  3
ACAD_MLEADERSTYLE
350
F
  3
ACAD_MLINESTYLE
350
10
  3
ACAD_PLOTSETTINGS
350
11
  3
ACAD_PLOTSTYLENAME
350
12
  3
ACAD_SCALELIST
350
14
  3
ACAD_TABLESTYLE
350
15
  3
ACAD_VISUALSTYLE
350
16
  3
EZDXF_META
350
2D
  0
DICTIONARY
  5
B
330
A
100
AcDbDictionary
281
1
  0
DICTIONARY
  5
C
330
A
100
AcDbDictionary
281
1
  0
DICTIONARY
  5
D
330
A
100
AcDbDictionary
281
1
  3
Model
350
1A
  3
Layout1
350
1E
  0
DICTIONARY
  5
E
330
A
100
AcDbDictionary
281
1
  3
ByBlock
350
1F
  3
ByLayer
350
20
  3
Global
350
21
  0
DICTIONARY
  5
F
330
A
100
AcDbDictionary
281
1
  3
Standard
350
2C
  0
DICTIONARY
  5
10
330
A
100
AcDbDictionary
281
1
  3
Standard
350
22
  0
DICTIONARY
  5
11
330
A
100
AcDbDictionary
281
1
  0
ACDBDICTIONARYWDFLT
  5
12
330
A
100
AcDbDictionary
281
1
  3
Normal
350
13
100
AcDbDictionaryWithDefault
340
13
  0
ACDBPLACEHOLDER
  5
13
330
12
  0
DICTIONARY
  5
14
330
A
100
AcDbDictionary
281
1
  0
DICTIONARY
  5
15
330
A
100
AcDbDictionary
281
1
  0
DICTIONARY
  5
16
330
A
100
AcDbDictionary
281
1
  0
LAYOUT
  5
1A
330
D
100
AcDbPlotSettings
  1

  4
A3
  6

 40
7.5
 41
20.0
 42
7.5
 43
20.0
 44
420.0
 45
297.0
 46
0.0
 47
0.0
 48
0.0
 49
0.0
140
0.0
141
0.0
142
1.0
143
1.0
 70
1024
 72
1
 73
0
 74
5
  7

 75
16
 76
0
 77
2
 78
300
147
1.0
148
0.0
149
0.0
100
AcDbLayout
  1
Model
 70
1
 71
0
 10
0.0
 20
0.0
 11
420.0
 21
297.0
 12
0.0
 22
0.0
 32
0.0
 14
1e+20
 24
1e+20
 34
1e+20
 15
-1e+20
 25
-1e+20
 35
-1e+20
146
0.0
 13
0.0
 23
0.0
 33
0.0
 16
1.0
 26
0.0
 36
0.0
 17
0.0
 27
1.0
 37
0.0
 76
1
330
17
  0
LAYOUT
  5
1E
330
D
100
AcDbPlotSettings
  1

  4
A3
  6

 40
7.5
 41
20.0
 42
7.5
 43
20.0
 44
420.0
 45
297.0
 46
0.0
 47
0.0
 48
0.0
 49
0.0
140
0.0
141
0.0
142
1.0
143
1.0
 70
0
 72
1
 73
0
 74
5
  7

 75
16
 76
0
 77
2
 78
300
147
1.0
148
0.0
149
0.0
100
AcDbLayout
  1
Layout1
 70
1
 71
1
 10
0.0
 20
0.0
 11
420.0
 21
297.0
 12
0.0
 22
0.0
 32
0.0
 14
1e+20
 24
1e+20
 34
1e+20
 15
-1e+20
 25
-1e+20
 35
-1e+20
146
0.0
 13
0.0
 23
0.0
 33
0.0
 16
1.0
 26
0.0
 36
0.0
 17
0.0
 27
1.0
 37
0.0
 76
1
330
1B
  0
MATERIAL
  5
1F
102
{ACAD_REACTORS
330
E
102
}
330
E
100
AcDbMaterial
  1
ByBlock
  2

 70
0
 40
1.0
 71
1
 41
1.0
 91
-1023410177
 42
1.0
 72
1
  3

 73
1
 74
1
 75
1
 44
0.5
 73
0
 45
1.0
 46
1.0
 77
1
  4

 78
1
 79
1
170
1
 48
1.0
171
1
  6

172
1
173
1
174
1
140
1.0
141
1.0
175
1
  7

176
1
177
1
178
1
143
1.0
179
1
  8

270
1
271
1
272
1
145
1.0
146
1.0
273
1
  9

274
1
275
1
276
1
 42
1.0
 72
1
  3

 73
1
 74
1
 75
1
 94
63
  0
MATERIAL
  5
20
102
{ACAD_REACTORS
330
E
102
}
330
E
100
AcDbMaterial
  1
ByLayer
  2

 70
0
 40
1.0
 71
1
 41
1.0
 91
-1023410177
 42
1.0
 72
1
  3

 73
1
 74
1
 75
1
 44
0.5
 73
0
 45
1.0
 46
1.0
 77
1
  4

 78
1
 79
1
170
1
 48
1.0
171
1
  6

172
1
173
1
174
1
140
1.0
141
1.0
175
1
  7

176
1
177
1
178
1
143
1.0
179
1
  8

270
1
271
1
272
1
145
1.0
146
1.0
273
1
  9

274
1
275
1
276
1
 42
1.0
 72
1
  3

 73
1
 74
1
 75
1
 94
63
  0
MATERIAL
  5
21
102
{ACAD_REACTORS
330
E
102
}
330
E
100
AcDbMaterial
  1
Global
  2

 70
0
 40
1.0
 71
1
 41
1.0
 91
-1023410177
 42
1.0
 72
1
  3

 73
1
 74
1
 75
1
 44
0.5
 73
0
 45
1.0
 46
1.0
 77
1
  4

 78
1
 79
1
170
1
 48
1.0
171
1
  6

172
1
173
1
174
1
140
1.0
141
1.0
175
1
  7

176
1
177
1
178
1
143
1.0
179
1
  8

270
1
271
1
272
1
145
1.0
146
1.0
273
1
  9

274
1
275
1
276
1
 42
1.0
 72
1
  3

 73
1
 74
1
 75
1
 94
63
  0
MLINESTYLE
  5
22
102
{ACAD_REACTORS
330
10
102
}
330
10
100
AcDbMlineStyle
  2
Standard
 70
0
  3

 62
256
 51
90.0
 52
90.0
 71
2
 49
0.5
 62
256
  6
BYLAYER
 49
-0.5
 62
256
  6
BYLAYER
  0
MLEADERSTYLE
  5
2C
102
{ACAD_REACTORS
330
F
102
}
330
F
100
AcDbMLeaderStyle
179
2
170
2
171
1
172
0
 90
2
 40
0.0
 41
0.0
173
1
 91
-1056964608
 92
-2
290
1
 42
2.0
291
1
 43
8.0
  3
Standard
 44
4.0
300

342
29
174
1
175
1
176
0
178
1
 93
-1056964608
 45
4.0
292
0
297
0
 46
4.0
 94
-1056964608
 47
1.0
 49
1.0
140
1.0
294
1
141
0.0
177
0
142
1.0
295
0
296
0
143
3.75
271
0
272
9
273
9
  0
DICTIONARY
  5
2D
330
A
100
AcDbDictionary
280
1
281
1
  3
CREATED_BY_EZDXF
350
2E
  3
WRITTEN_BY_EZDXF
350
418
  0
DICTIONARYVAR
  5
2E
330
2D
100
DictionaryVariables
280
0
  1
1.4.4 @ 2026-05-20T08:53:41.493956+00:00
  0
DICTIONARYVAR
  5
418
330
2D
100
DictionaryVariables
280
0
  1
1.4.4 @ 2026-05-20T08:53:41.550459+00:00
  0
ENDSEC
  0
EOF
