  0
SECTION
  2
HEADER
  9
$ACADVER
  1
AC1027
  9
$ACADMAINTVER
 70
105
  9
$DWGCODEPAGE
  3
ANSI_1252
  9
$LASTSAVEDBY
  1
ezdxf
  9
$REQUIREDVERSIONS
160
0
  9
$INSBASE
 10
0.0
 20
0.0
 30
0.0
  9
$EXTMIN
 10
1e+20
 20
1e+20
 30
1e+20
  9
$EXTMAX
 10
-1e+20
 20
-1e+20
 30
-1e+20
  9
$LIMMIN
 10
0.0
 20
0.0
  9
$LIMMAX
 10
420.0
 20
297.0
  9
$ORTHOMODE
 70
0
  9
$REGENMODE
 70
1
  9
$FILLMODE
 70
1
  9
$QTEXTMODE
 70
0
  9
$MIRRTEXT
 70
1
  9
$LTSCALE
 40
1.0
  9
$ATTMODE
 70
1
  9
$TEXTSIZE
 40
2.5
  9
$TRACEWID
 40
1.0
  9
$TEXTSTYLE
  7
Standard
  9
$CLAYER
  8
0
  9
$CELTYPE
  6
ByLayer
  9
$CECOLOR
 62
256
  9
$CELTSCALE
 40
1.0
  9
$DISPSILH
 70
0
  9
$DIMSCALE
 40
1.0
  9
$DIMASZ
 40
2.5
  9
$DIMEXO
 40
0.625
  9
$DIMDLI
 40
3.75
  9
$DIMRND
 40
0.0
  9
$DIMDLE
 40
0.0
  9
$DIMEXE
 40
1.25
  9
$DIMTP
 40
0.0
  9
$DIMTM
 40
0.0
  9
$DIMTXT
 40
2.5
  9
$DIMCEN
 40
2.5
  9
$DIMTSZ
 40
0.0
  9
$DIMTOL
 70
0
  9
$DIMLIM
 70
0
  9
$DIMTIH
 70
0
  9
$DIMTOH
 70
0
  9
$DIMSE1
 70
0
  9
$DIMSE2
 70
0
  9
$DIMTAD
 70
1
  9
$DIMZIN
 70
8
  9
$DIMBLK
  1

  9
$DIMASO
 70
1
  9
$DIMSHO
 70
1
  9
$DIMPOST
  1

  9
$DIMAPOST
  1

  9
$DIMALT
 70
0
  9
$DIMALTD
 70
3
  9
$DIMALTF
 40
0.03937007874
  9
$DIMLFAC
 40
1.0
  9
$DIMTOFL
 70
1
  9
$DIMTVP
 40
0.0
  9
$DIMTIX
 70
0
  9
$DIMSOXD
 70
0
  9
$DIMSAH
 70
0
  9
$DIMBLK1
  1

  9
$DIMBLK2
  1

  9
$DIMSTYLE
  2
ISO-25
  9
$DIMCLRD
 70
0
  9
$DIMCLRE
 70
0
  9
$DIMCLRT
 70
0
  9
$DIMTFAC
 40
1.0
  9
$DIMGAP
 40
0.625
  9
$DIMJUST
 70
0
  9
$DIMSD1
 70
0
  9
$DIMSD2
 70
0
  9
$DIMTOLJ
 70
0
  9
$DIMTZIN
 70
8
  9
$DIMALTZ
 70
0
  9
$DIMALTTZ
 70
0
  9
$DIMUPT
 70
0
  9
$DIMDEC
 70
2
  9
$DIMTDEC
 70
2
  9
$DIMALTU
 70
2
  9
$DIMALTTD
 70
3
  9
$DIMTXSTY
  7
Standard
  9
$DIMAUNIT
 70
0
  9
$DIMADEC
 70
0
  9
$DIMALTRND
 40
0.0
  9
$DIMAZIN
 70
0
  9
$DIMDSEP
 70
44
  9
$DIMATFIT
 70
3
  9
$DIMFRAC
 70
0
  9
$DIMLDRBLK
  1

  9
$DIMLUNIT
 70
2
  9
$DIMLWD
 70
-2
  9
$DIMLWE
 70
-2
  9
$DIMTMOVE
 70
0
  9
$DIMFXL
 40
1.0
  9
$DIMFXLON
 70
0
  9
$DIMJOGANG
 40
0.785398163397
  9
$DIMTFILL
 70
0
  9
$DIMTFILLCLR
 70
0
  9
$DIMARCSYM
 70
0
  9
$DIMLTYPE
  6

  9
$DIMLTEX1
  6

  9
$DIMLTEX2
  6

  9
$DIMTXTDIRECTION
 70
0
  9
$LUNITS
 70
2
  9
$LUPREC
 70
4
  9
$SKETCHINC
 40
1.0
  9
$FILLETRAD
 40
10.0
  9
$AUNITS
 70
0
  9
$AUPREC
 70
2
  9
$MENU
  1
.
  9
$ELEVATION
 40
0.0
  9
$PELEVATION
 40
0.0
  9
$THICKNESS
 40
0.0
  9
$LIMCHECK
 70
0
  9
$CHAMFERA
 40
0.0
  9
$CHAMFERB
 40
0.0
  9
$CHAMFERC
 40
0.0
  9
$CHAMFERD
 40
0.0
  9
$SKPOLY
 70
0
  9
$TDCREATE
 40
2461181.7039930555
  9
$TDUCREATE
 40
2458532.153996898
  9
$TDUPDATE
 40
2461181.7039930555
  9
$TDUUPDATE
 40
2458532.1544311
  9
$TDINDWG
 40
0.0
  9
$TDUSRTIMER
 40
0.0
  9
$USRTIMER
 70
1
  9
$ANGBASE
 50
0.0
  9
$ANGDIR
 70
0
  9
$PDMODE
 70
0
  9
$PDSIZE
 40
0.0
  9
$PLINEWID
 40
0.0
  9
$SPLFRAME
 70
0
  9
$SPLINETYPE
 70
6
  9
$SPLINESEGS
 70
8
  9
$HANDSEED
  5
361
  9
$SURFTAB1
 70
6
  9
$SURFTAB2
 70
6
  9
$SURFTYPE
 70
6
  9
$SURFU
 70
6
  9
$SURFV
 70
6
  9
$UCSBASE
  2

  9
$UCSNAME
  2

  9
$UCSORG
 10
0.0
 20
0.0
 30
0.0
  9
$UCSXDIR
 10
1.0
 20
0.0
 30
0.0
  9
$UCSYDIR
 10
0.0
 20
1.0
 30
0.0
  9
$UCSORTHOREF
  2

  9
$UCSORTHOVIEW
 70
0
  9
$UCSORGTOP
 10
0.0
 20
0.0
 30
0.0
  9
$UCSORGBOTTOM
 10
0.0
 20
0.0
 30
0.0
  9
$UCSORGLEFT
 10
0.0
 20
0.0
 30
0.0
  9
$UCSORGRIGHT
 10
0.0
 20
0.0
 30
0.0
  9
$UCSORGFRONT
 10
0.0
 20
0.0
 30
0.0
  9
$UCSORGBACK
 10
0.0
 20
0.0
 30
0.0
  9
$PUCSBASE
  2

  9
$PUCSNAME
  2

  9
$PUCSORG
 10
0.0
 20
0.0
 30
0.0
  9
$PUCSXDIR
 10
1.0
 20
0.0
 30
0.0
  9
$PUCSYDIR
 10
0.0
 20
1.0
 30
0.0
  9
$PUCSORTHOREF
  2

  9
$PUCSORTHOVIEW
 70
0
  9
$PUCSORGTOP
 10
0.0
 20
0.0
 30
0.0
  9
$PUCSORGBOTTOM
 10
0.0
 20
0.0
 30
0.0
  9
$PUCSORGLEFT
 10
0.0
 20
0.0
 30
0.0
  9
$PUCSORGRIGHT
 10
0.0
 20
0.0
 30
0.0
  9
$PUCSORGFRONT
 10
0.0
 20
0.0
 30
0.0
  9
$PUCSORGBACK
 10
0.0
 20
0.0
 30
0.0
  9
$USERI1
 70
0
  9
$USERI2
 70
0
  9
$USERI3
 70
0
  9
$USERI4
 70
0
  9
$USERI5
 70
0
  9
$USERR1
 40
0.0
  9
$USERR2
 40
0.0
  9
$USERR3
 40
0.0
  9
$USERR4
 40
0.0
  9
$USERR5
 40
0.0
  9
$WORLDVIEW
 70
1
  9
$SHADEDGE
 70
3
  9
$SHADEDIF
 70
70
  9
$TILEMODE
 70
1
  9
$MAXACTVP
 70
64
  9
$PINSBASE
 10
0.0
 20
0.0
 30
0.0
  9
$PLIMCHECK
 70
0
  9
$PEXTMIN
 10
1e+20
 20
1e+20
 30
1e+20
  9
$PEXTMAX
 10
-1e+20
 20
-1e+20
 30
-1e+20
  9
$PLIMMIN
 10
0.0
 20
0.0
  9
$PLIMMAX
 10
420.0
 20
297.0
  9
$UNITMODE
 70
0
  9
$VISRETAIN
 70
1
  9
$PLINEGEN
 70
0
  9
$PSLTSCALE
 70
1
  9
$TREEDEPTH
 70
3020
  9
$CMLSTYLE
  2
Standard
  9
$CMLJUST
 70
0
  9
$CMLSCALE
 40
20.0
  9
$PROXYGRAPHICS
 70
1
  9
$MEASUREMENT
 70
1
  9
$CELWEIGHT
370
-1
  9
$ENDCAPS
280
0
  9
$JOINSTYLE
280
0
  9
$LWDISPLAY
290
0
  9
$INSUNITS
 70
6
  9
$HYPERLINKBASE
  1

  9
$STYLESHEET
  1

  9
$XEDIT
290
1
  9
$CEPSNTYPE
380
0
  9
$PSTYLEMODE
290
1
  9
$FINGERPRINTGUID
  2
{778AAE80-6A82-4839-9B30-C8A4A5159218}
  9
$VERSIONGUID
  2
{856FAC78-DBDD-48FC-AD79-6D266DF5D2BF}
  9
$EXTNAMES
290
1
  9
$PSVPSCALE
 40
0.0
  9
$OLESTARTUP
290
0
  9
$SORTENTS
280
127
  9
$INDEXCTL
280
0
  9
$HIDETEXT
280
1
  9
$XCLIPFRAME
280
1
  9
$HALOGAP
280
0
  9
$OBSCOLOR
 70
257
  9
$OBSLTYPE
280
0
  9
$INTERSECTIONDISPLAY
280
0
  9
$INTERSECTIONCOLOR
 70
257
  9
$DIMASSOC
280
2
  9
$PROJECTNAME
  1

  9
$CAMERADISPLAY
290
0
  9
$LENSLENGTH
 40
50.0
  9
$CAMERAHEIGHT
 40
0.0
  9
$STEPSPERSEC
 40
24.0
  9
$STEPSIZE
 40
100.0
  9
$3DDWFPREC
 40
2.0
  9
$PSOLWIDTH
 40
0.005
  9
$PSOLHEIGHT
 40
0.08
  9
$LOFTANG1
 40
1.570796326795
  9
$LOFTANG2
 40
1.570796326795
  9
$LOFTMAG1
 40
0.0
  9
$LOFTMAG2
 40
0.0
  9
$LOFTPARAM
 70
7
  9
$LOFTNORMALS
280
1
  9
$LATITUDE
 40
37.795
  9
$LONGITUDE
 40
-122.394
  9
$NORTHDIRECTION
 40
0.0
  9
$TIMEZONE
 70
-8000
  9
$LIGHTGLYPHDISPLAY
280
1
  9
$TILEMODELIGHTSYNCH
280
1
  9
$CMATERIAL
347
20
  9
$SOLIDHIST
280
0
  9
$SHOWHIST
280
1
  9
$DWFFRAME
280
2
  9
$DGNFRAME
280
2
  9
$REALWORLDSCALE
290
1
  9
$INTERFERECOLOR
 62
256
  9
$CSHADOW
280
0
  9
$SHADOWPLANELOCATION
 40
0.0
  0
ENDSEC
  0
SECTION
  2
CLASSES
  0
CLASS
  1
ACDBDICTIONARYWDFLT
  2
AcDbDictionaryWithDefault
  3
ObjectDBX Classes
 90
0
 91
0
280
0
281
0
  0
CLASS
  1
SUN
  2
AcDbSun
  3
SCENEOE
 90
1153
 91
0
280
0
281
0
  0
CLASS
  1
VISUALSTYLE
  2
AcDbVisualStyle
  3
ObjectDBX Classes
 90
4095
 91
0
280
0
281
0
  0
CLASS
  1
MATERIAL
  2
AcDbMaterial
  3
ObjectDBX Classes
 90
1153
 91
0
280
0
281
0
  0
CLASS
  1
SCALE
  2
AcDbScale
  3
ObjectDBX Classes
 90
1153
 91
0
280
0
281
0
  0
CLASS
  1
TABLESTYLE
  2
AcDbTableStyle
  3
ObjectDBX Classes
 90
4095
 91
0
280
0
281
0
  0
CLASS
  1
MLEADERSTYLE
  2
AcDbMLeaderStyle
  3
ACDB_MLEADERSTYLE_CLASS
 90
4095
 91
0
280
0
281
0
  0
CLASS
  1
DICTIONARYVAR
  2
AcDbDictionaryVar
  3
ObjectDBX Classes
 90
0
 91
0
280
0
281
0
  0
CLASS
  1
CELLSTYLEMAP
  2
AcDbCellStyleMap
  3
ObjectDBX Classes
 90
1152
 91
0
280
0
281
0
  0
CLASS
  1
MENTALRAYRENDERSETTINGS
  2
AcDbMentalRayRenderSettings
  3
SCENEOE
 90
1024
 91
0
280
0
281
0
  0
CLASS
  1
ACDBDETAILVIEWSTYLE
  2
AcDbDetailViewStyle
  3
ObjectDBX Classes
 90
1025
 91
0
280
0
281
0
  0
CLASS
  1
ACDBSECTIONVIEWSTYLE
  2
AcDbSectionViewStyle
  3
ObjectDBX Classes
 90
1025
 91
0
280
0
281
0
  0
CLASS
  1
RASTERVARIABLES
  2
AcDbRasterVariables
  3
ISM
 90
0
 91
0
280
0
281
0
  0
CLASS
  1
LAYOUT
  2
AcDbLayout
  3
ObjectDBX Classes
 90
0
 91
0
280
0
281
0
  0
CLASS
  1
ACDBPLACEHOLDER
  2
AcDbPlaceHolder
  3
ObjectDBX Classes
 90
0
 91
0
280
0
281
0
  0
ENDSEC
  0
SECTION
  2
TABLES
  0
TABLE
  2
VPORT
  5
8
330
0
100
AcDbSymbolTable
 70
1
  0
VPORT
  5
23
330
8
100
AcDbSymbolTableRecord
100
AcDbViewportTableRecord
  2
*Active
 70
0
 10
0.0
 20
0.0
 11
1.0
 21
1.0
 12
0.0
 22
0.0
 13
0.0
 23
0.0
 14
0.5
 24
0.5
 15
0.5
 25
0.5
 16
0.0
 26
0.0
 36
1.0
 17
0.0
 27
0.0
 37
0.0
 40
1000.0
 41
1.34
 42
50.0
 43
0.0
 44
0.0
 50
0.0
 51
0.0
 71
0
 72
1000
 73
1
 74
3
 75
0
 76
0
 77
0
 78
0
281
0
 65
0
146
0.0
  0
ENDTAB
  0
TABLE
  2
LTYPE
  5
2
330
0
100
AcDbSymbolTable
 70
3
  0
LTYPE
  5
24
330
2
100
AcDbSymbolTableRecord
100
AcDbLinetypeTableRecord
  2
ByBlock
 70
0
  3

 72
65
 73
0
 40
0.0
  0
LTYPE
  5
25
330
2
100
AcDbSymbolTableRecord
100
AcDbLinetypeTableRecord
  2
ByLayer
 70
0
  3

 72
65
 73
0
 40
0.0
  0
LTYPE
  5
26
330
2
100
AcDbSymbolTableRecord
100
AcDbLinetypeTableRecord
  2
Continuous
 70
0
  3

 72
65
 73
0
 40
0.0
  0
ENDTAB
  0
TABLE
  2
LAYER
  5
1
330
0
100
AcDbSymbolTable
 70
5
  0
LAYER
  5
27
330
1
100
AcDbSymbolTableRecord
100
AcDbLayerTableRecord
  2
0
 70
0
 62
7
  6
Continuous
370
-3
390
13
347
21
  0
LAYER
  5
28
330
1
100
AcDbSymbolTableRecord
100
AcDbLayerTableRecord
  2
Defpoints
 70
0
 62
7
  6
Continuous
290
0
370
-3
390
13
347
21
  0
LAYER
  5
2F
330
1
100
AcDbSymbolTableRecord
100
AcDbLayerTableRecord
  2
chengtai
 70
0
 62
7
  6
Continuous
370
-3
390
13
347
21
  0
LAYER
  5
30
330
1
100
AcDbSymbolTableRecord
100
AcDbLayerTableRecord
  2
dunzhu
 70
0
 62
7
  6
Continuous
370
-3
390
13
347
21
  0
LAYER
  5
31
330
1
100
AcDbSymbolTableRecord
100
AcDbLayerTableRecord
  2
zhuangji
 70
0
 62
7
  6
Continuous
370
-3
390
13
347
21
  0
ENDTAB
  0
TABLE
  2
STYLE
  5
5
330
0
100
AcDbSymbolTable
 70
1
  0
STYLE
  5
29
330
5
100
AcDbSymbolTableRecord
100
AcDbTextStyleTableRecord
  2
Standard
 70
0
 40
0.0
 41
1.0
 50
0.0
 71
0
 42
2.5
  3
txt
  4

  0
ENDTAB
  0
TABLE
  2
VIEW
  5
7
330
0
100
AcDbSymbolTable
 70
0
  0
ENDTAB
  0
TABLE
  2
UCS
  5
6
330
0
100
AcDbSymbolTable
 70
0
  0
ENDTAB
  0
TABLE
  2
APPID
  5
3
330
0
100
AcDbSymbolTable
 70
3
  0
APPID
  5
2A
330
3
100
AcDbSymbolTableRecord
100
AcDbRegAppTableRecord
  2
ACAD
 70
0
  0
APPID
  5
35E
330
3
100
AcDbSymbolTableRecord
100
AcDbRegAppTableRecord
  2
HATCHBACKGROUNDCOLOR
 70
0
  0
APPID
  5
35F
330
3
100
AcDbSymbolTableRecord
100
AcDbRegAppTableRecord
  2
EZDXF
 70
0
  0
ENDTAB
  0
TABLE
  2
DIMSTYLE
  5
4
330
0
100
AcDbSymbolTable
 70
1
100
AcDbDimStyleTable
  0
DIMSTYLE
105
2B
330
4
100
AcDbSymbolTableRecord
100
AcDbDimStyleTableRecord
  2
Standard
 70
0
 40
8.0
 41
2.5
 42
0.625
 43
3.75
 44
1.25
 45
0.0
 46
0.0
 47
0.0
 48
0.0
 49
2.5
140
2.5
141
2.5
142
0.0
143
0.03937007874
144
1.0
145
0.0
146
1.0
147
0.625
148
0.0
 69
0
 70
0
 71
0
 72
0
 73
0
 74
0
 75
0
 76
0
 77
0
 78
8
 79
3
170
0
171
3
172
1
173
0
174
0
175
0
176
7
177
7
178
7
179
2
271
1
272
2
273
2
274
3
275
0
276
0
277
2
278
46
279
0
280
0
281
0
282
0
283
0
284
8
285
0
286
0
288
0
289
3
290
0
371
-2
372
-2
  0
ENDTAB
  0
TABLE
  2
BLOCK_RECORD
  5
9
330
0
100
AcDbSymbolTable
 70
32
  0
BLOCK_RECORD
  5
17
330
9
100
AcDbSymbolTableRecord
100
AcDbBlockTableRecord
  2
*Model_Space
340
1A
 70
0
280
1
281
0
  0
BLOCK_RECORD
  5
1B
330
9
100
AcDbSymbolTableRecord
100
AcDbBlockTableRecord
  2
*Paper_Space
340
1E
 70
0
280
1
281
0
  0
BLOCK_RECORD
  5
47
330
9
100
AcDbSymbolTableRecord
100
AcDbBlockTableRecord
  2
*D1
340
0
 70
0
280
1
281
0
  0
BLOCK_RECORD
  5
4A
330
9
100
AcDbSymbolTableRecord
100
AcDbBlockTableRecord
  2
_CLOSEDFILLED
340
0
 70
0
280
1
281
0
  0
BLOCK_RECORD
  5
56
330
9
100
AcDbSymbolTableRecord
100
AcDbBlockTableRecord
  2
*D2
340
0
 70
0
280
1
281
0
  0
BLOCK_RECORD
  5
63
330
9
100
AcDbSymbolTableRecord
100
AcDbBlockTableRecord
  2
*D3
340
0
 70
0
280
1
281
0
  0
BLOCK_RECORD
  5
70
330
9
100
AcDbSymbolTableRecord
100
AcDbBlockTableRecord
  2
*D4
340
0
 70
0
280
1
281
0
  0
BLOCK_RECORD
  5
80
330
9
100
AcDbSymbolTableRecord
100
AcDbBlockTableRecord
  2
*D5
340
0
 70
0
280
1
281
0
  0
BLOCK_RECORD
  5
90
330
9
100
AcDbSymbolTableRecord
100
AcDbBlockTableRecord
  2
*D6
340
0
 70
0
280
1
281
0
  0
BLOCK_RECORD
  5
A0
330
9
100
AcDbSymbolTableRecord
100
AcDbBlockTableRecord
  2
*D7
340
0
 70
0
280
1
281
0
  0
BLOCK_RECORD
  5
B0
330
9
100
AcDbSymbolTableRecord
100
AcDbBlockTableRecord
  2
*D8
340
0
 70
0
280
1
281
0
  0
BLOCK_RECORD
  5
C0
330
9
100
AcDbSymbolTableRecord
100
AcDbBlockTableRecord
  2
*D9
340
0
 70
0
280
1
281
0
  0
BLOCK_RECORD
  5
D0
330
9
100
AcDbSymbolTableRecord
100
AcDbBlockTableRecord
  2
*D10
340
0
 70
0
280
1
281
0
  0
BLOCK_RECORD
  5
E0
330
9
100
AcDbSymbolTableRecord
100
AcDbBlockTableRecord
  2
*D11
340
0
 70
0
280
1
281
0
  0
BLOCK_RECORD
  5
F0
330
9
100
AcDbSymbolTableRecord
100
AcDbBlockTableRecord
  2
*D12
340
0
 70
0
280
1
281
0
  0
BLOCK_RECORD
  5
100
330
9
100
AcDbSymbolTableRecord
100
AcDbBlockTableRecord
  2
*D13
340
0
 70
0
280
1
281
0
  0
BLOCK_RECORD
  5
110
330
9
100
AcDbSymbolTableRecord
100
AcDbBlockTableRecord
  2
*D14
340
0
 70
0
280
1
281
0
  0
BLOCK_RECORD
  5
120
330
9
100
AcDbSymbolTableRecord
100
AcDbBlockTableRecord
  2
*D15
340
0
 70
0
280
1
281
0
  0
BLOCK_RECORD
  5
130
330
9
100
AcDbSymbolTableRecord
100
AcDbBlockTableRecord
  2
*D16
340
0
 70
0
280
1
281
0
  0
BLOCK_RECORD
  5
140
330
9
100
AcDbSymbolTableRecord
100
AcDbBlockTableRecord
  2
*D17
340
0
 70
0
280
1
281
0
  0
BLOCK_RECORD
  5
150
330
9
100
AcDbSymbolTableRecord
100
AcDbBlockTableRecord
  2
*D18
340
0
 70
0
280
1
281
0
  0
BLOCK_RECORD
  5
160
330
9
100
AcDbSymbolTableRecord
100
AcDbBlockTableRecord
  2
*D19
340
0
 70
0
280
1
281
0
  0
BLOCK_RECORD
  5
170
330
9
100
AcDbSymbolTableRecord
100
AcDbBlockTableRecord
  2
*D20
340
0
 70
0
280
1
281
0
  0
BLOCK_RECORD
  5
180
330
9
100
AcDbSymbolTableRecord
100
AcDbBlockTableRecord
  2
*D21
340
0
 70
0
280
1
281
0
  0
BLOCK_RECORD
  5
190
330
9
100
AcDbSymbolTableRecord
100
AcDbBlockTableRecord
  2
*D22
340
0
 70
0
280
1
281
0
  0
BLOCK_RECORD
  5
1A0
330
9
100
AcDbSymbolTableRecord
100
AcDbBlockTableRecord
  2
*D23
340
0
 70
0
280
1
281
0
  0
BLOCK_RECORD
  5
1B0
330
9
100
AcDbSymbolTableRecord
100
AcDbBlockTableRecord
  2
*D24
340
0
 70
0
280
1
281
0
  0
BLOCK_RECORD
  5
1C0
330
9
100
AcDbSymbolTableRecord
100
AcDbBlockTableRecord
  2
*D25
340
0
 70
0
280
1
281
0
  0
BLOCK_RECORD
  5
1D0
330
9
100
AcDbSymbolTableRecord
100
AcDbBlockTableRecord
  2
*D26
340
0
 70
0
280
1
281
0
  0
BLOCK_RECORD
  5
1E0
330
9
100
AcDbSymbolTableRecord
100
AcDbBlockTableRecord
  2
*D27
340
0
 70
0
280
1
281
0
  0
BLOCK_RECORD
  5
1EF
330
9
100
AcDbSymbolTableRecord
100
AcDbBlockTableRecord
  2
*D28
340
0
 70
0
280
1
281
0
  0
BLOCK_RECORD
  5
1FF
330
9
100
AcDbSymbolTableRecord
100
AcDbBlockTableRecord
  2
*D29
340
0
 70
0
280
1
281
0
  0
ENDTAB
  0
ENDSEC
  0
SECTION
  2
BLOCKS
  0
BLOCK
  5
18
330
17
100
AcDbEntity
  8
0
100
AcDbBlockBegin
  2
*Model_Space
 70
0
 10
0.0
 20
0.0
 30
0.0
  3
*Model_Space
  1

  0
ENDBLK
  5
19
330
17
100
AcDbEntity
  8
0
100
AcDbBlockEnd
  0
BLOCK
  5
1C
330
1B
100
AcDbEntity
  8
0
100
AcDbBlockBegin
  2
*Paper_Space
 70
0
 10
0.0
 20
0.0
 30
0.0
  3
*Paper_Space
  1

  0
ENDBLK
  5
1D
330
1B
100
AcDbEntity
  8
0
100
AcDbBlockEnd
  0
BLOCK
  5
48
330
47
100
AcDbEntity
  8
0
100
AcDbBlockBegin
  2
*D1
 70
1
 10
0.0
 20
0.0
 30
0.0
  3
*D1
  1

  0
INSERT
  5
4E
330
47
100
AcDbEntity
  8
0
 62
7
100
AcDbBlockReference
  2
_CLOSEDFILLED
 10
530.1066017177982
 20
347.39339828220176
 30
0.0
 41
20.0
 42
20.0
 50
134.99999999999986
  0
LINE
  5
50
330
47
100
AcDbEntity
  8
0
 62
7
100
AcDbLine
 10
519.5
 20
358.0
 30
0.0
 11
530.1066017177982
 21
347.39339828220176
 31
0.0
  0
LINE
  5
51
330
47
100
AcDbEntity
  8
0
 62
7
100
AcDbLine
 10
547.7842712474618
 20
329.71572875253804
 30
0.0
 11
544.2487373415291
 21
333.25126265847075
 31
0.0
  0
MTEXT
  5
52
330
47
100
AcDbEntity
  8
0
 62
7
100
AcDbMText
 10
568.9974746830582
 20
308.50252531694156
 30
0.0
 40
20.0
 71
5
  1
R15
 50
314.99999999999983
  0
POINT
  5
53
330
47
100
AcDbEntity
  8
Defpoints
100
AcDbPoint
 10
519.5
 20
358.0
 30
0.0
  0
POINT
  5
54
330
47
100
AcDbEntity
  8
Defpoints
100
AcDbPoint
 10
530.1066017177982
 20
347.39339828220176
 30
0.0
  0
ENDBLK
  5
49
330
47
100
AcDbEntity
  8
0
100
AcDbBlockEnd
  0
BLOCK
  5
4B
330
4A
100
AcDbEntity
  8
0
100
AcDbBlockBegin
  2
_CLOSEDFILLED
 70
0
 10
0.0
 20
0.0
 30
0.0
  3
_CLOSEDFILLED
  1

  0
SOLID
  5
4D
330
4A
100
AcDbEntity
  8
0
  6
BYBLOCK
 62
0
100
AcDbTrace
 10
-1.0
 20
0.16439898372402537
 30
0.0
 11
0.0
 21
0.0
 31
0.0
 12
-1.0
 22
-0.16439898372402537
 32
0.0
 13
-1.0
 23
-0.16439898372402537
 33
0.0
  0
ENDBLK
  5
4C
330
4A
100
AcDbEntity
  8
0
100
AcDbBlockEnd
  0
BLOCK
  5
57
330
56
100
AcDbEntity
  8
0
100
AcDbBlockBegin
  2
*D2
 70
1
 10
0.0
 20
0.0
 30
0.0
  3
*D2
  1

  0
INSERT
  5
59
330
56
100
AcDbEntity
  8
0
 62
7
100
AcDbBlockReference
  2
_CLOSEDFILLED
 10
492.18986283848346
 20
235.81013716151654
 30
0.0
 41
20.0
 42
20.0
 50
135.0
  0
INSERT
  5
5B
330
56
100
AcDbEntity
  8
0
 62
7
100
AcDbBlockReference
  2
_CLOSEDFILLED
 10
374.81013716151654
 20
353.18986283848346
 30
0.0
 41
20.0
 42
20.0
 50
135.0
  0
LINE
  5
5D
330
56
100
AcDbEntity
  8
0
 62
7
100
AcDbLine
 10
506.3319984622144
 20
221.66800153778559
 30
0.0
 11
388.9522727852475
 21
339.0477272147525
 31
0.0
  0
LINE
  5
5E
330
56
100
AcDbEntity
  8
0
 62
7
100
AcDbLine
 10
509.8675323681472
 20
218.13246763185282
 30
0.0
 11
506.3319984622144
 21
221.66800153778559
 31
0.0
  0
MTEXT
  5
5F
330
56
100
AcDbEntity
  8
0
 62
7
100
AcDbMText
 10
538.1518036156091
 20
189.84819638439095
 30
0.0
 40
20.0
 71
5
  1
%%c166
 50
315.0
  0
POINT
  5
60
330
56
100
AcDbEntity
  8
Defpoints
100
AcDbPoint
 10
433.5
 20
294.5
 30
0.0
  0
POINT
  5
61
330
56
100
AcDbEntity
  8
Defpoints
100
AcDbPoint
 10
492.18986283848346
 20
235.81013716151654
 30
0.0
  0
ENDBLK
  5
58
330
56
100
AcDbEntity
  8
0
100
AcDbBlockEnd
  0
BLOCK
  5
64
330
63
100
AcDbEntity
  8
0
100
AcDbBlockBegin
  2
*D3
 70
1
 10
0.0
 20
0.0
 30
0.0
  3
*D3
  1

  0
INSERT
  5
66
330
63
100
AcDbEntity
  8
0
 62
7
100
AcDbBlockReference
  2
_CLOSEDFILLED
 10
492.18986283848346
 20
589.1898628384835
 30
0.0
 41
20.0
 42
20.0
 50
225.0
  0
INSERT
  5
68
330
63
100
AcDbEntity
  8
0
 62
7
100
AcDbBlockReference
  2
_CLOSEDFILLED
 10
374.81013716151654
 20
471.81013716151654
 30
0.0
 41
20.0
 42
20.0
 50
225.0
  0
LINE
  5
6A
330
63
100
AcDbEntity
  8
0
 62
7
100
AcDbLine
 10
506.3319984622144
 20
603.3319984622144
 30
0.0
 11
388.9522727852475
 21
485.9522727852475
 31
0.0
  0
LINE
  5
6B
330
63
100
AcDbEntity
  8
0
 62
7
100
AcDbLine
 10
509.8675323681472
 20
606.8675323681472
 30
0.0
 11
506.3319984622144
 21
603.3319984622144
 31
0.0
  0
MTEXT
  5
6C
330
63
100
AcDbEntity
  8
0
 62
7
100
AcDbMText
 10
538.1518036156091
 20
635.1518036156091
 30
0.0
 40
20.0
 71
5
  1
%%c166
 50
45.0
  0
POINT
  5
6D
330
63
100
AcDbEntity
  8
Defpoints
100
AcDbPoint
 10
433.5
 20
530.5
 30
0.0
  0
POINT
  5
6E
330
63
100
AcDbEntity
  8
Defpoints
100
AcDbPoint
 10
492.18986283848346
 20
589.1898628384835
 30
0.0
  0
ENDBLK
  5
65
330
63
100
AcDbEntity
  8
0
100
AcDbBlockEnd
  0
BLOCK
  5
71
330
70
100
AcDbEntity
  8
0
100
AcDbBlockBegin
  2
*D4
 70
1
 10
0.0
 20
0.0
 30
0.0
  3
*D4
  1

  0
LINE
  5
73
330
70
100
AcDbEntity
  8
0
 62
7
100
AcDbLine
 10
0.0
 20
-5.0
 30
0.0
 11
0.0
 21
-83.0
 31
0.0
  0
LINE
  5
74
330
70
100
AcDbEntity
  8
0
 62
7
100
AcDbLine
 10
332.5
 20
-5.0
 30
0.0
 11
332.5
 21
-83.0
 31
0.0
  0
INSERT
  5
75
330
70
100
AcDbEntity
  8
0
 62
7
100
AcDbBlockReference
  2
_CLOSEDFILLED
 10
0.0
 20
-73.0
 30
0.0
 41
20.0
 42
20.0
 50
180.0
  0
INSERT
  5
77
330
70
100
AcDbEntity
  8
0
 62
7
100
AcDbBlockReference
  2
_CLOSEDFILLED
 10
332.5
 20
-73.0
 30
0.0
 41
20.0
 42
20.0
  0
LINE
  5
79
330
70
100
AcDbEntity
  8
0
 62
7
100
AcDbLine
 10
20.0
 20
-73.0
 30
0.0
 11
116.25
 21
-73.0
 31
0.0
  0
LINE
  5
7A
330
70
100
AcDbEntity
  8
0
 62
7
100
AcDbLine
 10
216.24999999999997
 20
-73.0
 30
0.0
 11
312.5
 21
-73.0
 31
0.0
  0
MTEXT
  5
7B
330
70
100
AcDbEntity
  8
0
 62
7
100
AcDbMText
 10
166.25
 20
-73.0
 30
0.0
 40
20.0
 71
5
  1
332.5
  0
POINT
  5
7C
330
70
100
AcDbEntity
  8
Defpoints
100
AcDbPoint
 10
0.0
 20
-73.0
 30
0.0
  0
POINT
  5
7D
330
70
100
AcDbEntity
  8
Defpoints
100
AcDbPoint
 10
0.0
 20
0.0
 30
0.0
  0
POINT
  5
7E
330
70
100
AcDbEntity
  8
Defpoints
100
AcDbPoint
 10
332.5
 20
0.0
 30
0.0
  0
ENDBLK
  5
72
330
70
100
AcDbEntity
  8
0
100
AcDbBlockEnd
  0
BLOCK
  5
81
330
80
100
AcDbEntity
  8
0
100
AcDbBlockBegin
  2
*D5
 70
1
 10
0.0
 20
0.0
 30
0.0
  3
*D5
  1

  0
LINE
  5
83
330
80
100
AcDbEntity
  8
0
 62
7
100
AcDbLine
 10
332.5
 20
-5.0
 30
0.0
 11
332.5
 21
-83.0
 31
0.0
  0
LINE
  5
84
330
80
100
AcDbEntity
  8
0
 62
7
100
AcDbLine
 10
534.5
 20
-5.0
 30
0.0
 11
534.5
 21
-83.0
 31
0.0
  0
INSERT
  5
85
330
80
100
AcDbEntity
  8
0
 62
7
100
AcDbBlockReference
  2
_CLOSEDFILLED
 10
332.5
 20
-73.0
 30
0.0
 41
20.0
 42
20.0
 50
180.0
  0
INSERT
  5
87
330
80
100
AcDbEntity
  8
0
 62
7
100
AcDbBlockReference
  2
_CLOSEDFILLED
 10
534.5
 20
-73.0
 30
0.0
 41
20.0
 42
20.0
  0
LINE
  5
89
330
80
100
AcDbEntity
  8
0
 62
7
100
AcDbLine
 10
352.5
 20
-73.0
 30
0.0
 11
403.5
 21
-73.0
 31
0.0
  0
LINE
  5
8A
330
80
100
AcDbEntity
  8
0
 62
7
100
AcDbLine
 10
463.5
 20
-73.0
 30
0.0
 11
514.5
 21
-73.0
 31
0.0
  0
MTEXT
  5
8B
330
80
100
AcDbEntity
  8
0
 62
7
100
AcDbMText
 10
433.5
 20
-73.0
 30
0.0
 40
20.0
 71
5
  1
202
  0
POINT
  5
8C
330
80
100
AcDbEntity
  8
Defpoints
100
AcDbPoint
 10
332.5
 20
-73.0
 30
0.0
  0
POINT
  5
8D
330
80
100
AcDbEntity
  8
Defpoints
100
AcDbPoint
 10
332.5
 20
0.0
 30
0.0
  0
POINT
  5
8E
330
80
100
AcDbEntity
  8
Defpoints
100
AcDbPoint
 10
534.5
 20
0.0
 30
0.0
  0
ENDBLK
  5
82
330
80
100
AcDbEntity
  8
0
100
AcDbBlockEnd
  0
BLOCK
  5
91
330
90
100
AcDbEntity
  8
0
100
AcDbBlockBegin
  2
*D6
 70
1
 10
0.0
 20
0.0
 30
0.0
  3
*D6
  1

  0
LINE
  5
93
330
90
100
AcDbEntity
  8
0
 62
7
100
AcDbLine
 10
534.5
 20
-5.0
 30
0.0
 11
534.5
 21
-83.0
 31
0.0
  0
LINE
  5
94
330
90
100
AcDbEntity
  8
0
 62
7
100
AcDbLine
 10
867.0
 20
-5.0
 30
0.0
 11
867.0
 21
-83.0
 31
0.0
  0
INSERT
  5
95
330
90
100
AcDbEntity
  8
0
 62
7
100
AcDbBlockReference
  2
_CLOSEDFILLED
 10
534.5
 20
-73.0
 30
0.0
 41
20.0
 42
20.0
 50
180.0
  0
INSERT
  5
97
330
90
100
AcDbEntity
  8
0
 62
7
100
AcDbBlockReference
  2
_CLOSEDFILLED
 10
867.0
 20
-73.0
 30
0.0
 41
20.0
 42
20.0
  0
LINE
  5
99
330
90
100
AcDbEntity
  8
0
 62
7
100
AcDbLine
 10
554.5
 20
-73.0
 30
0.0
 11
650.75
 21
-73.0
 31
0.0
  0
LINE
  5
9A
330
90
100
AcDbEntity
  8
0
 62
7
100
AcDbLine
 10
750.75
 20
-73.0
 30
0.0
 11
847.0
 21
-73.0
 31
0.0
  0
MTEXT
  5
9B
330
90
100
AcDbEntity
  8
0
 62
7
100
AcDbMText
 10
700.75
 20
-73.0
 30
0.0
 40
20.0
 71
5
  1
332.5
  0
POINT
  5
9C
330
90
100
AcDbEntity
  8
Defpoints
100
AcDbPoint
 10
534.5
 20
-73.0
 30
0.0
  0
POINT
  5
9D
330
90
100
AcDbEntity
  8
Defpoints
100
AcDbPoint
 10
534.5
 20
0.0
 30
0.0
  0
POINT
  5
9E
330
90
100
AcDbEntity
  8
Defpoints
100
AcDbPoint
 10
867.0
 20
0.0
 30
0.0
  0
ENDBLK
  5
92
330
90
100
AcDbEntity
  8
0
100
AcDbBlockEnd
  0
BLOCK
  5
A1
330
A0
100
AcDbEntity
  8
0
100
AcDbBlockBegin
  2
*D7
 70
1
 10
0.0
 20
0.0
 30
0.0
  3
*D7
  1

  0
LINE
  5
A3
330
A0
100
AcDbEntity
  8
0
 62
7
100
AcDbLine
 10
-5.0
 20
0.0
 30
0.0
 11
-77.0
 21
0.0
 31
0.0
  0
LINE
  5
A4
330
A0
100
AcDbEntity
  8
0
 62
7
100
AcDbLine
 10
-5.0
 20
343.0
 30
0.0
 11
-77.0
 21
343.0
 31
0.0
  0
INSERT
  5
A5
330
A0
100
AcDbEntity
  8
0
 62
7
100
AcDbBlockReference
  2
_CLOSEDFILLED
 10
-67.0
 20
0.0
 30
0.0
 41
20.0
 42
20.0
 50
270.0
  0
INSERT
  5
A7
330
A0
100
AcDbEntity
  8
0
 62
7
100
AcDbBlockReference
  2
_CLOSEDFILLED
 10
-67.0
 20
343.0
 30
0.0
 41
20.0
 42
20.0
 50
90.0
  0
LINE
  5
A9
330
A0
100
AcDbEntity
  8
0
 62
7
100
AcDbLine
 10
-67.0
 20
20.0
 30
0.0
 11
-67.0
 21
141.5
 31
0.0
  0
LINE
  5
AA
330
A0
100
AcDbEntity
  8
0
 62
7
100
AcDbLine
 10
-67.0
 20
201.5
 30
0.0
 11
-67.0
 21
323.0
 31
0.0
  0
MTEXT
  5
AB
330
A0
100
AcDbEntity
  8
0
 62
7
100
AcDbMText
 10
-67.0
 20
171.5
 30
0.0
 40
20.0
 71
5
  1
343
 50
90.0
  0
POINT
  5
AC
330
A0
100
AcDbEntity
  8
Defpoints
100
AcDbPoint
 10
-67.0
 20
0.0
 30
0.0
  0
POINT
  5
AD
330
A0
100
AcDbEntity
  8
Defpoints
100
AcDbPoint
 10
0.0
 20
0.0
 30
0.0
  0
POINT
  5
AE
330
A0
100
AcDbEntity
  8
Defpoints
100
AcDbPoint
 10
0.0
 20
343.0
 30
0.0
  0
ENDBLK
  5
A2
330
A0
100
AcDbEntity
  8
0
100
AcDbBlockEnd
  0
BLOCK
  5
B1
330
B0
100
AcDbEntity
  8
0
100
AcDbBlockBegin
  2
*D8
 70
1
 10
0.0
 20
0.0
 30
0.0
  3
*D8
  1

  0
LINE
  5
B3
330
B0
100
AcDbEntity
  8
0
 62
7
100
AcDbLine
 10
-5.0
 20
343.0
 30
0.0
 11
-77.0
 21
343.0
 31
0.0
  0
LINE
  5
B4
330
B0
100
AcDbEntity
  8
0
 62
7
100
AcDbLine
 10
-5.0
 20
482.0
 30
0.0
 11
-77.0
 21
482.0
 31
0.0
  0
INSERT
  5
B5
330
B0
100
AcDbEntity
  8
0
 62
7
100
AcDbBlockReference
  2
_CLOSEDFILLED
 10
-67.0
 20
343.0
 30
0.0
 41
20.0
 42
20.0
 50
270.0
  0
INSERT
  5
B7
330
B0
100
AcDbEntity
  8
0
 62
7
100
AcDbBlockReference
  2
_CLOSEDFILLED
 10
-67.0
 20
482.0
 30
0.0
 41
20.0
 42
20.0
 50
90.0
  0
LINE
  5
B9
330
B0
100
AcDbEntity
  8
0
 62
7
100
AcDbLine
 10
-67.0
 20
363.0
 30
0.0
 11
-67.0
 21
382.5
 31
0.0
  0
LINE
  5
BA
330
B0
100
AcDbEntity
  8
0
 62
7
100
AcDbLine
 10
-67.0
 20
442.5
 30
0.0
 11
-67.0
 21
462.0
 31
0.0
  0
MTEXT
  5
BB
330
B0
100
AcDbEntity
  8
0
 62
7
100
AcDbMText
 10
-67.0
 20
412.5
 30
0.0
 40
20.0
 71
5
  1
139
 50
90.0
  0
POINT
  5
BC
330
B0
100
AcDbEntity
  8
Defpoints
100
AcDbPoint
 10
-67.0
 20
343.0
 30
0.0
  0
POINT
  5
BD
330
B0
100
AcDbEntity
  8
Defpoints
100
AcDbPoint
 10
0.0
 20
343.0
 30
0.0
  0
POINT
  5
BE
330
B0
100
AcDbEntity
  8
Defpoints
100
AcDbPoint
 10
0.0
 20
482.0
 30
0.0
  0
ENDBLK
  5
B2
330
B0
100
AcDbEntity
  8
0
100
AcDbBlockEnd
  0
BLOCK
  5
C1
330
C0
100
AcDbEntity
  8
0
100
AcDbBlockBegin
  2
*D9
 70
1
 10
0.0
 20
0.0
 30
0.0
  3
*D9
  1

  0
LINE
  5
C3
330
C0
100
AcDbEntity
  8
0
 62
7
100
AcDbLine
 10
-5.0
 20
482.0
 30
0.0
 11
-77.0
 21
482.0
 31
0.0
  0
LINE
  5
C4
330
C0
100
AcDbEntity
  8
0
 62
7
100
AcDbLine
 10
-5.0
 20
825.0
 30
0.0
 11
-77.0
 21
825.0
 31
0.0
  0
INSERT
  5
C5
330
C0
100
AcDbEntity
  8
0
 62
7
100
AcDbBlockReference
  2
_CLOSEDFILLED
 10
-67.0
 20
482.0
 30
0.0
 41
20.0
 42
20.0
 50
270.0
  0
INSERT
  5
C7
330
C0
100
AcDbEntity
  8
0
 62
7
100
AcDbBlockReference
  2
_CLOSEDFILLED
 10
-67.0
 20
825.0
 30
0.0
 41
20.0
 42
20.0
 50
90.0
  0
LINE
  5
C9
330
C0
100
AcDbEntity
  8
0
 62
7
100
AcDbLine
 10
-67.0
 20
502.0
 30
0.0
 11
-67.0
 21
623.5
 31
0.0
  0
LINE
  5
CA
330
C0
100
AcDbEntity
  8
0
 62
7
100
AcDbLine
 10
-67.0
 20
683.5
 30
0.0
 11
-67.0
 21
805.0
 31
0.0
  0
MTEXT
  5
CB
330
C0
100
AcDbEntity
  8
0
 62
7
100
AcDbMText
 10
-67.0
 20
653.5
 30
0.0
 40
20.0
 71
5
  1
343
 50
90.0
  0
POINT
  5
CC
330
C0
100
AcDbEntity
  8
Defpoints
100
AcDbPoint
 10
-67.0
 20
482.0
 30
0.0
  0
POINT
  5
CD
330
C0
100
AcDbEntity
  8
Defpoints
100
AcDbPoint
 10
0.0
 20
482.0
 30
0.0
  0
POINT
  5
CE
330
C0
100
AcDbEntity
  8
Defpoints
100
AcDbPoint
 10
0.0
 20
825.0
 30
0.0
  0
ENDBLK
  5
C2
330
C0
100
AcDbEntity
  8
0
100
AcDbBlockEnd
  0
BLOCK
  5
D1
330
D0
100
AcDbEntity
  8
0
100
AcDbBlockBegin
  2
*D10
 70
1
 10
0.0
 20
0.0
 30
0.0
  3
*D10
  1

  0
LINE
  5
D3
330
D0
100
AcDbEntity
  8
0
 62
7
100
AcDbLine
 10
-5.0
 20
1325.0
 30
0.0
 11
-97.0
 21
1325.0
 31
0.0
  0
LINE
  5
D4
330
D0
100
AcDbEntity
  8
0
 62
7
100
AcDbLine
 10
-5.0
 20
1628.0
 30
0.0
 11
-97.0
 21
1628.0
 31
0.0
  0
INSERT
  5
D5
330
D0
100
AcDbEntity
  8
0
 62
7
100
AcDbBlockReference
  2
_CLOSEDFILLED
 10
-87.0
 20
1325.0
 30
0.0
 41
20.0
 42
20.0
 50
270.0
  0
INSERT
  5
D7
330
D0
100
AcDbEntity
  8
0
 62
7
100
AcDbBlockReference
  2
_CLOSEDFILLED
 10
-87.0
 20
1628.0
 30
0.0
 41
20.0
 42
20.0
 50
90.0
  0
LINE
  5
D9
330
D0
100
AcDbEntity
  8
0
 62
7
100
AcDbLine
 10
-87.0
 20
1345.0
 30
0.0
 11
-87.0
 21
1446.5
 31
0.0
  0
LINE
  5
DA
330
D0
100
AcDbEntity
  8
0
 62
7
100
AcDbLine
 10
-87.0
 20
1506.5
 30
0.0
 11
-87.0
 21
1608.0
 31
0.0
  0
MTEXT
  5
DB
330
D0
100
AcDbEntity
  8
0
 62
7
100
AcDbMText
 10
-87.0
 20
1476.5
 30
0.0
 40
20.0
 71
5
  1
303
 50
90.0
  0
POINT
  5
DC
330
D0
100
AcDbEntity
  8
Defpoints
100
AcDbPoint
 10
-87.0
 20
1325.0
 30
0.0
  0
POINT
  5
DD
330
D0
100
AcDbEntity
  8
Defpoints
100
AcDbPoint
 10
0.0
 20
1325.0
 30
0.0
  0
POINT
  5
DE
330
D0
100
AcDbEntity
  8
Defpoints
100
AcDbPoint
 10
0.0
 20
1628.0
 30
0.0
  0
ENDBLK
  5
D2
330
D0
100
AcDbEntity
  8
0
100
AcDbBlockEnd
  0
BLOCK
  5
E1
330
E0
100
AcDbEntity
  8
0
100
AcDbBlockBegin
  2
*D11
 70
1
 10
0.0
 20
0.0
 30
0.0
  3
*D11
  1

  0
LINE
  5
E3
330
E0
100
AcDbEntity
  8
0
 62
7
100
AcDbLine
 10
-5.0
 20
1628.0
 30
0.0
 11
-97.0
 21
1628.0
 31
0.0
  0
LINE
  5
E4
330
E0
100
AcDbEntity
  8
0
 62
7
100
AcDbLine
 10
-5.0
 20
1897.0
 30
0.0
 11
-97.0
 21
1897.0
 31
0.0
  0
INSERT
  5
E5
330
E0
100
AcDbEntity
  8
0
 62
7
100
AcDbBlockReference
  2
_CLOSEDFILLED
 10
-87.0
 20
1628.0
 30
0.0
 41
20.0
 42
20.0
 50
270.0
  0
INSERT
  5
E7
330
E0
100
AcDbEntity
  8
0
 62
7
100
AcDbBlockReference
  2
_CLOSEDFILLED
 10
-87.0
 20
1897.0
 30
0.0
 41
20.0
 42
20.0
 50
90.0
  0
LINE
  5
E9
330
E0
100
AcDbEntity
  8
0
 62
7
100
AcDbLine
 10
-87.0
 20
1648.0
 30
0.0
 11
-87.0
 21
1732.5
 31
0.0
  0
LINE
  5
EA
330
E0
100
AcDbEntity
  8
0
 62
7
100
AcDbLine
 10
-87.0
 20
1792.5
 30
0.0
 11
-87.0
 21
1877.0
 31
0.0
  0
MTEXT
  5
EB
330
E0
100
AcDbEntity
  8
0
 62
7
100
AcDbMText
 10
-87.0
 20
1762.5
 30
0.0
 40
20.0
 71
5
  1
269
 50
90.0
  0
POINT
  5
EC
330
E0
100
AcDbEntity
  8
Defpoints
100
AcDbPoint
 10
-87.0
 20
1628.0
 30
0.0
  0
POINT
  5
ED
330
E0
100
AcDbEntity
  8
Defpoints
100
AcDbPoint
 10
0.0
 20
1628.0
 30
0.0
  0
POINT
  5
EE
330
E0
100
AcDbEntity
  8
Defpoints
100
AcDbPoint
 10
0.0
 20
1897.0
 30
0.0
  0
ENDBLK
  5
E2
330
E0
100
AcDbEntity
  8
0
100
AcDbBlockEnd
  0
BLOCK
  5
F1
330
F0
100
AcDbEntity
  8
0
100
AcDbBlockBegin
  2
*D12
 70
1
 10
0.0
 20
0.0
 30
0.0
  3
*D12
  1

  0
LINE
  5
F3
330
F0
100
AcDbEntity
  8
0
 62
7
100
AcDbLine
 10
-5.0
 20
1897.0
 30
0.0
 11
-97.0
 21
1897.0
 31
0.0
  0
LINE
  5
F4
330
F0
100
AcDbEntity
  8
0
 62
7
100
AcDbLine
 10
-5.0
 20
2099.0
 30
0.0
 11
-97.0
 21
2099.0
 31
0.0
  0
INSERT
  5
F5
330
F0
100
AcDbEntity
  8
0
 62
7
100
AcDbBlockReference
  2
_CLOSEDFILLED
 10
-87.0
 20
1897.0
 30
0.0
 41
20.0
 42
20.0
 50
270.0
  0
INSERT
  5
F7
330
F0
100
AcDbEntity
  8
0
 62
7
100
AcDbBlockReference
  2
_CLOSEDFILLED
 10
-87.0
 20
2099.0
 30
0.0
 41
20.0
 42
20.0
 50
90.0
  0
LINE
  5
F9
330
F0
100
AcDbEntity
  8
0
 62
7
100
AcDbLine
 10
-87.0
 20
1917.0
 30
0.0
 11
-87.0
 21
1968.0
 31
0.0
  0
LINE
  5
FA
330
F0
100
AcDbEntity
  8
0
 62
7
100
AcDbLine
 10
-87.0
 20
2028.0
 30
0.0
 11
-87.0
 21
2079.0
 31
0.0
  0
MTEXT
  5
FB
330
F0
100
AcDbEntity
  8
0
 62
7
100
AcDbMText
 10
-87.0
 20
1998.0
 30
0.0
 40
20.0
 71
5
  1
202
 50
90.0
  0
POINT
  5
FC
330
F0
100
AcDbEntity
  8
Defpoints
100
AcDbPoint
 10
-87.0
 20
1897.0
 30
0.0
  0
POINT
  5
FD
330
F0
100
AcDbEntity
  8
Defpoints
100
AcDbPoint
 10
0.0
 20
1897.0
 30
0.0
  0
POINT
  5
FE
330
F0
100
AcDbEntity
  8
Defpoints
100
AcDbPoint
 10
0.0
 20
2099.0
 30
0.0
  0
ENDBLK
  5
F2
330
F0
100
AcDbEntity
  8
0
100
AcDbBlockEnd
  0
BLOCK
  5
101
330
100
100
AcDbEntity
  8
0
100
AcDbBlockBegin
  2
*D13
 70
1
 10
0.0
 20
0.0
 30
0.0
  3
*D13
  1

  0
LINE
  5
103
330
100
100
AcDbEntity
  8
0
 62
7
100
AcDbLine
 10
0.0
 20
2104.0
 30
0.0
 11
0.0
 21
2192.0
 31
0.0
  0
LINE
  5
104
330
100
100
AcDbEntity
  8
0
 62
7
100
AcDbLine
 10
332.5
 20
2104.0
 30
0.0
 11
332.5
 21
2192.0
 31
0.0
  0
INSERT
  5
105
330
100
100
AcDbEntity
  8
0
 62
7
100
AcDbBlockReference
  2
_CLOSEDFILLED
 10
0.0
 20
2182.0
 30
0.0
 41
20.0
 42
20.0
 50
180.0
  0
INSERT
  5
107
330
100
100
AcDbEntity
  8
0
 62
7
100
AcDbBlockReference
  2
_CLOSEDFILLED
 10
332.5
 20
2182.0
 30
0.0
 41
20.0
 42
20.0
  0
LINE
  5
109
330
100
100
AcDbEntity
  8
0
 62
7
100
AcDbLine
 10
20.0
 20
2182.0
 30
0.0
 11
116.25
 21
2182.0
 31
0.0
  0
LINE
  5
10A
330
100
100
AcDbEntity
  8
0
 62
7
100
AcDbLine
 10
216.24999999999997
 20
2182.0
 30
0.0
 11
312.5
 21
2182.0
 31
0.0
  0
MTEXT
  5
10B
330
100
100
AcDbEntity
  8
0
 62
7
100
AcDbMText
 10
166.25
 20
2182.0
 30
0.0
 40
20.0
 71
5
  1
332.5
  0
POINT
  5
10C
330
100
100
AcDbEntity
  8
Defpoints
100
AcDbPoint
 10
0.0
 20
2182.0
 30
0.0
  0
POINT
  5
10D
330
100
100
AcDbEntity
  8
Defpoints
100
AcDbPoint
 10
0.0
 20
2099.0
 30
0.0
  0
POINT
  5
10E
330
100
100
AcDbEntity
  8
Defpoints
100
AcDbPoint
 10
332.5
 20
2099.0
 30
0.0
  0
ENDBLK
  5
102
330
100
100
AcDbEntity
  8
0
100
AcDbBlockEnd
  0
BLOCK
  5
111
330
110
100
AcDbEntity
  8
0
100
AcDbBlockBegin
  2
*D14
 70
1
 10
0.0
 20
0.0
 30
0.0
  3
*D14
  1

  0
LINE
  5
113
330
110
100
AcDbEntity
  8
0
 62
7
100
AcDbLine
 10
332.5
 20
2104.0
 30
0.0
 11
332.5
 21
2192.0
 31
0.0
  0
LINE
  5
114
330
110
100
AcDbEntity
  8
0
 62
7
100
AcDbLine
 10
534.5
 20
2104.0
 30
0.0
 11
534.5
 21
2192.0
 31
0.0
  0
INSERT
  5
115
330
110
100
AcDbEntity
  8
0
 62
7
100
AcDbBlockReference
  2
_CLOSEDFILLED
 10
332.5
 20
2182.0
 30
0.0
 41
20.0
 42
20.0
 50
180.0
  0
INSERT
  5
117
330
110
100
AcDbEntity
  8
0
 62
7
100
AcDbBlockReference
  2
_CLOSEDFILLED
 10
534.5
 20
2182.0
 30
0.0
 41
20.0
 42
20.0
  0
LINE
  5
119
330
110
100
AcDbEntity
  8
0
 62
7
100
AcDbLine
 10
352.5
 20
2182.0
 30
0.0
 11
403.5
 21
2182.0
 31
0.0
  0
LINE
  5
11A
330
110
100
AcDbEntity
  8
0
 62
7
100
AcDbLine
 10
463.5
 20
2182.0
 30
0.0
 11
514.5
 21
2182.0
 31
0.0
  0
MTEXT
  5
11B
330
110
100
AcDbEntity
  8
0
 62
7
100
AcDbMText
 10
433.5
 20
2182.0
 30
0.0
 40
20.0
 71
5
  1
202
  0
POINT
  5
11C
330
110
100
AcDbEntity
  8
Defpoints
100
AcDbPoint
 10
332.5
 20
2182.0
 30
0.0
  0
POINT
  5
11D
330
110
100
AcDbEntity
  8
Defpoints
100
AcDbPoint
 10
332.5
 20
2099.0
 30
0.0
  0
POINT
  5
11E
330
110
100
AcDbEntity
  8
Defpoints
100
AcDbPoint
 10
534.5
 20
2099.0
 30
0.0
  0
ENDBLK
  5
112
330
110
100
AcDbEntity
  8
0
100
AcDbBlockEnd
  0
BLOCK
  5
121
330
120
100
AcDbEntity
  8
0
100
AcDbBlockBegin
  2
*D15
 70
1
 10
0.0
 20
0.0
 30
0.0
  3
*D15
  1

  0
LINE
  5
123
330
120
100
AcDbEntity
  8
0
 62
7
100
AcDbLine
 10
534.5
 20
2104.0
 30
0.0
 11
534.5
 21
2192.0
 31
0.0
  0
LINE
  5
124
330
120
100
AcDbEntity
  8
0
 62
7
100
AcDbLine
 10
867.0
 20
2104.0
 30
0.0
 11
867.0
 21
2192.0
 31
0.0
  0
INSERT
  5
125
330
120
100
AcDbEntity
  8
0
 62
7
100
AcDbBlockReference
  2
_CLOSEDFILLED
 10
534.5
 20
2182.0
 30
0.0
 41
20.0
 42
20.0
 50
180.0
  0
INSERT
  5
127
330
120
100
AcDbEntity
  8
0
 62
7
100
AcDbBlockReference
  2
_CLOSEDFILLED
 10
867.0
 20
2182.0
 30
0.0
 41
20.0
 42
20.0
  0
LINE
  5
129
330
120
100
AcDbEntity
  8
0
 62
7
100
AcDbLine
 10
554.5
 20
2182.0
 30
0.0
 11
650.75
 21
2182.0
 31
0.0
  0
LINE
  5
12A
330
120
100
AcDbEntity
  8
0
 62
7
100
AcDbLine
 10
750.75
 20
2182.0
 30
0.0
 11
847.0
 21
2182.0
 31
0.0
  0
MTEXT
  5
12B
330
120
100
AcDbEntity
  8
0
 62
7
100
AcDbMText
 10
700.75
 20
2182.0
 30
0.0
 40
20.0
 71
5
  1
332.5
  0
POINT
  5
12C
330
120
100
AcDbEntity
  8
Defpoints
100
AcDbPoint
 10
534.5
 20
2182.0
 30
0.0
  0
POINT
  5
12D
330
120
100
AcDbEntity
  8
Defpoints
100
AcDbPoint
 10
534.5
 20
2099.0
 30
0.0
  0
POINT
  5
12E
330
120
100
AcDbEntity
  8
Defpoints
100
AcDbPoint
 10
867.0
 20
2099.0
 30
0.0
  0
ENDBLK
  5
122
330
120
100
AcDbEntity
  8
0
100
AcDbBlockEnd
  0
BLOCK
  5
131
330
130
100
AcDbEntity
  8
0
100
AcDbBlockBegin
  2
*D16
 70
1
 10
0.0
 20
0.0
 30
0.0
  3
*D16
  1

  0
LINE
  5
133
330
130
100
AcDbEntity
  8
0
 62
7
100
AcDbLine
 10
0.0
 20
1320.0
 30
0.0
 11
0.0
 21
1229.0
 31
0.0
  0
LINE
  5
134
330
130
100
AcDbEntity
  8
0
 62
7
100
AcDbLine
 10
350.5
 20
1320.0
 30
0.0
 11
350.5
 21
1229.0
 31
0.0
  0
INSERT
  5
135
330
130
100
AcDbEntity
  8
0
 62
7
100
AcDbBlockReference
  2
_CLOSEDFILLED
 10
0.0
 20
1239.0
 30
0.0
 41
20.0
 42
20.0
 50
180.0
  0
INSERT
  5
137
330
130
100
AcDbEntity
  8
0
 62
7
100
AcDbBlockReference
  2
_CLOSEDFILLED
 10
350.5
 20
1239.0
 30
0.0
 41
20.0
 42
20.0
  0
LINE
  5
139
330
130
100
AcDbEntity
  8
0
 62
7
100
AcDbLine
 10
20.0
 20
1239.0
 30
0.0
 11
125.25
 21
1239.0
 31
0.0
  0
LINE
  5
13A
330
130
100
AcDbEntity
  8
0
 62
7
100
AcDbLine
 10
225.25000000000003
 20
1239.0
 30
0.0
 11
330.5
 21
1239.0
 31
0.0
  0
MTEXT
  5
13B
330
130
100
AcDbEntity
  8
0
 62
7
100
AcDbMText
 10
175.25
 20
1239.0
 30
0.0
 40
20.0
 71
5
  1
350.5
  0
POINT
  5
13C
330
130
100
AcDbEntity
  8
Defpoints
100
AcDbPoint
 10
0.0
 20
1239.0
 30
0.0
  0
POINT
  5
13D
330
130
100
AcDbEntity
  8
Defpoints
100
AcDbPoint
 10
0.0
 20
1325.0
 30
0.0
  0
POINT
  5
13E
330
130
100
AcDbEntity
  8
Defpoints
100
AcDbPoint
 10
350.5
 20
1325.0
 30
0.0
  0
ENDBLK
  5
132
330
130
100
AcDbEntity
  8
0
100
AcDbBlockEnd
  0
BLOCK
  5
141
330
140
100
AcDbEntity
  8
0
100
AcDbBlockBegin
  2
*D17
 70
1
 10
0.0
 20
0.0
 30
0.0
  3
*D17
  1

  0
LINE
  5
143
330
140
100
AcDbEntity
  8
0
 62
7
100
AcDbLine
 10
350.5
 20
1320.0
 30
0.0
 11
350.5
 21
1229.0
 31
0.0
  0
LINE
  5
144
330
140
100
AcDbEntity
  8
0
 62
7
100
AcDbLine
 10
516.5
 20
1320.0
 30
0.0
 11
516.5
 21
1229.0
 31
0.0
  0
INSERT
  5
145
330
140
100
AcDbEntity
  8
0
 62
7
100
AcDbBlockReference
  2
_CLOSEDFILLED
 10
350.5
 20
1239.0
 30
0.0
 41
20.0
 42
20.0
 50
180.0
  0
INSERT
  5
147
330
140
100
AcDbEntity
  8
0
 62
7
100
AcDbBlockReference
  2
_CLOSEDFILLED
 10
516.5
 20
1239.0
 30
0.0
 41
20.0
 42
20.0
  0
LINE
  5
149
330
140
100
AcDbEntity
  8
0
 62
7
100
AcDbLine
 10
370.5
 20
1239.0
 30
0.0
 11
403.5
 21
1239.0
 31
0.0
  0
LINE
  5
14A
330
140
100
AcDbEntity
  8
0
 62
7
100
AcDbLine
 10
463.5
 20
1239.0
 30
0.0
 11
496.5
 21
1239.0
 31
0.0
  0
MTEXT
  5
14B
330
140
100
AcDbEntity
  8
0
 62
7
100
AcDbMText
 10
433.5
 20
1239.0
 30
0.0
 40
20.0
 71
5
  1
166
  0
POINT
  5
14C
330
140
100
AcDbEntity
  8
Defpoints
100
AcDbPoint
 10
350.5
 20
1239.0
 30
0.0
  0
POINT
  5
14D
330
140
100
AcDbEntity
  8
Defpoints
100
AcDbPoint
 10
350.5
 20
1325.0
 30
0.0
  0
POINT
  5
14E
330
140
100
AcDbEntity
  8
Defpoints
100
AcDbPoint
 10
516.5
 20
1325.0
 30
0.0
  0
ENDBLK
  5
142
330
140
100
AcDbEntity
  8
0
100
AcDbBlockEnd
  0
BLOCK
  5
151
330
150
100
AcDbEntity
  8
0
100
AcDbBlockBegin
  2
*D18
 70
1
 10
0.0
 20
0.0
 30
0.0
  3
*D18
  1

  0
LINE
  5
153
330
150
100
AcDbEntity
  8
0
 62
7
100
AcDbLine
 10
516.5
 20
1320.0
 30
0.0
 11
516.5
 21
1229.0
 31
0.0
  0
LINE
  5
154
330
150
100
AcDbEntity
  8
0
 62
7
100
AcDbLine
 10
867.0
 20
1320.0
 30
0.0
 11
867.0
 21
1229.0
 31
0.0
  0
INSERT
  5
155
330
150
100
AcDbEntity
  8
0
 62
7
100
AcDbBlockReference
  2
_CLOSEDFILLED
 10
516.5
 20
1239.0
 30
0.0
 41
20.0
 42
20.0
 50
180.0
  0
INSERT
  5
157
330
150
100
AcDbEntity
  8
0
 62
7
100
AcDbBlockReference
  2
_CLOSEDFILLED
 10
867.0
 20
1239.0
 30
0.0
 41
20.0
 42
20.0
  0
LINE
  5
159
330
150
100
AcDbEntity
  8
0
 62
7
100
AcDbLine
 10
536.5
 20
1239.0
 30
0.0
 11
641.75
 21
1239.0
 31
0.0
  0
LINE
  5
15A
330
150
100
AcDbEntity
  8
0
 62
7
100
AcDbLine
 10
741.75
 20
1239.0
 30
0.0
 11
847.0
 21
1239.0
 31
0.0
  0
MTEXT
  5
15B
330
150
100
AcDbEntity
  8
0
 62
7
100
AcDbMText
 10
691.75
 20
1239.0
 30
0.0
 40
20.0
 71
5
  1
350.5
  0
POINT
  5
15C
330
150
100
AcDbEntity
  8
Defpoints
100
AcDbPoint
 10
516.5
 20
1239.0
 30
0.0
  0
POINT
  5
15D
330
150
100
AcDbEntity
  8
Defpoints
100
AcDbPoint
 10
516.5
 20
1325.0
 30
0.0
  0
POINT
  5
15E
330
150
100
AcDbEntity
  8
Defpoints
100
AcDbPoint
 10
867.0
 20
1325.0
 30
0.0
  0
ENDBLK
  5
152
330
150
100
AcDbEntity
  8
0
100
AcDbBlockEnd
  0
BLOCK
  5
161
330
160
100
AcDbEntity
  8
0
100
AcDbBlockBegin
  2
*D19
 70
1
 10
0.0
 20
0.0
 30
0.0
  3
*D19
  1

  0
LINE
  5
163
330
160
100
AcDbEntity
  8
0
 62
7
100
AcDbLine
 10
1222.0
 20
1325.0
 30
0.0
 11
2126.0
 21
1325.0
 31
0.0
  0
LINE
  5
164
330
160
100
AcDbEntity
  8
0
 62
7
100
AcDbLine
 10
1222.0
 20
1628.0
 30
0.0
 11
2126.0
 21
1628.0
 31
0.0
  0
INSERT
  5
165
330
160
100
AcDbEntity
  8
0
 62
7
100
AcDbBlockReference
  2
_CLOSEDFILLED
 10
2116.0
 20
1325.0
 30
0.0
 41
20.0
 42
20.0
 50
270.0
  0
INSERT
  5
167
330
160
100
AcDbEntity
  8
0
 62
7
100
AcDbBlockReference
  2
_CLOSEDFILLED
 10
2116.0
 20
1628.0
 30
0.0
 41
20.0
 42
20.0
 50
90.0
  0
LINE
  5
169
330
160
100
AcDbEntity
  8
0
 62
7
100
AcDbLine
 10
2116.0
 20
1345.0
 30
0.0
 11
2116.0
 21
1446.5
 31
0.0
  0
LINE
  5
16A
330
160
100
AcDbEntity
  8
0
 62
7
100
AcDbLine
 10
2116.0
 20
1506.5
 30
0.0
 11
2116.0
 21
1608.0
 31
0.0
  0
MTEXT
  5
16B
330
160
100
AcDbEntity
  8
0
 62
7
100
AcDbMText
 10
2116.0
 20
1476.5
 30
0.0
 40
20.0
 71
5
  1
303
 50
90.0
  0
POINT
  5
16C
330
160
100
AcDbEntity
  8
Defpoints
100
AcDbPoint
 10
2116.0
 20
1325.0
 30
0.0
  0
POINT
  5
16D
330
160
100
AcDbEntity
  8
Defpoints
100
AcDbPoint
 10
1217.0
 20
1325.0
 30
0.0
  0
POINT
  5
16E
330
160
100
AcDbEntity
  8
Defpoints
100
AcDbPoint
 10
1217.0
 20
1628.0
 30
0.0
  0
ENDBLK
  5
162
330
160
100
AcDbEntity
  8
0
100
AcDbBlockEnd
  0
BLOCK
  5
171
330
170
100
AcDbEntity
  8
0
100
AcDbBlockBegin
  2
*D20
 70
1
 10
0.0
 20
0.0
 30
0.0
  3
*D20
  1

  0
LINE
  5
173
330
170
100
AcDbEntity
  8
0
 62
7
100
AcDbLine
 10
1222.0
 20
1628.0
 30
0.0
 11
2126.0
 21
1628.0
 31
0.0
  0
LINE
  5
174
330
170
100
AcDbEntity
  8
0
 62
7
100
AcDbLine
 10
1222.0
 20
1897.0
 30
0.0
 11
2126.0
 21
1897.0
 31
0.0
  0
INSERT
  5
175
330
170
100
AcDbEntity
  8
0
 62
7
100
AcDbBlockReference
  2
_CLOSEDFILLED
 10
2116.0
 20
1628.0
 30
0.0
 41
20.0
 42
20.0
 50
270.0
  0
INSERT
  5
177
330
170
100
AcDbEntity
  8
0
 62
7
100
AcDbBlockReference
  2
_CLOSEDFILLED
 10
2116.0
 20
1897.0
 30
0.0
 41
20.0
 42
20.0
 50
90.0
  0
LINE
  5
179
330
170
100
AcDbEntity
  8
0
 62
7
100
AcDbLine
 10
2116.0
 20
1648.0
 30
0.0
 11
2116.0
 21
1732.5
 31
0.0
  0
LINE
  5
17A
330
170
100
AcDbEntity
  8
0
 62
7
100
AcDbLine
 10
2116.0
 20
1792.5
 30
0.0
 11
2116.0
 21
1877.0
 31
0.0
  0
MTEXT
  5
17B
330
170
100
AcDbEntity
  8
0
 62
7
100
AcDbMText
 10
2116.0
 20
1762.5
 30
0.0
 40
20.0
 71
5
  1
269
 50
90.0
  0
POINT
  5
17C
330
170
100
AcDbEntity
  8
Defpoints
100
AcDbPoint
 10
2116.0
 20
1628.0
 30
0.0
  0
POINT
  5
17D
330
170
100
AcDbEntity
  8
Defpoints
100
AcDbPoint
 10
1217.0
 20
1628.0
 30
0.0
  0
POINT
  5
17E
330
170
100
AcDbEntity
  8
Defpoints
100
AcDbPoint
 10
1217.0
 20
1897.0
 30
0.0
  0
ENDBLK
  5
172
330
170
100
AcDbEntity
  8
0
100
AcDbBlockEnd
  0
BLOCK
  5
181
330
180
100
AcDbEntity
  8
0
100
AcDbBlockBegin
  2
*D21
 70
1
 10
0.0
 20
0.0
 30
0.0
  3
*D21
  1

  0
LINE
  5
183
330
180
100
AcDbEntity
  8
0
 62
7
100
AcDbLine
 10
1222.0
 20
1897.0
 30
0.0
 11
2126.0
 21
1897.0
 31
0.0
  0
LINE
  5
184
330
180
100
AcDbEntity
  8
0
 62
7
100
AcDbLine
 10
1222.0
 20
2099.0
 30
0.0
 11
2126.0
 21
2099.0
 31
0.0
  0
INSERT
  5
185
330
180
100
AcDbEntity
  8
0
 62
7
100
AcDbBlockReference
  2
_CLOSEDFILLED
 10
2116.0
 20
1897.0
 30
0.0
 41
20.0
 42
20.0
 50
270.0
  0
INSERT
  5
187
330
180
100
AcDbEntity
  8
0
 62
7
100
AcDbBlockReference
  2
_CLOSEDFILLED
 10
2116.0
 20
2099.0
 30
0.0
 41
20.0
 42
20.0
 50
90.0
  0
LINE
  5
189
330
180
100
AcDbEntity
  8
0
 62
7
100
AcDbLine
 10
2116.0
 20
1917.0
 30
0.0
 11
2116.0
 21
1968.0
 31
0.0
  0
LINE
  5
18A
330
180
100
AcDbEntity
  8
0
 62
7
100
AcDbLine
 10
2116.0
 20
2028.0
 30
0.0
 11
2116.0
 21
2079.0
 31
0.0
  0
MTEXT
  5
18B
330
180
100
AcDbEntity
  8
0
 62
7
100
AcDbMText
 10
2116.0
 20
1998.0
 30
0.0
 40
20.0
 71
5
  1
202
 50
90.0
  0
POINT
  5
18C
330
180
100
AcDbEntity
  8
Defpoints
100
AcDbPoint
 10
2116.0
 20
1897.0
 30
0.0
  0
POINT
  5
18D
330
180
100
AcDbEntity
  8
Defpoints
100
AcDbPoint
 10
1217.0
 20
1897.0
 30
0.0
  0
POINT
  5
18E
330
180
100
AcDbEntity
  8
Defpoints
100
AcDbPoint
 10
1217.0
 20
2099.0
 30
0.0
  0
ENDBLK
  5
182
330
180
100
AcDbEntity
  8
0
100
AcDbBlockEnd
  0
BLOCK
  5
191
330
190
100
AcDbEntity
  8
0
100
AcDbBlockBegin
  2
*D22
 70
1
 10
0.0
 20
0.0
 30
0.0
  3
*D22
  1

  0
LINE
  5
193
330
190
100
AcDbEntity
  8
0
 62
7
100
AcDbLine
 10
1217.0
 20
2104.0
 30
0.0
 11
1217.0
 21
2179.0
 31
0.0
  0
LINE
  5
194
330
190
100
AcDbEntity
  8
0
 62
7
100
AcDbLine
 10
1560.0
 20
2104.0
 30
0.0
 11
1560.0
 21
2179.0
 31
0.0
  0
INSERT
  5
195
330
190
100
AcDbEntity
  8
0
 62
7
100
AcDbBlockReference
  2
_CLOSEDFILLED
 10
1217.0
 20
2169.0
 30
0.0
 41
20.0
 42
20.0
 50
180.0
  0
INSERT
  5
197
330
190
100
AcDbEntity
  8
0
 62
7
100
AcDbBlockReference
  2
_CLOSEDFILLED
 10
1560.0
 20
2169.0
 30
0.0
 41
20.0
 42
20.0
  0
LINE
  5
199
330
190
100
AcDbEntity
  8
0
 62
7
100
AcDbLine
 10
1237.0
 20
2169.0
 30
0.0
 11
1358.5
 21
2169.0
 31
0.0
  0
LINE
  5
19A
330
190
100
AcDbEntity
  8
0
 62
7
100
AcDbLine
 10
1418.5
 20
2169.0
 30
0.0
 11
1540.0
 21
2169.0
 31
0.0
  0
MTEXT
  5
19B
330
190
100
AcDbEntity
  8
0
 62
7
100
AcDbMText
 10
1388.5
 20
2169.0
 30
0.0
 40
20.0
 71
5
  1
343
  0
POINT
  5
19C
330
190
100
AcDbEntity
  8
Defpoints
100
AcDbPoint
 10
1217.0
 20
2169.0
 30
0.0
  0
POINT
  5
19D
330
190
100
AcDbEntity
  8
Defpoints
100
AcDbPoint
 10
1217.0
 20
2099.0
 30
0.0
  0
POINT
  5
19E
330
190
100
AcDbEntity
  8
Defpoints
100
AcDbPoint
 10
1560.0
 20
2099.0
 30
0.0
  0
ENDBLK
  5
192
330
190
100
AcDbEntity
  8
0
100
AcDbBlockEnd
  0
BLOCK
  5
1A1
330
1A0
100
AcDbEntity
  8
0
100
AcDbBlockBegin
  2
*D23
 70
1
 10
0.0
 20
0.0
 30
0.0
  3
*D23
  1

  0
LINE
  5
1A3
330
1A0
100
AcDbEntity
  8
0
 62
7
100
AcDbLine
 10
1560.0
 20
2104.0
 30
0.0
 11
1560.0
 21
2179.0
 31
0.0
  0
LINE
  5
1A4
330
1A0
100
AcDbEntity
  8
0
 62
7
100
AcDbLine
 10
1699.0
 20
2104.0
 30
0.0
 11
1699.0
 21
2179.0
 31
0.0
  0
INSERT
  5
1A5
330
1A0
100
AcDbEntity
  8
0
 62
7
100
AcDbBlockReference
  2
_CLOSEDFILLED
 10
1560.0
 20
2169.0
 30
0.0
 41
20.0
 42
20.0
 50
180.0
  0
INSERT
  5
1A7
330
1A0
100
AcDbEntity
  8
0
 62
7
100
AcDbBlockReference
  2
_CLOSEDFILLED
 10
1699.0
 20
2169.0
 30
0.0
 41
20.0
 42
20.0
  0
LINE
  5
1A9
330
1A0
100
AcDbEntity
  8
0
 62
7
100
AcDbLine
 10
1580.0
 20
2169.0
 30
0.0
 11
1599.5
 21
2169.0
 31
0.0
  0
LINE
  5
1AA
330
1A0
100
AcDbEntity
  8
0
 62
7
100
AcDbLine
 10
1659.5
 20
2169.0
 30
0.0
 11
1679.0
 21
2169.0
 31
0.0
  0
MTEXT
  5
1AB
330
1A0
100
AcDbEntity
  8
0
 62
7
100
AcDbMText
 10
1629.5
 20
2169.0
 30
0.0
 40
20.0
 71
5
  1
139
  0
POINT
  5
1AC
330
1A0
100
AcDbEntity
  8
Defpoints
100
AcDbPoint
 10
1560.0
 20
2169.0
 30
0.0
  0
POINT
  5
1AD
330
1A0
100
AcDbEntity
  8
Defpoints
100
AcDbPoint
 10
1560.0
 20
2099.0
 30
0.0
  0
POINT
  5
1AE
330
1A0
100
AcDbEntity
  8
Defpoints
100
AcDbPoint
 10
1699.0
 20
2099.0
 30
0.0
  0
ENDBLK
  5
1A2
330
1A0
100
AcDbEntity
  8
0
100
AcDbBlockEnd
  0
BLOCK
  5
1B1
330
1B0
100
AcDbEntity
  8
0
100
AcDbBlockBegin
  2
*D24
 70
1
 10
0.0
 20
0.0
 30
0.0
  3
*D24
  1

  0
LINE
  5
1B3
330
1B0
100
AcDbEntity
  8
0
 62
7
100
AcDbLine
 10
1699.0
 20
2104.0
 30
0.0
 11
1699.0
 21
2179.0
 31
0.0
  0
LINE
  5
1B4
330
1B0
100
AcDbEntity
  8
0
 62
7
100
AcDbLine
 10
2042.0
 20
2104.0
 30
0.0
 11
2042.0
 21
2179.0
 31
0.0
  0
INSERT
  5
1B5
330
1B0
100
AcDbEntity
  8
0
 62
7
100
AcDbBlockReference
  2
_CLOSEDFILLED
 10
1699.0
 20
2169.0
 30
0.0
 41
20.0
 42
20.0
 50
180.0
  0
INSERT
  5
1B7
330
1B0
100
AcDbEntity
  8
0
 62
7
100
AcDbBlockReference
  2
_CLOSEDFILLED
 10
2042.0
 20
2169.0
 30
0.0
 41
20.0
 42
20.0
  0
LINE
  5
1B9
330
1B0
100
AcDbEntity
  8
0
 62
7
100
AcDbLine
 10
1719.0
 20
2169.0
 30
0.0
 11
1840.5
 21
2169.0
 31
0.0
  0
LINE
  5
1BA
330
1B0
100
AcDbEntity
  8
0
 62
7
100
AcDbLine
 10
1900.5
 20
2169.0
 30
0.0
 11
2022.0
 21
2169.0
 31
0.0
  0
MTEXT
  5
1BB
330
1B0
100
AcDbEntity
  8
0
 62
7
100
AcDbMText
 10
1870.5
 20
2169.0
 30
0.0
 40
20.0
 71
5
  1
343
  0
POINT
  5
1BC
330
1B0
100
AcDbEntity
  8
Defpoints
100
AcDbPoint
 10
1699.0
 20
2169.0
 30
0.0
  0
POINT
  5
1BD
330
1B0
100
AcDbEntity
  8
Defpoints
100
AcDbPoint
 10
1699.0
 20
2099.0
 30
0.0
  0
POINT
  5
1BE
330
1B0
100
AcDbEntity
  8
Defpoints
100
AcDbPoint
 10
2042.0
 20
2099.0
 30
0.0
  0
ENDBLK
  5
1B2
330
1B0
100
AcDbEntity
  8
0
100
AcDbBlockEnd
  0
BLOCK
  5
1C1
330
1C0
100
AcDbEntity
  8
0
100
AcDbBlockBegin
  2
*D25
 70
1
 10
0.0
 20
0.0
 30
0.0
  3
*D25
  1

  0
LINE
  5
1C3
330
1C0
100
AcDbEntity
  8
0
 62
7
100
AcDbLine
 10
1217.0
 20
1320.0
 30
0.0
 11
1217.0
 21
1228.0
 31
0.0
  0
LINE
  5
1C4
330
1C0
100
AcDbEntity
  8
0
 62
7
100
AcDbLine
 10
1428.5
 20
1320.0
 30
0.0
 11
1428.5
 21
1228.0
 31
0.0
  0
INSERT
  5
1C5
330
1C0
100
AcDbEntity
  8
0
 62
7
100
AcDbBlockReference
  2
_CLOSEDFILLED
 10
1217.0
 20
1238.0
 30
0.0
 41
20.0
 42
20.0
 50
180.0
  0
INSERT
  5
1C7
330
1C0
100
AcDbEntity
  8
0
 62
7
100
AcDbBlockReference
  2
_CLOSEDFILLED
 10
1428.5
 20
1238.0
 30
0.0
 41
20.0
 42
20.0
  0
LINE
  5
1C9
330
1C0
100
AcDbEntity
  8
0
 62
7
100
AcDbLine
 10
1237.0
 20
1238.0
 30
0.0
 11
1272.75
 21
1238.0
 31
0.0
  0
LINE
  5
1CA
330
1C0
100
AcDbEntity
  8
0
 62
7
100
AcDbLine
 10
1372.75
 20
1238.0
 30
0.0
 11
1408.5
 21
1238.0
 31
0.0
  0
MTEXT
  5
1CB
330
1C0
100
AcDbEntity
  8
0
 62
7
100
AcDbMText
 10
1322.75
 20
1238.0
 30
0.0
 40
20.0
 71
5
  1
211.5
  0
POINT
  5
1CC
330
1C0
100
AcDbEntity
  8
Defpoints
100
AcDbPoint
 10
1217.0
 20
1238.0
 30
0.0
  0
POINT
  5
1CD
330
1C0
100
AcDbEntity
  8
Defpoints
100
AcDbPoint
 10
1217.0
 20
1325.0
 30
0.0
  0
POINT
  5
1CE
330
1C0
100
AcDbEntity
  8
Defpoints
100
AcDbPoint
 10
1428.5
 20
1325.0
 30
0.0
  0
ENDBLK
  5
1C2
330
1C0
100
AcDbEntity
  8
0
100
AcDbBlockEnd
  0
BLOCK
  5
1D1
330
1D0
100
AcDbEntity
  8
0
100
AcDbBlockBegin
  2
*D26
 70
1
 10
0.0
 20
0.0
 30
0.0
  3
*D26
  1

  0
LINE
  5
1D3
330
1D0
100
AcDbEntity
  8
0
 62
7
100
AcDbLine
 10
1428.5
 20
1320.0
 30
0.0
 11
1428.5
 21
1228.0
 31
0.0
  0
LINE
  5
1D4
330
1D0
100
AcDbEntity
  8
0
 62
7
100
AcDbLine
 10
1594.5
 20
1320.0
 30
0.0
 11
1594.5
 21
1228.0
 31
0.0
  0
INSERT
  5
1D5
330
1D0
100
AcDbEntity
  8
0
 62
7
100
AcDbBlockReference
  2
_CLOSEDFILLED
 10
1428.5
 20
1238.0
 30
0.0
 41
20.0
 42
20.0
 50
180.0
  0
INSERT
  5
1D7
330
1D0
100
AcDbEntity
  8
0
 62
7
100
AcDbBlockReference
  2
_CLOSEDFILLED
 10
1594.5
 20
1238.0
 30
0.0
 41
20.0
 42
20.0
  0
LINE
  5
1D9
330
1D0
100
AcDbEntity
  8
0
 62
7
100
AcDbLine
 10
1448.5
 20
1238.0
 30
0.0
 11
1481.5
 21
1238.0
 31
0.0
  0
LINE
  5
1DA
330
1D0
100
AcDbEntity
  8
0
 62
7
100
AcDbLine
 10
1541.5
 20
1238.0
 30
0.0
 11
1574.5
 21
1238.0
 31
0.0
  0
MTEXT
  5
1DB
330
1D0
100
AcDbEntity
  8
0
 62
7
100
AcDbMText
 10
1511.5
 20
1238.0
 30
0.0
 40
20.0
 71
5
  1
166
  0
POINT
  5
1DC
330
1D0
100
AcDbEntity
  8
Defpoints
100
AcDbPoint
 10
1428.5
 20
1238.0
 30
0.0
  0
POINT
  5
1DD
330
1D0
100
AcDbEntity
  8
Defpoints
100
AcDbPoint
 10
1428.5
 20
1325.0
 30
0.0
  0
POINT
  5
1DE
330
1D0
100
AcDbEntity
  8
Defpoints
100
AcDbPoint
 10
1594.5
 20
1325.0
 30
0.0
  0
ENDBLK
  5
1D2
330
1D0
100
AcDbEntity
  8
0
100
AcDbBlockEnd
  0
BLOCK
  5
1E1
330
1E0
100
AcDbEntity
  8
0
100
AcDbBlockBegin
  2
*D27
 70
1
 10
0.0
 20
0.0
 30
0.0
  3
*D27
  1

  0
LINE
  5
1E3
330
1E0
100
AcDbEntity
  8
0
 62
7
100
AcDbLine
 10
1594.5
 20
1320.0
 30
0.0
 11
1594.5
 21
1228.0
 31
0.0
  0
LINE
  5
1E4
330
1E0
100
AcDbEntity
  8
0
 62
7
100
AcDbLine
 10
1664.5
 20
1320.0
 30
0.0
 11
1664.5
 21
1228.0
 31
0.0
  0
INSERT
  5
1E5
330
1E0
100
AcDbEntity
  8
0
 62
7
100
AcDbBlockReference
  2
_CLOSEDFILLED
 10
1594.5
 20
1238.0
 30
0.0
 41
20.0
 42
20.0
 50
180.0
  0
INSERT
  5
1E7
330
1E0
100
AcDbEntity
  8
0
 62
7
100
AcDbBlockReference
  2
_CLOSEDFILLED
 10
1664.5
 20
1238.0
 30
0.0
 41
20.0
 42
20.0
  0
LINE
  5
1E9
330
1E0
100
AcDbEntity
  8
0
 62
7
100
AcDbLine
 10
1614.5
 20
1238.0
 30
0.0
 11
1644.5
 21
1238.0
 31
0.0
  0
MTEXT
  5
1EA
330
1E0
100
AcDbEntity
  8
0
 62
7
100
AcDbMText
 10
1629.5
 20
1263.0
 30
0.0
 40
20.0
 71
5
  1
70
  0
POINT
  5
1EB
330
1E0
100
AcDbEntity
  8
Defpoints
100
AcDbPoint
 10
1594.5
 20
1238.0
 30
0.0
  0
POINT
  5
1EC
330
1E0
100
AcDbEntity
  8
Defpoints
100
AcDbPoint
 10
1594.5
 20
1325.0
 30
0.0
  0
POINT
  5
1ED
330
1E0
100
AcDbEntity
  8
Defpoints
100
AcDbPoint
 10
1664.5
 20
1325.0
 30
0.0
  0
ENDBLK
  5
1E2
330
1E0
100
AcDbEntity
  8
0
100
AcDbBlockEnd
  0
BLOCK
  5
1F0
330
1EF
100
AcDbEntity
  8
0
100
AcDbBlockBegin
  2
*D28
 70
1
 10
0.0
 20
0.0
 30
0.0
  3
*D28
  1

  0
LINE
  5
1F2
330
1EF
100
AcDbEntity
  8
0
 62
7
100
AcDbLine
 10
1664.5
 20
1320.0
 30
0.0
 11
1664.5
 21
1228.0
 31
0.0
  0
LINE
  5
1F3
330
1EF
100
AcDbEntity
  8
0
 62
7
100
AcDbLine
 10
1830.5
 20
1320.0
 30
0.0
 11
1830.5
 21
1228.0
 31
0.0
  0
INSERT
  5
1F4
330
1EF
100
AcDbEntity
  8
0
 62
7
100
AcDbBlockReference
  2
_CLOSEDFILLED
 10
1664.5
 20
1238.0
 30
0.0
 41
20.0
 42
20.0
 50
180.0
  0
INSERT
  5
1F6
330
1EF
100
AcDbEntity
  8
0
 62
7
100
AcDbBlockReference
  2
_CLOSEDFILLED
 10
1830.5
 20
1238.0
 30
0.0
 41
20.0
 42
20.0
  0
LINE
  5
1F8
330
1EF
100
AcDbEntity
  8
0
 62
7
100
AcDbLine
 10
1684.5
 20
1238.0
 30
0.0
 11
1717.5
 21
1238.0
 31
0.0
  0
LINE
  5
1F9
330
1EF
100
AcDbEntity
  8
0
 62
7
100
AcDbLine
 10
1777.5
 20
1238.0
 30
0.0
 11
1810.5
 21
1238.0
 31
0.0
  0
MTEXT
  5
1FA
330
1EF
100
AcDbEntity
  8
0
 62
7
100
AcDbMText
 10
1747.5
 20
1238.0
 30
0.0
 40
20.0
 71
5
  1
166
  0
POINT
  5
1FB
330
1EF
100
AcDbEntity
  8
Defpoints
100
AcDbPoint
 10
1664.5
 20
1238.0
 30
0.0
  0
POINT
  5
1FC
330
1EF
100
AcDbEntity
  8
Defpoints
100
AcDbPoint
 10
1664.5
 20
1325.0
 30
0.0
  0
POINT
  5
1FD
330
1EF
100
AcDbEntity
  8
Defpoints
100
AcDbPoint
 10
1830.5
 20
1325.0
 30
0.0
  0
ENDBLK
  5
1F1
330
1EF
100
AcDbEntity
  8
0
100
AcDbBlockEnd
  0
BLOCK
  5
200
330
1FF
100
AcDbEntity
  8
0
100
AcDbBlockBegin
  2
*D29
 70
1
 10
0.0
 20
0.0
 30
0.0
  3
*D29
  1

  0
LINE
  5
202
330
1FF
100
AcDbEntity
  8
0
 62
7
100
AcDbLine
 10
1830.5
 20
1320.0
 30
0.0
 11
1830.5
 21
1228.0
 31
0.0
  0
LINE
  5
203
330
1FF
100
AcDbEntity
  8
0
 62
7
100
AcDbLine
 10
2042.0
 20
1320.0
 30
0.0
 11
2042.0
 21
1228.0
 31
0.0
  0
INSERT
  5
204
330
1FF
100
AcDbEntity
  8
0
 62
7
100
AcDbBlockReference
  2
_CLOSEDFILLED
 10
1830.5
 20
1238.0
 30
0.0
 41
20.0
 42
20.0
 50
180.0
  0
INSERT
  5
206
330
1FF
100
AcDbEntity
  8
0
 62
7
100
AcDbBlockReference
  2
_CLOSEDFILLED
 10
2042.0
 20
1238.0
 30
0.0
 41
20.0
 42
20.0
  0
LINE
  5
208
330
1FF
100
AcDbEntity
  8
0
 62
7
100
AcDbLine
 10
1850.5
 20
1238.0
 30
0.0
 11
1886.25
 21
1238.0
 31
0.0
  0
LINE
  5
209
330
1FF
100
AcDbEntity
  8
0
 62
7
100
AcDbLine
 10
1986.25
 20
1238.0
 30
0.0
 11
2022.0
 21
1238.0
 31
0.0
  0
MTEXT
  5
20A
330
1FF
100
AcDbEntity
  8
0
 62
7
100
AcDbMText
 10
1936.25
 20
1238.0
 30
0.0
 40
20.0
 71
5
  1
211.5
  0
POINT
  5
20B
330
1FF
100
AcDbEntity
  8
Defpoints
100
AcDbPoint
 10
1830.5
 20
1238.0
 30
0.0
  0
POINT
  5
20C
330
1FF
100
AcDbEntity
  8
Defpoints
100
AcDbPoint
 10
1830.5
 20
1325.0
 30
0.0
  0
POINT
  5
20D
330
1FF
100
AcDbEntity
  8
Defpoints
100
AcDbPoint
 10
2042.0
 20
1325.0
 30
0.0
  0
ENDBLK
  5
201
330
1FF
100
AcDbEntity
  8
0
100
AcDbBlockEnd
  0
ENDSEC
  0
SECTION
  2
ENTITIES
  0
LWPOLYLINE
  5
32
330
17
100
AcDbEntity
  8
chengtai
100
AcDbPolyline
 90
5
 70
0
 10
0.0
 20
0.0
 10
867.0
 20
0.0
 10
867.0
 20
825.0
 10
0.0
 20
825.0
 10
0.0
 20
0.0
  0
LINE
  5
33
330
17
100
AcDbEntity
  8
dunzhu
100
AcDbLine
 10
347.5
 20
343.0
 30
0.0
 11
519.5
 21
343.0
 31
0.0
  0
LINE
  5
34
330
17
100
AcDbEntity
  8
dunzhu
100
AcDbLine
 10
534.5
 20
358.0
 30
0.0
 11
534.5
 21
467.0
 31
0.0
  0
LINE
  5
35
330
17
100
AcDbEntity
  8
dunzhu
100
AcDbLine
 10
519.5
 20
482.0
 30
0.0
 11
347.5
 21
482.0
 31
0.0
  0
LINE
  5
36
330
17
100
AcDbEntity
  8
dunzhu
100
AcDbLine
 10
332.5
 20
467.0
 30
0.0
 11
332.5
 21
358.0
 31
0.0
  0
ARC
  5
37
330
17
100
AcDbEntity
  8
dunzhu
100
AcDbCircle
 10
347.5
 20
358.0
 30
0.0
 40
15.0
100
AcDbArc
 50
180.0
 51
270.0
  0
ARC
  5
38
330
17
100
AcDbEntity
  8
dunzhu
100
AcDbCircle
 10
519.5
 20
358.0
 30
0.0
 40
15.0
100
AcDbArc
 50
270.0
 51
360.0
  0
ARC
  5
39
330
17
100
AcDbEntity
  8
dunzhu
100
AcDbCircle
 10
519.5
 20
467.0
 30
0.0
 40
15.0
100
AcDbArc
 50
0.0
 51
90.0
  0
ARC
  5
3A
330
17
100
AcDbEntity
  8
dunzhu
100
AcDbCircle
 10
347.5
 20
467.0
 30
0.0
 40
15.0
100
AcDbArc
 50
90.0
 51
180.0
  0
CIRCLE
  5
3B
330
17
100
AcDbEntity
  8
zhuangji
100
AcDbCircle
 10
433.5
 20
294.5
 30
0.0
 40
83.0
  0
CIRCLE
  5
3C
330
17
100
AcDbEntity
  8
zhuangji
  6
DASHED
100
AcDbCircle
 10
433.5
 20
294.5
 30
0.0
 40
83.0
  0
CIRCLE
  5
3D
330
17
100
AcDbEntity
  8
zhuangji
100
AcDbCircle
 10
433.5
 20
530.5
 30
0.0
 40
83.0
  0
CIRCLE
  5
3E
330
17
100
AcDbEntity
  8
zhuangji
  6
DASHED
100
AcDbCircle
 10
433.5
 20
530.5
 30
0.0
 40
83.0
  0
LWPOLYLINE
  5
3F
330
17
100
AcDbEntity
  8
chengtai
100
AcDbPolyline
 90
5
 70
0
 10
0.0
 20
1628.0
 10
867.0
 20
1628.0
 10
867.0
 20
1897.0
 10
0.0
 20
1897.0
 10
0.0
 20
1628.0
  0
LWPOLYLINE
  5
40
330
17
100
AcDbEntity
  8
dunzhu
100
AcDbPolyline
 90
5
 70
0
 10
332.5
 20
1897.0
 10
534.5
 20
1897.0
 10
534.5
 20
2099.0
 10
332.5
 20
2099.0
 10
332.5
 20
1897.0
  0
LWPOLYLINE
  5
41
330
17
100
AcDbEntity
  8
zhuangji
100
AcDbPolyline
 90
5
 70
0
 10
350.5
 20
1325.0
 10
516.5
 20
1325.0
 10
516.5
 20
1628.0
 10
350.5
 20
1628.0
 10
350.5
 20
1325.0
  0
LWPOLYLINE
  5
42
330
17
100
AcDbEntity
  8
chengtai
100
AcDbPolyline
 90
5
 70
0
 10
1217.0
 20
1628.0
 10
2042.0
 20
1628.0
 10
2042.0
 20
1897.0
 10
1217.0
 20
1897.0
 10
1217.0
 20
1628.0
  0
LWPOLYLINE
  5
43
330
17
100
AcDbEntity
  8
dunzhu
100
AcDbPolyline
 90
5
 70
0
 10
1560.0
 20
1897.0
 10
1699.0
 20
1897.0
 10
1699.0
 20
2099.0
 10
1560.0
 20
2099.0
 10
1560.0
 20
1897.0
  0
LWPOLYLINE
  5
44
330
17
100
AcDbEntity
  8
zhuangji
100
AcDbPolyline
 90
5
 70
0
 10
1428.5
 20
1325.0
 10
1594.5
 20
1325.0
 10
1594.5
 20
1628.0
 10
1428.5
 20
1628.0
 10
1428.5
 20
1325.0
  0
LWPOLYLINE
  5
45
330
17
100
AcDbEntity
  8
zhuangji
100
AcDbPolyline
 90
5
 70
0
 10
1664.5
 20
1325.0
 10
1830.5
 20
1325.0
 10
1830.5
 20
1628.0
 10
1664.5
 20
1628.0
 10
1664.5
 20
1325.0
  0
INSERT
  5
20E
330
17
100
AcDbEntity
  8
0
 62
7
100
AcDbBlockReference
  2
_CLOSEDFILLED
 10
530.1066017177982
 20
347.39339828220176
 30
0.0
 41
20.0
 42
20.0
 50
134.99999999999986
  0
LINE
  5
210
330
17
100
AcDbEntity
  8
0
 62
7
100
AcDbLine
 10
519.5
 20
358.0
 30
0.0
 11
530.1066017177982
 21
347.39339828220176
 31
0.0
  0
LINE
  5
211
330
17
100
AcDbEntity
  8
0
 62
7
100
AcDbLine
 10
547.7842712474618
 20
329.71572875253804
 30
0.0
 11
544.2487373415291
 21
333.25126265847075
 31
0.0
  0
MTEXT
  5
212
330
17
100
AcDbEntity
  8
0
 62
7
100
AcDbMText
 10
568.9974746830582
 20
308.50252531694156
 30
0.0
 40
20.0
 71
5
  1
R15
 50
314.99999999999983
  0
POINT
  5
213
330
17
100
AcDbEntity
  8
Defpoints
 62
7
100
AcDbPoint
 10
519.5
 20
358.0
 30
0.0
  0
POINT
  5
214
330
17
100
AcDbEntity
  8
Defpoints
 62
7
100
AcDbPoint
 10
530.1066017177982
 20
347.39339828220176
 30
0.0
  0
INSERT
  5
215
330
17
100
AcDbEntity
  8
0
 62
7
100
AcDbBlockReference
  2
_CLOSEDFILLED
 10
492.18986283848346
 20
235.81013716151654
 30
0.0
 41
20.0
 42
20.0
 50
135.0
  0
INSERT
  5
217
330
17
100
AcDbEntity
  8
0
 62
7
100
AcDbBlockReference
  2
_CLOSEDFILLED
 10
374.81013716151654
 20
353.18986283848346
 30
0.0
 41
20.0
 42
20.0
 50
135.0
  0
LINE
  5
219
330
17
100
AcDbEntity
  8
0
 62
7
100
AcDbLine
 10
506.3319984622144
 20
221.66800153778559
 30
0.0
 11
388.9522727852475
 21
339.0477272147525
 31
0.0
  0
LINE
  5
21A
330
17
100
AcDbEntity
  8
0
 62
7
100
AcDbLine
 10
509.8675323681472
 20
218.13246763185282
 30
0.0
 11
506.3319984622144
 21
221.66800153778559
 31
0.0
  0
MTEXT
  5
21B
330
17
100
AcDbEntity
  8
0
 62
7
100
AcDbMText
 10
538.1518036156091
 20
189.84819638439095
 30
0.0
 40
20.0
 71
5
  1
%%c166
 50
315.0
  0
POINT
  5
21C
330
17
100
AcDbEntity
  8
Defpoints
 62
7
100
AcDbPoint
 10
433.5
 20
294.5
 30
0.0
  0
POINT
  5
21D
330
17
100
AcDbEntity
  8
Defpoints
 62
7
100
AcDbPoint
 10
492.18986283848346
 20
235.81013716151654
 30
0.0
  0
INSERT
  5
21E
330
17
100
AcDbEntity
  8
0
 62
7
100
AcDbBlockReference
  2
_CLOSEDFILLED
 10
492.18986283848346
 20
589.1898628384835
 30
0.0
 41
20.0
 42
20.0
 50
225.0
  0
INSERT
  5
220
330
17
100
AcDbEntity
  8
0
 62
7
100
AcDbBlockReference
  2
_CLOSEDFILLED
 10
374.81013716151654
 20
471.81013716151654
 30
0.0
 41
20.0
 42
20.0
 50
225.0
  0
LINE
  5
222
330
17
100
AcDbEntity
  8
0
 62
7
100
AcDbLine
 10
506.3319984622144
 20
603.3319984622144
 30
0.0
 11
388.9522727852475
 21
485.9522727852475
 31
0.0
  0
LINE
  5
223
330
17
100
AcDbEntity
  8
0
 62
7
100
AcDbLine
 10
509.8675323681472
 20
606.8675323681472
 30
0.0
 11
506.3319984622144
 21
603.3319984622144
 31
0.0
  0
MTEXT
  5
224
330
17
100
AcDbEntity
  8
0
 62
7
100
AcDbMText
 10
538.1518036156091
 20
635.1518036156091
 30
0.0
 40
20.0
 71
5
  1
%%c166
 50
45.0
  0
POINT
  5
225
330
17
100
AcDbEntity
  8
Defpoints
 62
7
100
AcDbPoint
 10
433.5
 20
530.5
 30
0.0
  0
POINT
  5
226
330
17
100
AcDbEntity
  8
Defpoints
 62
7
100
AcDbPoint
 10
492.18986283848346
 20
589.1898628384835
 30
0.0
  0
LINE
  5
227
330
17
100
AcDbEntity
  8
0
 62
7
100
AcDbLine
 10
0.0
 20
-5.0
 30
0.0
 11
0.0
 21
-83.0
 31
0.0
  0
LINE
  5
228
330
17
100
AcDbEntity
  8
0
 62
7
100
AcDbLine
 10
332.5
 20
-5.0
 30
0.0
 11
332.5
 21
-83.0
 31
0.0
  0
INSERT
  5
229
330
17
100
AcDbEntity
  8
0
 62
7
100
AcDbBlockReference
  2
_CLOSEDFILLED
 10
0.0
 20
-73.0
 30
0.0
 41
20.0
 42
20.0
 50
180.0
  0
INSERT
  5
22B
330
17
100
AcDbEntity
  8
0
 62
7
100
AcDbBlockReference
  2
_CLOSEDFILLED
 10
332.5
 20
-73.0
 30
0.0
 41
20.0
 42
20.0
  0
LINE
  5
22D
330
17
100
AcDbEntity
  8
0
 62
7
100
AcDbLine
 10
20.0
 20
-73.0
 30
0.0
 11
116.25
 21
-73.0
 31
0.0
  0
LINE
  5
22E
330
17
100
AcDbEntity
  8
0
 62
7
100
AcDbLine
 10
216.24999999999997
 20
-73.0
 30
0.0
 11
312.5
 21
-73.0
 31
0.0
  0
MTEXT
  5
22F
330
17
100
AcDbEntity
  8
0
 62
7
100
AcDbMText
 10
166.25
 20
-73.0
 30
0.0
 40
20.0
 71
5
  1
332.5
  0
POINT
  5
230
330
17
100
AcDbEntity
  8
Defpoints
 62
7
100
AcDbPoint
 10
0.0
 20
-73.0
 30
0.0
  0
POINT
  5
231
330
17
100
AcDbEntity
  8
Defpoints
 62
7
100
AcDbPoint
 10
0.0
 20
0.0
 30
0.0
  0
POINT
  5
232
330
17
100
AcDbEntity
  8
Defpoints
 62
7
100
AcDbPoint
 10
332.5
 20
0.0
 30
0.0
  0
LINE
  5
233
330
17
100
AcDbEntity
  8
0
 62
7
100
AcDbLine
 10
332.5
 20
-5.0
 30
0.0
 11
332.5
 21
-83.0
 31
0.0
  0
LINE
  5
234
330
17
100
AcDbEntity
  8
0
 62
7
100
AcDbLine
 10
534.5
 20
-5.0
 30
0.0
 11
534.5
 21
-83.0
 31
0.0
  0
INSERT
  5
235
330
17
100
AcDbEntity
  8
0
 62
7
100
AcDbBlockReference
  2
_CLOSEDFILLED
 10
332.5
 20
-73.0
 30
0.0
 41
20.0
 42
20.0
 50
180.0
  0
INSERT
  5
237
330
17
100
AcDbEntity
  8
0
 62
7
100
AcDbBlockReference
  2
_CLOSEDFILLED
 10
534.5
 20
-73.0
 30
0.0
 41
20.0
 42
20.0
  0
LINE
  5
239
330
17
100
AcDbEntity
  8
0
 62
7
100
AcDbLine
 10
352.5
 20
-73.0
 30
0.0
 11
403.5
 21
-73.0
 31
0.0
  0
LINE
  5
23A
330
17
100
AcDbEntity
  8
0
 62
7
100
AcDbLine
 10
463.5
 20
-73.0
 30
0.0
 11
514.5
 21
-73.0
 31
0.0
  0
MTEXT
  5
23B
330
17
100
AcDbEntity
  8
0
 62
7
100
AcDbMText
 10
433.5
 20
-73.0
 30
0.0
 40
20.0
 71
5
  1
202
  0
POINT
  5
23C
330
17
100
AcDbEntity
  8
Defpoints
 62
7
100
AcDbPoint
 10
332.5
 20
-73.0
 30
0.0
  0
POINT
  5
23D
330
17
100
AcDbEntity
  8
Defpoints
 62
7
100
AcDbPoint
 10
332.5
 20
0.0
 30
0.0
  0
POINT
  5
23E
330
17
100
AcDbEntity
  8
Defpoints
 62
7
100
AcDbPoint
 10
534.5
 20
0.0
 30
0.0
  0
LINE
  5
23F
330
17
100
AcDbEntity
  8
0
 62
7
100
AcDbLine
 10
534.5
 20
-5.0
 30
0.0
 11
534.5
 21
-83.0
 31
0.0
  0
LINE
  5
240
330
17
100
AcDbEntity
  8
0
 62
7
100
AcDbLine
 10
867.0
 20
-5.0
 30
0.0
 11
867.0
 21
-83.0
 31
0.0
  0
INSERT
  5
241
330
17
100
AcDbEntity
  8
0
 62
7
100
AcDbBlockReference
  2
_CLOSEDFILLED
 10
534.5
 20
-73.0
 30
0.0
 41
20.0
 42
20.0
 50
180.0
  0
INSERT
  5
243
330
17
100
AcDbEntity
  8
0
 62
7
100
AcDbBlockReference
  2
_CLOSEDFILLED
 10
867.0
 20
-73.0
 30
0.0
 41
20.0
 42
20.0
  0
LINE
  5
245
330
17
100
AcDbEntity
  8
0
 62
7
100
AcDbLine
 10
554.5
 20
-73.0
 30
0.0
 11
650.75
 21
-73.0
 31
0.0
  0
LINE
  5
246
330
17
100
AcDbEntity
  8
0
 62
7
100
AcDbLine
 10
750.75
 20
-73.0
 30
0.0
 11
847.0
 21
-73.0
 31
0.0
  0
MTEXT
  5
247
330
17
100
AcDbEntity
  8
0
 62
7
100
AcDbMText
 10
700.75
 20
-73.0
 30
0.0
 40
20.0
 71
5
  1
332.5
  0
POINT
  5
248
330
17
100
AcDbEntity
  8
Defpoints
 62
7
100
AcDbPoint
 10
534.5
 20
-73.0
 30
0.0
  0
POINT
  5
249
330
17
100
AcDbEntity
  8
Defpoints
 62
7
100
AcDbPoint
 10
534.5
 20
0.0
 30
0.0
  0
POINT
  5
24A
330
17
100
AcDbEntity
  8
Defpoints
 62
7
100
AcDbPoint
 10
867.0
 20
0.0
 30
0.0
  0
LINE
  5
24B
330
17
100
AcDbEntity
  8
0
 62
7
100
AcDbLine
 10
-5.0
 20
0.0
 30
0.0
 11
-77.0
 21
0.0
 31
0.0
  0
LINE
  5
24C
330
17
100
AcDbEntity
  8
0
 62
7
100
AcDbLine
 10
-5.0
 20
343.0
 30
0.0
 11
-77.0
 21
343.0
 31
0.0
  0
INSERT
  5
24D
330
17
100
AcDbEntity
  8
0
 62
7
100
AcDbBlockReference
  2
_CLOSEDFILLED
 10
-67.0
 20
0.0
 30
0.0
 41
20.0
 42
20.0
 50
270.0
  0
INSERT
  5
24F
330
17
100
AcDbEntity
  8
0
 62
7
100
AcDbBlockReference
  2
_CLOSEDFILLED
 10
-67.0
 20
343.0
 30
0.0
 41
20.0
 42
20.0
 50
90.0
  0
LINE
  5
251
330
17
100
AcDbEntity
  8
0
 62
7
100
AcDbLine
 10
-67.0
 20
20.0
 30
0.0
 11
-67.0
 21
141.5
 31
0.0
  0
LINE
  5
252
330
17
100
AcDbEntity
  8
0
 62
7
100
AcDbLine
 10
-67.0
 20
201.5
 30
0.0
 11
-67.0
 21
323.0
 31
0.0
  0
MTEXT
  5
253
330
17
100
AcDbEntity
  8
0
 62
7
100
AcDbMText
 10
-67.0
 20
171.5
 30
0.0
 40
20.0
 71
5
  1
343
 50
90.0
  0
POINT
  5
254
330
17
100
AcDbEntity
  8
Defpoints
 62
7
100
AcDbPoint
 10
-67.0
 20
0.0
 30
0.0
  0
POINT
  5
255
330
17
100
AcDbEntity
  8
Defpoints
 62
7
100
AcDbPoint
 10
0.0
 20
0.0
 30
0.0
  0
POINT
  5
256
330
17
100
AcDbEntity
  8
Defpoints
 62
7
100
AcDbPoint
 10
0.0
 20
343.0
 30
0.0
  0
LINE
  5
257
330
17
100
AcDbEntity
  8
0
 62
7
100
AcDbLine
 10
-5.0
 20
343.0
 30
0.0
 11
-77.0
 21
343.0
 31
0.0
  0
LINE
  5
258
330
17
100
AcDbEntity
  8
0
 62
7
100
AcDbLine
 10
-5.0
 20
482.0
 30
0.0
 11
-77.0
 21
482.0
 31
0.0
  0
INSERT
  5
259
330
17
100
AcDbEntity
  8
0
 62
7
100
AcDbBlockReference
  2
_CLOSEDFILLED
 10
-67.0
 20
343.0
 30
0.0
 41
20.0
 42
20.0
 50
270.0
  0
INSERT
  5
25B
330
17
100
AcDbEntity
  8
0
 62
7
100
AcDbBlockReference
  2
_CLOSEDFILLED
 10
-67.0
 20
482.0
 30
0.0
 41
20.0
 42
20.0
 50
90.0
  0
LINE
  5
25D
330
17
100
AcDbEntity
  8
0
 62
7
100
AcDbLine
 10
-67.0
 20
363.0
 30
0.0
 11
-67.0
 21
382.5
 31
0.0
  0
LINE
  5
25E
330
17
100
AcDbEntity
  8
0
 62
7
100
AcDbLine
 10
-67.0
 20
442.5
 30
0.0
 11
-67.0
 21
462.0
 31
0.0
  0
MTEXT
  5
25F
330
17
100
AcDbEntity
  8
0
 62
7
100
AcDbMText
 10
-67.0
 20
412.5
 30
0.0
 40
20.0
 71
5
  1
139
 50
90.0
  0
POINT
  5
260
330
17
100
AcDbEntity
  8
Defpoints
 62
7
100
AcDbPoint
 10
-67.0
 20
343.0
 30
0.0
  0
POINT
  5
261
330
17
100
AcDbEntity
  8
Defpoints
 62
7
100
AcDbPoint
 10
0.0
 20
343.0
 30
0.0
  0
POINT
  5
262
330
17
100
AcDbEntity
  8
Defpoints
 62
7
100
AcDbPoint
 10
0.0
 20
482.0
 30
0.0
  0
LINE
  5
263
330
17
100
AcDbEntity
  8
0
 62
7
100
AcDbLine
 10
-5.0
 20
482.0
 30
0.0
 11
-77.0
 21
482.0
 31
0.0
  0
LINE
  5
264
330
17
100
AcDbEntity
  8
0
 62
7
100
AcDbLine
 10
-5.0
 20
825.0
 30
0.0
 11
-77.0
 21
825.0
 31
0.0
  0
INSERT
  5
265
330
17
100
AcDbEntity
  8
0
 62
7
100
AcDbBlockReference
  2
_CLOSEDFILLED
 10
-67.0
 20
482.0
 30
0.0
 41
20.0
 42
20.0
 50
270.0
  0
INSERT
  5
267
330
17
100
AcDbEntity
  8
0
 62
7
100
AcDbBlockReference
  2
_CLOSEDFILLED
 10
-67.0
 20
825.0
 30
0.0
 41
20.0
 42
20.0
 50
90.0
  0
LINE
  5
269
330
17
100
AcDbEntity
  8
0
 62
7
100
AcDbLine
 10
-67.0
 20
502.0
 30
0.0
 11
-67.0
 21
623.5
 31
0.0
  0
LINE
  5
26A
330
17
100
AcDbEntity
  8
0
 62
7
100
AcDbLine
 10
-67.0
 20
683.5
 30
0.0
 11
-67.0
 21
805.0
 31
0.0
  0
MTEXT
  5
26B
330
17
100
AcDbEntity
  8
0
 62
7
100
AcDbMText
 10
-67.0
 20
653.5
 30
0.0
 40
20.0
 71
5
  1
343
 50
90.0
  0
POINT
  5
26C
330
17
100
AcDbEntity
  8
Defpoints
 62
7
100
AcDbPoint
 10
-67.0
 20
482.0
 30
0.0
  0
POINT
  5
26D
330
17
100
AcDbEntity
  8
Defpoints
 62
7
100
AcDbPoint
 10
0.0
 20
482.0
 30
0.0
  0
POINT
  5
26E
330
17
100
AcDbEntity
  8
Defpoints
 62
7
100
AcDbPoint
 10
0.0
 20
825.0
 30
0.0
  0
LINE
  5
26F
330
17
100
AcDbEntity
  8
0
 62
7
100
AcDbLine
 10
-5.0
 20
1325.0
 30
0.0
 11
-97.0
 21
1325.0
 31
0.0
  0
LINE
  5
270
330
17
100
AcDbEntity
  8
0
 62
7
100
AcDbLine
 10
-5.0
 20
1628.0
 30
0.0
 11
-97.0
 21
1628.0
 31
0.0
  0
INSERT
  5
271
330
17
100
AcDbEntity
  8
0
 62
7
100
AcDbBlockReference
  2
_CLOSEDFILLED
 10
-87.0
 20
1325.0
 30
0.0
 41
20.0
 42
20.0
 50
270.0
  0
INSERT
  5
273
330
17
100
AcDbEntity
  8
0
 62
7
100
AcDbBlockReference
  2
_CLOSEDFILLED
 10
-87.0
 20
1628.0
 30
0.0
 41
20.0
 42
20.0
 50
90.0
  0
LINE
  5
275
330
17
100
AcDbEntity
  8
0
 62
7
100
AcDbLine
 10
-87.0
 20
1345.0
 30
0.0
 11
-87.0
 21
1446.5
 31
0.0
  0
LINE
  5
276
330
17
100
AcDbEntity
  8
0
 62
7
100
AcDbLine
 10
-87.0
 20
1506.5
 30
0.0
 11
-87.0
 21
1608.0
 31
0.0
  0
MTEXT
  5
277
330
17
100
AcDbEntity
  8
0
 62
7
100
AcDbMText
 10
-87.0
 20
1476.5
 30
0.0
 40
20.0
 71
5
  1
303
 50
90.0
  0
POINT
  5
278
330
17
100
AcDbEntity
  8
Defpoints
 62
7
100
AcDbPoint
 10
-87.0
 20
1325.0
 30
0.0
  0
POINT
  5
279
330
17
100
AcDbEntity
  8
Defpoints
 62
7
100
AcDbPoint
 10
0.0
 20
1325.0
 30
0.0
  0
POINT
  5
27A
330
17
100
AcDbEntity
  8
Defpoints
 62
7
100
AcDbPoint
 10
0.0
 20
1628.0
 30
0.0
  0
LINE
  5
27B
330
17
100
AcDbEntity
  8
0
 62
7
100
AcDbLine
 10
-5.0
 20
1628.0
 30
0.0
 11
-97.0
 21
1628.0
 31
0.0
  0
LINE
  5
27C
330
17
100
AcDbEntity
  8
0
 62
7
100
AcDbLine
 10
-5.0
 20
1897.0
 30
0.0
 11
-97.0
 21
1897.0
 31
0.0
  0
INSERT
  5
27D
330
17
100
AcDbEntity
  8
0
 62
7
100
AcDbBlockReference
  2
_CLOSEDFILLED
 10
-87.0
 20
1628.0
 30
0.0
 41
20.0
 42
20.0
 50
270.0
  0
INSERT
  5
27F
330
17
100
AcDbEntity
  8
0
 62
7
100
AcDbBlockReference
  2
_CLOSEDFILLED
 10
-87.0
 20
1897.0
 30
0.0
 41
20.0
 42
20.0
 50
90.0
  0
LINE
  5
281
330
17
100
AcDbEntity
  8
0
 62
7
100
AcDbLine
 10
-87.0
 20
1648.0
 30
0.0
 11
-87.0
 21
1732.5
 31
0.0
  0
LINE
  5
282
330
17
100
AcDbEntity
  8
0
 62
7
100
AcDbLine
 10
-87.0
 20
1792.5
 30
0.0
 11
-87.0
 21
1877.0
 31
0.0
  0
MTEXT
  5
283
330
17
100
AcDbEntity
  8
0
 62
7
100
AcDbMText
 10
-87.0
 20
1762.5
 30
0.0
 40
20.0
 71
5
  1
269
 50
90.0
  0
POINT
  5
284
330
17
100
AcDbEntity
  8
Defpoints
 62
7
100
AcDbPoint
 10
-87.0
 20
1628.0
 30
0.0
  0
POINT
  5
285
330
17
100
AcDbEntity
  8
Defpoints
 62
7
100
AcDbPoint
 10
0.0
 20
1628.0
 30
0.0
  0
POINT
  5
286
330
17
100
AcDbEntity
  8
Defpoints
 62
7
100
AcDbPoint
 10
0.0
 20
1897.0
 30
0.0
  0
LINE
  5
287
330
17
100
AcDbEntity
  8
0
 62
7
100
AcDbLine
 10
-5.0
 20
1897.0
 30
0.0
 11
-97.0
 21
1897.0
 31
0.0
  0
LINE
  5
288
330
17
100
AcDbEntity
  8
0
 62
7
100
AcDbLine
 10
-5.0
 20
2099.0
 30
0.0
 11
-97.0
 21
2099.0
 31
0.0
  0
INSERT
  5
289
330
17
100
AcDbEntity
  8
0
 62
7
100
AcDbBlockReference
  2
_CLOSEDFILLED
 10
-87.0
 20
1897.0
 30
0.0
 41
20.0
 42
20.0
 50
270.0
  0
INSERT
  5
28B
330
17
100
AcDbEntity
  8
0
 62
7
100
AcDbBlockReference
  2
_CLOSEDFILLED
 10
-87.0
 20
2099.0
 30
0.0
 41
20.0
 42
20.0
 50
90.0
  0
LINE
  5
28D
330
17
100
AcDbEntity
  8
0
 62
7
100
AcDbLine
 10
-87.0
 20
1917.0
 30
0.0
 11
-87.0
 21
1968.0
 31
0.0
  0
LINE
  5
28E
330
17
100
AcDbEntity
  8
0
 62
7
100
AcDbLine
 10
-87.0
 20
2028.0
 30
0.0
 11
-87.0
 21
2079.0
 31
0.0
  0
MTEXT
  5
28F
330
17
100
AcDbEntity
  8
0
 62
7
100
AcDbMText
 10
-87.0
 20
1998.0
 30
0.0
 40
20.0
 71
5
  1
202
 50
90.0
  0
POINT
  5
290
330
17
100
AcDbEntity
  8
Defpoints
 62
7
100
AcDbPoint
 10
-87.0
 20
1897.0
 30
0.0
  0
POINT
  5
291
330
17
100
AcDbEntity
  8
Defpoints
 62
7
100
AcDbPoint
 10
0.0
 20
1897.0
 30
0.0
  0
POINT
  5
292
330
17
100
AcDbEntity
  8
Defpoints
 62
7
100
AcDbPoint
 10
0.0
 20
2099.0
 30
0.0
  0
LINE
  5
293
330
17
100
AcDbEntity
  8
0
 62
7
100
AcDbLine
 10
0.0
 20
2104.0
 30
0.0
 11
0.0
 21
2192.0
 31
0.0
  0
LINE
  5
294
330
17
100
AcDbEntity
  8
0
 62
7
100
AcDbLine
 10
332.5
 20
2104.0
 30
0.0
 11
332.5
 21
2192.0
 31
0.0
  0
INSERT
  5
295
330
17
100
AcDbEntity
  8
0
 62
7
100
AcDbBlockReference
  2
_CLOSEDFILLED
 10
0.0
 20
2182.0
 30
0.0
 41
20.0
 42
20.0
 50
180.0
  0
INSERT
  5
297
330
17
100
AcDbEntity
  8
0
 62
7
100
AcDbBlockReference
  2
_CLOSEDFILLED
 10
332.5
 20
2182.0
 30
0.0
 41
20.0
 42
20.0
  0
LINE
  5
299
330
17
100
AcDbEntity
  8
0
 62
7
100
AcDbLine
 10
20.0
 20
2182.0
 30
0.0
 11
116.25
 21
2182.0
 31
0.0
  0
LINE
  5
29A
330
17
100
AcDbEntity
  8
0
 62
7
100
AcDbLine
 10
216.24999999999997
 20
2182.0
 30
0.0
 11
312.5
 21
2182.0
 31
0.0
  0
MTEXT
  5
29B
330
17
100
AcDbEntity
  8
0
 62
7
100
AcDbMText
 10
166.25
 20
2182.0
 30
0.0
 40
20.0
 71
5
  1
332.5
  0
POINT
  5
29C
330
17
100
AcDbEntity
  8
Defpoints
 62
7
100
AcDbPoint
 10
0.0
 20
2182.0
 30
0.0
  0
POINT
  5
29D
330
17
100
AcDbEntity
  8
Defpoints
 62
7
100
AcDbPoint
 10
0.0
 20
2099.0
 30
0.0
  0
POINT
  5
29E
330
17
100
AcDbEntity
  8
Defpoints
 62
7
100
AcDbPoint
 10
332.5
 20
2099.0
 30
0.0
  0
LINE
  5
29F
330
17
100
AcDbEntity
  8
0
 62
7
100
AcDbLine
 10
332.5
 20
2104.0
 30
0.0
 11
332.5
 21
2192.0
 31
0.0
  0
LINE
  5
2A0
330
17
100
AcDbEntity
  8
0
 62
7
100
AcDbLine
 10
534.5
 20
2104.0
 30
0.0
 11
534.5
 21
2192.0
 31
0.0
  0
INSERT
  5
2A1
330
17
100
AcDbEntity
  8
0
 62
7
100
AcDbBlockReference
  2
_CLOSEDFILLED
 10
332.5
 20
2182.0
 30
0.0
 41
20.0
 42
20.0
 50
180.0
  0
INSERT
  5
2A3
330
17
100
AcDbEntity
  8
0
 62
7
100
AcDbBlockReference
  2
_CLOSEDFILLED
 10
534.5
 20
2182.0
 30
0.0
 41
20.0
 42
20.0
  0
LINE
  5
2A5
330
17
100
AcDbEntity
  8
0
 62
7
100
AcDbLine
 10
352.5
 20
2182.0
 30
0.0
 11
403.5
 21
2182.0
 31
0.0
  0
LINE
  5
2A6
330
17
100
AcDbEntity
  8
0
 62
7
100
AcDbLine
 10
463.5
 20
2182.0
 30
0.0
 11
514.5
 21
2182.0
 31
0.0
  0
MTEXT
  5
2A7
330
17
100
AcDbEntity
  8
0
 62
7
100
AcDbMText
 10
433.5
 20
2182.0
 30
0.0
 40
20.0
 71
5
  1
202
  0
POINT
  5
2A8
330
17
100
AcDbEntity
  8
Defpoints
 62
7
100
AcDbPoint
 10
332.5
 20
2182.0
 30
0.0
  0
POINT
  5
2A9
330
17
100
AcDbEntity
  8
Defpoints
 62
7
100
AcDbPoint
 10
332.5
 20
2099.0
 30
0.0
  0
POINT
  5
2AA
330
17
100
AcDbEntity
  8
Defpoints
 62
7
100
AcDbPoint
 10
534.5
 20
2099.0
 30
0.0
  0
LINE
  5
2AB
330
17
100
AcDbEntity
  8
0
 62
7
100
AcDbLine
 10
534.5
 20
2104.0
 30
0.0
 11
534.5
 21
2192.0
 31
0.0
  0
LINE
  5
2AC
330
17
100
AcDbEntity
  8
0
 62
7
100
AcDbLine
 10
867.0
 20
2104.0
 30
0.0
 11
867.0
 21
2192.0
 31
0.0
  0
INSERT
  5
2AD
330
17
100
AcDbEntity
  8
0
 62
7
100
AcDbBlockReference
  2
_CLOSEDFILLED
 10
534.5
 20
2182.0
 30
0.0
 41
20.0
 42
20.0
 50
180.0
  0
INSERT
  5
2AF
330
17
100
AcDbEntity
  8
0
 62
7
100
AcDbBlockReference
  2
_CLOSEDFILLED
 10
867.0
 20
2182.0
 30
0.0
 41
20.0
 42
20.0
  0
LINE
  5
2B1
330
17
100
AcDbEntity
  8
0
 62
7
100
AcDbLine
 10
554.5
 20
2182.0
 30
0.0
 11
650.75
 21
2182.0
 31
0.0
  0
LINE
  5
2B2
330
17
100
AcDbEntity
  8
0
 62
7
100
AcDbLine
 10
750.75
 20
2182.0
 30
0.0
 11
847.0
 21
2182.0
 31
0.0
  0
MTEXT
  5
2B3
330
17
100
AcDbEntity
  8
0
 62
7
100
AcDbMText
 10
700.75
 20
2182.0
 30
0.0
 40
20.0
 71
5
  1
332.5
  0
POINT
  5
2B4
330
17
100
AcDbEntity
  8
Defpoints
 62
7
100
AcDbPoint
 10
534.5
 20
2182.0
 30
0.0
  0
POINT
  5
2B5
330
17
100
AcDbEntity
  8
Defpoints
 62
7
100
AcDbPoint
 10
534.5
 20
2099.0
 30
0.0
  0
POINT
  5
2B6
330
17
100
AcDbEntity
  8
Defpoints
 62
7
100
AcDbPoint
 10
867.0
 20
2099.0
 30
0.0
  0
LINE
  5
2B7
330
17
100
AcDbEntity
  8
0
 62
7
100
AcDbLine
 10
0.0
 20
1320.0
 30
0.0
 11
0.0
 21
1229.0
 31
0.0
  0
LINE
  5
2B8
330
17
100
AcDbEntity
  8
0
 62
7
100
AcDbLine
 10
350.5
 20
1320.0
 30
0.0
 11
350.5
 21
1229.0
 31
0.0
  0
INSERT
  5
2B9
330
17
100
AcDbEntity
  8
0
 62
7
100
AcDbBlockReference
  2
_CLOSEDFILLED
 10
0.0
 20
1239.0
 30
0.0
 41
20.0
 42
20.0
 50
180.0
  0
INSERT
  5
2BB
330
17
100
AcDbEntity
  8
0
 62
7
100
AcDbBlockReference
  2
_CLOSEDFILLED
 10
350.5
 20
1239.0
 30
0.0
 41
20.0
 42
20.0
  0
LINE
  5
2BD
330
17
100
AcDbEntity
  8
0
 62
7
100
AcDbLine
 10
20.0
 20
1239.0
 30
0.0
 11
125.25
 21
1239.0
 31
0.0
  0
LINE
  5
2BE
330
17
100
AcDbEntity
  8
0
 62
7
100
AcDbLine
 10
225.25000000000003
 20
1239.0
 30
0.0
 11
330.5
 21
1239.0
 31
0.0
  0
MTEXT
  5
2BF
330
17
100
AcDbEntity
  8
0
 62
7
100
AcDbMText
 10
175.25
 20
1239.0
 30
0.0
 40
20.0
 71
5
  1
350.5
  0
POINT
  5
2C0
330
17
100
AcDbEntity
  8
Defpoints
 62
7
100
AcDbPoint
 10
0.0
 20
1239.0
 30
0.0
  0
POINT
  5
2C1
330
17
100
AcDbEntity
  8
Defpoints
 62
7
100
AcDbPoint
 10
0.0
 20
1325.0
 30
0.0
  0
POINT
  5
2C2
330
17
100
AcDbEntity
  8
Defpoints
 62
7
100
AcDbPoint
 10
350.5
 20
1325.0
 30
0.0
  0
LINE
  5
2C3
330
17
100
AcDbEntity
  8
0
 62
7
100
AcDbLine
 10
350.5
 20
1320.0
 30
0.0
 11
350.5
 21
1229.0
 31
0.0
  0
LINE
  5
2C4
330
17
100
AcDbEntity
  8
0
 62
7
100
AcDbLine
 10
516.5
 20
1320.0
 30
0.0
 11
516.5
 21
1229.0
 31
0.0
  0
INSERT
  5
2C5
330
17
100
AcDbEntity
  8
0
 62
7
100
AcDbBlockReference
  2
_CLOSEDFILLED
 10
350.5
 20
1239.0
 30
0.0
 41
20.0
 42
20.0
 50
180.0
  0
INSERT
  5
2C7
330
17
100
AcDbEntity
  8
0
 62
7
100
AcDbBlockReference
  2
_CLOSEDFILLED
 10
516.5
 20
1239.0
 30
0.0
 41
20.0
 42
20.0
  0
LINE
  5
2C9
330
17
100
AcDbEntity
  8
0
 62
7
100
AcDbLine
 10
370.5
 20
1239.0
 30
0.0
 11
403.5
 21
1239.0
 31
0.0
  0
LINE
  5
2CA
330
17
100
AcDbEntity
  8
0
 62
7
100
AcDbLine
 10
463.5
 20
1239.0
 30
0.0
 11
496.5
 21
1239.0
 31
0.0
  0
MTEXT
  5
2CB
330
17
100
AcDbEntity
  8
0
 62
7
100
AcDbMText
 10
433.5
 20
1239.0
 30
0.0
 40
20.0
 71
5
  1
166
  0
POINT
  5
2CC
330
17
100
AcDbEntity
  8
Defpoints
 62
7
100
AcDbPoint
 10
350.5
 20
1239.0
 30
0.0
  0
POINT
  5
2CD
330
17
100
AcDbEntity
  8
Defpoints
 62
7
100
AcDbPoint
 10
350.5
 20
1325.0
 30
0.0
  0
POINT
  5
2CE
330
17
100
AcDbEntity
  8
Defpoints
 62
7
100
AcDbPoint
 10
516.5
 20
1325.0
 30
0.0
  0
LINE
  5
2CF
330
17
100
AcDbEntity
  8
0
 62
7
100
AcDbLine
 10
516.5
 20
1320.0
 30
0.0
 11
516.5
 21
1229.0
 31
0.0
  0
LINE
  5
2D0
330
17
100
AcDbEntity
  8
0
 62
7
100
AcDbLine
 10
867.0
 20
1320.0
 30
0.0
 11
867.0
 21
1229.0
 31
0.0
  0
INSERT
  5
2D1
330
17
100
AcDbEntity
  8
0
 62
7
100
AcDbBlockReference
  2
_CLOSEDFILLED
 10
516.5
 20
1239.0
 30
0.0
 41
20.0
 42
20.0
 50
180.0
  0
INSERT
  5
2D3
330
17
100
AcDbEntity
  8
0
 62
7
100
AcDbBlockReference
  2
_CLOSEDFILLED
 10
867.0
 20
1239.0
 30
0.0
 41
20.0
 42
20.0
  0
LINE
  5
2D5
330
17
100
AcDbEntity
  8
0
 62
7
100
AcDbLine
 10
536.5
 20
1239.0
 30
0.0
 11
641.75
 21
1239.0
 31
0.0
  0
LINE
  5
2D6
330
17
100
AcDbEntity
  8
0
 62
7
100
AcDbLine
 10
741.75
 20
1239.0
 30
0.0
 11
847.0
 21
1239.0
 31
0.0
  0
MTEXT
  5
2D7
330
17
100
AcDbEntity
  8
0
 62
7
100
AcDbMText
 10
691.75
 20
1239.0
 30
0.0
 40
20.0
 71
5
  1
350.5
  0
POINT
  5
2D8
330
17
100
AcDbEntity
  8
Defpoints
 62
7
100
AcDbPoint
 10
516.5
 20
1239.0
 30
0.0
  0
POINT
  5
2D9
330
17
100
AcDbEntity
  8
Defpoints
 62
7
100
AcDbPoint
 10
516.5
 20
1325.0
 30
0.0
  0
POINT
  5
2DA
330
17
100
AcDbEntity
  8
Defpoints
 62
7
100
AcDbPoint
 10
867.0
 20
1325.0
 30
0.0
  0
LINE
  5
2DB
330
17
100
AcDbEntity
  8
0
 62
7
100
AcDbLine
 10
1222.0
 20
1325.0
 30
0.0
 11
2126.0
 21
1325.0
 31
0.0
  0
LINE
  5
2DC
330
17
100
AcDbEntity
  8
0
 62
7
100
AcDbLine
 10
1222.0
 20
1628.0
 30
0.0
 11
2126.0
 21
1628.0
 31
0.0
  0
INSERT
  5
2DD
330
17
100
AcDbEntity
  8
0
 62
7
100
AcDbBlockReference
  2
_CLOSEDFILLED
 10
2116.0
 20
1325.0
 30
0.0
 41
20.0
 42
20.0
 50
270.0
  0
INSERT
  5
2DF
330
17
100
AcDbEntity
  8
0
 62
7
100
AcDbBlockReference
  2
_CLOSEDFILLED
 10
2116.0
 20
1628.0
 30
0.0
 41
20.0
 42
20.0
 50
90.0
  0
LINE
  5
2E1
330
17
100
AcDbEntity
  8
0
 62
7
100
AcDbLine
 10
2116.0
 20
1345.0
 30
0.0
 11
2116.0
 21
1446.5
 31
0.0
  0
LINE
  5
2E2
330
17
100
AcDbEntity
  8
0
 62
7
100
AcDbLine
 10
2116.0
 20
1506.5
 30
0.0
 11
2116.0
 21
1608.0
 31
0.0
  0
MTEXT
  5
2E3
330
17
100
AcDbEntity
  8
0
 62
7
100
AcDbMText
 10
2116.0
 20
1476.5
 30
0.0
 40
20.0
 71
5
  1
303
 50
90.0
  0
POINT
  5
2E4
330
17
100
AcDbEntity
  8
Defpoints
 62
7
100
AcDbPoint
 10
2116.0
 20
1325.0
 30
0.0
  0
POINT
  5
2E5
330
17
100
AcDbEntity
  8
Defpoints
 62
7
100
AcDbPoint
 10
1217.0
 20
1325.0
 30
0.0
  0
POINT
  5
2E6
330
17
100
AcDbEntity
  8
Defpoints
 62
7
100
AcDbPoint
 10
1217.0
 20
1628.0
 30
0.0
  0
LINE
  5
2E7
330
17
100
AcDbEntity
  8
0
 62
7
100
AcDbLine
 10
1222.0
 20
1628.0
 30
0.0
 11
2126.0
 21
1628.0
 31
0.0
  0
LINE
  5
2E8
330
17
100
AcDbEntity
  8
0
 62
7
100
AcDbLine
 10
1222.0
 20
1897.0
 30
0.0
 11
2126.0
 21
1897.0
 31
0.0
  0
INSERT
  5
2E9
330
17
100
AcDbEntity
  8
0
 62
7
100
AcDbBlockReference
  2
_CLOSEDFILLED
 10
2116.0
 20
1628.0
 30
0.0
 41
20.0
 42
20.0
 50
270.0
  0
INSERT
  5
2EB
330
17
100
AcDbEntity
  8
0
 62
7
100
AcDbBlockReference
  2
_CLOSEDFILLED
 10
2116.0
 20
1897.0
 30
0.0
 41
20.0
 42
20.0
 50
90.0
  0
LINE
  5
2ED
330
17
100
AcDbEntity
  8
0
 62
7
100
AcDbLine
 10
2116.0
 20
1648.0
 30
0.0
 11
2116.0
 21
1732.5
 31
0.0
  0
LINE
  5
2EE
330
17
100
AcDbEntity
  8
0
 62
7
100
AcDbLine
 10
2116.0
 20
1792.5
 30
0.0
 11
2116.0
 21
1877.0
 31
0.0
  0
MTEXT
  5
2EF
330
17
100
AcDbEntity
  8
0
 62
7
100
AcDbMText
 10
2116.0
 20
1762.5
 30
0.0
 40
20.0
 71
5
  1
269
 50
90.0
  0
POINT
  5
2F0
330
17
100
AcDbEntity
  8
Defpoints
 62
7
100
AcDbPoint
 10
2116.0
 20
1628.0
 30
0.0
  0
POINT
  5
2F1
330
17
100
AcDbEntity
  8
Defpoints
 62
7
100
AcDbPoint
 10
1217.0
 20
1628.0
 30
0.0
  0
POINT
  5
2F2
330
17
100
AcDbEntity
  8
Defpoints
 62
7
100
AcDbPoint
 10
1217.0
 20
1897.0
 30
0.0
  0
LINE
  5
2F3
330
17
100
AcDbEntity
  8
0
 62
7
100
AcDbLine
 10
1222.0
 20
1897.0
 30
0.0
 11
2126.0
 21
1897.0
 31
0.0
  0
LINE
  5
2F4
330
17
100
AcDbEntity
  8
0
 62
7
100
AcDbLine
 10
1222.0
 20
2099.0
 30
0.0
 11
2126.0
 21
2099.0
 31
0.0
  0
INSERT
  5
2F5
330
17
100
AcDbEntity
  8
0
 62
7
100
AcDbBlockReference
  2
_CLOSEDFILLED
 10
2116.0
 20
1897.0
 30
0.0
 41
20.0
 42
20.0
 50
270.0
  0
INSERT
  5
2F7
330
17
100
AcDbEntity
  8
0
 62
7
100
AcDbBlockReference
  2
_CLOSEDFILLED
 10
2116.0
 20
2099.0
 30
0.0
 41
20.0
 42
20.0
 50
90.0
  0
LINE
  5
2F9
330
17
100
AcDbEntity
  8
0
 62
7
100
AcDbLine
 10
2116.0
 20
1917.0
 30
0.0
 11
2116.0
 21
1968.0
 31
0.0
  0
LINE
  5
2FA
330
17
100
AcDbEntity
  8
0
 62
7
100
AcDbLine
 10
2116.0
 20
2028.0
 30
0.0
 11
2116.0
 21
2079.0
 31
0.0
  0
MTEXT
  5
2FB
330
17
100
AcDbEntity
  8
0
 62
7
100
AcDbMText
 10
2116.0
 20
1998.0
 30
0.0
 40
20.0
 71
5
  1
202
 50
90.0
  0
POINT
  5
2FC
330
17
100
AcDbEntity
  8
Defpoints
 62
7
100
AcDbPoint
 10
2116.0
 20
1897.0
 30
0.0
  0
POINT
  5
2FD
330
17
100
AcDbEntity
  8
Defpoints
 62
7
100
AcDbPoint
 10
1217.0
 20
1897.0
 30
0.0
  0
POINT
  5
2FE
330
17
100
AcDbEntity
  8
Defpoints
 62
7
100
AcDbPoint
 10
1217.0
 20
2099.0
 30
0.0
  0
LINE
  5
2FF
330
17
100
AcDbEntity
  8
0
 62
7
100
AcDbLine
 10
1217.0
 20
2104.0
 30
0.0
 11
1217.0
 21
2179.0
 31
0.0
  0
LINE
  5
300
330
17
100
AcDbEntity
  8
0
 62
7
100
AcDbLine
 10
1560.0
 20
2104.0
 30
0.0
 11
1560.0
 21
2179.0
 31
0.0
  0
INSERT
  5
301
330
17
100
AcDbEntity
  8
0
 62
7
100
AcDbBlockReference
  2
_CLOSEDFILLED
 10
1217.0
 20
2169.0
 30
0.0
 41
20.0
 42
20.0
 50
180.0
  0
INSERT
  5
303
330
17
100
AcDbEntity
  8
0
 62
7
100
AcDbBlockReference
  2
_CLOSEDFILLED
 10
1560.0
 20
2169.0
 30
0.0
 41
20.0
 42
20.0
  0
LINE
  5
305
330
17
100
AcDbEntity
  8
0
 62
7
100
AcDbLine
 10
1237.0
 20
2169.0
 30
0.0
 11
1358.5
 21
2169.0
 31
0.0
  0
LINE
  5
306
330
17
100
AcDbEntity
  8
0
 62
7
100
AcDbLine
 10
1418.5
 20
2169.0
 30
0.0
 11
1540.0
 21
2169.0
 31
0.0
  0
MTEXT
  5
307
330
17
100
AcDbEntity
  8
0
 62
7
100
AcDbMText
 10
1388.5
 20
2169.0
 30
0.0
 40
20.0
 71
5
  1
343
  0
POINT
  5
308
330
17
100
AcDbEntity
  8
Defpoints
 62
7
100
AcDbPoint
 10
1217.0
 20
2169.0
 30
0.0
  0
POINT
  5
309
330
17
100
AcDbEntity
  8
Defpoints
 62
7
100
AcDbPoint
 10
1217.0
 20
2099.0
 30
0.0
  0
POINT
  5
30A
330
17
100
AcDbEntity
  8
Defpoints
 62
7
100
AcDbPoint
 10
1560.0
 20
2099.0
 30
0.0
  0
LINE
  5
30B
330
17
100
AcDbEntity
  8
0
 62
7
100
AcDbLine
 10
1560.0
 20
2104.0
 30
0.0
 11
1560.0
 21
2179.0
 31
0.0
  0
LINE
  5
30C
330
17
100
AcDbEntity
  8
0
 62
7
100
AcDbLine
 10
1699.0
 20
2104.0
 30
0.0
 11
1699.0
 21
2179.0
 31
0.0
  0
INSERT
  5
30D
330
17
100
AcDbEntity
  8
0
 62
7
100
AcDbBlockReference
  2
_CLOSEDFILLED
 10
1560.0
 20
2169.0
 30
0.0
 41
20.0
 42
20.0
 50
180.0
  0
INSERT
  5
30F
330
17
100
AcDbEntity
  8
0
 62
7
100
AcDbBlockReference
  2
_CLOSEDFILLED
 10
1699.0
 20
2169.0
 30
0.0
 41
20.0
 42
20.0
  0
LINE
  5
311
330
17
100
AcDbEntity
  8
0
 62
7
100
AcDbLine
 10
1580.0
 20
2169.0
 30
0.0
 11
1599.5
 21
2169.0
 31
0.0
  0
LINE
  5
312
330
17
100
AcDbEntity
  8
0
 62
7
100
AcDbLine
 10
1659.5
 20
2169.0
 30
0.0
 11
1679.0
 21
2169.0
 31
0.0
  0
MTEXT
  5
313
330
17
100
AcDbEntity
  8
0
 62
7
100
AcDbMText
 10
1629.5
 20
2169.0
 30
0.0
 40
20.0
 71
5
  1
139
  0
POINT
  5
314
330
17
100
AcDbEntity
  8
Defpoints
 62
7
100
AcDbPoint
 10
1560.0
 20
2169.0
 30
0.0
  0
POINT
  5
315
330
17
100
AcDbEntity
  8
Defpoints
 62
7
100
AcDbPoint
 10
1560.0
 20
2099.0
 30
0.0
  0
POINT
  5
316
330
17
100
AcDbEntity
  8
Defpoints
 62
7
100
AcDbPoint
 10
1699.0
 20
2099.0
 30
0.0
  0
LINE
  5
317
330
17
100
AcDbEntity
  8
0
 62
7
100
AcDbLine
 10
1699.0
 20
2104.0
 30
0.0
 11
1699.0
 21
2179.0
 31
0.0
  0
LINE
  5
318
330
17
100
AcDbEntity
  8
0
 62
7
100
AcDbLine
 10
2042.0
 20
2104.0
 30
0.0
 11
2042.0
 21
2179.0
 31
0.0
  0
INSERT
  5
319
330
17
100
AcDbEntity
  8
0
 62
7
100
AcDbBlockReference
  2
_CLOSEDFILLED
 10
1699.0
 20
2169.0
 30
0.0
 41
20.0
 42
20.0
 50
180.0
  0
INSERT
  5
31B
330
17
100
AcDbEntity
  8
0
 62
7
100
AcDbBlockReference
  2
_CLOSEDFILLED
 10
2042.0
 20
2169.0
 30
0.0
 41
20.0
 42
20.0
  0
LINE
  5
31D
330
17
100
AcDbEntity
  8
0
 62
7
100
AcDbLine
 10
1719.0
 20
2169.0
 30
0.0
 11
1840.5
 21
2169.0
 31
0.0
  0
LINE
  5
31E
330
17
100
AcDbEntity
  8
0
 62
7
100
AcDbLine
 10
1900.5
 20
2169.0
 30
0.0
 11
2022.0
 21
2169.0
 31
0.0
  0
MTEXT
  5
31F
330
17
100
AcDbEntity
  8
0
 62
7
100
AcDbMText
 10
1870.5
 20
2169.0
 30
0.0
 40
20.0
 71
5
  1
343
  0
POINT
  5
320
330
17
100
AcDbEntity
  8
Defpoints
 62
7
100
AcDbPoint
 10
1699.0
 20
2169.0
 30
0.0
  0
POINT
  5
321
330
17
100
AcDbEntity
  8
Defpoints
 62
7
100
AcDbPoint
 10
1699.0
 20
2099.0
 30
0.0
  0
POINT
  5
322
330
17
100
AcDbEntity
  8
Defpoints
 62
7
100
AcDbPoint
 10
2042.0
 20
2099.0
 30
0.0
  0
LINE
  5
323
330
17
100
AcDbEntity
  8
0
 62
7
100
AcDbLine
 10
1217.0
 20
1320.0
 30
0.0
 11
1217.0
 21
1228.0
 31
0.0
  0
LINE
  5
324
330
17
100
AcDbEntity
  8
0
 62
7
100
AcDbLine
 10
1428.5
 20
1320.0
 30
0.0
 11
1428.5
 21
1228.0
 31
0.0
  0
INSERT
  5
325
330
17
100
AcDbEntity
  8
0
 62
7
100
AcDbBlockReference
  2
_CLOSEDFILLED
 10
1217.0
 20
1238.0
 30
0.0
 41
20.0
 42
20.0
 50
180.0
  0
INSERT
  5
327
330
17
100
AcDbEntity
  8
0
 62
7
100
AcDbBlockReference
  2
_CLOSEDFILLED
 10
1428.5
 20
1238.0
 30
0.0
 41
20.0
 42
20.0
  0
LINE
  5
329
330
17
100
AcDbEntity
  8
0
 62
7
100
AcDbLine
 10
1237.0
 20
1238.0
 30
0.0
 11
1272.75
 21
1238.0
 31
0.0
  0
LINE
  5
32A
330
17
100
AcDbEntity
  8
0
 62
7
100
AcDbLine
 10
1372.75
 20
1238.0
 30
0.0
 11
1408.5
 21
1238.0
 31
0.0
  0
MTEXT
  5
32B
330
17
100
AcDbEntity
  8
0
 62
7
100
AcDbMText
 10
1322.75
 20
1238.0
 30
0.0
 40
20.0
 71
5
  1
211.5
  0
POINT
  5
32C
330
17
100
AcDbEntity
  8
Defpoints
 62
7
100
AcDbPoint
 10
1217.0
 20
1238.0
 30
0.0
  0
POINT
  5
32D
330
17
100
AcDbEntity
  8
Defpoints
 62
7
100
AcDbPoint
 10
1217.0
 20
1325.0
 30
0.0
  0
POINT
  5
32E
330
17
100
AcDbEntity
  8
Defpoints
 62
7
100
AcDbPoint
 10
1428.5
 20
1325.0
 30
0.0
  0
LINE
  5
32F
330
17
100
AcDbEntity
  8
0
 62
7
100
AcDbLine
 10
1428.5
 20
1320.0
 30
0.0
 11
1428.5
 21
1228.0
 31
0.0
  0
LINE
  5
330
330
17
100
AcDbEntity
  8
0
 62
7
100
AcDbLine
 10
1594.5
 20
1320.0
 30
0.0
 11
1594.5
 21
1228.0
 31
0.0
  0
INSERT
  5
331
330
17
100
AcDbEntity
  8
0
 62
7
100
AcDbBlockReference
  2
_CLOSEDFILLED
 10
1428.5
 20
1238.0
 30
0.0
 41
20.0
 42
20.0
 50
180.0
  0
INSERT
  5
333
330
17
100
AcDbEntity
  8
0
 62
7
100
AcDbBlockReference
  2
_CLOSEDFILLED
 10
1594.5
 20
1238.0
 30
0.0
 41
20.0
 42
20.0
  0
LINE
  5
335
330
17
100
AcDbEntity
  8
0
 62
7
100
AcDbLine
 10
1448.5
 20
1238.0
 30
0.0
 11
1481.5
 21
1238.0
 31
0.0
  0
LINE
  5
336
330
17
100
AcDbEntity
  8
0
 62
7
100
AcDbLine
 10
1541.5
 20
1238.0
 30
0.0
 11
1574.5
 21
1238.0
 31
0.0
  0
MTEXT
  5
337
330
17
100
AcDbEntity
  8
0
 62
7
100
AcDbMText
 10
1511.5
 20
1238.0
 30
0.0
 40
20.0
 71
5
  1
166
  0
POINT
  5
338
330
17
100
AcDbEntity
  8
Defpoints
 62
7
100
AcDbPoint
 10
1428.5
 20
1238.0
 30
0.0
  0
POINT
  5
339
330
17
100
AcDbEntity
  8
Defpoints
 62
7
100
AcDbPoint
 10
1428.5
 20
1325.0
 30
0.0
  0
POINT
  5
33A
330
17
100
AcDbEntity
  8
Defpoints
 62
7
100
AcDbPoint
 10
1594.5
 20
1325.0
 30
0.0
  0
LINE
  5
33B
330
17
100
AcDbEntity
  8
0
 62
7
100
AcDbLine
 10
1594.5
 20
1320.0
 30
0.0
 11
1594.5
 21
1228.0
 31
0.0
  0
LINE
  5
33C
330
17
100
AcDbEntity
  8
0
 62
7
100
AcDbLine
 10
1664.5
 20
1320.0
 30
0.0
 11
1664.5
 21
1228.0
 31
0.0
  0
INSERT
  5
33D
330
17
100
AcDbEntity
  8
0
 62
7
100
AcDbBlockReference
  2
_CLOSEDFILLED
 10
1594.5
 20
1238.0
 30
0.0
 41
20.0
 42
20.0
 50
180.0
  0
INSERT
  5
33F
330
17
100
AcDbEntity
  8
0
 62
7
100
AcDbBlockReference
  2
_CLOSEDFILLED
 10
1664.5
 20
1238.0
 30
0.0
 41
20.0
 42
20.0
  0
LINE
  5
341
330
17
100
AcDbEntity
  8
0
 62
7
100
AcDbLine
 10
1614.5
 20
1238.0
 30
0.0
 11
1644.5
 21
1238.0
 31
0.0
  0
MTEXT
  5
342
330
17
100
AcDbEntity
  8
0
 62
7
100
AcDbMText
 10
1629.5
 20
1263.0
 30
0.0
 40
20.0
 71
5
  1
70
  0
POINT
  5
343
330
17
100
AcDbEntity
  8
Defpoints
 62
7
100
AcDbPoint
 10
1594.5
 20
1238.0
 30
0.0
  0
POINT
  5
344
330
17
100
AcDbEntity
  8
Defpoints
 62
7
100
AcDbPoint
 10
1594.5
 20
1325.0
 30
0.0
  0
POINT
  5
345
330
17
100
AcDbEntity
  8
Defpoints
 62
7
100
AcDbPoint
 10
1664.5
 20
1325.0
 30
0.0
  0
LINE
  5
346
330
17
100
AcDbEntity
  8
0
 62
7
100
AcDbLine
 10
1664.5
 20
1320.0
 30
0.0
 11
1664.5
 21
1228.0
 31
0.0
  0
LINE
  5
347
330
17
100
AcDbEntity
  8
0
 62
7
100
AcDbLine
 10
1830.5
 20
1320.0
 30
0.0
 11
1830.5
 21
1228.0
 31
0.0
  0
INSERT
  5
348
330
17
100
AcDbEntity
  8
0
 62
7
100
AcDbBlockReference
  2
_CLOSEDFILLED
 10
1664.5
 20
1238.0
 30
0.0
 41
20.0
 42
20.0
 50
180.0
  0
INSERT
  5
34A
330
17
100
AcDbEntity
  8
0
 62
7
100
AcDbBlockReference
  2
_CLOSEDFILLED
 10
1830.5
 20
1238.0
 30
0.0
 41
20.0
 42
20.0
  0
LINE
  5
34C
330
17
100
AcDbEntity
  8
0
 62
7
100
AcDbLine
 10
1684.5
 20
1238.0
 30
0.0
 11
1717.5
 21
1238.0
 31
0.0
  0
LINE
  5
34D
330
17
100
AcDbEntity
  8
0
 62
7
100
AcDbLine
 10
1777.5
 20
1238.0
 30
0.0
 11
1810.5
 21
1238.0
 31
0.0
  0
MTEXT
  5
34E
330
17
100
AcDbEntity
  8
0
 62
7
100
AcDbMText
 10
1747.5
 20
1238.0
 30
0.0
 40
20.0
 71
5
  1
166
  0
POINT
  5
34F
330
17
100
AcDbEntity
  8
Defpoints
 62
7
100
AcDbPoint
 10
1664.5
 20
1238.0
 30
0.0
  0
POINT
  5
350
330
17
100
AcDbEntity
  8
Defpoints
 62
7
100
AcDbPoint
 10
1664.5
 20
1325.0
 30
0.0
  0
POINT
  5
351
330
17
100
AcDbEntity
  8
Defpoints
 62
7
100
AcDbPoint
 10
1830.5
 20
1325.0
 30
0.0
  0
LINE
  5
352
330
17
100
AcDbEntity
  8
0
 62
7
100
AcDbLine
 10
1830.5
 20
1320.0
 30
0.0
 11
1830.5
 21
1228.0
 31
0.0
  0
LINE
  5
353
330
17
100
AcDbEntity
  8
0
 62
7
100
AcDbLine
 10
2042.0
 20
1320.0
 30
0.0
 11
2042.0
 21
1228.0
 31
0.0
  0
INSERT
  5
354
330
17
100
AcDbEntity
  8
0
 62
7
100
AcDbBlockReference
  2
_CLOSEDFILLED
 10
1830.5
 20
1238.0
 30
0.0
 41
20.0
 42
20.0
 50
180.0
  0
INSERT
  5
356
330
17
100
AcDbEntity
  8
0
 62
7
100
AcDbBlockReference
  2
_CLOSEDFILLED
 10
2042.0
 20
1238.0
 30
0.0
 41
20.0
 42
20.0
  0
LINE
  5
358
330
17
100
AcDbEntity
  8
0
 62
7
100
AcDbLine
 10
1850.5
 20
1238.0
 30
0.0
 11
1886.25
 21
1238.0
 31
0.0
  0
LINE
  5
359
330
17
100
AcDbEntity
  8
0
 62
7
100
AcDbLine
 10
1986.25
 20
1238.0
 30
0.0
 11
2022.0
 21
1238.0
 31
0.0
  0
MTEXT
  5
35A
330
17
100
AcDbEntity
  8
0
 62
7
100
AcDbMText
 10
1936.25
 20
1238.0
 30
0.0
 40
20.0
 71
5
  1
211.5
  0
POINT
  5
35B
330
17
100
AcDbEntity
  8
Defpoints
 62
7
100
AcDbPoint
 10
1830.5
 20
1238.0
 30
0.0
  0
POINT
  5
35C
330
17
100
AcDbEntity
  8
Defpoints
 62
7
100
AcDbPoint
 10
1830.5
 20
1325.0
 30
0.0
  0
POINT
  5
35D
330
17
100
AcDbEntity
  8
Defpoints
 62
7
100
AcDbPoint
 10
2042.0
 20
1325.0
 30
0.0
  0
ENDSEC
  0
SECTION
  2
OBJECTS
  0
DICTIONARY
  5
A
330
0
100
AcDbDictionary
281
1
  3
ACAD_COLOR
350
B
  3
ACAD_GROUP
350
C
  3
ACAD_LAYOUT
350
D
  3
ACAD_MATERIAL
350
E
  3
ACAD_MLEADERSTYLE
350
F
  3
ACAD_MLINESTYLE
350
10
  3
ACAD_PLOTSETTINGS
350
11
  3
ACAD_PLOTSTYLENAME
350
12
  3
ACAD_SCALELIST
350
14
  3
ACAD_TABLESTYLE
350
15
  3
ACAD_VISUALSTYLE
350
16
  3
EZDXF_META
350
2D
  0
DICTIONARY
  5
B
330
A
100
AcDbDictionary
281
1
  0
DICTIONARY
  5
C
330
A
100
AcDbDictionary
281
1
  0
DICTIONARY
  5
D
330
A
100
AcDbDictionary
281
1
  3
Model
350
1A
  3
Layout1
350
1E
  0
DICTIONARY
  5
E
330
A
100
AcDbDictionary
281
1
  3
ByBlock
350
1F
  3
ByLayer
350
20
  3
Global
350
21
  0
DICTIONARY
  5
F
330
A
100
AcDbDictionary
281
1
  3
Standard
350
2C
  0
DICTIONARY
  5
10
330
A
100
AcDbDictionary
281
1
  3
Standard
350
22
  0
DICTIONARY
  5
11
330
A
100
AcDbDictionary
281
1
  0
ACDBDICTIONARYWDFLT
  5
12
330
A
100
AcDbDictionary
281
1
  3
Normal
350
13
100
AcDbDictionaryWithDefault
340
13
  0
ACDBPLACEHOLDER
  5
13
330
12
  0
DICTIONARY
  5
14
330
A
100
AcDbDictionary
281
1
  0
DICTIONARY
  5
15
330
A
100
AcDbDictionary
281
1
  0
DICTIONARY
  5
16
330
A
100
AcDbDictionary
281
1
  0
LAYOUT
  5
1A
330
D
100
AcDbPlotSettings
  1

  4
A3
  6

 40
7.5
 41
20.0
 42
7.5
 43
20.0
 44
420.0
 45
297.0
 46
0.0
 47
0.0
 48
0.0
 49
0.0
140
0.0
141
0.0
142
1.0
143
1.0
 70
1024
 72
1
 73
0
 74
5
  7

 75
16
 76
0
 77
2
 78
300
147
1.0
148
0.0
149
0.0
100
AcDbLayout
  1
Model
 70
1
 71
0
 10
0.0
 20
0.0
 11
420.0
 21
297.0
 12
0.0
 22
0.0
 32
0.0
 14
1e+20
 24
1e+20
 34
1e+20
 15
-1e+20
 25
-1e+20
 35
-1e+20
146
0.0
 13
0.0
 23
0.0
 33
0.0
 16
1.0
 26
0.0
 36
0.0
 17
0.0
 27
1.0
 37
0.0
 76
1
330
17
  0
LAYOUT
  5
1E
330
D
100
AcDbPlotSettings
  1

  4
A3
  6

 40
7.5
 41
20.0
 42
7.5
 43
20.0
 44
420.0
 45
297.0
 46
0.0
 47
0.0
 48
0.0
 49
0.0
140
0.0
141
0.0
142
1.0
143
1.0
 70
0
 72
1
 73
0
 74
5
  7

 75
16
 76
0
 77
2
 78
300
147
1.0
148
0.0
149
0.0
100
AcDbLayout
  1
Layout1
 70
1
 71
1
 10
0.0
 20
0.0
 11
420.0
 21
297.0
 12
0.0
 22
0.0
 32
0.0
 14
1e+20
 24
1e+20
 34
1e+20
 15
-1e+20
 25
-1e+20
 35
-1e+20
146
0.0
 13
0.0
 23
0.0
 33
0.0
 16
1.0
 26
0.0
 36
0.0
 17
0.0
 27
1.0
 37
0.0
 76
1
330
1B
  0
MATERIAL
  5
1F
102
{ACAD_REACTORS
330
E
102
}
330
E
100
AcDbMaterial
  1
ByBlock
  2

 70
0
 40
1.0
 71
1
 41
1.0
 91
-1023410177
 42
1.0
 72
1
  3

 73
1
 74
1
 75
1
 44
0.5
 73
0
 45
1.0
 46
1.0
 77
1
  4

 78
1
 79
1
170
1
 48
1.0
171
1
  6

172
1
173
1
174
1
140
1.0
141
1.0
175
1
  7

176
1
177
1
178
1
143
1.0
179
1
  8

270
1
271
1
272
1
145
1.0
146
1.0
273
1
  9

274
1
275
1
276
1
 42
1.0
 72
1
  3

 73
1
 74
1
 75
1
 94
63
  0
MATERIAL
  5
20
102
{ACAD_REACTORS
330
E
102
}
330
E
100
AcDbMaterial
  1
ByLayer
  2

 70
0
 40
1.0
 71
1
 41
1.0
 91
-1023410177
 42
1.0
 72
1
  3

 73
1
 74
1
 75
1
 44
0.5
 73
0
 45
1.0
 46
1.0
 77
1
  4

 78
1
 79
1
170
1
 48
1.0
171
1
  6

172
1
173
1
174
1
140
1.0
141
1.0
175
1
  7

176
1
177
1
178
1
143
1.0
179
1
  8

270
1
271
1
272
1
145
1.0
146
1.0
273
1
  9

274
1
275
1
276
1
 42
1.0
 72
1
  3

 73
1
 74
1
 75
1
 94
63
  0
MATERIAL
  5
21
102
{ACAD_REACTORS
330
E
102
}
330
E
100
AcDbMaterial
  1
Global
  2

 70
0
 40
1.0
 71
1
 41
1.0
 91
-1023410177
 42
1.0
 72
1
  3

 73
1
 74
1
 75
1
 44
0.5
 73
0
 45
1.0
 46
1.0
 77
1
  4

 78
1
 79
1
170
1
 48
1.0
171
1
  6

172
1
173
1
174
1
140
1.0
141
1.0
175
1
  7

176
1
177
1
178
1
143
1.0
179
1
  8

270
1
271
1
272
1
145
1.0
146
1.0
273
1
  9

274
1
275
1
276
1
 42
1.0
 72
1
  3

 73
1
 74
1
 75
1
 94
63
  0
MLINESTYLE
  5
22
102
{ACAD_REACTORS
330
10
102
}
330
10
100
AcDbMlineStyle
  2
Standard
 70
0
  3

 62
256
 51
90.0
 52
90.0
 71
2
 49
0.5
 62
256
  6
BYLAYER
 49
-0.5
 62
256
  6
BYLAYER
  0
MLEADERSTYLE
  5
2C
102
{ACAD_REACTORS
330
F
102
}
330
F
100
AcDbMLeaderStyle
179
2
170
2
171
1
172
0
 90
2
 40
0.0
 41
0.0
173
1
 91
-1056964608
 92
-2
290
1
 42
2.0
291
1
 43
8.0
  3
Standard
 44
4.0
300

342
29
174
1
175
1
176
0
178
1
 93
-1056964608
 45
4.0
292
0
297
0
 46
4.0
 94
-1056964608
 47
1.0
 49
1.0
140
1.0
294
1
141
0.0
177
0
142
1.0
295
0
296
0
143
3.75
271
0
272
9
273
9
  0
DICTIONARY
  5
2D
330
A
100
AcDbDictionary
280
1
281
1
  3
CREATED_BY_EZDXF
350
2E
  3
WRITTEN_BY_EZDXF
350
360
  0
DICTIONARYVAR
  5
2E
330
2D
100
DictionaryVariables
280
0
  1
1.4.4 @ 2026-05-20T08:53:45.331691+00:00
  0
DICTIONARYVAR
  5
360
330
2D
100
DictionaryVariables
280
0
  1
1.4.4 @ 2026-05-20T08:53:45.401973+00:00
  0
ENDSEC
  0
EOF
